<?xml version="1.0" encoding="UTF-8"?>
<svg id="Calque_1" xmlns="http://www.w3.org/2000/svg" version="1.1" viewBox="0 0 159 85.1">
  <!-- Generator: Adobe Illustrator 29.1.0, SVG Export Plug-In . SVG Version: 2.1.0 Build 142)  -->
  <defs>
    <style>
      .st0 {
        fill: #a1bccd;
      }

      .st1 {
        fill: #13002c;
      }

      .st2 {
        fill: #fcc104;
      }
    </style>
  </defs>
  <path class="st2" d="M57.9,0v9h-14.2v38.1h-10.6V9h-14.2V0h39Z"/>
  <path class="st1" d="M131.3,47.1c-3-5.4-6.3-10.7-9.9-16-3.5-5.3-7.3-10.2-11.3-14.9v30.9h-10.5V0h8.6c1.5,1.5,3.2,3.3,5,5.5,1.8,2.2,3.7,4.5,5.5,7,1.9,2.5,3.8,5,5.6,7.7,1.9,2.7,3.6,5.2,5.2,7.7V0h10.5v47.1h-8.9.2Z"/>
  <path class="st2" d="M86.6,47.1c-.5-1.6-1.1-3.3-1.7-5s-1.2-3.4-1.8-5.2c0,0-7,.8-11.8,1.7-4.3.8-7.7,1.5-7.7,1.5-.6,1.7,0,.2-.7,2-.6,1.7-1.2,3.4-1.7,5h-11c1.8-5.1,3.5-9.8,5-14.1,1.6-4.3,3.1-8.4,4.7-12.2,1.5-3.8,3-7.4,4.5-10.8S67.4,3.2,69,0h10.1c1.5,3.3,3.1,6.6,4.6,10,1.5,3.4,3,7,4.5,10.8s3.1,7.9,4.7,12.2c1.6,4.3,3.3,9,5.1,14.1h-11.4,0ZM73.8,10.7c-.2.7-.6,1.6-1,2.8-.5,1.2-1,2.5-1.6,4.1-.6,1.5-1.2,3.2-2,5.1-.7,1.9-2.2,6.2-3,8.2,0,0,3.3-.7,4.9-.9,2.7-.5,9.3-1.4,9.3-1.4-.7-2-1.4-4-2.1-5.9s-1.3-3.6-1.9-5.1-1.1-2.9-1.6-4.1c-.5-1.2-.8-2.1-1.1-2.8h0Z"/>
  <g>
    <path class="st0" d="M8.6,78.3h1.8v6.2c-.2,0-.4,0-.7.2-.3,0-.6,0-1,.2s-.8,0-1.2.2h-1.3c-.9,0-1.8-.2-2.5-.5-.8-.3-1.4-.7-2-1.3-.5-.6-1-1.3-1.3-2.1C.1,80.4,0,79.4,0,78.3s.2-2.1.5-2.9c.3-.9.8-1.6,1.4-2.2.6-.6,1.2-1,2-1.3s1.6-.5,2.5-.5,1.1,0,1.6,0c.5,0,.9.2,1.2.3.3,0,.6.2.8.3l.4.2-.6,1.5c-.4-.2-.9-.4-1.5-.6s-1.2-.2-1.9-.2-1.3,0-1.8.4c-.6.2-1,.6-1.4,1s-.7,1-.9,1.7-.3,1.4-.3,2.2,0,1.5.3,2.1c.2.6.5,1.2.8,1.7.4.5.8.8,1.4,1.1.6.3,1.2.4,1.9.4h1.4c.4,0,.6,0,.8-.2v-5.1Z"/>
    <path class="st0" d="M20,79.2c.2.3.5.6.8,1s.6.9,1,1.4c.3.5.7,1,1,1.6.3.5.6,1.1.8,1.6h-2c-.3-.5-.5-1-.8-1.5s-.6-1-.9-1.4-.6-.9-.9-1.3-.6-.7-.8-1h-2.7v5.1h-1.8v-13c.5,0,1.1-.2,1.7-.3h1.8c1.8,0,3.3.3,4.2,1s1.5,1.7,1.5,3.1-.2,1.6-.7,2.2-1.1,1.1-2,1.4h-.2ZM17.2,73.1h-1.8v5h3c.5,0,.9-.2,1.3-.4.3-.2.6-.4.8-.8.2-.3.3-.8.3-1.3s0-.9-.3-1.2c-.2-.3-.4-.6-.8-.8-.3-.2-.7-.3-1.1-.4-.4,0-.9,0-1.4,0Z"/>
    <path class="st0" d="M25,78.2c0-1.1.2-2.1.5-3s.8-1.6,1.4-2.2,1.2-1,2-1.3,1.6-.4,2.4-.4,1.6,0,2.4.4c.8.3,1.4.7,2,1.3s1,1.3,1.4,2.2.5,1.9.5,3-.2,2.1-.5,3-.8,1.6-1.4,2.2-1.2,1-2,1.3-1.6.4-2.4.4-1.7,0-2.4-.4c-.8-.3-1.4-.7-2-1.3-.6-.6-1-1.3-1.4-2.2-.3-.9-.5-1.9-.5-3ZM26.9,78.2c0,.8.1,1.5.3,2.2.2.7.5,1.2.9,1.7s.8.8,1.4,1.1c.5.2,1.1.4,1.8.4s1.3,0,1.8-.4c.5-.2,1-.6,1.4-1.1s.7-1,.9-1.7.3-1.4.3-2.2,0-1.5-.3-2.2-.5-1.2-.9-1.7-.8-.8-1.4-1.1c-.5-.2-1.1-.4-1.8-.4s-1.3,0-1.8.4c-.5.2-1,.6-1.4,1.1s-.7,1-.9,1.7c-.2.7-.3,1.4-.3,2.2Z"/>
    <path class="st0" d="M45.4,85c-.9,0-1.6,0-2.2-.4-.6-.3-1.2-.6-1.6-1.1-.4-.5-.7-1-.9-1.6s-.3-1.3-.3-2.1v-8.3h1.8v8.1c0,1.3.3,2.3.9,2.9.6.6,1.3.9,2.3.9s.9,0,1.3-.2c.4,0,.7-.4,1-.7.3-.3.5-.7.6-1.2.2-.5.2-1,.2-1.7v-8.1h1.8v8.3c0,.7,0,1.4-.3,2.1-.2.6-.5,1.2-.9,1.6-.4.5-.9.8-1.6,1.1-.6.3-1.4.4-2.2.4h.1Z"/>
    <path class="st0" d="M57.3,71.5c1.8,0,3.3.4,4.3,1.1s1.5,1.8,1.5,3.1,0,1.4-.4,1.9-.7,1-1.2,1.3-1.1.6-1.9.7c-.7.2-1.6.2-2.5.2h-1.5v4.9h-1.8v-13c.5,0,1.1-.2,1.7-.3h1.8ZM57.5,73.1h-1.8v5.2h1.4c.6,0,1.2,0,1.7,0,.5,0,.9-.2,1.3-.4.3-.2.6-.5.8-.8s.3-.8.3-1.3,0-.9-.3-1.3-.5-.6-.8-.8-.7-.3-1.2-.4-.9,0-1.4,0h0Z"/>
    <path class="st0" d="M65.6,84.8v-13.2h8v1.6h-6.2v3.9h5.5v1.5h-5.5v4.6h6.7v1.6h-8.5Z"/>
    <path class="st0" d="M90.5,80.5c0,.6,0,1.2-.2,1.8,0,.5-.4,1-.7,1.4-.3.4-.8.7-1.3,1s-1.3.4-2.1.4-.8,0-1.2,0c-.4,0-.7-.2-1-.3-.3,0-.5-.2-.8-.3-.2,0-.4-.2-.5-.4l.7-1.5c.3.2.6.4,1,.6s1,.3,1.6.3c.9,0,1.6-.2,2-.7s.6-1.3.6-2.4v-8.8h1.8v8.9h0Z"/>
    <path class="st0" d="M102.5,84.8c-.2-.6-.4-1.1-.6-1.7s-.4-1.1-.6-1.7h-6l-1.2,3.4h-1.9c.5-1.4,1-2.7,1.4-3.9.4-1.2.9-2.3,1.3-3.4s.8-2.1,1.3-3c.4-1,.9-1.9,1.3-2.9h1.7c.5,1,.9,1.9,1.3,2.9s.8,2,1.3,3c.4,1.1.9,2.2,1.3,3.4s.9,2.5,1.4,3.9h-2ZM100.7,79.9c-.4-1.1-.8-2.2-1.2-3.2-.4-1-.8-2-1.2-3-.4.9-.9,1.9-1.3,3-.4,1-.8,2.1-1.2,3.2,0,0,4.9,0,4.9,0Z"/>
    <path class="st0" d="M112.9,79.2c.2.3.5.6.8,1s.6.9,1,1.4c.3.5.7,1,1,1.6.3.5.6,1.1.8,1.6h-2c-.3-.5-.5-1-.8-1.5s-.6-1-.9-1.4-.6-.9-.9-1.3-.6-.7-.8-1h-2.7v5.1h-1.8v-13c.5,0,1.1-.2,1.7-.3h1.8c1.8,0,3.3.3,4.2,1s1.5,1.7,1.5,3.1-.2,1.6-.7,2.2-1.1,1.1-2,1.4h-.2ZM110.1,73.1h-1.8v5h3c.5,0,.9-.2,1.3-.4.3-.2.6-.4.8-.8.2-.3.3-.8.3-1.3s0-.9-.3-1.2c-.2-.3-.4-.6-.8-.8-.3-.2-.7-.3-1.1-.4-.4,0-.9,0-1.4,0Z"/>
    <path class="st0" d="M127.7,84.8c-.3-.5-.6-1-1-1.6s-.8-1.2-1.2-1.8c-.4-.6-.9-1.3-1.3-1.9-.5-.6-.9-1.3-1.3-1.9s-.9-1.2-1.3-1.7-.8-1-1.2-1.4v10.3h-1.8v-13.2h1.5c.6.6,1.2,1.4,1.9,2.2.7.8,1.3,1.7,2,2.6s1.3,1.8,1.9,2.6,1.1,1.6,1.5,2.3v-9.7h1.8v13.2h-1.5Z"/>
    <path class="st0" d="M132.7,71.6h1.8v13.2h-1.8v-13.2Z"/>
    <path class="st0" d="M146.9,84.8c-.2-.6-.4-1.1-.6-1.7s-.4-1.1-.6-1.7h-6l-1.2,3.4h-1.9c.5-1.4,1-2.7,1.4-3.9s.9-2.3,1.3-3.4c.4-1.1.8-2.1,1.3-3,.4-1,.9-1.9,1.3-2.9h1.7c.5,1,.9,1.9,1.3,2.9.4,1,.8,2,1.3,3,.4,1.1.9,2.2,1.3,3.4s.9,2.5,1.4,3.9c0,0-2,0-2,0ZM145.1,79.9c-.4-1.1-.8-2.2-1.2-3.2s-.8-2-1.2-3c-.4.9-.9,1.9-1.3,3-.4,1-.8,2.1-1.2,3.2h4.9Z"/>
    <path class="st0" d="M154.3,83.4c1.9,0,2.9-.7,2.9-2s0-.8-.3-1c-.2-.3-.4-.5-.7-.7s-.6-.4-1-.5c-.4-.2-.8-.3-1.2-.5-.5-.2-.9-.4-1.4-.6s-.8-.5-1.1-.7c-.3-.3-.6-.6-.8-1s-.3-.9-.3-1.4c0-1.2.4-2.1,1.2-2.7s1.9-1,3.2-1,1.5,0,2.2.3c.7.2,1.1.4,1.4.6l-.6,1.5c-.3-.2-.7-.3-1.2-.5s-1.1-.2-1.8-.2-.7,0-1,0-.6.2-.8.3-.4.3-.5.6c-.1.2-.2.5-.2.8s0,.7.2.9c.1.2.3.5.6.6.3.2.5.4.9.5.3.2.7.3,1.1.5.6.2,1.1.5,1.6.7s.9.5,1.2.8.6.7.8,1.1.3,1,.3,1.6c0,1.2-.4,2-1.3,2.7-.8.6-2,.9-3.6.9s-1,0-1.4,0c-.4,0-.8-.2-1.2-.2s-.6-.2-.9-.3-.4-.2-.6-.3l.6-1.5c.3.2.7.3,1.3.6.6.2,1.3.3,2.2.3l.2-.2Z"/>
  </g>
</svg>