<?xml version="1.0" encoding="UTF-8"?>
<svg id="Layer_1" data-name="Layer 1" xmlns="http://www.w3.org/2000/svg" viewBox="0 0 683.26 72.11">
  <defs>
    <style>
      .cls-1 {
        fill: #002d72;
        stroke-width: 0px;
      }
    </style>
  </defs>
  <g>
    <path class="cls-1" d="M115.6,57.58c11.91,0,19.02-7.61,21.33-19.32l14.72,5.91c-4.1,17.22-16.92,27.93-36.14,27.93-22.33,0-36.75-15.42-36.75-36.04C78.35,15.93,94.97-.39,115.5,0c18.52,0,30.24,10.21,33.24,23.33l-14.72,6.61c-2-9.71-9.11-15.42-18.82-15.42-11.21,0-20.42,8.51-20.42,21.53s9.61,21.53,20.83,21.53Z"/>
    <path class="cls-1" d="M200.49,71.09c-.9-1.9-1.5-3.9-1.8-6.01-.3-2.1-.4-5.51-.4-10.01,0-6.91-3.7-10.51-10.21-10.51h-13.02v26.53h-16.02V1.01h35.04c14.72,0,23.53,8.71,23.53,20.53,0,3.9-1.3,7.61-3.8,11.11-2.5,3.5-5.71,5.91-9.71,7.41,5.91,1.6,10.31,6.91,10.71,14.52.4,6.81,1.2,11.41,3.7,14.92v1.6h-18.02ZM193.58,30.04c5.71,0,8.51-3.2,8.51-7.51s-2.8-7.01-8.51-7.01h-18.52v14.52h18.52Z"/>
    <path class="cls-1" d="M296.81,36.05c.4,19.52-16.92,36.55-37.05,36.04-20.12.5-37.45-16.52-37.05-36.04C222.32,16.53,239.64-.39,259.76,0c20.12-.4,37.45,16.52,37.05,36.04ZM280.79,36.05c0-12.82-9.31-21.03-21.03-21.03s-21.03,8.21-21.03,21.03,9.31,21.03,21.03,21.03,21.03-8.21,21.03-21.03Z"/>
    <path class="cls-1" d="M305.01,1.01h36.04c13.62,0,22.53,7.11,22.53,18.02,0,7.61-3.8,12.91-11.51,16.02,8.81,2.5,14.02,8.21,14.02,16.52,0,12.41-9.31,19.52-24.53,19.52h-36.54V1.01ZM340.55,28.04c4.91,0,7.51-2.4,7.51-6.51,0-3.6-2.7-6.01-7.51-6.01h-19.52v12.51h19.52ZM342.56,56.58c4.91,0,8.01-2.7,8.01-7.01s-3.1-7.01-8.01-7.01h-21.53v14.02h21.53Z"/>
    <path class="cls-1" d="M501.24,15.53h-24.03v55.57h-16.02V15.53h-24.03V1.01h64.08v14.52Z"/>
    <path class="cls-1" d="M507.84,1.01h16.02v70.09h-16.02V1.01Z"/>
    <path class="cls-1" d="M568.92,57.58c11.91,0,19.02-7.61,21.33-19.32l14.72,5.91c-4.1,17.22-16.92,27.93-36.14,27.93-22.33,0-36.75-15.42-36.75-36.04C531.67,15.93,548.29-.39,568.82,0c18.52,0,30.24,10.21,33.24,23.33l-14.72,6.61c-2-9.71-9.11-15.42-18.82-15.42-11.21,0-20.42,8.51-20.42,21.53s9.61,21.53,20.83,21.53Z"/>
    <path class="cls-1" d="M27.37,4.6L3.71,28.27c-2.38,2.38-3.71,5.6-3.71,8.96v33.87h14.92v-31.26c0-1.08.43-2.11,1.19-2.87l17.36-17.36c1.58-1.58,4.15-1.58,5.73,0l17.36,17.36c.76.76,1.19,1.79,1.19,2.87v31.26h14.92v-33.87c0-3.36-1.33-6.58-3.71-8.96L45.29,4.6c-4.95-4.95-12.97-4.95-17.92,0Z"/>
    <path class="cls-1" d="M28.54,71.09h15.58c2.35,0,3.81-2.56,2.62-4.58l-7.79-13.25c-1.18-2-4.07-2-5.24,0l-7.79,13.25c-1.19,2.03.27,4.58,2.62,4.58Z"/>
    <path class="cls-1" d="M399.71,4.6l-23.66,23.67c-2.38,2.38-3.71,5.6-3.71,8.96v33.87h14.92v-31.26c0-1.08.43-2.11,1.19-2.87l17.36-17.36c1.58-1.58,4.15-1.58,5.73,0l17.36,17.36c.76.76,1.19,1.79,1.19,2.87v31.26h14.92v-33.87c0-3.36-1.33-6.58-3.71-8.96l-23.66-23.67c-4.95-4.95-12.97-4.95-17.92,0Z"/>
    <path class="cls-1" d="M400.88,71.09h15.58c2.35,0,3.81-2.56,2.62-4.58l-7.79-13.25c-1.18-2-4.07-2-5.24,0l-7.79,13.25c-1.19,2.03.27,4.58,2.62,4.58Z"/>
    <path class="cls-1" d="M637.69,4.6l-23.66,23.67c-2.38,2.38-3.71,5.6-3.71,8.96v33.87h14.92v-31.26c0-1.08.43-2.11,1.19-2.87l17.36-17.36c1.58-1.58,4.15-1.58,5.73,0l17.36,17.36c.76.76,1.19,1.79,1.19,2.87v31.26h14.92v-33.87c0-3.36-1.33-6.58-3.71-8.96l-23.66-23.67c-4.95-4.95-12.97-4.95-17.92,0Z"/>
    <path class="cls-1" d="M638.86,71.09h15.58c2.35,0,3.81-2.56,2.62-4.58l-7.79-13.25c-1.18-2-4.07-2-5.24,0l-7.79,13.25c-1.19,2.03.27,4.58,2.62,4.58Z"/>
  </g>
  <path class="cls-1" d="M668.61,8.2c0-4.15,3.21-7.32,7.32-7.32s7.32,3.18,7.32,7.32-3.21,7.32-7.32,7.32-7.32-3.18-7.32-7.32ZM675.94,14.05c3.33,0,5.78-2.48,5.78-5.85s-2.39-5.85-5.72-5.85-5.78,2.48-5.78,5.85,2.48,5.85,5.72,5.85ZM673.23,4.52h3.11c1.67,0,2.7.94,2.7,2.39,0,1.1-.6,1.82-1.35,2.17l1.57,2.67h-1.98l-1.32-2.45h-1.01v2.45h-1.73v-7.23ZM676.25,7.82c.75,0,1.07-.35,1.07-.91s-.31-.88-1.07-.88h-1.29v1.79h1.29Z"/>
</svg>