<svg height="83.178" viewBox="0 0 83.178 83.178" width="83.178" xmlns="http://www.w3.org/2000/svg"><path d="m0 0h83.178v83.178h-83.178z"/><path d="m80.214 119.022a.013.013 0 0 0 0 .01c0 .012-.015.025-.02.04-.027.05-.057.1-.09.147a6.112 6.112 0 0 1 -.855.915 1.416 1.416 0 0 1 -1.616.276.94.94 0 0 1 -.343-.686v-6.538h1.452l1.609.012v-2.086l-1.136.02h-1.93v-1.88c.035-.945.057-1.552.057-1.574l-2.2-.06c0 .02.007.435.015 1.109v8.673c0 .239-.01.47-.017.694a4.036 4.036 0 0 1 -2.052 2.728l-.012-6.707v-.032a2.7 2.7 0 0 0 -2.8-2.835 2.44 2.44 0 0 0 -1.979.828l-2.076-.669c0 .062.017 8.194-.042 8.171a2.393 2.393 0 0 1 -1.877 1.1 6.859 6.859 0 0 1 -.1-2.9 23.693 23.693 0 0 0 .08-2.957 3.388 3.388 0 0 0 -3.041-3.568c-.122-.012-3.417-.363-4.411 3.847a12.639 12.639 0 0 0 -.211 5.354 6.473 6.473 0 0 1 -1.688.408c-1.007-3.919.681-8.129.811-8.425.385-.888.925-1.917.184-2.723s-2.188-.681-3.292-.577c-.45.042-.893.065-1.32.07a4.273 4.273 0 0 0 -3.409-4.145 2.631 2.631 0 0 0 -2.944 1.984 2.391 2.391 0 0 0 .674 2.509 6.18 6.18 0 0 0 3.429 1.383c-.087 1.636-.112 2.728-.169 3.633-.117 1.778-.388 5.727-.729 6.378a3.859 3.859 0 0 1 -1.209-.383.973.973 0 0 1 -.375-.918c0-.042.055-7.8.055-7.8l-2.158-.44-.082 7.92c-.01.077.085 1.659-1.353 1.626-1.159-.027-1.107-1.154-1.119-1.492l.037-7.572-2.182-.49-.022 1.368-1.85.736a3.043 3.043 0 0 0 -2.79-2.285c-1.987-.164-3.72 1.467-4.245 3.936a14.056 14.056 0 0 0 -.328 3.292c-.209 1.534-.935 2.28-2.061 2.34a2.042 2.042 0 0 1 -1.587-.587c-.537-.492-1.251-1.925-.642-6.092.346-2.362 1.6-4.023 2.566-4.474a6.841 6.841 0 0 1 2.638-.617l.07-2.019a6.413 6.413 0 0 0 -3.588.569c-2.027.923-3.5 2.927-4.041 6.237-.674 4.106-.2 6.724 1.248 8.049a4.183 4.183 0 0 0 2.89.985c.216 0 .405-.01.552-.017a4.141 4.141 0 0 0 2.83-1.233q.075.1.157.194a3.178 3.178 0 0 0 2.161 1.072c.127.012.251.017.373.017a3.532 3.532 0 0 0 2.474-.987c1.7-1.614 1.922-4.227 1.78-6.5l1.355-.535-.025 5.13a2.968 2.968 0 0 0 3.076 2.822 3.878 3.878 0 0 0 2.479-.711 2.246 2.246 0 0 0 .2-.172 4.793 4.793 0 0 0 2.837.883 1.842 1.842 0 0 0 1.447-.475c.818-1.089 1.156-4.931 1.348-7.706.062-.893.082-1.964.167-3.566.694 0 1.273-.045 1.619-.08a5.177 5.177 0 0 1 1.132-.004c-.1.244-.216.55-.333.875-.393 1.109-2.325 8.776-.415 10.5 1.054.955 3.476.179 4.21-.3a3.384 3.384 0 0 0 2.4.818 3.565 3.565 0 0 0 2.559-1.059 1.97 1.97 0 0 0 .308.433 1.883 1.883 0 0 0 1.286.569h.189a3.734 3.734 0 0 0 1.947-.562l-.032.652h2.236v-1.315c.03-1.614.082-6.8.082-6.8.04-.254.025-1.5 1.32-1.475.962.017 1.109.972 1.121 1.308l-.022 6.719v.114.022a1.506 1.506 0 0 0 1.587 1.38h.1a4.4 4.4 0 0 0 2.713-1.186 2.277 2.277 0 0 0 1.574 1.089 3.756 3.756 0 0 0 .584.055 4.88 4.88 0 0 0 4.553-2.788zm-45.362-5.933a1.248 1.248 0 0 1 1.206 1.174l-2.919 1.174c.253-2.06 1.203-2.337 1.713-2.349zm.1 7.562a1.058 1.058 0 0 1 -.838.366 1.1 1.1 0 0 1 -.873-.438 4.52 4.52 0 0 1 -.418-2.947l3.36-1.35c.117 2.081-.359 3.543-1.232 4.368zm12.328-12.325a.777.777 0 0 1 -.187-.836 2.3 2.3 0 0 1 .4-.783 2.809 2.809 0 0 1 1.587 2.333 3.646 3.646 0 0 1 -1.8-.714zm14.552 9.81c-.3 2.444-1.149 2.825-1.84 2.832a1.1 1.1 0 0 1 -.786-.348c-.836-1.012-.791-3.675-.393-5.145.373-1.467 1.271-2.375 1.887-2.375.027 0 1.2-.1 1.268 1.82a22.041 22.041 0 0 1 -.136 3.216z" fill="#fff" transform="translate(-13.601 -63.446)"/><path d="m9.631 10.481a10.119 10.119 0 0 1 -1.277-.089c-4.067-.532-6.587-1.627-7.704-3.347a4.857 4.857 0 0 1 -.35-4.169 3.206 3.206 0 0 1 1.3-1.512 9.953 9.953 0 0 1 5.675-1.364c2.8 0 4.689.325 5.785.994a2.842 2.842 0 0 1 1.361 2.713v.275.005a14.482 14.482 0 0 1 -.166 2.673 4.8 4.8 0 0 1 -1.238 2.631 4.589 4.589 0 0 1 -3.385 1.189zm-1.431-7.62a.568.568 0 0 0 -.472.885l2.472 3.618a.569.569 0 0 0 .469.249.568.568 0 0 0 .468-.887l-1-1.462.976-1.534a.563.563 0 0 0 -.474-.87.569.569 0 0 0 -.481.263l-.713 1.124-.773-1.139a.565.565 0 0 0 -.472-.247zm-2.456 0a.557.557 0 0 0 -.317.1.567.567 0 0 0 -.151.787l2.461 3.616a.579.579 0 0 0 .472.249.559.559 0 0 0 .318-.1.569.569 0 0 0 .151-.787l-2.462-3.626a.57.57 0 0 0 -.468-.243zm-2.464 0a.569.569 0 0 0 -.321.1.565.565 0 0 0 -.148.787l2.465 3.616a.563.563 0 0 0 .789.148.562.562 0 0 0 .148-.787l-2.461-3.625a.566.566 0 0 0 -.469-.243z" fill="#e8e100" transform="translate(34.682 21.169)"/></svg>