<svg xmlns="http://www.w3.org/2000/svg" id="Calque_2" data-name="Calque 2" viewBox="0 0 221.26 221.26"><defs><style>      .cls-1, .cls-2, .cls-3, .cls-4, .cls-5, .cls-6, .cls-7 {        fill: none;      }      .cls-1, .cls-8, .cls-9, .cls-10 {        stroke-width: 0px;      }      .cls-2, .cls-8, .cls-5, .cls-9, .cls-10 {        fill-rule: evenodd;      }      .cls-2, .cls-3, .cls-4, .cls-6, .cls-7 {        stroke-miterlimit: 10;      }      .cls-2, .cls-4, .cls-7 {        stroke: #a4a4a4;      }      .cls-2, .cls-5 {        stroke-width: 1.01px;      }      .cls-8 {        fill: #525251;      }      .cls-3 {        stroke: #e6007e;        stroke-width: .18px;      }      .cls-4, .cls-6 {        stroke-width: 2.51px;      }      .cls-5 {        stroke-linecap: round;        stroke-linejoin: round;      }      .cls-5, .cls-6 {        stroke: #be1622;      }      .cls-9 {        fill: #fff;      }      .cls-10 {        fill: #be1622;      }      .cls-7 {        stroke-width: 1.58px;      }    </style></defs><g id="Calque_2-2" data-name="Calque 2"><g><rect class="cls-1" width="221.26" height="221.26"></rect><path class="cls-6" d="M211.2,110.63c0,1.43-.03,2.85-.09,4.26-2.23,53.57-46.37,96.31-100.48,96.31S10.06,166.18,10.06,110.63,55.09,10.06,110.63,10.06c1.74,0,3.46.04,5.18.13"></path><path class="cls-4" d="M115.81,10.19c53.14,2.69,95.4,46.63,95.4,100.44,0,1.43-.03,2.85-.09,4.26"></path><path class="cls-10" d="M184.77,111.35c0,41.12-33.18,73.46-74.14,73.46s-74.17-33.34-74.17-74.46S69.67,35.89,110.63,35.89s74.14,34.33,74.14,75.45Z"></path><path class="cls-8" d="M143.7,16.92c-8.78-2.73-18.77-6.05-29.42-5.93,4.82-.05,8.16,7.52,8.16,12.42,0,6.01-3.38,11.19-9.08,13.04,8.59.26,15.57,2.04,23.16,4.99,3.24,1.26,11.82-4.31,13.96-10.05,2.4-6.43-2.03-13-6.2-14.3l-.58-.18Z"></path><path class="cls-5" d="M176.29,146.6c-6.12,10.52-16.69,20.83-27.86,27.5-35.18,21.03-80.9,9.51-101.93-25.66-1.93-3.23-3.58-6.56-4.97-9.94-.1-.24-.19-.48-.28-.72-.31-.77-.6-1.54-.88-2.31-.25-.7-.49-1.4-.72-2.12-.1-.31-.2-.63-.3-.94-2.12-6.89-3.26-14.2-3.26-21.78,0-40.98,33.34-74.32,74.33-74.32.79,0,1.57.04,2.36.06,5.6-1.87,9.82-6.23,9.82-12.32,0-4.97-1.79-10.45-6.05-12.58-2.09-.13-3.8,0-5.91,0-15.98,0-31.33,3.76-44.7,10.53-.32.17-.55.32-.79.45-1.86.96-3.7,1.95-5.52,3.04C21.08,48.52,3.93,93.82,14.7,135.21c.02.08.05.17.07.25.35,1.34.73,2.68,1.14,4.02.16.52.33,1.04.5,1.56.29.89.58,1.77.9,2.65.34.97.71,1.93,1.09,2.88.17.43.34.87.51,1.3,14.74,36.06,50.98,62.16,92.29,62.04,38.79-.12,65.99-22.23,80.3-41.81,11.37-15.55,18.27-35.58,18.27-53.22"></path><path class="cls-2" d="M136.52,14.8c-6.31,0-12.15,6.16-12.65,11.46-.58,6.07,4.32,11.83,11.38,14.34,28.81,10.24,49.49,37.76,49.49,70.03,0,12.69-2.68,24.58-8.31,35.04-.26.49-.29,1.05.44,1.05.22,0,.46-.05.7-.15,4.97-2.13,12.77-6.71,15.69-15.3,4.37-12.86,8.64-14.8,13.58-14.79,4.54,0,3.47-5.75,3.47-6.97,0-44.2-30.65-81.26-70.75-93.84-1.12-.35-3.04-.87-3.04-.87Z"></path><path class="cls-7" d="M142.52,27.54c0,2.95-2.39,5.34-5.34,5.34s-5.34-2.39-5.34-5.34,2.39-5.34,5.34-5.34,5.34,2.39,5.34,5.34h0Z"></path><g><polygon class="cls-9" points="68.6 79.68 81.67 79.68 81.67 77.47 71.22 77.47 71.22 59.95 68.6 59.95 68.6 79.68 68.6 79.68"></polygon><path class="cls-9" d="M93.44,75.15c-.41,1.85-1.77,2.79-3.7,2.79-3.12,0-4.53-2.21-4.45-4.7h10.69c.14-3.45-1.41-8.18-6.46-8.18-3.9,0-6.71,3.15-6.71,7.43.14,4.36,2.29,7.51,6.85,7.51,3.2,0,5.47-1.71,6.11-4.86h-2.32ZM85.29,71.17c.17-2.18,1.63-4.03,4.09-4.03,2.32,0,4.01,1.8,4.12,4.03h-8.21Z"></path><path class="cls-9" d="M97.5,75.18c.14,3.54,2.85,4.83,6.05,4.83,2.9,0,6.08-1.11,6.08-4.5,0-2.76-2.32-3.54-4.67-4.06-2.18-.52-4.67-.8-4.67-2.49,0-1.44,1.63-1.82,3.04-1.82,1.55,0,3.15.58,3.32,2.4h2.35c-.19-3.48-2.71-4.48-5.86-4.48-2.49,0-5.33,1.19-5.33,4.06s2.35,3.51,4.67,4.03c2.35.52,4.67.83,4.67,2.65s-1.99,2.13-3.45,2.13c-1.93,0-3.76-.66-3.84-2.76h-2.35Z"></path><path class="cls-9" d="M62.98,92.53c-.12,3.58-.74,7.7-5.15,7.7-5.03,0-5.69-5.52-5.69-12.32s.66-12.32,5.69-12.32c3.75,0,4.82,2.84,4.9,6.18h3.79c-.16-5.77-2.68-9.15-8.69-9.15-8.12,0-9.48,7.87-9.48,15.29s1.11,15.29,9.48,15.29c6.43,0,8.61-5.11,8.94-10.67h-3.79Z"></path><path class="cls-9" d="M68.75,95.5c0,4.17,2.4,7.46,6.93,7.46s6.93-3.29,6.93-7.46-2.4-7.49-6.93-7.49-6.93,3.29-6.93,7.49h0ZM71.24,95.5c0-3.48,1.99-5.41,4.45-5.41s4.45,1.93,4.45,5.41-1.99,5.39-4.45,5.39-4.45-1.93-4.45-5.39h0Z"></path><path class="cls-9" d="M85.3,102.63h2.35v-6.35c0-3.62,1.38-5.77,5.17-5.77v-2.49c-2.54-.08-4.12,1.05-5.25,3.34h-.06v-3.01h-2.21v14.28h0Z"></path><path class="cls-9" d="M106.85,82.9h-2.35v7.35h-.06c-1.05-1.69-3.15-2.24-4.61-2.24-4.37,0-6.52,3.4-6.52,7.43s2.18,7.51,6.58,7.51c1.96,0,3.79-.69,4.56-2.27h.06v1.93h2.35v-19.72h0ZM95.8,95.61c0-2.79,1.08-5.53,4.28-5.53s4.5,2.6,4.5,5.41-1.22,5.39-4.37,5.39-4.42-2.6-4.42-5.28h0Z"></path><path class="cls-9" d="M110.61,102.63h2.35v-14.28h-2.35v14.28h0ZM112.96,82.9h-2.35v2.87h2.35v-2.87h0Z"></path><path class="cls-9" d="M115.69,98.12c.14,3.54,2.85,4.83,6.05,4.83,2.9,0,6.08-1.1,6.08-4.5,0-2.76-2.32-3.54-4.67-4.06-2.18-.53-4.67-.8-4.67-2.49,0-1.44,1.63-1.82,3.04-1.82,1.55,0,3.15.58,3.32,2.4h2.35c-.19-3.48-2.71-4.48-5.86-4.48-2.49,0-5.33,1.19-5.33,4.06s2.35,3.51,4.67,4.03c2.35.52,4.67.83,4.67,2.65s-1.99,2.13-3.45,2.13c-1.93,0-3.76-.66-3.84-2.76h-2.35Z"></path><path class="cls-9" d="M133.68,84.06h-2.35v4.28h-2.43v2.07h2.43v9.09c0,2.62.97,3.12,3.4,3.12h1.8v-2.07h-1.08c-1.46,0-1.77-.19-1.77-1.27v-8.87h2.85v-2.07h-2.85v-4.28h0Z"></path><path class="cls-9" d="M148.98,98.1c-.41,1.85-1.77,2.79-3.7,2.79-3.12,0-4.53-2.21-4.45-4.7h10.69c.14-3.45-1.41-8.18-6.46-8.18-3.9,0-6.71,3.15-6.71,7.43.14,4.36,2.29,7.51,6.85,7.51,3.2,0,5.47-1.71,6.11-4.86h-2.32ZM140.83,94.12c.17-2.18,1.63-4.03,4.09-4.03,2.32,0,4.01,1.8,4.12,4.03h-8.21Z"></path><path class="cls-9" d="M153.04,98.12c.14,3.54,2.85,4.83,6.05,4.83,2.9,0,6.08-1.1,6.08-4.5,0-2.76-2.32-3.54-4.67-4.06-2.18-.53-4.67-.8-4.67-2.49,0-1.44,1.63-1.82,3.04-1.82,1.55,0,3.15.58,3.32,2.4h2.35c-.19-3.48-2.71-4.48-5.86-4.48-2.49,0-5.33,1.19-5.33,4.06s2.35,3.51,4.67,4.03c2.35.52,4.67.83,4.67,2.65s-1.99,2.13-3.45,2.13c-1.93,0-3.76-.66-3.84-2.76h-2.35Z"></path><path class="cls-9" d="M64.87,103.72c-.08-5.4-2.64-8.2-8.24-8.2-7.46,0-8.61,5.4-8.61,8.12,0,10.79,13.89,5.97,13.89,14.3,0,3.13-2.22,5.19-5.11,5.19-5.32,0-5.52-3.54-5.52-6.84h-3.63c0,6.26,2.02,9.81,8.9,9.81,4.16,0,9.15-1.94,9.15-8.73,0-10.75-13.89-5.81-13.89-14.09,0-3.13,1.81-4.78,4.86-4.78,3.46,0,4.57,2.14,4.57,5.23h3.63Z"></path><path class="cls-9" d="M81.36,123.64c-.3.11-.53.14-.72.14-.75,0-.75-.5-.75-1.6v-7.35c0-3.34-2.79-3.92-5.36-3.92-3.18,0-5.91,1.24-6.05,4.78h2.35c.11-2.1,1.57-2.71,3.56-2.71,1.49,0,3.18.33,3.18,2.38,0,1.77-2.21,1.6-4.81,2.1-2.43.47-4.83,1.16-4.83,4.39,0,2.85,2.13,4.01,4.72,4.01,1.99,0,3.73-.69,5.03-2.21,0,1.55.77,2.21,1.99,2.21.75,0,1.27-.14,1.69-.39v-1.82h0ZM77.54,120.54c0,1.3-1.27,3.23-4.37,3.23-1.44,0-2.76-.55-2.76-2.1,0-1.74,1.33-2.29,2.87-2.57,1.57-.28,3.34-.3,4.25-.97v2.4h0Z"></path><polygon class="cls-9" points="95.17 111.24 92.71 111.24 88.82 123.14 88.76 123.14 84.76 111.24 82.13 111.24 87.44 125.52 89.95 125.52 95.17 111.24 95.17 111.24"></polygon><path class="cls-9" d="M96.52,118.39c0,4.17,2.4,7.46,6.93,7.46s6.93-3.29,6.93-7.46-2.4-7.49-6.93-7.49-6.93,3.29-6.93,7.49h0ZM99.01,118.39c0-3.48,1.99-5.41,4.45-5.41s4.45,1.93,4.45,5.41-1.99,5.39-4.45,5.39-4.45-1.93-4.45-5.39h0Z"></path><path class="cls-9" d="M124.95,111.24h-2.49l-4.01,11.69h-.06l-4.17-11.69h-2.65l5.66,14.2-.97,2.43c-.44.83-.97,1.3-1.93,1.3-.47,0-.94-.19-1.38-.33v2.15c.52.19,1.08.25,1.63.25,2.1,0,3.07-1.02,4.14-3.81l6.22-16.19h0Z"></path><path class="cls-9" d="M139.57,123.64c-.3.11-.52.14-.72.14-.75,0-.75-.5-.75-1.6v-7.35c0-3.34-2.79-3.92-5.36-3.92-3.18,0-5.91,1.24-6.05,4.78h2.35c.11-2.1,1.57-2.71,3.56-2.71,1.49,0,3.18.33,3.18,2.38,0,1.77-2.21,1.6-4.81,2.1-2.43.47-4.83,1.16-4.83,4.39,0,2.85,2.13,4.01,4.72,4.01,1.99,0,3.73-.69,5.03-2.21,0,1.55.77,2.21,1.99,2.21.75,0,1.27-.14,1.69-.39v-1.82h0ZM135.76,120.54c0,1.3-1.27,3.23-4.37,3.23-1.44,0-2.76-.55-2.76-2.1,0-1.74,1.33-2.29,2.87-2.57,1.57-.28,3.34-.3,4.25-.97v2.4h0Z"></path><path class="cls-9" d="M141.64,125.52h2.35v-6.35c0-3.62,1.38-5.77,5.17-5.77v-2.49c-2.54-.08-4.12,1.05-5.25,3.34h-.06v-3.01h-2.21v14.28h0Z"></path><path class="cls-9" d="M163.16,105.79h-2.35v7.35h-.06c-1.05-1.69-3.15-2.24-4.61-2.24-4.37,0-6.52,3.4-6.52,7.43s2.18,7.51,6.58,7.51c1.96,0,3.78-.69,4.56-2.27h.06v1.93h2.35v-19.72h0ZM152.11,118.5c0-2.79,1.08-5.53,4.28-5.53s4.5,2.6,4.5,5.41-1.22,5.39-4.37,5.39-4.42-2.6-4.42-5.28h0Z"></path><path class="cls-9" d="M165.84,121.01c.14,3.54,2.85,4.83,6.05,4.83,2.9,0,6.08-1.1,6.08-4.5,0-2.76-2.32-3.54-4.67-4.06-2.18-.53-4.67-.8-4.67-2.49,0-1.44,1.63-1.82,3.04-1.82,1.55,0,3.15.58,3.32,2.4h2.35c-.19-3.48-2.71-4.48-5.86-4.48-2.49,0-5.33,1.19-5.33,4.06s2.35,3.51,4.67,4.03c2.35.52,4.67.83,4.67,2.65s-1.99,2.13-3.45,2.13c-1.93,0-3.76-.66-3.84-2.76h-2.35Z"></path><path class="cls-9" d="M62.88,143.54h.76v-3.52h2.86c1.43-.06,1.52,1.18,1.59,2.29.02.33.02.92.21,1.23h.83c-.33-.4-.33-1.49-.37-2.03-.06-.94-.36-1.65-1.39-1.79v-.02c1.02-.2,1.54-1.02,1.54-2.02,0-1.43-1.1-2.07-2.41-2.07h-3.63v7.93h0ZM63.64,136.25h2.82c1.13,0,1.71.61,1.71,1.58s-.79,1.54-1.71,1.54h-2.82v-3.12h0Z"></path><polygon class="cls-9" points="72.67 143.54 73.43 143.54 73.43 139.7 78.13 139.7 78.13 143.54 78.89 143.54 78.89 135.61 78.13 135.61 78.13 139.05 73.43 139.05 73.43 135.61 72.67 135.61 72.67 143.54 72.67 143.54"></polygon><path class="cls-9" d="M83.2,139.57c0-1.73.89-3.49,2.99-3.49s2.98,1.75,2.98,3.49-.89,3.49-2.98,3.49-2.99-1.75-2.99-3.49h0ZM82.45,139.57c0,2.17,1.24,4.13,3.74,4.13s3.73-1.97,3.73-4.13-1.24-4.13-3.73-4.13-3.74,1.97-3.74,4.13h0ZM86.57,133.41h-.77l-1.27,1.57h.64l.98-1.13.95,1.13h.72l-1.27-1.57h0Z"></path><polygon class="cls-9" points="93.46 143.54 94.22 143.54 94.22 136.83 94.24 136.83 98.86 143.54 99.7 143.54 99.7 135.61 98.95 135.61 98.95 142.32 98.93 142.32 94.31 135.61 93.46 135.61 93.46 143.54 93.46 143.54"></polygon><polygon class="cls-9" points="103.67 143.54 109.2 143.54 109.2 142.89 104.43 142.89 104.43 139.76 108.85 139.76 108.85 139.12 104.43 139.12 104.43 136.25 109.15 136.25 109.15 135.61 103.67 135.61 103.67 143.54 103.67 143.54"></polygon><polygon class="cls-9" points="116.75 139.64 116.75 138.72 112.79 138.72 112.79 139.64 116.75 139.64 116.75 139.64"></polygon><path class="cls-9" d="M120.01,143.54h.81l.95-2.47h3.61l.97,2.47h.81l-3.11-7.93h-.84l-3.2,7.93h0ZM123.59,136.36l1.53,4.06h-3.12l1.59-4.06h0Z"></path><polygon class="cls-9" points="130.26 143.54 135.46 143.54 135.46 142.89 131.01 142.89 131.01 135.61 130.26 135.61 130.26 143.54 130.26 143.54"></polygon><path class="cls-9" d="M138.6,143.54h.75v-3.4h2.76c1.42,0,2.35-.83,2.35-2.27s-.93-2.26-2.35-2.26h-3.52v7.93h0ZM139.36,136.25h2.6c1.04,0,1.77.53,1.77,1.62s-.72,1.62-1.77,1.62h-2.6v-3.24h0Z"></path><polygon class="cls-9" points="147.98 143.54 153.51 143.54 153.51 142.89 148.73 142.89 148.73 139.76 153.15 139.76 153.15 139.12 148.73 139.12 148.73 136.25 153.45 136.25 153.45 135.61 147.98 135.61 147.98 143.54 147.98 143.54"></polygon><path class="cls-9" d="M156.54,140.93c-.09,1.93,1.29,2.78,3.16,2.78,2.81,0,3.03-1.72,3.03-2.27,0-1.3-.93-1.79-2.05-2.09l-1.93-.48c-.64-.16-1.2-.47-1.2-1.21,0-1.18.95-1.58,1.99-1.58,1.12,0,2.12.61,2.17,1.82h.76c.01-1.62-1.37-2.46-2.93-2.46-2.23,0-2.73,1.45-2.73,2.23,0,1.23.85,1.68,1.79,1.91l1.77.43c.73.18,1.63.53,1.63,1.43,0,1.15-1.27,1.61-2.1,1.61-1.44,0-2.62-.5-2.59-2.13h-.75Z"></path></g><circle class="cls-3" cx="110.63" cy="110.63" r="100.57"></circle></g></g></svg>