<?xml version="1.0" encoding="UTF-8"?>
<!DOCTYPE svg PUBLIC "-//W3C//DTD SVG 1.1//EN" "http://www.w3.org/Graphics/SVG/1.1/DTD/svg11.dtd">
<!-- Creator: CorelDRAW 2019 (64-Bit) -->
<svg xmlns="http://www.w3.org/2000/svg" xml:space="preserve" width="333.226mm" height="54.9058mm" version="1.1" style="shape-rendering:geometricPrecision; text-rendering:geometricPrecision; image-rendering:optimizeQuality; fill-rule:evenodd; clip-rule:evenodd"
viewBox="0.01 0 55198.02 9095.01"
 xmlns:xlink="http://www.w3.org/1999/xlink"
 xmlns:xodm="http://www.corel.com/coreldraw/odm/2003">
 <defs>
  <style type="text/css">
   <![CDATA[
    .fil0 {fill:#2B2A29}
   ]]>
  </style>
 </defs>
 <g id="Livello_x0020_1">
  <metadata id="CorelCorpID_0Corel-Layer"/>
  <path class="fil0" d="M30547.79 5527.34l1229.83 0 3244.1 -3866.16c304.86,-363.31 763.82,-508.02 1221.93,-385.26 458.11,122.74 783.21,477.54 865.57,944.6l538.72 3055.17 3032.95 -3614.51c304.86,-363.31 763.82,-508.02 1221.93,-385.26 458.1,122.74 783.21,477.54 865.57,944.6l958.14 5433.81 157.66 0 1784.77 -2126.99 5969.02 0c731.52,0 1560.71,-255.26 1944.42,-927.71 196.16,-343.75 249.6,-759.24 42.01,-1110.47 -289.27,-489.47 -939.24,-609.66 -1463.3,-609.66 -18.7,0 -37.4,0.08 -56.1,0.38l-5.73 0.1 -6235.96 0 1208.83 -1440.67 5015.95 0c24.33,-0.35 48.67,-0.46 73.02,-0.46 1063.34,0 2135.82,356.69 2703.56,1317.33 472.44,799.38 422.78,1762.24 -30.98,2557.45 -648.64,1136.72 -1930.62,1654.39 -3195.72,1654.39l-5297.22 0 -1784.77 2126.99 -2038.32 0 -1075.56 -6099.73 -3333.54 3972.74 -1625.12 0 -700.51 -3972.74 -3333.55 3972.74 -7371.67 0 1208.83 -1440.67 2597.68 0 -1621.7 -2808.85 -3565.79 4249.52 -7382.54 0c-1063.39,0 -2135.74,-356.14 -2703.66,-1316.83 -472.49,-799.23 -422.33,-1762.27 31.17,-2557.35 648.53,-1136.99 1930.06,-1654.52 3195.35,-1654.52l5357.42 0 -1208.83 1440.67 -4148.59 0c-731.66,0 -1560.27,255 -1943.94,927.64 -195.94,343.52 -249.96,759.36 -42.42,1110.42 289.37,489.5 939.4,609.3 1463.49,609.3l6710.74 0 3189.72 -3801.32c298.55,-355.79 714.67,-528.17 1177.37,-487.68 462.7,40.48 842.57,282.48 1074.8,684.72l2080.94 3604.29zm-8141.91 1303.11c-324.9,0 -588.38,-263.31 -588.38,-588.31 0,-324.95 263.48,-588.36 588.38,-588.36 324.9,0 588.51,263.41 588.51,588.36 0,325 -263.61,588.31 -588.51,588.31zm8749.91 0c-325.03,0 -588.51,-263.31 -588.51,-588.31 0,-324.95 263.48,-588.36 588.51,-588.36 324.78,0 588.36,263.41 588.36,588.36 0,325 -263.58,588.31 -588.36,588.31zm12488.43 2128.88c-324.8,0 -588.13,-263.45 -588.13,-588.45 0,-324.85 263.33,-588.3 588.13,-588.3 325.03,0 588.26,263.45 588.26,588.3 0,325 -263.23,588.45 -588.26,588.45zm11007.12 -662.85c11.3,-18.35 16.9,-42.01 16.9,-70.93 0,-27.58 -6.44,-50.94 -18.83,-69.84 -12.59,-19.13 -29.02,-34.55 -49.26,-46.43 -20.36,-11.71 -43.81,-20.36 -69.9,-25.59 -26.19,-5.25 -53.92,-7.79 -82.74,-7.79 -19.75,0 -38.35,0.36 -56.2,0.98 -17.71,0.65 -33.91,1.56 -48.32,2.87l0 289.67 98.58 0c32.88,0 63.11,-2.17 90.63,-5.98 27.6,-3.94 51.67,-11.55 72.01,-22.64 20.26,-11.2 35.95,-25.81 47.16,-44.31zm66.08 468.8c-34.29,-61.62 -69.67,-120.48 -106.58,-176.27 -36.56,-55.82 -68.83,-100.23 -96.19,-133.03 -9.28,1.41 -17.99,1.95 -25.81,1.95l-145.87 0 0 307.34 -108.33 0 0 -762.34c30.23,-6.51 64.06,-11.78 101.66,-15.82 37.29,-3.86 72.39,-5.88 105.25,-5.88 111.68,0 196.69,20.39 255.15,61.09 58.34,40.7 87.61,102.45 87.61,185.24 0,47.18 -13.1,89.6 -39.39,127.05 -26.19,37.44 -65,65.18 -116.09,83.57 10.49,11.84 24.53,30.03 42.14,54.23 17.99,24.4 36.46,51.6 56.19,81.7 19.65,30.31 39.42,62.42 59.17,96.59 19.68,34.19 36.92,65.58 51.2,94.57l-120.11 0zm-241.1 -1113.86c-398.61,0 -721.86,323.24 -721.86,721.94 0,398.5 323.24,721.64 721.86,721.64 398.6,0 721.71,-323.14 721.71,-721.64 0,-398.7 -323.11,-721.94 -721.71,-721.94zm-53236.57 -4467.33l0 -3165.17 -1239.74 1535.2 0 152.51 1239.74 1477.46zm2479.51 2954.9l0 -5430.88 -1239.75 1477.46 0 2475.98 1239.75 1477.44zm2479.49 2954.92l0 -9093.91 -1239.75 1477.46 0 6138.99 1239.75 1477.46zm2479.49 -2954.34l0 -5333.56 -1239.75 1477.44 0 5333.58 1239.75 -1477.46zm2479.49 -2954.92l0 -2938.58 -1239.74 1477.44 0 2938.6 1239.74 -1477.46z"/>
 </g>
</svg>
