<?xml version="1.0" encoding="UTF-8"?><svg id="Calque_1" xmlns="http://www.w3.org/2000/svg" viewBox="0 0 1039.13 154.41"><defs><style>.cls-1{fill:#4c4c4e;}.cls-2{fill:#cb051b;}</style></defs><path class="cls-2" d="m50.48,115.66c1.07,1.89,2.17,3.77,3.21,5.67.72,1.33,1.75,2.53,1.67,4.2-.02.4.29.84.51,1.23,1.53,2.66,2.23,5.49,2,8.56-.1,1.34-.25,2.71.42,3.99.17.32.19.72.24,1.09.3,2.22.3,2.18,2.62,2.3,1.78.09,3.34-.45,4.85-1.32.94-.54,1.38-1.28,1.32-2.33-.04-.78.13-1.09,1.06-1.39,2.58-.84,5.05-1.97,5.56-5.18.38-2.35-.85-4.29-3.18-4.7-.66-.12-1.14-.45-1.28-1.15-.05-.24-.07-.49-.16-.72-.12-.31-.29-.66-.71-.52-.38.13-.21.48-.21.75,0,.29.46.63-.01.86-.3.15-.66,0-.94-.19-1.12-.74-1.92-1.95-3.38-2.18-.1-.02-.23-.16-.25-.26-.3-1.82-1.81-3.23-1.77-5.17.04-1.86.1-3.73.1-5.59-.01-3.04-.72-5.96-1.71-8.82-.52-1.49-.29-2.76.55-4.11,1-1.6,2.15-3.04,3.4-4.43.66-.73,1.43-1.4,1.7-2.41.15-.56.58-.63,1.07-.63,3.03,0,6.07-.04,9.1.03,2.16.05,4.24-.43,6.37-.63,2.79-.26,5.47.09,8.01,1.29,3.4,1.6,6.51,3.76,10.03,5.1,1.33.51,2.66,1.02,4.16.94,2.15-.11,4.29.08,6.45-.22,2.42-.33,4.79.32,7.13.87.8.19,1.62.14,2.42.24.89.11,1.46.66,2.19.94.34.13.55.46.51.9-.04.49.01,1-.02,1.49-.04.58.06,1.17.63,1.33.63.17,1.61.08,1.8-.46.8-2.27,2.38-1.16,3.74-1.03,1.29.12,2.57.44,3.82-.25,2.13-1.17,2.51-3.07,2.15-5.21-.23-1.36-.59-2.72-1.01-4.04-.39-1.23-.36-2.47-.14-3.68.39-2.2.06-4.36-.31-6.5-.13-.74-.18-1.49-.14-2.19.1-1.95-.78-3.62-1.38-5.35-.8-2.31-4.62-2.77-6.24-.89-.19.22-.17.45-.18.68-.08,2.13-.25,4.26-.27,6.4-.02,1.45-.07,2.94-.77,4.37-.93,1.9-2.51,2.86-4.35,3.57-.18.07-.43.11-.61.04-2.05-.74-4.34-.5-6.32-1.49-2.42-1.21-4.93-2.17-7.46-3.11-2.02-.75-4.22-.71-6.19-1.45-3.16-1.2-6.23-2.62-9.28-4.07-1.14-.55-2.33-.94-3.52-1.08-1.89-.22-3.73-.61-5.57-1.04-1.19-.27-2.33-.74-3.5-1.07-3.91-1.12-7.9-1.72-11.98-1.68-.29,0-.63.08-.86-.04-.59-.32-1.62-.4-1.59-1.16.02-.62.96-.35,1.5-.48,2.21-.52,4.18-1.56,6.06-2.8.57-.38.68-.93.49-1.52-.95-2.84-1.99-5.65-3.69-8.16-.11-.17-.24-.36-.41-.46-2.31-1.33-3.55-3.52-4.71-5.78-.77-1.49-2.29-2.58-2.49-4.36-.22-1.99-.76-3.86-1.6-5.66-.07-.14-.1-.37-.03-.48,1.25-2.1-.66-4.23.2-6.47.79-2.07.98-4.42,1.16-6.67.28-3.36.85-6.67,1.4-9.98.75-4.52,1.19-9.09,1.95-13.61.4-2.37.82-4.73,1.1-7.11.1-.85.38-1.2,1.19-1.2,6.45,0,12.9,0,19.35-.01,5.96,0,11.92-.03,17.88-.02,11.78,0,23.55.02,35.33.04,4.65,0,8.07,2.33,10.95,5.7-.26.24-.48.5-.12.81.99.86.97,2.02,1.03,3.2.23,4.67.19,9.34.2,14.01,0,3.03-.05,6.06-.04,9.09.03,10.29.08,20.59.11,30.88.01,4.91.01,9.83-.02,14.74-.08,14.32.15,28.63-.12,42.95-.12,6.43.06,12.87.12,19.3.01,1.16-.05,2.21-1.2,2.91-.27.16-.37.62-.51.96-.5,1.19-1.2,2.3-2.21,3.07-2.35,1.8-5.04,2.74-8.05,2.74-19.81,0-39.61-.05-59.42.02-13.6.04-27.21-.3-40.81.19-.35.01-.65-.07-.94-.25.08-5.13.15-10.26.26-15.39.13-6.19.14-12.38.28-18.57.11-4.7.15-9.41.41-14.11.02-.33.02-.67-.05-.98-.37-1.74-.23-1.97,1.49-1.58,1.43.32,2.84.38,4.29.46,1.84.09,3.06,1.54,4.51,2.47.41.26.23.85.22,1.29-.03,2.65-.12,5.29.3,7.92-.06,1.38.76,2.51,1.15,3.76Z"/><path class="cls-2" d="m832.49,125.32c-2.73-.07-5.5-.19-8.16-.59-2.16-.32-4.41-.74-6.52-1.72-2.93-1.36-5.93-2.55-8.83-4-6.27-3.13-11.48-7.52-15.97-12.81-5.61-6.61-9.43-14.13-11.31-22.58-.85-3.83-1.09-7.73-1.2-11.67-.25-8.72-3.52-16.24-9.69-22.5-2.74-2.78-5.94-4.93-9.38-6.61-3.55-1.72-7.28-3.14-11.4-2.82-1.01.08-2.05-.19-3.07-.3-1.51.05-3.04-.13-4.55.16-2.3.32-4.4,1.34-6.62,1.94-2.68.73-5.02,2.53-7.23,4.29-.68.54-1.26,1.19-2.04,1.59,0,0,.03-.01.03-.01-.17.14-.34.28-.51.42-.29.09-.49.27-.59.56-.36.39-.72.78-1.07,1.18,0,0,.02-.02.02-.02-.25.47-.61.82-1.08,1.06-.1.11-.2.22-.3.33-1.56,1.83-2.62,3.98-3.92,5.97-.26.02-.28.2-.26.4-.21.46-.43.92-.64,1.38,0,0-.02.06-.02.06-.05.92-.37,1.74-.89,2.49-.51.94-1.09,1.88-.85,3.03-.13.22-.26.43-.39.65,0,0,0,0,0,0,.69,1.48,0,2.94-.09,4.4-.52,7.64-.22,15.28-.25,22.92-.03,10.25.04,20.5.12,30.75.01,1.38-.54,1.81-1.84,1.85-5.99.19-11.99-.26-17.97.16-1.67.12-1.66-1-1.66-2.18.04-6.26.05-12.51.08-18.77.03-4.98.09-9.96.14-14.94,0,0,0-.03,0-.03,0-.46,0-.91,0-1.37,0,0,0-.02,0-.02,0-.49,0-.98,0-1.46-.02-1.37-.04-2.76-.06-4.14-.19-1.35-.24-2.69,0-4.03.56-1.69.6-3.38,0-5.07-.22-.85-.13-1.7-.06-2.56.18-.42.21-.84-.06-1.24-1.37-11.93-7.25-20.79-18.14-26.14-3.9-1.91-7.87-3.32-12.45-3.47-6.26-.2-12.08.72-17.47,3.83-3.74,2.16-6.92,4.88-9.69,8.35-2.71,3.39-4.62,7.11-5.93,11.02-.65,1.96-1.32,4.29-1.11,6.57,0,0-.13.08-.13.08l.11.1c-.02.39-.04.78-.06,1.17-.02.13-.03.25-.05.38,0,.17,0,.33,0,.5-.16.41-.16.82-.01,1.23.03,1.76.05,3.53.08,5.29-.2.24-.21.48,0,.72.03,4.46.08,8.92.09,13.38.02,10.49,0,20.98.03,31.47,0,1.01-.1,1.61-1.38,1.61-5.94-.04-11.88-.01-17.82.06-1.43.02-1.88-.45-1.88-1.89.06-16.11.06-32.22.05-48.33,0-4.56-.15-9.12.76-13.62,3.3-16.29,12.79-28.04,26.86-36.53,3.26-1.97,6.75-3.52,10.28-4.51,6-1.67,12.21-2.73,18.54-2.2,5.67.48,11.16,1.7,16.46,3.73,6.66,2.55,12.42,6.5,17.53,11.44,1.75,1.69,3.33,3.48,4.84,5.37.8,1,1.73.64,2.47-.25.98-1.19,1.92-2.41,2.95-3.57,3.19-3.59,7.19-6.17,11.1-8.87,5.11-3.52,10.96-5.1,16.88-6.66,4.97-1.31,9.96-1.29,14.97-1.03,5.17.26,10.12,1.6,14.87,3.73,2.94,1.32,6,2.42,8.72,4.16,4.73,3.02,8.97,6.64,12.62,10.91.3.35.63.66.95.99,1.68,1.74,1.93,1.75,3.32-.23,3.6-5.13,8.4-9.05,13.73-12.07,3.9-2.2,8.26-3.68,12.57-5.2,6.56-2.31,13.14-2.89,19.85-2.24,7.34.71,14.29,2.96,20.82,6.51,3.09,1.68,5.96,3.62,8.7,5.78,4.56,3.6,8.1,8.08,11.31,12.87,2.56,3.82,3.95,8.07,5.42,12.37,2.57,7.51,1.93,15.43,3.45,23.05.91,4.57,2.75,8.71,5.81,12.28,2.03,2.37,4.14,4.66,6.69,6.51,2.31,1.67,4.73,3.18,7.41,4.13,2.89,1.03,5.88,1.76,8.97,1.94.49.01.98.02,1.47.03,1.45-.02,2.9-.04,4.34-.06,0,0,.01.01.01.01.36-.02.72-.05,1.07-.07,0,0-.01,0-.01,0,3.57-.45,7.05-1.41,10.22-3.01,2.56-1.29,4.95-3.02,7.1-5.01,4.2-3.89,7.23-8.43,8.95-13.97,1.5-4.82,2.24-9.62,1.58-14.61.15-.2.25-.39-.07-.53-.06-.19-.11-.37-.17-.56-.05-2-.19-3.98-1.49-5.66-.11-.21-.22-.42-.33-.62,0,0,.05-.07.05-.07l-.08-.03c-3.28-8.16-9.39-13.64-17.08-17.48-3.31-1.65-6.95-2.31-10.69-2.58-2.94-.21-5.86-.59-8.74.16-2.22.57-4.38,1.39-6.57,2.1-1.36.03-2.45.62-3.32,1.63-1.13.87-2.25,1.77-3.41,2.62-.6.44-1.04.54-1.61-.31-3.37-5.05-7.39-9.61-11.41-14.16-.91-1.02-1.08-1.59.26-2.49,5.02-3.39,10.23-6.23,16.06-8.12,7.02-2.27,14.09-3.47,21.4-2.66,7.37.82,14.33,2.98,20.86,6.66,3.11,1.75,5.83,4.02,8.92,5.75.19.11.35.3.5.47,2.03,2.32,4.38,4.33,6.27,6.78,1.29,1.68,1.35,1.5,3.23-.51,5.57-5.96,11.63-11.28,19.29-14.52,8.96-3.79,18.25-5.76,27.97-4.58,5.06.61,10.01,2.04,14.68,4.14,4.08,1.84,7.99,4.02,11.55,6.79,1,.78,1.13,1.29.29,2.18-3.42,3.65-6.03,7.94-9.38,11.64-.69.76-1.31,1.59-1.88,2.44-.64.95-1.5.99-2.2.36-3.71-3.36-8.32-4.83-12.99-6.03-2.82-.73-5.75-1.04-8.72-.35-1.61.37-3.38-.13-5,.36-5.67,1.7-10.98,4.09-15.13,8.48-.28.05-.36.24-.36.49-.02.13-.1.21-.24.22-.25,0-.37.11-.36.36,0,0,.03-.03.03-.03-.41.01-.48.28-.46.61-.23.25-.45.49-.68.74,0,0,0,0,0,0-.56.7-1.12,1.39-1.68,2.08-.37.02-.46.24-.42.56-.1.17-.2.34-.3.51-2.05,2.84-3.74,5.83-4.13,9.4-.08.34-.17.68-.25,1.02,0,0-.14.08-.14.08l.1.12c-.08.31-.16.62-.24.93-.27.34-.38.71-.24,1.14-.63,4.1-.49,8.18.41,12.23.33,1.47.66,2.89,1.72,4.09.91,1.03.92,2.51,1.47,3.76,2,4.55,5.48,7.74,9.15,10.82,3.32,2.79,7.31,4.35,11.33,5.72,1.64.56,3.54.35,5.32.49,0,0,.03.08.03.08l.05-.07c.69.05,1.38.09,2.08.14,0,0-.02-.02-.02-.02.71,0,1.41,0,2.12,0,0,0-.03,0-.03,0,.37-.02.73-.04,1.1-.05.56.05,1.14.2,1.67-.14,5.35-.63,10.17-2.57,14.43-5.83,1.28-.99,2.1-.38,2.89.53.55.65,1.03,1.37,1.46,2.11,1.36,2.33,3.77,3.8,5.02,6.2.05.08.1.15.15.23.75.49,1.2,1.22,1.59,2,0,0,.03.04.03.04.1.12.2.24.3.36.27,1.26.96,2.14,2.23,2.53.72,1.01.97,1.93-.48,2.53-.96.11-1.63.69-2.22,1.4,0,0-.02,0-.02,0-1.53.27-2.62,1.29-3.74,2.24-3.86,2.3-7.99,3.87-12.31,5.16-3.5,1.04-7.08.96-10.59,1.6-.39.04-.79.08-1.18.12-.98.35-1.97.17-2.95,0-.17-.03-.35-.05-.52-.08-4.49.42-8.74-.77-13.02-1.85-5.78-1.45-10.94-4.21-15.76-7.57-3.77-2.62-7.24-5.65-10.02-9.38-1.95-2.62-2.5-2.53-5.01.29-5.28,5.93-11.49,10.56-18.8,13.86-3.87,1.74-7.82,3.06-11.9,4.01-2.22.52-4.58.46-6.87.66-2.38-.02-4.76-.04-7.14-.06-4.52-.06-9.09-.77-13.14-2.36-7.74-3.03-14.93-7.3-20.68-13.46-1.27-1.36-2.89-2.48-3.7-4.24-.56-1.22-1.37-.87-2.06-.27-.78.68-1.41,1.52-2.1,2.3-.09.11-.18.23-.27.35-.13.14-.27.28-.4.42-.41.12-.61.4-.61.83-.32.6-.86.96-1.44,1.27-1.06.1-1.58.79-1.92,1.7-4.7,4.35-10.16,7.47-16.1,9.81-5.14,2.02-10.4,3.52-15.98,3.59-1.36-.24-2.67.3-4.01.31-.31-.04-.62-.07-.92-.11,0,0-.01,0-.01,0Zm-16.13-80.64c-.1.1-.2.19-.31.29,0,0-.06.04-.06.04-.28.22-.56.44-.84.66-.67-.04-1,.4-1.29.9-.06.27-.22.4-.5.42-1.75.99-3.05,2.44-4.11,4.12-.15.14-.3.29-.44.43-.46.31-.68.78-.87,1.27-.61.87-1.22,1.74-1.83,2.6-.42.23-.56.61-.59,1.05-.15.26-.29.52-.44.78-.52.28-.46.81-.58,1.27-.2.4-.4.79-.6,1.19-.62.76-1.06,1.6-1.23,2.57,0,2.33-.91,4.56-1.01,6.82-.27,6.42.62,12.61,4.02,18.33,6.01,10.11,14.41,16.28,26.52,16.65,2.61.08,5.33.34,7.83-.22,4.23-.96,8.21-2.59,11.95-5.06,4.22-2.79,7.52-6.31,10.03-10.48,2.84-4.7,4.25-10.02,4.31-15.51.05-5.04-1.15-9.83-3.31-14.53-1.34-2.91-3-5.49-5.06-7.75-3.75-4.11-8.17-7.42-13.74-8.86-1.47-1.45-3.34-1.66-5.28-1.65-.19-.02-.38-.04-.57-.06-3.35-.4-6.69-.38-10.03.06-1.52.73-3.17,1.05-4.79,1.47-2.14.55-4.18,1.4-6.11,2.47,0,0-.07.01-.07.01-.33.24-.66.48-1,.71h-.03Z"/><path d="m386.3,115.12c-4.59,2.81-9.3,5.02-14.1,7.03-3.76,1.57-7.76,2.45-11.81,2.74-2.89.21-5.77.52-8.7.44-6.77-.2-13.16-1.79-19.33-4.56-6.5-2.91-12.17-6.89-17.18-11.94-4.9-4.93-8.29-10.77-11.13-17.03-3.73-8.25-3.99-16.99-3.54-25.75.26-5.03,1.91-9.85,3.91-14.51,5.02-11.75,13.13-20.69,24.41-26.79,9.44-5.11,19.53-7.03,30.17-6.06,10.67.98,20.26,4.79,28.71,11.38,2.07,1.61,2.12,1.99.49,4.02-3.52,4.39-7.53,8.33-11.37,12.43-.91.97-1.62.92-2.62.1-4.14-3.33-8.63-6.12-14.05-6.53-3.13-.24-6.2-1.09-9.46-.43-6.63,1.34-12.97,3.13-18.06,7.9-3.28,3.08-6.04,6.47-7.82,10.67-1.92,4.51-3.46,9.03-3.3,14.04.33,10.26,4.62,18.49,12.52,24.93,3.87,3.16,8.26,5.46,13.14,6.55,2.34.52,4.85.37,7.29.41,8.5.16,15.69-3.02,21.77-8.76,5.08-4.79,8.47-10.6,9.7-17.5.38-2.13.49-4.33.53-6.53.19-10.37,2.89-20.1,8.73-28.71,7.53-11.11,17.81-18.72,30.87-22.32,2.38-.66,4.77-1.4,7.38-1.32,1.46.05,3.02-.59,4.58-.6,13.93-.09,26.49,3.77,37.27,12.78.31.26.77.48.89.82.63,1.83,1.43,1.25,2.44.32,2.69-2.49,5.76-4.55,8.7-6.68,1.34-.97,3.32-1.66,5.05-2.39,4.24-1.79,8.59-3.15,13.13-3.88,4.25-.68,8.49-1.19,12.86-.67,3.75.45,7.52.65,11.16,1.75,11.06,3.36,20.44,9.22,27.55,18.42,9.54,12.34,13.12,26.18,10.63,41.58-1.34,8.26-4.29,15.89-9.25,22.63-6.78,9.2-15.64,15.8-26.47,19.56-7,2.43-14.32,2.94-21.69,2.62-6.51-.28-12.62-2.36-18.41-5.07-7.63-3.58-14.07-8.74-19.47-15.36-5-6.14-8.04-13.06-10.06-20.53-.45-1.66-.61-3.45-.87-5.19-.63-4.25-.51-8.5-.21-12.71.32-4.4,1.31-8.78,3.02-12.89.8-1.93.41-3.17-1.03-4.62-4.21-4.24-9.33-6.79-14.92-8.63-1.17-.38-2.42-.33-3.57-.41-8.31-.58-16.35.37-23.28,5.54-8.73,6.52-13.45,15.15-13.61,26.13-.21,14.49-.1,28.98-.07,43.47,0,1.8.05,3.59,0,5.39-.04,1.47-.75,2.38-2.34,2.39-3.67,0-7.34.01-11,.02-2.04,0-4.07-.06-6.11.02-1.2.05-1.69-.41-1.73-1.58-.07-1.96-.22-3.93-.35-6.13Zm128.52-10.94c1.46.19,4.09-.09,6.62-.6,7.65-1.56,14.02-5.49,18.85-11.56,5.46-6.86,7.69-14.72,6.56-23.51-.7-5.42-2.12-10.55-5.39-14.99-5.27-7.15-11.87-12-21.05-13.57-5.79-.99-11.19-.02-16.39,1.5-5.89,1.72-11.16,5.03-14.39,10.75-1.69,2.99-3.36,6.03-4.46,9.21-1.05,3.06-1.84,6.3-2.1,9.61-.23,2.89-.6,5.9.11,8.64,1.3,4.96,3.66,9.51,7.19,13.37,6.26,6.83,13.78,11.02,24.45,11.15Z"/><path class="cls-2" d="m7.98,150.16c-1.21-.79-2.43-1.55-3.62-2.37-2.26-1.54-3.37-3.92-4.14-6.36-.43-1.36-.13-2.96-.13-4.45.01-19.09.04-38.18.04-57.27,0-22.57.03-45.15-.07-67.72-.01-3.1.96-5.76,2.84-7.93C5.16,1.48,8.28.14,11.8.12c7.16-.05,14.31-.04,21.47-.05C42.38.04,51.49.02,60.6,0c1.8,0,1.98.13,1.71,1.9-.71,4.63-1.53,9.23-2.34,13.84-.58,3.33-1.33,6.64-1.63,10.03-.2,2.29-.88,4.54-1.12,6.83-.25,2.38-.7,4.74-.97,7.11-.24,2.2-1.74,3.88-2.04,6.01-.13.91-.16,1.89-.97,2.58-.53.45-.82.57-1.33-.13-1.24-1.72-3.03-2.5-5.13-2.64-.46-.03-1.06.27-1.32-.36-.27-.64-.34-1.37.16-1.88,1.12-1.14,1.33-2.5,1.27-4-.05-1.05.37-2.03.75-2.99.28-.7.53-1.4.51-2.16-.03-.69.2-1.13.97-1.13.77,0,.98.52,1.04,1.14.09.93-.36,1.78-.45,2.68-.03.32,0,.65,0,1.05.61-.04.7-.49.85-.9.66-1.82.49-3.6-.4-5.27-.43-.81-.43-1.58-.16-2.35.43-1.26.5-2.49.1-3.76-.53-1.69-.66-3.53-1.75-5.03-1.63-2.25-3.87-3.35-6.6-3.61-1.59-.15-3.12-.11-4.64.48-2.45.96-4.08,2.7-5.06,5.07-1.31,3.14-1.34,6.47-.55,9.65.53,2.13,1.16,4.28,1.99,6.34.38.95.34,1.88.39,2.84.04.85-.46.93-1.01.72-1.06-.4-1.73-.19-2.56.68-.84.89-2.21.81-3.44.69-2.07-.2-4.16-.45-5.89,1.14-1.1,1.02-1.93,2.23-2.48,3.61-1.13,2.87-2.25,5.74-3.27,8.65-.26.74-.13,1.57.16,2.4.45,1.3,1.41,2.39,1.63,3.72.49,2.88,1.97,5.54,1.89,8.55-.01.46.16,1.01.44,1.38,2.21,2.95,3.72,6.48,6.99,8.56,1.52.97,1.62,2.48,1.75,4,.07.78.11,1.58.05,2.36-.08,1.12.23,2.13.94,2.96,1.27,1.47,1.56,3.04.79,4.82-.15.36-.38.81-.06,1.17.39.45.89.82,1.52.45.59-.34.39-.86.16-1.3-.27-.51-.66-.98-.32-1.61.12-.22.24-.47.53-.46.22,0,.34.19.42.4.54,1.49,1.85,2.27,3.02,3.15.93.7,1.33,1.38,1.26,2.66-.28,5.54-.24,11.09-.55,16.63-.56,9.73-.54,19.48-.85,29.21-.05,1.47-.57,2.91-.35,4.4.05.33-.19.41-.46.42-3.11-.09-6.21-.24-9.32-.24-3.9,0-7.8-.24-11.69.19-1.75.19-3.44-.42-5.17-.47Z"/><path d="m273.7,115.49c-2.68,1.4-5.28,2.77-7.88,4.11-6.17,3.18-12.7,4.88-19.65,5.51-5.27.48-10.44.02-15.57-.67-3.34-.45-6.63-1.73-9.68-3.35-1.67-.89-3.4-1.68-5.1-2.46-4.13-1.89-7.47-4.76-10.81-7.71-3.84-3.4-7.08-7.26-9.65-11.67-3.37-5.79-5.39-12.05-6.74-18.59-.95-4.64-1.05-9.33-.57-13.92.77-7.31,3.17-14.23,6.72-20.74,3.08-5.65,7.16-10.56,11.88-14.78,2.7-2.42,5.9-4.49,9.22-6.21,3.52-1.83,7.17-3.34,10.98-4.43,5.42-1.56,10.97-2.35,16.63-2.12,12.15.5,22.99,4.48,32.42,12.14,5.37,4.36,9.91,9.5,12.93,15.7,2.38,4.88,4.78,9.74,5.8,15.25,1.41,7.67.96,15.33.99,23.01.05,12.74.01,25.49,0,38.24,0,2.4-.14,2.56-2.59,2.55-5.64-.03-11.29-.14-16.93-.13-1.39,0-1.93-.55-1.86-1.84.14-2.54-.18-5.06-.53-7.86Zm-64.49-43.99c.16,11.51,4.58,19.11,11.8,25.2,7.24,6.1,15.7,8.35,25.15,7.35,12.9-1.37,29.01-14.3,28.01-33.03-.91-17.02-13.99-31.8-33.24-31.55-8.5.11-16.01,3.35-22.02,9.41-6.68,6.73-10.19,14.81-9.69,22.62Z"/><path d="m37.62,150.38c.29.18.59.26.94.25,13.6-.48,27.2-.14,40.81-.19,19.81-.06,39.61-.02,59.42-.02,3.01,0,5.69-.94,8.05-2.74,1.01-.77,1.71-1.87,2.21-3.07.14-.34.24-.8.51-.96,1.15-.69,1.21-1.75,1.2-2.91-.07-6.43-.24-12.87-.12-19.3.26-14.32.04-28.63.12-42.95.03-4.91.03-9.83.02-14.74-.03-10.29-.08-20.59-.11-30.88,0-3.03.04-6.06.04-9.09,0-4.67.04-9.34-.2-14.01-.06-1.17-.04-2.33-1.03-3.2-.37-.32-.14-.57.12-.81.61-.2,1.03.19,1.46.49,3.37,2.37,4.88,5.69,4.88,9.73,0,12.17,0,24.35,0,36.52,0,29.4.03,58.8,0,88.2,0,2.37.16,4.79-1.02,7.03-2.31,4.39-5.96,6.6-10.88,6.61-22.76.04-45.52.02-68.28.02-12.32,0-24.63-.01-36.95.03-1.06,0-1.39-.28-1.27-1.3.1-.9.07-1.82.1-2.73Z"/><path d="m7.98,150.16c1.74.04,3.43.66,5.17.47,3.89-.43,7.79-.19,11.69-.19,3.11,0,6.21.15,9.32.24.42,1.03.25,2.1.2,3.16-.04.75-.72.54-1.17.54-5.15.01-10.3-.05-15.46.03-2.94.04-5.57-.71-7.93-2.43-.7-.51-1.43-1-1.82-1.81Z"/><path class="cls-2" d="m58.01,47.78c-.03.73.01,1.46-.53,1.98-.36.35-.88.82-1.38.33-.43-.42-.24-1,.15-1.44.46-.51,1.08-.7,1.76-.88Z"/><path class="cls-1" d="m50.48,115.66c-.38-1.26-1.2-2.38-1.15-3.76.35,1.27.97,2.45,1.15,3.76Z"/></svg>