<?xml version="1.0" encoding="utf-8"?>
<!-- Generator: Adobe Illustrator 19.0.0, SVG Export Plug-In . SVG Version: 6.00 Build 0)  -->
<svg version="1.1" id="Calque_1" xmlns="http://www.w3.org/2000/svg" xmlns:xlink="http://www.w3.org/1999/xlink" x="0px" y="0px"
	 viewBox="0 0 152.8 64.7" style="enable-background:new 0 0 152.8 64.7;" xml:space="preserve">
<style type="text/css">
	.st0{fill:#FFFFFF;}
	.st1{fill:#73EC42;}
</style>
<g id="XMLID_426_">
	<path id="XMLID_431_" class="st0" d="M120.4,41.2h-2.7v-3.7h-9.6v3.7h-2.7v-7.5c0-1.1,0.2-2.1,0.6-3c0.4-0.9,0.9-1.7,1.6-2.4
		c0.7-0.7,1.5-1.2,2.4-1.6c0.9-0.4,1.9-0.6,3-0.6h6.2c0.2,0,0.4,0,0.5,0.1c0.2,0.1,0.3,0.2,0.4,0.3c0.1,0.1,0.2,0.3,0.3,0.4
		c0.1,0.2,0.1,0.3,0.1,0.5V41.2z M108.1,34.8h9.6v-5.9h-4.8c-0.1,0-0.3,0-0.5,0c-0.3,0-0.6,0.1-0.9,0.2c-0.4,0.1-0.7,0.2-1.1,0.5
		s-0.8,0.5-1.1,0.8s-0.6,0.8-0.8,1.3c-0.2,0.5-0.3,1.2-0.3,1.9V34.8z"/>
	<path id="XMLID_429_" class="st0" d="M137.2,28.9h-6v12.3h-2.7V28.9h-6v-2.7h14.8V28.9z"/>
	<path id="XMLID_427_" class="st0" d="M152.8,28.9h-6v12.3H144V28.9h-6v-2.7h14.8V28.9z"/>
</g>
<g id="XMLID_413_">
	<path id="XMLID_421_" class="st1" d="M12.7,22.4c0,0.4-0.1,0.8-0.2,1.3c-0.1,0.4-0.4,0.9-0.7,1.2c-0.3,0.4-0.7,0.7-1.2,1
		c-0.5,0.3-1.1,0.4-1.8,0.4h-5c-0.4,0-0.8-0.1-1.3-0.2c-0.4-0.1-0.9-0.4-1.2-0.7c-0.4-0.3-0.7-0.7-1-1.2C0.1,23.7,0,23.1,0,22.4
		c0-0.4,0.1-0.8,0.2-1.3c0.1-0.5,0.4-0.9,0.7-1.3c0.3-0.4,0.7-0.7,1.2-1c0.5-0.3,1.1-0.4,1.8-0.4h5v2.7h-5c-0.4,0-0.7,0.1-0.9,0.3
		c-0.2,0.2-0.3,0.5-0.3,0.9c0,0.4,0.1,0.6,0.4,0.9c0.2,0.2,0.5,0.3,0.9,0.3h5c0.4,0,0.7-0.1,0.9-0.3c0.2-0.2,0.3-0.5,0.3-0.9v-3.9
		c0-0.4-0.1-0.7-0.3-0.9s-0.5-0.3-0.9-0.3H2.8v-2.7h6.1c0.4,0,0.8,0.1,1.3,0.2c0.4,0.1,0.9,0.4,1.2,0.7c0.4,0.3,0.7,0.7,1,1.2
		c0.3,0.5,0.4,1.1,0.4,1.8V22.4z"/>
	<path id="XMLID_419_" class="st1" d="M26.4,26.2h-7.6c-0.4,0-0.8-0.1-1.3-0.2c-0.5-0.1-0.9-0.4-1.3-0.7c-0.4-0.3-0.7-0.7-1-1.2
		c-0.3-0.5-0.4-1.1-0.4-1.8v-3.8c0-0.3,0-0.5,0.1-0.8c0.1-0.3,0.2-0.6,0.3-0.9s0.3-0.6,0.5-0.8c0.2-0.3,0.5-0.5,0.7-0.7
		c0.3-0.2,0.6-0.4,1-0.5c0.4-0.1,0.8-0.2,1.3-0.2h7.6v2.8h-7.6c-0.4,0-0.6,0.1-0.8,0.3c-0.2,0.2-0.3,0.5-0.3,0.9v3.8
		c0,0.4,0.1,0.6,0.3,0.8s0.5,0.3,0.8,0.3h7.6V26.2z"/>
	<path id="XMLID_417_" class="st1" d="M38.8,17.4h-6.3c-0.4,0-0.7,0.1-0.9,0.3c-0.2,0.2-0.3,0.5-0.3,0.8v7.7h-2.8v-7.7
		c0-0.5,0.1-0.9,0.2-1.3c0.1-0.4,0.3-0.7,0.5-1s0.4-0.5,0.7-0.7c0.3-0.2,0.5-0.4,0.8-0.5s0.6-0.2,0.9-0.3c0.3-0.1,0.6-0.1,0.8-0.1
		h6.3V17.4z"/>
	<path id="XMLID_414_" class="st1" d="M53.3,22.3c0,0.5-0.1,0.9-0.2,1.3c-0.1,0.4-0.3,0.7-0.5,1c-0.2,0.3-0.4,0.5-0.7,0.7
		c-0.3,0.2-0.5,0.4-0.8,0.5s-0.6,0.2-0.9,0.3c-0.3,0.1-0.6,0.1-0.8,0.1h-5c-0.4,0-0.8-0.1-1.3-0.2c-0.5-0.1-0.9-0.4-1.3-0.7
		c-0.4-0.3-0.7-0.7-1-1.2c-0.3-0.5-0.4-1.1-0.4-1.8v-3.8c0-0.7,0.1-1.3,0.4-1.8c0.3-0.5,0.6-0.9,1-1.2c0.4-0.3,0.8-0.5,1.3-0.7
		c0.5-0.1,0.9-0.2,1.3-0.2h5c0.7,0,1.3,0.1,1.8,0.4c0.5,0.3,0.9,0.6,1.2,1c0.3,0.4,0.5,0.8,0.7,1.3c0.1,0.5,0.2,0.9,0.2,1.3V22.3z
		 M50.5,18.6c0-0.4-0.1-0.7-0.3-0.9c-0.2-0.2-0.5-0.3-0.8-0.3h-5c-0.4,0-0.7,0.1-0.8,0.3c-0.2,0.2-0.3,0.5-0.3,0.8v3.8
		c0,0.4,0.1,0.6,0.3,0.8s0.5,0.3,0.8,0.3h5c0.4,0,0.7-0.1,0.8-0.3c0.2-0.2,0.3-0.5,0.3-0.8V18.6z"/>
</g>
<path id="XMLID_394_" class="st1" d="M83.2,57.9L72.4,47.1c-0.2-0.2-0.4-0.3-0.7-0.4l-4.7-1.3c-0.1,0-0.1-0.2,0-0.2l8.3-6.1
	c0.2-0.2,0.5-0.2,0.8-0.2l3.1,0.8c1.5,0.4,3-0.6,3.3-2.1c0.3-1.5-0.6-2.9-2.1-3.3l-4.7-1.1c-0.8-0.2-1.6,0-2.3,0.5l-10.1,7.5
	c-0.1,0.1-0.3,0.1-0.4-0.1l-3.4-4.9c0-0.1,0,0.2,0.1,0.2l4.9,0.3c0,0,0,0,0,0c0.8,0,1.7-0.8,2-1.6c0.1-0.1,0.2-0.6,0.2-0.8v-7.6
	c0-1.3-1.4-2.3-2.8-1.9c0,0-0.1,0-0.1,0c0,0,0-0.1,0-0.1l7.8-23.5c0.1-0.3-0.1-0.5-0.3-0.6c-0.3-0.1-0.5,0.1-0.6,0.3l-7.8,23.4
	l-6.7,7.2l-3-4.3c-0.7-1-1.7-1.6-2.8-1.9L64.6,1.3c0.1-0.2,0.1-0.5-0.2-0.7c-0.2-0.1-0.5-0.1-0.7,0.2L49.3,25
	c-1.1-0.1-2.2,0.2-3.1,0.9c-0.8,0.5-1.3,1.2-1.7,2l0,0l-7,11.3C37,40,37.1,41,37.9,41.7c0.3,0.3,0.7,0.4,1.1,0.5l6,0.9L46,63.7
	c0,0.3,0.2,1,0.5,1c0,0,0,0,0,0c0.3,0,0.5-0.8,0.5-1.1l-1-20.1l2.1,0.2c0.1,0,0.2,0,0.3,0c0.5,0,1-0.2,1.3-0.5l1.4,19.7
	c0,0.3,0.2,0.5,0.5,0.5c0,0,0,0,0,0c0.3,0,0.5-0.3,0.5-0.5l-1.5-21.6l0.1-0.1l5,7.1c1,1.4,2.5,2.1,4.1,2.1c0.7,0,1.4-0.1,2-0.4
	c0.1-0.1,0.2-0.1,0.4,0l6.8,1.8c0.2,0.1,0.4,0.2,0.6,0.3l9.7,9.8c0.5,0.5,1.2,0.8,2,0.8c0.7,0,1.4-0.3,1.9-0.8
	C84.2,60.7,84.2,59,83.2,57.9z M62.7,31.6c0,0.3-0.3,0.5-0.6,0.5l-5,0l5.6-5.9c0,0.2,0,0.4,0,0.6V31.6z M42.7,38.7
	c-0.1,0-0.1-0.1-0.1-0.2l1.9-3.1l0.2,3.6L42.7,38.7z M49.9,40.4c-0.3-0.3-0.7-0.6-1.2-0.7l-3-0.5L45.5,34l0.1-0.1
	c0-0.1,0.1-0.1,0.1,0l4.4,6.2L49.9,40.4z"/>
<path id="XMLID_393_" class="st0" d="M71.6,0.6l11.9,39.2c0.1,0.4,0.7,0.4,0.9,0.1l7.5-15.4c0.2-0.4,0.7-0.3,0.9,0L99,41.6
	c0.2,0.4,0.8,0.4,0.9-0.1l7.6-36.9c0.1-0.6-0.7-0.8-0.9-0.3l-7.2,19.7c-0.2,0.4-0.8,0.4-0.9,0L92.3,3.3c-0.1-0.4-0.7-0.4-0.9-0.1
	l-6.7,13.6c-0.2,0.3-0.6,0.4-0.8,0.1L72.5,0.2C72.2-0.2,71.5,0.1,71.6,0.6z"/>
</svg>
