<svg xmlns="http://www.w3.org/2000/svg" width="960" height="687" viewBox="0 0 960 687"><title>Fichier 1</title><g id="Calque_2" data-name="Calque 2"><g id="Calque_1-2" data-name="Calque 1"><path d="M207,0c-1.66,10.35-1.18,20.83-1.67,31.24-1.91,41.28-3.45,82.57-5.1,123.86q-2.34,58.26-4.65,116.53c-.1,2.5.39,5.29-.56,7.43-2.32,5.25,1.09,5,4.13,4.6s3.37.69,3.25,3.24c-.56,11.65-1.12,23.3-1.35,35-.06,3.11-1.24,4.48-4,4.17-3.63-.41-4,1.37-4,4.32q-.14,10.49-.84,21c-.18,2.71.7,3.42,3.28,3.48q29,.67,58,1.58a6.46,6.46,0,0,0,4.9-1.85c1.34-1.22,2.87-2.9,4.47-3.08,9.11-1,8.54-8,9.14-14.29q8.9-94,17.74-188Q296,82.19,302.17,15.27c.23-2.49.6-5,.77-7.45.13-1.91-.1-3.65,2.92-3.18,2.47.38,3.72.65,3.42,3.79-3,30.34-5.68,60.7-8.53,91q-5.24,55.72-10.58,111.42-6.24,66.42-12.39,132.84c-.42,4.5,1.21,6.2,5.67,5.78a13.7,13.7,0,0,0,2.4-.69c2.74-.79,5.61-1.83,7.89.77a7.73,7.73,0,0,1,1.11,8.51c-3.17,6.59-5.19,14-9.33,19.77-6.46,9-16.26,13.25-26.31,1.94-5.5-6.2-11-5.59-17.38-3.26-4.21,1.54-4.83,3.46-2.36,7.15,1.88,2.81,4.08,5,7.83,5.54,5.49.8,10.1,3.53,14.61,6.92,20.78,15.58,41,31.85,62.3,46.78a36.75,36.75,0,0,1,14,18.89c10.89,32.29,21.94,64.53,32.87,96.81.56,1.66,1,2.7,3,3.32,7.33,2.31,7.51,9,8.42,15,.76,5.06-.65,8.83-5.81,11.26-7.5,3.54-14.35,8.41-22,11.62-3,1.24-3.33,3-1.28,5.33s4,4.44,6.24,6.47a9.47,9.47,0,0,0,8.13,2.63,136.19,136.19,0,0,1,19-.64,12.54,12.54,0,0,0,10.1-4.39,145.71,145.71,0,0,1,15.81-14.52c3.92-3.11,12.32-2.32,16.34,1.59,3.15,3.07,3,7.64-.72,12.67-5.51,7.5-11.14,14.92-16.89,22.6,3.89,1.64,7.63,3,10.69,5.57,7.67,6.5,7,13.62-2,17.88-10.53,5-22,6.7-33.38,7.82-19.06,1.87-38.18,3-57.26,4.73-3.48.31-3.37-1.71-3.63-3.86-1.68-14.09-1.84-28.26-1.71-42.42,0-4.28-.62-6.49-5.57-5.78-4.14.6-8.55.87-7.89-5.71.17-1.74-1-1.61-2.31-.87-4.52,2.62-6,1.24-7.37-3.9-3.47-12.85-9.36-24.87-14.7-37-7.21-16.44-14.62-32.81-22.09-49.14-5.48-12-14.71-21.88-19.79-34-6.61-15.79-19.44-23.92-34.29-30-6-2.44-6.08-2.35-7.51,3.72-4.32,18.38-9.79,36.33-20.68,52.06-7,10.08-15.45,18.28-28.19,20.67A17.48,17.48,0,0,1,143,530c-19-8.4-30.47-23.65-38.11-42.25C95.15,464.09,92.29,439.2,92,413.91c-.09-6.83.22-13.66.31-20.49,0-1.15.1-2.58-1-3.15-1.32-.66-2,.76-2.78,1.53C78,402.67,65.13,411.19,57.73,424.94a15.48,15.48,0,0,1-10.25,7.48c-2.62.61-3.31,1.73-3.31,4.37q.11,123.24.08,246.48c0,1.25-.56,2.7.75,3.73H38q0-122.69,0-245.37c0-6.69.35-13.22-4.64-18.66a14.63,14.63,0,0,1-2.68-5.32C22.54,392.86,7,371.27,0,346v-8c.27-.16.71-.27.78-.5C4.45,325.89,9.72,315,15.4,304.25c.68-1.29,1.1-2.57.17-3.73-4.32-5.34-1.58-9.69,1.62-14.22s6.11-9.52,9.25-14.22a14.24,14.24,0,0,0,2.47-6.43A108.12,108.12,0,0,1,35.19,241c4.66-12.82,10.84-24.33,24.59-29.7,4.8-1.87,9.44-4.62,14.52-5.18C86,204.88,94.3,197.72,103,191c3.1-2.4,4.75-5.77,3.21-9.18-3.72-8.26-2.61-17.35-5.14-25.78-1.31-4.37-1.75-9.72,1.78-12.76s4.21-6.72,5.2-10.61a49.53,49.53,0,0,1,5.56-13.29c8.22-13.67,25.23-22.16,38.29-19.08,17.35,4.09,29.14,17.53,30.46,35.1.93,12.5-2.84,24-8.21,35.07-1.25,2.58-2,5.53-6,5.44-1.9,0-3.12,1.93-3.57,3.76C162,189.85,155.22,197.11,148,204.1c-4.53,4.4-8.79,9.27-15.82,9.57-.72,0-1.42.39-1.17,1.2,1.63,5.31,1.16,11.51,5.46,15.7,7.78,7.59,13,16.72,17.49,26.47,3.43,7.39,2.91,15.89,6.28,22.86,7.13,14.76,10.48,30.44,13.89,46.19,1.51,7,2.82,14,6,20.51a14.25,14.25,0,0,0,7.54,7.54c0-9.25-.12-17.35.07-25.45.06-2.46-1-2.93-2.9-2.58-3.91.72-4.17-1.32-4.09-4.48.28-11.64.42-23.29.34-34.94,0-3.06,1.54-3.44,3.67-3.09,4.25.69,4.93-1.47,5-5.08.71-21.65,1.58-43.29,2.46-64.93Q196.63,106.79,201,0ZM99.76,410c-2.14,26.95,1.79,53.68,10.3,73.67,6.66,15.65,16.19,29,31.4,37.56,7.72,4.35,15.22,3.9,22.55-.88a37.94,37.94,0,0,0,10.18-10.17c11.62-16.49,17.24-35.39,22-54.65.76-3.06-.79-2.87-2.8-2.82a136.85,136.85,0,0,0-30.06,4.34,37.22,37.22,0,0,1-23.47-1.73c-15.65-6.28-25.5-18.67-33.64-32.7C103.88,418.58,101.91,414.25,99.76,410ZM56.2,393.33c5-.7,11,1.9,15.89.4s8.55-7.1,13-10.55c2.66-2.05,2.59-3.84,1.37-6.68-7.7-17.89-19.67-32.63-33.5-46a21.58,21.58,0,0,0-5.31-3.66c-4.93-2.47-9.1-1.24-11.85,3.53a19.42,19.42,0,0,0-2.57,6.43c-1.23,7.87-2.31,15.78-3.12,23.71-.86,8.35,2.83,15.37,6.6,22.55,4.06,7.74,8.53,13.43,18.36,10.29A6.75,6.75,0,0,1,56.2,393.33Zm140.55-88.78h.44c0-4.47,0-8.94,0-13.41,0-1.21.64-2.84-1.63-2.78-1.83.05-1.57,1.4-1.49,2.49.67,9.27-.24,18.51-.39,27.77,0,.9-.37,2.25,1,2.35,1.88.13,1.34-1.5,1.4-2.52C196.35,313.82,196.54,309.19,196.75,304.55Zm-10.27.73h-.64c0,4.66,0,9.32,0,14,0,.77-.21,1.8,1,1.82s1.07-1,1.11-1.79q.62-14.18,1.2-28.36c0-.92.37-2.22-1-2.44-1.76-.28-1.7,1.17-1.7,2.32C186.46,295.63,186.48,300.45,186.48,305.28Z" style="fill:#1a181b"/><path d="M960,568c-1.14,5.64-2,11.35-3.48,16.91-6.65,25.19-24,39.86-47.77,48.1a168.09,168.09,0,0,1-54.45,8.82c-64.64.33-129.28.13-193.92.28-4,0-4.67-1.37-4.62-4.91.18-13.83.26-27.66,0-41.48-.09-4.43,1.15-5.57,5.56-5.56q99.21.21,198.42.1c11.56,0,23-.81,33.64-5.81,10.91-5.11,16.93-13.65,17.7-25.7a63.64,63.64,0,0,0-.38-14.46c-2.27-13.77-11-21.53-23.91-25.13a96.39,96.39,0,0,0-26.15-3.25c-42.48.05-85,.73-127.44-.21-24.31-.54-46.82-8-64.45-26.23-11.59-12-17.45-26.53-19.11-42.91-1.81-17.79-.42-35.25,6.46-52,6.73-16.35,19.08-26.94,35.2-33.42,4.16-1.67,8.49-2.92,12.74-4.36l9-2c24.48-4.41,49.23-3.61,73.94-3.76,10.45-.06,136-.51,149.08-.08,7.92.43,7.91.43,7.91,8.53,0,11.33-.28,22.67.13,34,.18,5.11-1.28,6.42-6.37,6.41q-81.47-.28-162.94-.11c-10.49,0-21-.26-31.47.42-10.86.72-21.42,3.22-30.41,10-10.9,8.19-14.67,19.72-13.45,32.61s9.57,20.33,21.21,24.65c8.87,3.29,18.1,4.36,27.45,4.39,40.32.11,80.64,0,121,.19,14.52.06,28.91,1.61,42.84,6,20.21,6.36,34.94,18.62,42.41,39,2.75,7.5,3.48,15.4,5.73,23Z" style="fill:#9c9ea0"/><path d="M607.94,191.14a.79.79,0,0,0,.29.85c1.59,2.71,3.16,5.43,4.77,8.13q39.6,66.37,79.17,132.76c.87,1.47,2.5,2.74,2.06,4.81-5.93,1-11.76.55-17.65.25q-18-.9-35.95-.87c-5.51,0-9.48-1.28-11.68-6.81-1.08-2.7-3.21-5-4.87-7.46a.76.76,0,0,0-.29-.82c0-.66.1-1.37-.79-1.59l-.06-.25-.25-.05c-10.68-18-21.47-35.94-31.94-54.07-2-3.49-4.14-4.81-8.16-4.83q-74.45-.42-148.91-1.15c-4.4,0-8.8,0-14.18,0,7.83-13.08,15.08-25.14,22.25-37.25,1-1.74,2.41-2,4.19-2q18.49.31,37,.52c24.82.27,49.64.45,74.45.79,3.28,0,3.93-.9,2.31-3.63L544,192a273.79,273.79,0,0,0-14-24c-1.52-3.64-3.15-7.2-5.91-10.12l0,0c0-1.49-1-2.44-2-3.37a.39.39,0,0,0-.28-.53c-1.24-3.78-3.6-6.91-5.83-10.12l-18-31.81-18,32c-2.89,4.51-5.9,9-8,14l0,.06c-2.88,4.52-5.93,8.94-8,13.94l0,0c-3.71,5.77-7.42,11.54-10.06,17.91h0a36,36,0,0,0-5.91,10l0,.08c-8.45,12.9-15.6,26.57-23.17,40C416.6,254.73,407.12,268.7,400,284c-9.57,16.51-19.23,33-28.65,49.57-1.8,3.18-3.89,4.36-7.52,4.32-16-.18-32-.06-48-.1-1.6,0-3.32.47-5.26-.87q11.72-19.54,23.43-39.06,16.62-27.66,33.25-55.32a12.34,12.34,0,0,0,.83-2.31A213.57,213.57,0,0,0,384,214c11.11-18.29,22.29-36.55,33.32-54.89Q442.81,116.62,468.13,74c4.74-8,9.11-16.09,15.67-22.93,9.39-9.8,25.8-9.65,35.63-.8,8.82,7.94,14.71,17.87,20.68,27.83q15,25,30,49.88c7.5,13.57,15.39,26.92,23.88,39.9l0,.06A200.09,200.09,0,0,0,607.94,191.14Z" style="fill:#059cdd"/><path d="M799.87,93.94c-32.79,2.34-62.62,11.37-84.48,37.94a63.5,63.5,0,0,0-11.34,20.27c-4.46,9.23-6.13,19.17-6.81,29.24-.87,13.08-.65,26.12,4.8,38.46-.17,2.35,1.36,4.1,2.13,6.12A64.05,64.05,0,0,0,718,249a82.94,82.94,0,0,0,32.06,25A48.18,48.18,0,0,0,765,280h0a36.79,36.79,0,0,0,4.57,1.87,179.06,179.06,0,0,0,45.93,6.05q64.74,0,129.48,0l.13,0c.06,14.82,0,29.65.27,44.47.08,4.28-1.47,5.33-5.51,5.32-42.65-.13-85.3.1-127.95-.2a216,216,0,0,1-62-9.1c-8.12-2.48-15.83-6-23.9-8.5-2-1.12-4-2.3-6.07-3.34-21.78-11-40-26.23-53.05-47-15.89-25.2-20.78-53.12-19.6-82.55A213.1,213.1,0,0,1,657.84,128L664,114c1.93-1.56,2.36-4.05,3.59-5.93a142.54,142.54,0,0,1,16.07-20.77c8.09-8.47,17.89-14.59,27.39-21.18,7.9-3.39,15.67-7.13,23.72-10.09C745.21,52.23,756.1,50,767,47.87L802.86,44l9.17-.15c1.66.06,3.32.17,5,.17,41,0,82,.06,123-.08,4,0,5.52.86,5.43,5.19q-.41,18.74,0,37.49c.1,4.5-1.09,5.88-5.78,5.85q-59.74-.28-119.48,0C813.41,92.45,806.56,92.41,799.87,93.94Z" style="fill:#059cdd"/><path d="M503.07,350.84c43,0,86,.06,129-.09,4.13,0,5.39,1.06,5.31,5.25-.26,13.16-.24,26.32,0,39.48.07,4.17-1.24,5.4-5.39,5.38-32.82-.15-65.64,0-98.47-.19-4.4,0-5.55,1.13-5.54,5.55.14,76.14,0,152.28.23,228.42,0,5.17-1.36,6.4-6.35,6.26-13.32-.36-26.66-.2-40-.06-3.51,0-5-1-4.29-4.64a33.58,33.58,0,0,0,.27-6q0-111.71.14-223.42c0-4.74-1.19-6.17-6-6.14-32.49.2-65,0-97.47.2-4.22,0-5.86-.89-5.75-5.49.31-13.15.28-26.33,0-39.48-.09-4.32,1.38-5.18,5.4-5.17,43,.14,86,.08,129,.08Z" style="fill:#9c9ea0"/></g></g></svg>