<?xml version="1.0" encoding="UTF-8"?>
<svg xmlns="http://www.w3.org/2000/svg" version="1.1" viewBox="0 0 243.61 85.04">
  <defs>
    <style>
      .cls-1 {
        fill: #10002a;
      }

      .cls-2 {
        fill: #30adb9;
      }

      .cls-3 {
        fill: #96b0c2;
      }
    </style>
  </defs>
  <!-- Generator: Adobe Illustrator 28.6.0, SVG Export Plug-In . SVG Version: 1.2.0 Build 709)  -->
  <g>
    <g id="Calque_1">
      <g id="Calque_1-2" data-name="Calque_1">
        <g>
          <g>
            <g>
              <path class="cls-1" d="M36.37,47.67c-.52-1.64-1.09-3.32-1.69-5.04s-1.21-3.44-1.8-5.16c0,0-7.04.82-11.8,1.7-4.3.79-7.71,1.5-7.71,1.5-.59,1.72-.09.25-.68,1.97-.6,1.73-1.15,3.41-1.67,5.03H0c1.77-5.08,3.46-9.77,5.05-14.08s3.15-8.36,4.67-12.17c1.52-3.81,3.02-7.42,4.5-10.85s3.01-6.77,4.6-10.03h10.06c1.55,3.26,3.07,6.61,4.58,10.03,1.5,3.42,3.02,7.04,4.54,10.85,1.53,3.81,3.09,7.87,4.68,12.17,1.59,4.31,3.28,9,5.06,14.08h-11.37ZM23.62,11.22c-.24.68-.58,1.62-1.04,2.79-.46,1.18-.97,2.54-1.56,4.08-.58,1.54-1.23,3.24-1.95,5.1-.72,1.86-2.22,6.17-2.96,8.21,0,0,3.31-.68,4.9-.95,2.66-.45,9.34-1.42,9.34-1.42-.72-2.04-1.42-4-2.1-5.86s-1.32-3.57-1.93-5.11c-.61-1.54-1.14-2.9-1.6-4.08s-.83-2.1-1.11-2.77h.01Z"/>
              <path class="cls-1" d="M80.9,38.55v9.11h-31.48V.54h10.61v38.01h20.88-.01Z"/>
              <path class="cls-1" d="M108.42.54v9.04h-14.21v38.08h-10.61V9.58h-14.21V.54h39.03,0Z"/>
              <path class="cls-1" d="M111.19.54h10.61v47.12h-10.61V.54Z"/>
            </g>
            <g>
              <path class="cls-2" d="M189.18,47.67c-.52-1.64-1.09-3.32-1.69-5.04s-1.21-3.44-1.8-5.16c0,0-7.04.82-11.8,1.7-4.3.79-7.71,1.5-7.71,1.5-.59,1.72-.09.25-.68,1.97-.6,1.73-1.15,3.41-1.67,5.03h-11.02c1.77-5.08,3.46-9.77,5.05-14.08s3.15-8.36,4.67-12.17c1.52-3.81,3.02-7.42,4.5-10.85s3.01-6.77,4.6-10.03h10.06c1.55,3.26,3.07,6.61,4.58,10.03,1.5,3.42,3.02,7.04,4.54,10.85,1.53,3.81,3.09,7.87,4.68,12.17,1.59,4.31,3.28,9,5.06,14.08h-11.37ZM176.44,11.22c-.24.68-.58,1.62-1.04,2.79-.46,1.18-.97,2.54-1.56,4.08-.58,1.54-1.23,3.24-1.95,5.1-.72,1.86-2.22,6.17-2.96,8.21,0,0,3.31-.68,4.9-.95,2.66-.45,9.34-1.42,9.34-1.42-.72-2.04-1.42-4-2.1-5.86s-1.32-3.57-1.93-5.11c-.61-1.54-1.14-2.9-1.6-4.08s-.83-2.1-1.11-2.77h.01Z"/>
              <path class="cls-2" d="M163.45.54v9.04h-14.21v38.08h-10.61V9.58h-14.21V.54h39.03,0Z"/>
              <path class="cls-2" d="M243.61,24.07c0,4.08-.63,7.64-1.9,10.68-1.27,3.04-3.07,5.55-5.41,7.55s-5.18,3.49-8.53,4.49c-3.36,1-7.12,1.5-11.29,1.5-1.9,0-4.13-.08-6.66-.24-2.54-.16-5.03-.49-7.48-.99V1.16c2.45-.45,5-.76,7.65-.92s4.93-.24,6.83-.24c4.03,0,7.69.45,10.98,1.36,3.29.91,6.11,2.33,8.47,4.28,2.36,1.95,4.17,4.44,5.44,7.48s1.9,6.69,1.9,10.95h0ZM212.94,39.03c.5.05,1.08.08,1.73.1.66.02,1.44.03,2.35.03,5.3,0,9.24-1.34,11.8-4.01s3.84-6.37,3.84-11.08-1.22-8.68-3.67-11.22-6.32-3.81-11.63-3.81c-.73,0-1.47.01-2.24.03s-1.5.08-2.18.17v29.78h0Z"/>
            </g>
          </g>
          <g>
            <path class="cls-3" d="M50.83,78.27h1.84v6.16c-.15.05-.37.11-.66.17-.29.06-.61.13-.99.19s-.78.12-1.23.16c-.44.04-.89.07-1.35.07-.92,0-1.77-.15-2.53-.46-.76-.3-1.41-.75-1.96-1.33-.54-.58-.97-1.3-1.26-2.15-.3-.85-.45-1.82-.45-2.93s.17-2.08.5-2.94c.33-.86.79-1.57,1.36-2.16.57-.58,1.24-1.03,2-1.33.77-.3,1.59-.46,2.46-.46.6,0,1.12.04,1.59.11.46.08.86.17,1.19.27.33.1.6.2.81.3.21.1.35.18.43.23l-.59,1.54c-.37-.24-.85-.44-1.46-.6s-1.23-.24-1.86-.24c-.67,0-1.28.12-1.83.36s-1.02.59-1.41,1.04-.69,1.01-.9,1.66c-.22.65-.32,1.38-.32,2.19s.09,1.5.28,2.15c.18.65.46,1.2.84,1.66.37.46.84.82,1.39,1.07s1.2.38,1.95.38c.53,0,.98-.03,1.36-.08.37-.06.64-.11.81-.16v-4.9.03Z"/>
            <path class="cls-3" d="M62.23,79.24c.2.25.46.59.77,1s.63.87.96,1.37.66,1.02.98,1.57c.32.54.6,1.07.83,1.58h-2.01c-.25-.48-.53-.97-.83-1.46s-.6-.97-.9-1.42c-.3-.45-.61-.87-.9-1.26s-.57-.74-.81-1.03c-.16.01-.33.02-.5.02h-2.18v5.15h-1.84v-12.98c.52-.13,1.1-.21,1.74-.26s1.23-.07,1.76-.07c1.85,0,3.26.35,4.23,1.04s1.45,1.74,1.45,3.12c0,.87-.23,1.62-.69,2.24s-1.14,1.08-2.04,1.39h-.02ZM59.44,73.07c-.79,0-1.39.02-1.81.06v4.96h1.31c.63,0,1.2-.03,1.71-.09.51-.06.93-.18,1.28-.36s.62-.43.81-.75.29-.75.29-1.28c0-.49-.1-.91-.29-1.23-.19-.33-.45-.59-.77-.78s-.7-.32-1.14-.4-.9-.11-1.4-.11v-.02Z"/>
            <path class="cls-3" d="M67.23,78.16c0-1.13.17-2.12.5-2.98s.79-1.58,1.37-2.16c.58-.58,1.25-1.01,2.01-1.3.77-.29,1.58-.44,2.44-.44s1.65.15,2.4.44,1.42.73,1.99,1.3,1.02,1.29,1.36,2.16.5,1.86.5,2.98-.17,2.12-.5,2.98c-.34.86-.79,1.58-1.36,2.16s-1.23,1.01-1.99,1.3c-.75.29-1.56.44-2.4.44s-1.68-.15-2.44-.44c-.77-.29-1.44-.72-2.01-1.3-.58-.58-1.03-1.29-1.37-2.16-.34-.86-.5-1.86-.5-2.98ZM69.16,78.16c0,.8.1,1.52.3,2.17.2.65.49,1.21.86,1.66.37.46.83.81,1.37,1.05.54.25,1.14.37,1.81.37s1.27-.12,1.8-.37.98-.6,1.36-1.05c.37-.46.66-1.01.86-1.66s.3-1.38.3-2.17-.1-1.52-.3-2.18c-.2-.65-.49-1.21-.86-1.66-.37-.46-.83-.81-1.36-1.05s-1.13-.37-1.8-.37-1.28.12-1.81.37c-.54.25-1,.6-1.37,1.05-.37.46-.66,1.01-.86,1.66s-.3,1.38-.3,2.18Z"/>
            <path class="cls-3" d="M87.67,85.04c-.86,0-1.61-.13-2.24-.4s-1.15-.63-1.56-1.09-.71-1.01-.9-1.64c-.2-.63-.29-1.32-.29-2.05v-8.26h1.84v8.06c0,1.32.29,2.27.87,2.87s1.34.89,2.28.89c.47,0,.9-.07,1.28-.22.39-.15.72-.37,1-.67.28-.3.49-.69.65-1.17.15-.48.23-1.04.23-1.7v-8.06h1.84v8.26c0,.74-.1,1.42-.29,2.05-.2.63-.5,1.18-.91,1.64-.41.46-.93.83-1.56,1.09-.63.27-1.37.4-2.23.4h-.01Z"/>
            <path class="cls-3" d="M99.56,71.45c1.85,0,3.27.35,4.27,1.05.99.7,1.49,1.75,1.49,3.14,0,.76-.14,1.41-.41,1.95s-.67.98-1.18,1.31c-.51.34-1.14.58-1.87.73-.74.15-1.57.23-2.49.23h-1.46v4.88h-1.84v-12.98c.52-.13,1.1-.21,1.74-.26s1.23-.07,1.76-.07v.02ZM99.71,73.07c-.79,0-1.39.02-1.8.06v5.17h1.39c.63,0,1.2-.04,1.71-.12.51-.08.93-.22,1.28-.42s.62-.46.81-.81c.19-.34.29-.78.29-1.31s-.1-.92-.29-1.25-.46-.59-.8-.79-.72-.33-1.17-.41-.91-.11-1.41-.11h-.01Z"/>
            <path class="cls-3" d="M107.85,84.75v-13.17h8.04v1.58h-6.19v3.91h5.51v1.54h-5.51v4.56h6.67v1.58h-8.52Z"/>
            <path class="cls-3" d="M132.72,80.51c0,.63-.07,1.22-.2,1.77-.13.54-.37,1.02-.7,1.43-.34.41-.79.73-1.35.97s-1.27.35-2.12.35c-.43,0-.83-.04-1.19-.1-.36-.07-.69-.16-.98-.27s-.54-.22-.76-.34-.39-.24-.51-.35l.72-1.46c.27.19.61.39,1.04.6.42.21.95.31,1.59.31.91,0,1.58-.23,2-.69s.63-1.26.63-2.38v-8.76h1.84v8.93h0Z"/>
            <path class="cls-3" d="M144.73,84.75c-.22-.57-.42-1.13-.61-1.68-.19-.55-.39-1.11-.59-1.68h-5.97l-1.2,3.36h-1.92c.51-1.39.98-2.68,1.43-3.87.44-1.18.88-2.31,1.3-3.37.42-1.06.85-2.08,1.26-3.05.42-.97.86-1.93,1.31-2.88h1.69c.46.95.89,1.91,1.31,2.88.42.97.84,1.99,1.26,3.05s.86,2.19,1.3,3.37.92,2.47,1.42,3.87h-2.01.02ZM143,79.87c-.41-1.1-.81-2.17-1.21-3.2s-.81-2.02-1.24-2.97c-.44.95-.86,1.94-1.26,2.97-.4,1.03-.79,2.1-1.19,3.2h4.9Z"/>
            <path class="cls-3" d="M155.2,79.24c.2.25.46.59.77,1s.63.87.96,1.37.66,1.02.98,1.57c.32.54.6,1.07.83,1.58h-2.01c-.25-.48-.53-.97-.83-1.46s-.6-.97-.9-1.42-.61-.87-.9-1.26-.57-.74-.81-1.03c-.16.01-.33.02-.5.02h-2.18v5.15h-1.84v-12.98c.52-.13,1.1-.21,1.74-.26s1.23-.07,1.76-.07c1.85,0,3.26.35,4.23,1.04s1.45,1.74,1.45,3.12c0,.87-.23,1.62-.69,2.24s-1.14,1.08-2.04,1.39h-.02ZM152.4,73.07c-.79,0-1.39.02-1.81.06v4.96h1.31c.63,0,1.2-.03,1.71-.09.51-.06.93-.18,1.28-.36s.62-.43.81-.75.29-.75.29-1.28c0-.49-.1-.91-.29-1.23-.19-.33-.45-.59-.77-.78-.32-.19-.7-.32-1.14-.4s-.9-.11-1.4-.11v-.02Z"/>
            <path class="cls-3" d="M169.96,84.75c-.28-.47-.6-.99-.96-1.58-.36-.58-.75-1.19-1.17-1.81-.42-.63-.85-1.26-1.3-1.91-.45-.65-.9-1.27-1.34-1.87s-.87-1.17-1.29-1.7-.8-1-1.16-1.41v10.28h-1.8v-13.17h1.46c.6.63,1.23,1.37,1.91,2.21s1.35,1.71,2.01,2.6c.67.89,1.29,1.77,1.88,2.63s1.09,1.63,1.49,2.3v-9.75h1.81v13.17h-1.54Z"/>
            <path class="cls-3" d="M174.99,71.59h1.84v13.17h-1.84v-13.17Z"/>
            <path class="cls-3" d="M189.13,84.75c-.22-.57-.42-1.13-.61-1.68s-.39-1.11-.59-1.68h-5.97l-1.2,3.36h-1.92c.51-1.39.98-2.68,1.42-3.87s.88-2.31,1.3-3.37c.42-1.06.85-2.08,1.26-3.05.42-.97.85-1.93,1.31-2.88h1.69c.46.95.89,1.91,1.31,2.88.42.97.84,1.99,1.26,3.05s.86,2.19,1.3,3.37.92,2.47,1.42,3.87h-2.01.03ZM187.4,79.87c-.41-1.1-.81-2.17-1.21-3.2s-.81-2.02-1.25-2.97c-.44.95-.86,1.94-1.26,2.97-.4,1.03-.79,2.1-1.19,3.2h4.91Z"/>
            <path class="cls-3" d="M196.52,83.44c1.92,0,2.89-.66,2.89-1.98,0-.41-.08-.75-.26-1.04-.17-.29-.4-.53-.69-.74s-.62-.39-1-.54c-.37-.15-.77-.3-1.19-.46-.48-.17-.94-.35-1.37-.56s-.8-.46-1.12-.74-.57-.62-.75-1.02-.28-.87-.28-1.42c0-1.15.39-2.05,1.18-2.7.79-.65,1.87-.97,3.25-.97.8,0,1.52.08,2.18.26.65.17,1.13.36,1.43.56l-.59,1.5c-.27-.16-.66-.33-1.19-.48-.53-.16-1.14-.24-1.83-.24-.35,0-.68.04-.99.11s-.57.19-.8.34-.41.34-.54.58-.2.51-.2.83c0,.35.07.65.21.89.14.24.34.45.59.64.25.18.55.35.88.5.34.15.71.3,1.11.46.57.23,1.09.46,1.57.68.48.23.89.5,1.24.82.35.32.62.69.81,1.13s.29.97.29,1.59c0,1.15-.42,2.04-1.26,2.66s-2.03.93-3.56.93c-.52,0-1-.04-1.43-.1-.44-.07-.83-.15-1.17-.25-.34-.09-.64-.2-.88-.3s-.44-.2-.58-.28l.55-1.52c.29.17.73.35,1.33.55.6.2,1.32.3,2.19.3h-.02Z"/>
          </g>
        </g>
      </g>
    </g>
  </g>
</svg>