<svg id="Calque_2" data-name="Calque 2" xmlns="http://www.w3.org/2000/svg" viewBox="0 0 230.04 70.75"><defs><style>.cls-1{fill:#1e1e1c;}.cls-2{fill:#34c405;}.cls-3{fill:#0040b2;}</style></defs><title>Logo Cairn Formation rectangle web</title><path class="cls-1" d="M103.73,61.38V47.54h9.1V49h-7.46v4.65h6.1v1.48h-6.1v6.26h-1.64Z"/><path class="cls-1" d="M114.41,56.53a4.72,4.72,0,1,1,9.43,0c0,4-3,5-4.72,5S114.41,60.51,114.41,56.53Zm7.79,0a3.08,3.08,0,1,0-6.15,0c0,3,1.85,3.43,3.07,3.43S122.2,59.55,122.2,56.57Z"/><path class="cls-1" d="M133.13,53.33a8,8,0,0,0-.82-0.07,3.24,3.24,0,0,0-3.38,3.12v5h-1.64v-9.5h1.43l0.21,1.38c0.94-1.53,3.24-1.53,3.52-1.53h0.68v1.6Z"/><path class="cls-1" d="M150.09,55.42v6h-1.64v-5.8c0-2.06-1.31-2.32-2.25-2.32a2.35,2.35,0,0,0-2.35,2.44v5.68h-1.64v-6A2,2,0,0,0,140,53.26a2.23,2.23,0,0,0-2.28,2.46v5.65h-1.64v-9.5h1.36l0.28,1.38c0.56-1.53,2.32-1.53,2.75-1.53a3.55,3.55,0,0,1,2.86,1.53,3.48,3.48,0,0,1,3.12-1.53A3.33,3.33,0,0,1,150.09,55.42Z"/><path class="cls-1" d="M162,61.38h-1.55l-0.16-1.13c-1.06,1.27-3.07,1.27-3.68,1.27h-0.3a2.9,2.9,0,0,1-3-3.05c0-1.53.89-2.89,3.54-2.89a6.57,6.57,0,0,1,3.47,1V55.66c0-1.38-.73-2.39-3.89-2.39a15.61,15.61,0,0,0-2.14.26V52.19a7.68,7.68,0,0,1,3.07-.45c2.89,0,4.5,1.36,4.6,3.85v5.8Zm-1.64-3.26a4.52,4.52,0,0,0-2.93-1c-2.09,0-2.44.56-2.44,1.43S155.51,60,157.39,60c2.21,0,2.93-1.13,2.93-1.13V58.12Z"/><path class="cls-1" d="M164.71,53.41V52.75l3.14-4.41h0.26v3.54h3.5v1.52h-3.5v4.25c0,2.21.56,2.35,2.25,2.35a11.83,11.83,0,0,0,1.24-.14v1.36a3.41,3.41,0,0,1-1.85.3c-2.84,0-3.28-1.88-3.28-3.8V53.41h-1.76Z"/><path class="cls-1" d="M175.05,48.38h1.64v1.85h-1.64V48.38Zm0,3.5h1.64v9.5h-1.64v-9.5Z"/><path class="cls-1" d="M180.26,56.53a4.72,4.72,0,1,1,9.43,0c0,4-3,5-4.72,5S180.26,60.51,180.26,56.53Zm7.79,0a3.08,3.08,0,1,0-6.15,0c0,3,1.85,3.43,3.07,3.43S188.05,59.55,188.05,56.57Z"/><path class="cls-1" d="M193.14,61.38v-9.5h1.43l0.23,1.41a4.16,4.16,0,0,1,3.52-1.55,3.54,3.54,0,0,1,3.43,3.54v6.1h-1.64v-6a2.08,2.08,0,0,0-2.28-2.16,3.74,3.74,0,0,0-3.05,2v6.1h-1.64Z"/><path class="cls-2" d="M81.74,42.35l1.59-.09c1-.05,2.57-0.14,4.51-0.23s4.3-.2,7-0.29,5.76-.22,9.08-0.31,6.93-.21,10.75-0.28,7.84-.18,12-0.22l6.34-.08c2.14,0,4.31-.06,6.49-0.06l13.24-.06L166,40.79h3.26l3.23,0,6.34,0.08c4.16,0,8.18.13,12,.22l5.56,0.12,5.19,0.15c3.33,0.09,6.38.2,9.08,0.31s5.06,0.21,7,.3,3.47,0.18,4.51.23l1.59,0.09-1.59.09c-1,.05-2.57.15-4.51,0.23s-4.3.2-7,.3-5.76.22-9.08,0.31l-5.19.15-5.56.12c-3.81.08-7.84,0.18-12,.22l-6.34.08-3.23,0H166L152.75,44,139.5,43.9c-2.18,0-4.35,0-6.49-.06l-6.34-.08c-4.16,0-8.18-.14-12-0.22s-7.42-.18-10.75-0.28-6.38-.2-9.08-0.31-5.06-.21-7-0.29-3.47-.18-4.51-0.23Z"/><path class="cls-1" d="M107.28,23.51c0,7.08,4.55,8.18,7.3,8.18A8.15,8.15,0,0,0,120,30.18l2.87,3.25a12.82,12.82,0,0,1-8.22,3c-4.55,0-12.36-2.4-12.36-13.07,0-9,6.83-12.27,12.31-12.27A12.13,12.13,0,0,1,122.8,14c-1,1.31-1.81,2.15-2.83,3.37a8,8,0,0,0-5.4-1.52C111.16,15.88,107.28,17.31,107.28,23.51Z"/><path class="cls-1" d="M146.84,36.21h-5.36l-1.94-5.44h-9.11l-1.9,5.44h-5.44l9.24-24.88h5.36ZM132.16,26.08h5.69L135,18.41Z"/><path class="cls-1" d="M148.94,11.32h5V36.21h-5V11.32Z"/><path class="cls-1" d="M172.39,26.3c1.86,1.31,2.45,2.57,3.42,5.52l1.48,4.39H172l-1.52-4.55c-0.93-2.66-2.07-3.71-3.54-3.71h-4.26v8.27h-5V11.32h11c3.54,0,8.05,2.11,8.05,8.1C176.74,21.61,175.72,25.37,172.39,26.3Zm-3.75-3.12c1.43,0,3.12-.08,3.12-3.63,0-2.91-1.6-3.5-3.12-3.5h-5.95v7.13h5.95Z"/><path class="cls-1" d="M185.34,20.18v16h-5V11.32h4.81l11.26,16.32V11.32h5V36.21h-5.19Z"/><path class="cls-3" d="M49.3,25.27a11.18,11.18,0,0,1,0-2.59c0.06-.23-0.26.07,0.68-0.6a15.4,15.4,0,0,1,2.6-1.34c0.16-.07,4.45-0.53,5.52-0.92,1.4-.52,1.41,1.24,1.61,1.54a5.81,5.81,0,0,1,.16,2.06,7.32,7.32,0,0,1-.29,1.6,5.91,5.91,0,0,0-1.2.82,5,5,0,0,1-1.67.89,37.69,37.69,0,0,0-5.09-.06,4,4,0,0,1-1.65.06C49.58,26.72,49.3,25.27,49.3,25.27Z"/><path class="cls-2" d="M59.5,35a25.69,25.69,0,0,0-7-.33L48.21,34s-3.57-.87-3.76-1.75-0.23-2.61.11-3,1.43-.1,2.64-0.44a23,23,0,0,1,4.67-.87,26.31,26.31,0,0,1,9.48,1.24c1.1,0.41,2.19.42,2.11,1.46s0.77,0.74.66,2.35c-0.07,1-.6,2.38-1.32,2.64C61.68,36,59.5,35,59.5,35Z"/><path class="cls-3" d="M65.29,38.42c-0.87-.92-3.41.41-4-0.53a27,27,0,0,0-3.4-1.15,1.5,1.5,0,0,0-1.42-1.09c-1.13,0-8.07-.18-9.25.25a13.15,13.15,0,0,0-2.79,1.66,6.24,6.24,0,0,0-1.89,2.05C42.48,39.86,42,41.1,42,41.1L43,44a1.47,1.47,0,0,0,.17.89c0.21,0.06,2.69,1.29,3.11,1.1s3.63,1.3,4.3,1.36,9-.95,9.16-0.94c4.7,0.25,5-.94,4.62-0.92s0.61-.48.71-0.36a9,9,0,0,0,.77-1.6,16.88,16.88,0,0,0,.51-2.09L66,39.22Z"/><path class="cls-2" d="M44.86,47.63l0.06-.14-0.59-.2C31.5,43,25.94,34.36,30.55,25.6c1.76-3.34,4.93-6.06,9.48-8.12a36.5,36.5,0,0,1,11.46-2.93,40.29,40.29,0,0,1,12.39.56C66.32,15.63,68.64,16.38,71,17a8.31,8.31,0,0,0,4.75-.08c2-.64,3-1.7,3.1-3.1S78,11.3,76,10.62s-3.73-1.25-5.68-1.75A57.08,57.08,0,0,0,47.26,7.68c-9.35,1.45-16.72,4.73-22,9.83-3.1,3-4.84,6.25-5,9.82a17,17,0,0,0,1.21,7.37,15.87,15.87,0,0,0,4.79,6.36c4.21,3.44,9.9,5.39,16.54,6.34C43.44,47.51,44.16,47.55,44.86,47.63Z"/><path class="cls-3" d="M8.24,34.44H8.09c0.16,1.42.24,2.85,0.49,4.26a21.62,21.62,0,0,0,6,11.13,39.05,39.05,0,0,0,13.28,8.89,61.19,61.19,0,0,0,17.74,4.47,70.69,70.69,0,0,0,17-.25,61.06,61.06,0,0,0,16-4.35c3.31-1.43,3.77-4,1-5.81-1.73-1.12-3.49-2.22-5.24-3.33-0.15-.09-0.32-0.16-0.55-0.28a1.23,1.23,0,0,0-.07.26c0,1.89-1.44,3.26-3.92,4.18A58.17,58.17,0,0,1,53.25,57,67.38,67.38,0,0,1,40,56.52a57.67,57.67,0,0,1-9.94-2.19,42.5,42.5,0,0,1-13-6.5,22.2,22.2,0,0,1-7.49-9.22C9,37.24,8.67,35.83,8.24,34.44Z"/></svg>