<?xml version="1.0" encoding="UTF-8"?>
<!-- Generator: Adobe Illustrator 25.3.1, SVG Export Plug-In . SVG Version: 6.00 Build 0)  -->
<svg xmlns="http://www.w3.org/2000/svg" xmlns:xlink="http://www.w3.org/1999/xlink" version="1.0" id="Ebene_1" x="0px" y="0px" viewBox="0 6.145 189.256 42.578" xml:space="preserve">
<g>
	<g>
		<polygon fill="#E63719" points="71.205,36.63 65.645,29.512 62.489,32.739 62.489,36.63 57.789,36.63 57.789,18.26 62.489,18.26     62.489,26.837 71.161,18.26 76.898,18.26 68.8,26.284 76.92,36.63   "></polygon>
		<path fill="#E63719" d="M93.734,18.26L93.734,18.26c2.538,0,4.59,2.056,4.59,4.598V36.63h-4.678v-4.399h-8.981v4.399h-4.656    V22.858c0-2.542,2.03-4.598,4.523-4.598H93.734z M86.254,22.195L86.254,22.195c-0.883,0-1.589,0.685-1.589,1.57v4.554h8.981    v-4.554c0-0.884-0.706-1.57-1.567-1.57H86.254z"></path>
		<path fill="#E63719" d="M121.404,32.828L121.404,32.828v3.802h-13.747c-2.538,0-4.59-2.056-4.59-4.598V18.26h18.336v3.802h-13.659    v3.471h11.629l-1.081,3.824h-10.547v1.901c0,0.84,0.684,1.57,1.567,1.57H121.404z"></path>
		<path fill="#E63719" d="M143.845,18.26L143.845,18.26v3.802h-12.114c-0.883,0-1.545,0.663-1.545,1.592v2.277h11.717l-1.103,3.824    h-10.614v6.875h-4.7V22.88c0-2.564,2.074-4.62,4.59-4.62H143.845z"></path>
		<path fill="#E63719" d="M166.263,32.828L166.263,32.828v3.802h-13.747c-2.538,0-4.59-2.056-4.59-4.598V18.259h18.336v3.802    h-13.659v3.471h11.629l-1.081,3.824h-10.547v1.901c0,0.84,0.706,1.57,1.567,1.57H166.263z"></path>
		<path fill="#E63719" d="M189.256,36.63L189.256,36.63h-5.472l-3.067-4.289h-5.406v4.289h-4.7v-18.37h13.747    c2.56,0,4.612,2.078,4.612,4.598v5.062c0,2.542-1.898,3.802-2.913,4.156L189.256,36.63z M184.269,26.837L184.269,26.837v-3.161    c0-0.951-0.64-1.592-1.545-1.592h-7.414v6.3h7.414C183.629,28.384,184.269,27.743,184.269,26.837"></path>
	</g>
	<path fill="#929EA5" d="M6.973,6.145L6.973,6.145C3.111,6.145,0,9.284,0,13.153v28.584c0,3.869,3.111,6.986,6.973,6.986h27.78   c3.817,0,6.951-3.117,6.951-6.986V13.153c0-3.869-3.133-7.008-6.951-7.008H6.973z M2.802,23.101L2.802,23.101v-9.948   c0-2.299,1.854-4.2,4.17-4.2h27.78c2.295,0,4.148,1.901,4.148,4.2v9.948h-1.765c-1.964-7.207-8.495-12.534-16.262-12.534   c-7.789,0-14.32,5.328-16.284,12.534H2.802z M30.892,23.101L30.892,23.101c-1.721-3.913-5.56-6.632-10.018-6.632   c-4.479,0-8.319,2.719-10.04,6.632h-3.42c1.942-5.681,7.237-9.815,13.46-9.815c6.2,0,11.496,4.112,13.416,9.815H30.892z    M20.874,19.188L20.874,19.188c2.846,0,5.472,1.525,7.017,3.913H13.835C15.402,20.713,17.983,19.188,20.874,19.188 M2.802,25.665   L2.802,25.665h36.099v3.537H2.802V25.665z M38.901,31.811L38.901,31.811v9.926c0,2.343-1.854,4.2-4.148,4.2H6.973   c-2.317,0-4.17-1.857-4.17-4.2v-9.926H4.59c1.964,7.185,8.495,12.49,16.284,12.49c7.767,0,14.298-5.306,16.262-12.49H38.901z    M34.29,31.811L34.29,31.811c-1.92,5.681-7.215,9.771-13.416,9.771c-6.222,0-11.518-4.112-13.46-9.771h3.42   c1.721,3.891,5.56,6.588,10.04,6.588c4.457,0,8.297-2.697,10.018-6.588H34.29z M27.891,31.811L27.891,31.811   c-1.523,2.343-4.17,3.891-7.017,3.891c-2.891,0-5.516-1.547-7.039-3.891H27.891z"></path>
</g>
</svg>
