<?xml version="1.0" encoding="UTF-8"?><svg xmlns="http://www.w3.org/2000/svg" viewBox="6.6576853 1.28 70.20232 102.44133"><defs><style>.c{fill:#6d605e;}.d{fill:#aa0809;}.e{fill:#9e0d0d;}.f{fill:#141112;}.g{fill:#f0f0f0;}.h{fill:#df3e35;}.i{fill:#f3f5f4;}.j{fill:#453d43;}.k{fill:#0d090a;}.l{fill:#262626;}.m{fill:#6c6c6c;}.n{fill:#100d0e;}.o{fill:#0f0f0f;}.p{fill:#f4f4f4;}.q{fill:#e83a39;}.r{fill:#5c060b;}.s{fill:#e43935;}.t{fill:#dc3738;}.u{fill:#090909;}.v{fill:#900c0b;}.w{fill:#5c5758;}.x{fill:#290b0b;}.y{fill:#a1a5a2;}.a`{fill:#a69d9d;}.aa{fill:#3e100f;}.ab{fill:#999798;}.ac{fill:#575757;}.ad{fill:#252021;}.ae{fill:#5f5455;}.af{fill:#b98785;}.ag{fill:#fafafa;}.ah{fill:#ecedec;}.ai{fill:#fafbf7;}.aj{fill:#210d0e;}.ak{fill:#620c09;}.al{fill:#d93d33;}.am{fill:#f5ebed;}.an{fill:#1b1a1a;}.ao{fill:#d73939;}.ap{fill:#a8a6a7;}.aq{fill:#2e2d2d;}.ar{fill:#530c0a;}.as{fill:#2a2626;}.at{fill:#191717;}.au{fill:#0c0c0c;}.av{fill:#bab4b2;}.aw{fill:#670304;}.ax{fill:#5c0404;}.ay{fill:#a80b07;}.b`{fill:#f8f8f9;}.ba{fill:#871818;}.bb{fill:#020203;}.bc{fill:#11100f;}.bd{fill:#797777;}.be{fill:#d93d37;}.bf{fill:#db3b36;}.bg{fill:#851614;}.bh{fill:#575c5a;}.bi{fill:#db3933;}.bj{fill:#2c2829;}.bk{fill:#a89d9e;}.bl{fill:#d63d34;}.bm{fill:#110e0f;}.bn{fill:#410504;}.bo{fill:#9a1315;}.bp{fill:#db3c36;}.bq{fill:#0d0e0d;}.br{fill:#df3a39;}.bs{fill:#901721;}.bt{fill:#aa0a09;}.bu{fill:#7e0b0b;}.bv{fill:#0c0708;}.bw{fill:#757474;}.bx{fill:#230104;}.by{fill:#d73e35;}.c`{fill:#f0efef;}.ca{fill:#dc3b35;}.cb{fill:#271716;}.cc{fill:#090506;}.cd{fill:#a30c0a;}.ce{fill:#e43b39;}.cf{fill:#a4a2a2;}.cg{fill:#909090;}.ch{fill:#981110;}.ci{fill:#585b5c;}.cj{fill:#e9e6e7;}.ck{fill:#971413;}.cl{fill:#d33b39;}.cm{fill:#232323;}.cn{fill:#a8a7a7;}.co{fill:#1c1c1c;}.cp{fill:#d73d36;}.cq{fill:#a70907;}.cr{fill:#edefef;}.cs{fill:#fcb1a4;}.ct{fill:#e03b3d;}.cu{fill:#0a0808;}.cv{fill:#600404;}.cw{fill:#a60a07;}.cx{fill:#430803;}.cy{fill:#5c595a;}.d`{fill:#0b0a0a;}.da{fill:#a09a9d;}.db{fill:#aca7a9;}.dc{fill:#0d0709;}.dd{fill:#e4dee0;}.de{fill:#a2a1a1;}.df{fill:#625f60;}.dg{fill:#a90a0a;}.dh{fill:#ac9b9d;}.di{fill:#07080c;}.dj{fill:#333;}.dk{fill:#aa0908;}.dl{fill:#514e4f;}.dm{fill:#7b1111;}.dn{fill:#626362;}.do{fill:#dc3b36;}.dp{fill:#f6f5f3;}.dq{fill:#821b16;}.dr{fill:#650304;}.ds{fill:#2a2a2a;}.dt{fill:#100e0e;}.du{fill:#d83d39;}.dv{fill:#93322f;}.dw{fill:#686365;}.dx{fill:#0d0d0d;}.dy{fill:#a3a1a2;}.e`{fill:#f7f6f9;}.ea{fill:#0b0708;}.eb{fill:#828282;}.ec{fill:#651e1b;}.ed{fill:#a09d9e;}.ee{fill:#9a9899;}.ef{fill:#dc3e36;}.eg{fill:#aa9c9d;}.eh{fill:#dadada;}.ei{fill:#a80a06;}.ej{fill:#600204;}.ek{fill:#eaeaea;}.el{fill:#a1a1a1;}.em{fill:#d43939;}.en{fill:#a59b99;}.eo{fill:#545354;}.ep{fill:#dc3f39;}.eq{fill:#a9090a;}.er{fill:#c8c8c8;}.es{fill:#fdfdfd;}.et{fill:#121111;}.eu{fill:#f8f9f8;}.ev{fill:#dd3c35;}.ew{fill:#db3c35;}.ex{fill:#640807;}.ey{fill:#ac9c9b;}.f`{fill:#fbfbfb;}.fa{fill:#e5e3e4;}.fb{fill:#f9f9f9;}.fc{fill:#a99e9c;}.fd{fill:#d53f39;}.fe{fill:#8e1613;}.ff{fill:#e03b39;}.fg{fill:#930f0e;}.fh{fill:#f4f3f3;}.fi{fill:#171515;}.fj{fill:#e03c40;}.fk{fill:#a99d9e;}.fl{fill:#972623;}.fm{fill:#262223;}.fn{fill:#aaa;}.fo{fill:#6e1810;}.fp{fill:#290e0e;}.fq{fill:#0a110e;}.fr{fill:#494949;}.fs{fill:#871211;}.ft{fill:#5f5d5e;}.fu{fill:#ebebeb;}.fv{fill:#110c0d;}.fw{fill:#75150e;}.fx{fill:#aaa6a4;}.fy{fill:#dd3c37;}.g`{fill:#6a0203;}.ga{fill:#ecf9f5;}.gb{fill:#e7e4e6;}.gc{fill:#a7a5a5;}.gd{fill:#a90909;}.ge{fill:#501e1d;}.gf{fill:#373737;}.gg{fill:#9a1110;}.gh{fill:#410d0a;}.gi{fill:#636363;}.gj{fill:#d13f36;}.gk{fill:#050505;}.gl{fill:#353535;}.gm{fill:#72746f;}.gn{fill:#161616;}.go{fill:#0e0c0c;}.gp{fill:#faf1f2;}.gq{fill:#d83b3c;}.gr{fill:#120d0c;}.gs{fill:#2a2929;}.gt{fill:#dc3939;}.gu{fill:#9b9b9b;}.gv{fill:#230706;}.gw{fill:#a59f9b;}.gx{fill:#620401;}.gy{fill:#841410;}.h`{fill:#4f5652;}.ha{fill:#9f0e0e;}.hb{fill:#a09fa0;}.hc{fill:#0d0a0b;}.hd{fill:#650403;}.he{fill:#cb3c32;}.hf{fill:#d2dcd7;}.hg{fill:#0f0907;}.hh{fill:#191718;}.hi{fill:#a6999e;}.hj{fill:#2c0b0d;}.hk{fill:#db3b38;}.hl{fill:#931918;}.hm{fill:#690404;}.hn{fill:#0c0807;}.ho{fill:#5d0704;}.hp{fill:#a99fa0;}.hq{fill:#96888e;}.hr{fill:#f1f1f1;}.hs{fill:#020101;}.ht{fill:#fcfbfb;}.hu{fill:#322b2a;}.hv{fill:#080707;}.hw{fill:#630503;}.hx{fill:#f4f6f5;}.hy{fill:#dc3b34;}.i`{fill:#8f1516;}.ia{fill:#949494;}.ib{fill:#120d0f;}.ic{fill:#b2a9ab;}.id{fill:#090707;}.ie{fill:#0c090a;}.if{fill:#272324;}.ig{fill:#991009;}.ih{fill:#282324;}.ii{fill:#251313;}.ij{fill:#f8f8f8;}.ik{fill:#db3c37;}.il{fill:#9e9e9e;}.im{fill:#6a1815;}.in{fill:#919191;}.io{fill:#a39e9d;}.ip{fill:#a50a09;}.iq{fill:#1e1e1e;}.ir{fill:#a70809;}.is{fill:#f6e7e5;}.it{fill:#950f10;}.iu{fill:#d0d0d0;}.iv{fill:#a9a7a7;}.iw{fill:#f8f9f9;}.ix{fill:#cc3f47;}.iy{fill:#ac9b9b;}.j`{fill:#635e5f;}.ja{fill:#a70b09;}.jb{fill:#db3836;}.jc{fill:#010101;}.jd{fill:#e3dbdb;}.je{fill:#615352;}.jf{fill:#fbf7f6;}.jg{fill:#da3c37;}.jh{fill:#a2a2a2;}.ji{fill:#616165;}.jj{fill:#a89c9b;}.jk{fill:#d63d36;}.jl{fill:#fefefe;}.jm{fill:#060606;}.jn{fill:#242223;}.jo{fill:#fcfcfc;}.jp{fill:#ededed;}.jq{fill:#a2a0a0;}</style></defs><g id="a"/><g id="b"><path class="cq" d="M26.58,9.21c1.34,.02,2.69,.09,4.03,.04,.96-.03,1.53,.44,1.98,1.18,.75,1.26,.89,2.69,1.12,4.09,.79,4.84,1.56,9.68,2.32,14.52,.08,.48,.35,1.11-.55,1.16-.25,.19-.54,.2-.83,.2-1.82,0-3.65,.02-5.47,0-.94,0-1.16-.2-1.34-1.11-.11-.52-.2-1.04-.24-1.57-.04-.43-.29-.35-.55-.26-.76,.8-1.52,1.6-2.27,2.41-.25,.27-.53,.36-.91,.36-5.44-.01-10.88,0-16.32,0-.3,0-.66,.12-.84-.27-.17-.39,.11-.64,.33-.9,1.32-1.64,2.65-3.28,3.97-4.92,3.35-4.08,6.69-8.15,10.04-12.23,.17-.2,.36-.39,.52-.6,1.13-1.52,2.54-2.42,4.53-2.07,.15,.03,.31-.02,.47-.04Z"/><path class="eq" d="M34.26,93c.5,.02,.99,.07,1.49,.04,.79-.05,1.51,.02,2.01,.72,.16,.22,.4,.25,.63,.22,.83-.1,1.73,.28,2.5-.31,.43-.42,.51-.97,.51-1.52,.01-2.21,0-4.41,0-6.62,0-.47-.17-.87-.36-1.27-.05-.18-.06-.36,.02-.53,.41-.35,.88-.08,1.32-.11,.23,.11,.37,.33,.55,.49,.29,.37,.68,.44,1.12,.45,.57,.01,1.16-.12,1.71,.14,.07,.06,.12,.14,.16,.23,.11,.36,.09,.73,.09,1.1,0,3.49,0,6.98,0,10.47,0,.56-.02,1.11-.19,1.65-.55,1.76-1.52,2.5-3.36,2.57-1.03,.04-2.05,.22-3.08,.15-.51-.03-1.01-.06-1.43-.38-.3-.78-.31-1.56,0-2.35,.26-.29,.61-.28,.95-.29,.69-.02,1.38,.03,2.06-.03,1.25-.11,2.01-.88,2.02-2.12,.03-3.23,.01-6.45,.01-9.68,0-.08,0-.16-.01-.24-.04-.23-.01-.54-.34-.54-.34,0-.27,.34-.27,.55-.02,1.88,0,3.75,0,5.63,0,.34,0,.69-.04,1.03-.18,1.13-.87,1.85-2,2.06-.21,.04-.42,.08-.63,.1-1.46,.18-1.45,.18-1.46,1.69,0,.55,.11,1.11-.13,1.64-1.17,.37-1.03,1.32-.99,2.23,0,.21-.04,.42,.1,.6,.32,.14,.59-.47,.92-.04,.12,.61,.52,.76,1.1,.75,1.71-.02,3.42-.01,5.12,0,.37,0,.74-.03,1.09,.11,.13,.08,.27,.16,.15,.34-.3,.23-.65,.17-.99,.17-1.87,0-3.75,0-5.62,0-.51,0-1,.03-1.47,.23-.2,.01-.37-.06-.53-.18-.31-.41-.72-.54-1.22-.53-.46,.01-.94,.09-1.38-.13-.38-.52-.27-1.11-.1-1.64,.13-.42,.21-.77-.01-1.18-.13-.25-.07-.51,.18-.69,.47-.26,.99-.14,1.48-.15,.49,0,.73-.18,.73-.7-.01-.9,0-1.8,0-2.7,0-.52-.2-.76-.75-.76-1.24-.01-1.31,.04-1.31,1.26,0,.74,0,1.48,0,2.22,0,.32,.02,.64-.23,.9-.13,.11-.26,.09-.39-.02-.25-.38-.17-.81-.17-1.22,0-1.12,0-2.24,0-3.36,.01-.29-.05-.66,.46-.49Z"/><path class="bb" d="M59.76,11.13c1.63-.56,3.26-1.15,4.92-1.61,.68-.19,1.48-.15,1.96-.84,.07-.1,.34-.09,.52-.08,1.24,.04,2.42-.02,3.66,.57,1.72,.81,3.64,1.17,5.48,1.74,.2,.06,.56,0,.56,.32,0,.32-.31,.38-.58,.4-.72,.37-1.49,.14-2.24,.21-.33,.03-.69-.08-.94,.25-.31,1.63-.61,3.26-.93,4.88-.06,.33,0,.51,.37,.48,.16-.01,.32,.01,.47,.01,.59,.01,1.03,.08,.72,.9-.13,.35-.08,.81,.07,1.24,.1,.29,.31,.73-.22,.92-1.73,.06-3.46,.15-5.19-.07-.41-.34-.29-.82-.29-1.25,0-.6-.24-.89-.85-.85-.21,.01-.42,0-.63,0q-1.36,0-1.75,1.26c-.18,1.09-1.06,.97-1.82,1.05-.35-.06-.51-.32-.47-.62,.09-.79,0-1.6,.19-2.39,.17-.21,.42-.09,.63-.16,.11-.18,.42-.13,.45-.4-.44-1.68-.87-3.36-1.46-4.99-.36-.39-.83-.22-1.26-.25-.34-.03-.69,.03-1.01-.08-.28-.1-.55-.23-.36-.62Z"/><path class="hs" d="M63.27,77.01c-.05,.7-.06,1.42-.97,1.6-.07,.04-.15,.04-.23,.02-.66-.38-.74-1.06-.92-1.7-.19-.71-1.02-.81-1.34-1.4-.09-.32,.07-.52,.3-.7,.38-.2,.45-.67,.77-.92,.08-.14,.39,.29,.37-.19-.02-.43,.04-.87,.03-1.31,0-.24-.01-.48,.04-.71,.11-.48,.39-.83,.89-.86,.48-.04,.95,.02,1.13,.61,.13,.43,.47,.68,.81,.93,.93,.81,1.79,.34,2.64-.16,1.01-.06,1.56,.49,1.53,1.55-.02,.88-.55,1.52-1.42,1.68-.26,.05-.45,.08-.42,.42,.02,.21-.17,.31-.33,.41-.68,.32-1.43,.27-2.15,.38-.29,.04-.58,.05-.74,.35Z"/><path class="jc" d="M72.49,55.87c.9,.68,1.33,1.58,1.32,2.71,0,.53,0,1.05,.02,1.58,.04,1.31-.34,2.42-1.45,3.21-.07,.02-.14,.01-.2-.02-.51-.13-.97,.2-1.47,.16-.31-.02-.71,.16-.84-.33,.14-.24,.4-.34,.59-.51,.84-.77,.59-1.69-.59-2.22-.25-.13-.47-.29-.6-.55-.14-.35-.45-.6-.51-.99-.06-.89-.03-1.78-.1-2.67,.17-.49,.6-.54,1.02-.56,.94-.03,1.88-.04,2.8,.19Z"/><path class="gw" d="M54.51,43.02c-.08-.1-.17-.28-.25-.28-1.42,0-2.24-1.31-3.52-1.61-.3-.07-.41-.29-.23-.61,.37-.66-.11-.92-.57-1.21-2.57-1.62-5.13-3.24-7.69-4.86-1.51-.95-2.24-2.27-2.21-4.1,.05-3.7,.02-7.4,.02-11.1,0-.35,.05-.73-.25-.96-.71-.54-.72-1.27-.69-2.06,.02-.55,.08-1.1-.14-1.64-.21-.54,.11-.81,.59-.94,.43,.46,.37,1.05,.41,1.61,.05,.63-.19,1.3,.21,1.9,.6,.57,.75,1.28,.74,2.09-.03,3.39,.08,6.77-.04,10.16-.08,2.24,.85,3.71,2.68,4.81,2.58,1.55,5.1,3.2,7.65,4.81,.14,.11,.22,.25,.23,.43-.16,.99-.16,.99,.83,1.39,.61,.25,1.13,.66,1.69,1,.4,.24,.99,.03,1.24,.56-.06,.4-.13,.78-.69,.61Z"/><path class="gc" d="M65.28,102.87c-.33,.02-.22,.47-.57,.54-.41-1.88-.79-3.76-1.23-5.63-.44-1.87-.94-3.73-1.41-5.59-.32-1.27-.61-2.54-.94-3.8-.43-1.62-.94-3.21-1.31-4.85-.35-1.54-.84-3.04-1.21-4.57-.16-.68-.45-1.33-.51-2.04-.02-.29-.24-.45-.56-.44-.37,.01-.74-.02-1.11,0-.66,.05-1.25-.03-1.72-.57-.29-.34-.71-.39-1.15-.38-1,.02-2.01,0-3.01-.02,.07-.58,.55-.6,.95-.63,1-.08,2.01-.04,3.01-.02,.21,0,.45,.03,.6,.18,.85,.9,1.95,.78,3.03,.77,.86,.06,.81,.85,1.07,1.37,.09,.17,.05,.41,.11,.61,.1,.36,.12,.74,.36,1.06-.02,.31,.02,.6,.2,.87,.09,.28,.06,.57,.16,.85,.02,.07,.04,.14,.06,.22,.04,.22,.12,.44,.21,.65,.19,.97,.59,1.89,.74,2.87,.03,.18,.04,.37,.1,.54,.07,.2,.15,.39,.16,.6-.02,.21,.11,.37,.18,.56,.14,.54,.19,1.09,.47,1.59,.06,.18,.07,.38,.1,.57,.09,.37,.12,.75,.35,1.07,.13,.44,.16,.91,.27,1.35,.27,.4,.12,.92,.37,1.33,.09,.24,.09,.51,.17,.75,.03,.11,.05,.22,.06,.33,.02,.22,.08,.44,.13,.65,.03,.3,.14,.57,.28,.84,.1,.29,.07,.6,.18,.89,.07,.41,.36,.74,.47,1.13,.09,.35,.08,.71,.04,1.07,0,.01,.02,.03,.03,.03,.02,0,.05,0,.08-.01,.34,.34-.03,.8,.19,1.16,.06,.3,.09,.61,.18,.91,.04,.19,.04,.39,.11,.58,.36,.63,.32,1.36,.52,2.03,.02,.22,.02,.44-.17,.6Z"/><path class="cd" d="M73.41,51.16c.24,.2,.19,.51,.1,.7-.28,.61-.2,1.23-.15,1.84,.07,.86-.21,1.51-.88,2.03-1.4-.08-2.81,.13-4.2-.14-.17-.27-.19-.54,.01-.8,.3-.29,.68-.25,1.05-.26,.9-.02,1.79,.01,2.69-.03,.47-.02,.63-.24,.66-.69,.08-1.24,0-1.35-1.27-1.35-.63,0-1.27,0-1.9,0-.91,.01-.94,.05-.96,.93,0,.39,.04,.79-.09,1.18-.69,.49-1.51,.19-2.26,.38-.22,.06-.47-.06-.72,.05,.04,.58,.93,.55,.86,1.18-.07,.19-.16,.36-.4,.37-.12-.05-.21-.15-.31-.23-.48-.34-.68-.24-.76,.33-.05,.4,.18,.82-.11,1.2-.29,.1-.51,0-.67-.25-.4-2-1.07-3.94-1.2-5.99,0-.38,.17-.63,.56-.7,.09-.01,.18-.02,.27-.02,.33,.02,.69-.06,.96,.23-.04,.44-.48,.29-.71,.47,.52,.25,.57-.33,.86-.46,1.17-.28,2.31,.05,3.47,.1,.23,.21,.45,.43,.8,.43,1.16,0,2.31,.02,3.47-.01,.14,0,.25-.07,.31-.2,.09-.27,.36-.2,.54-.31Z"/><path class="gk" d="M66.1,76.17c.6-.12-.22-.76,.33-.9,.35-.09,.79,.12,1.07-.13,.42-.39,.68-.95,.64-1.51-.06-.98-.41-1.24-1.4-1.24-.17-.79,.21-1.54,.17-2.32,.04-.12,.11-.22,.24-.26,.34,.3,.43,.94,1.1,.79,.15-.03,.3,0,.37-.21,.21-.65-.31-1.68-.97-1.87-.25-.07-.53-.17-.64,.21-.03,.1-.09,.2-.15,.28-.18,.32-.05,.67-.07,1.01-.01,.17,.07,.4-.14,.49-.26,.1-.37-.12-.48-.3-.11-.14-.04-.47-.35-.41-.16,.03-.18,.23-.21,.39-.04,.25,.06,.4,.33,.41,.15,0,.31,.01,.46,.07,.42,.64,.28,1.53-.3,1.93-.66,.45-1.35,.3-1.84-.39-.18-.26-.29-.56-.39-.86-.06-.28-.14-.56-.17-.85-.03-.28-.03-.56-.01-.89-.15,.37,.03,.79-.31,1.05-.52-.23-.24-.76-.43-1.11-.06-.25-.07-.5-.06-.75q.13-1.09,1.27-1.31c.11-.13,.1-.35,.31-.39,.46,.19,.92,.37,1.44,.29,.9-.06,1.78,0,2.56,.52,.78,.42,.92,1.21,.98,1.96,.11,1.36,.19,2.72-.14,4.07-.11,.37-.22,.74-.6,.94-.63,.58-1.32,1.05-2.16,1.26-.15,.17-.3,.16-.45,0Z"/><path class="bo" d="M42.75,84.13c-.2-.1-.3-.26-.31-.48,.03-.04,.06-.08,.08-.12,1.1-.46,2.22-.33,3.34-.08,1.23,.24,2.47,.08,3.71,.11,.39,0,.56-.21,.58-.59,.02-.58-.03-1.16,.04-1.74,0-.09,.03-.17,.05-.25,.12-.52-.3-.41-.54-.42-.95-.03-1.9,0-2.85-.02-.34,0-.69,.04-1.01-.14-.08-.07-.1-.15-.04-.24,.26-.25,.58-.21,.89-.21,1.23,0,2.47-.05,3.7,.07,.62-.05,.76,.35,.61,.79-.27,.78-.14,1.57-.15,2.35,0,.42-.05,.8-.39,1.06-.49,.38-.57,.88-.57,1.47,.02,3.46,0,6.92,.01,10.39,0,.77-.05,1.54-.2,2.28-.34,1.61-1.29,2.75-2.79,3.42-.4,.21-.82,.31-1.27,.32-.07-.06-.08-.13-.02-.21l-.17-.15c.06-.38,.41-.36,.67-.45,2.11-.73,3.08-2.08,3.08-4.33,0-3.59,0-7.17,0-10.76,0-1.15-.05-1.16-1.21-1.2-.72-.03-1.48,.19-2.17-.19l-.04-.05c-.27-.62-.75-.78-1.39-.73-.54,.04-1.09,0-1.63,.11Z"/><path class="ap" d="M55.52,66.36c-.2,0-.33-.02-.39-.27-.64-2.74-1.29-5.48-1.57-8.3-.12-1.22-.29-2.44-.42-3.66-.14-1.33-.8-2.54-.95-3.88-.19-1.7-.31-3.41,.25-5.07,.17-.51,.42-.98,1.03-1.09,.25,.11,.59,.14,.6,.51,.02,.4-.28,.52-.59,.63-.1,.03-.18,.1-.24,.19-.16,.23,.11,.44,.03,.67-.12,.23-.19,.48-.24,.74-.15,1.54-.12,3.08,.4,4.53,.54,1.52,.6,3.09,.82,4.65,.07,.47-.07,.96,.1,1.42,.03,.11,.05,.23,.06,.35,.19,.98,.35,1.96,.5,2.94,.15,.61,.11,1.26,.35,1.85,.07,.24,.07,.5,.15,.73,.04,.14,.06,.28,.07,.42,.01,.07,.02,.14,.03,.21,.03,.18,.18,.31,.24,.48,.09,.65,.47,1.29,.1,1.96-.11,.07-.23,.08-.34,0Z"/><path class="gy" d="M40.06,17.32c-.26-.16-.31-.4-.31-.68,.01-1,.05-2-.19-2.98,.06-.54,.57-.25,.81-.44,1.26,.09,2.51,.08,3.78-.01,1.52-.1,3.04-.21,4.56,.06,.18,.03,.37,.03,.55-.02,.75,.05,.79,.5,.62,1.09-.09,.32-.37,.7,.18,.9,.1,.14,.03,.28,0,.41-.08,.46-.02,.93-.16,1.38-.08,.25-.23,.46-.39,.67-.47,.7-.39,1.39,.22,1.91,.14,.12,.3,.21,.38,.38,.03,.12-.03,.21-.13,.27-.3,.14-.55-.18-.84-.09-.14,.05-.17,.15-.11,.28-.03,.32,.17,.58,.22,.88-.39,1.8-.31,3.6-.07,5.41,.12,.9,.61,1.61,1.33,2.16,.75,.58,1.59,1.03,2.38,1.55,.25,.17,.48,.36,.74,.52,.42,.02,.66,.34,.96,.56,.4,.31,.91,.49,1.21,.94-.06,.24-.24,.32-.47,.35-1.21-.58-2.28-1.39-3.45-2.04-.81-.45-1.54-1.02-2.26-1.59-.82-.65-1.27-1.62-1.31-2.62-.11-2.66-.08-5.32-.01-7.98,0-.08,.03-.15,.05-.23,.25-.45,.35-.99,.74-1.36,.23-.8,.04-1.63,.15-2.44,0-.08,.02-.15,.04-.23,.19-.54-.18-.55-.54-.59-1.19-.14-2.37,.22-3.55,.07-.11-.01-.21,.02-.3,.09-.1,.07-.08,.19-.09,.29,0,.12-.04,.24-.12,.34-.07,.05-.15,.09-.23,.11-.97,.08-1.94,.12-2.91-.02-.4-.07-.16-.6-.5-.72-.34,.06-.85-.28-.9,.41,.04,.93-.13,1.87,.16,2.79,0,.15-.04,.27-.23,.23Z"/><path class="ii" d="M54.53,15.11c.43-.53,1.07-.08,1.58-.32,.12-.06,.22,.21,.08,.34-.45,.45-.45,.92-.1,1.42,.08,.12,.2,.27,0,.38-.16,.09-.24-.04-.3-.15-.19-.36-.5-.48-.91-.46,0,.52,.01,1.04,0,1.56-.02,.68-.25,1.3-.69,1.8-.3,.34-.24,.58,.05,.85,.26,.13,.17,.31,.06,.5-.12,.16-.27,.29-.41,.43-.22,.2-.47,.45-.37,.73,.35,.94,.12,1.98,.51,2.91,.07,.24,.08,.49,.08,.74,0,.08,0,.17,0,.25-.07,.63,.1,1.22,.28,1.81,.03,.21,.02,.42,0,.62-.01,.08-.03,.16-.06,.24-.29,.39-.23,1.08-.95,1.1-.3-1.05-.38-2.14-.59-3.21-.06-.27-.06-.55-.09-.82-.08-.35-.17-.69-.25-1.04-.08-.49,0-1-.08-1.49-.07-.41-.24-.63-.7-.4-.28,.14-.59,.27-.84-.09,.04-.37,.38-.46,.61-.66,.22-.14,.49-.26,.43-.59-.05-.34-.34-.36-.59-.42-.1-.02-.2-.07-.28-.14-.01-.46,.55-.27,.67-.59,.21-.34,.11-.83,.54-1.05,.22,.01,.3,.19,.39,.34,.18,.29,.37,.2,.57,.03,1.4-.76,1.52-1.93,1.07-3.29-.02-.05-.06-.12-.04-.15,.41-.52-.23-.34-.34-.52,.04-.4,.61-.26,.67-.64Z"/><path class="ch" d="M73.51,20.67c-.16,1.11-.2,2.22-.18,3.34,0,.14-.06,.35-.17,.42-.88,.61-.77,1.52-.74,2.4,.01,.52,.03,1.04,.04,1.57-.17,.18-.36,.17-.55,.02-.38-1.02-.13-2.08-.18-3.11,0-.38-.05-.77,.14-1.12,.77-.38,1.07-1.19,.77-2-.15-.4-.49-.35-.79-.35-1.21-.02-2.42,0-3.64,0-1.09,.03-2.17,.03-3.26,0-1.03,.01-1.02,.01-1.03,1.06,0,.45,0,.89,.22,1.3,.28,.51,.4,1.07,.65,1.59,.12,.84,.16,1.67-.09,2.5-.19,.15-.37,.31-.61,.09-.29-.71-.11-1.46-.15-2.19-.02-.42-.01-.85-.3-1.2-.39-.47-.51-1.02-.5-1.62,.02-.68,.03-1.37-.22-2.03-.08-.22-.06-.47,.09-.68,.37-.16,.76-.19,1.16-.13,.46,.22-.06,.35-.08,.53,.45,.04,.41-.55,.79-.57,2.7-.13,5.39,.09,8.08,.03,.18,0,.37,.04,.52,.16Z"/><path class="it" d="M55.52,66.36l.21-.02c.4-.07,.47,.2,.51,.49-.16,1.02-.01,2.05-.08,3.08-.02,.37,.03,.74-.1,1.1-.04,.09-.1,.16-.19,.21-.34,.13-.66,.14-.95-.13-.35-.84-.13-1.72-.17-2.58-.04-.89-.07-.97-.94-.96-2.58,.05-5.17-.17-7.75,.15-1.95,.24-3,1.26-3.43,3.18-.24,1.07-.28,2.14-.27,3.22,.01,1.56,0,3.11,0,4.67,0,.37,.04,.74-.19,1.07-.14,.1-.27,.1-.41,0-.21-.27-.19-.59-.19-.91,0-2.34-.04-4.68,.01-7.02,.03-1.26,.43-2.42,1.33-3.36,1.08-1.15,2.42-1.61,3.97-1.6,2.4,.02,4.8-.01,7.2,.02,.61,0,1.08-.14,1.43-.63Z"/><path class="y" d="M16.74,79.21c-.31,.2-.18,.52-.18,.79-.01,1.44,0,2.88,0,4.32,0,.26,.07,.53-.1,.76-.32-.25-.28-.61-.28-.95-.01-1.53-.02-3.07,0-4.6,.01-1.11,.25-1.36,1.36-1.36,3.57-.02,7.14-.01,10.71,0,1.26,0,2.47-.18,3.61-.76,.28-.14,.57-.3,.9-.14-1.13,1.23-2.6,1.66-4.19,1.8-.67,.06-1.36-.12-2.02,.12-3.27,0-6.54,0-9.82,.01Z"/><path class="e" d="M58.33,75.97c-1.14,.08-2.28,.34-3.23-.69-.44-.48-3.98-.19-4.55,.25-.59,.34-.6,.95-.63,1.52-.05,.92-.04,1.84-.05,2.76-.15,.18-.31,.16-.48,.05-.24-1.31-.33-2.62,.11-3.9,.3-.88,1.01-1.33,1.93-1.4,.74-.05,1.48-.06,2.22,0,.73,.06,1.16-.17,1.23-.93,.07-.08,.13-.16,.26-.12,.74,.22,.7,.22,.77-.61,.05-.59-.31-1.18,.02-1.76l.04-.04c.43-.18,.9-.31,1.12-.8,.56,.4,.44,1.08,.63,1.62,.29,.8,.61,1.62,.49,2.52-.4,.37-.89,.18-1.35,.23-.28,.03-.63-.02-.63,.4,0,.39,.33,.4,.62,.44,.55,.09,1.15-.25,1.65,.2,.02,.14-.05,.23-.19,.26Z"/><path class="gd" d="M53.87,25.1c-.29-.24-.31-.58-.32-.92-.02-.54,0-1.06-.24-1.6-.22-.52-.16-1.09,.55-1.3,.21,0,.42,.06,.63,.07,.24,.01,.38,.07,.3,.39-.11,.4,.5,1.54,.84,1.71,.2,.1,.36,0,.51-.1,.74-.45,1.47-.92,2.2-1.38,.37-.23,.45-.48,.24-.92-.21-.45-.7-.8-.58-1.39,.11-.05,.22-.04,.32,.04,.62,.88,1.5,1.68,.94,2.93,.04,.15,.08,.3,.08,.46-1.18,.35-2.02,1.3-3.14,1.76-.08,0-.15-.03-.21-.07-.35-.5-.75-.46-1.22-.17-.29,.18-.48,.59-.92,.5Z"/><path class="bk" d="M41.18,84.13c.43,.44,.54,.97,.53,1.58-.03,2.17,0,4.34-.03,6.5,0,.58,0,1.25-.78,1.45,.3-2.36,.06-4.72,.14-7.08,.03-.8,.08-1.59-.69-2.12-.04-.03-.09-.08-.09-.12-.12-1.19-.1-2.39-.28-3.57-.04-.28,.32-.28,.56-.28,.23,.18,.33,.45,.46,.7,.03,.08,.05,.16,.06,.25,.02,.7,.05,1.41-.01,2.11-.02,.22,0,.41,.13,.59Z"/><path class="da" d="M37.05,103.01c-.48,.43-1.04,.51-1.67,.51-.65,0-1.31-.1-1.96,.14-.49,.18-.86-.04-.93-.61-.02-.18-.07-.36-.07-.55,0-2.67-.02-5.34,.02-8,0-.46-.15-1.2,.75-1.17,.03,.03,.06,.07,.09,.1,.05,.18,.02,.36,.02,.55,0,2.77,0,5.53,0,8.3,0,.18,.06,.34,.14,.5,.18,.38,.48,.19,.75,.15,.95-.13,1.91-.29,2.85,.09Z"/><path class="ey" d="M63.16,20.64c.18,1.14,.21,2.28,.21,3.43,0,.07,.03,.17,.08,.22,1.18,1.01,.68,2.38,.79,3.62,.01,.16,0,.32,0,.47-.05,.12-.15,.17-.26,.21-.15,.03-.3,.09-.43-.04,0-.61-.02-1.22,.03-1.82,.06-.7-.07-1.3-.66-1.75-.28-.22-.3-.53-.3-.85,0-.89,.25-1.89-.21-2.64-.63-1.05,.12-2.1-.28-3.1-.2-.5,.54-.39,.64-.75,.12,.71,.22,1.41,0,2.13-.07,.24-.19,.66,.31,.73,.06,.03,.09,.08,.08,.14Z"/><path class="iy" d="M42.92,68.57c-.95,1.53-1.2,3.22-1.16,5,.04,2.08,.04,4.16,.06,6.24-.13,.25-.36,.28-.6,.3-.08-.01-.15-.05-.2-.11,.19-2.02-.04-4.04,.03-6.06,.05-1.4,.15-2.8,.79-4.09,.25-.5,.43-1.1,1.08-1.28Z"/><path class="bw" d="M38.31,9.2c.17-.45,.51-.63,.98-.61,.03,0,.05,.02,.08,.02,1.1,.14,1.98-.04,2.29-1.33,.07-.29,.34-.59,.63-.79h0c.52-.39,1.11-.65,1.72-.88,.64-.24,1.06,.08,1.1,.79-.3,.35-.51-.2-.83-.08-.31,.11-.66,.11-.94,.32-.95,.38-1.27,1.28-1.7,2.09-.07,.12-.07,.25-.04,.38,.47,2.08,2.38,3.08,4.4,2.3,.25-.12,.48-.3,.77-.29,.09,0,.17,.03,.25,.07,.08,.05,.11,.13,.1,.22-.77,1.13-1.91,1.09-3.07,.96-.15-.02-.3-.07-.44-.14l-.14-.17c-.72-.12-1.21-.58-1.65-1.11h0c-.04-.06-.08-.13-.11-.2q-.84-1.59-2.65-1.24c-.29,0-.65,.13-.74-.34Z"/><path class="hl" d="M68.7,74.9l.4-.76c1.89-.68,2.54-2.2,2.63-4.02,.09-1.81,.02-3.63,.02-5.45,0-.37-.04-.74,.1-1.09,.09-.18,.25-.24,.44-.25,.04,0,.07,0,.1,.04,.03,2.53,.2,5.06-.1,7.58-.21,1.79-1.21,3.05-2.85,3.8-.23,.11-.46,.27-.74,.16Z"/><path class="fg" d="M37.05,103.01c-1.06,.13-2.15-.11-3.21,.24-.27,.09-.61,.04-.57-.41,.05-.43-.22-.91,.19-1.28,.29,.15,.25,.45,.32,.73,.08-.4-.2-.62-.37-.89-.13-1-.1-2.01-.01-3.01,.04-.14,.13-.25,.25-.33,.14-.07,.27-.06,.39,.04h.31c.61,1.12-.14,2.24,.02,3.37,.16,.16,.18,.37,.2,.58,.04,.28,.2,.42,.47,.43,.7,.03,1.41,.12,2-.4l.32,.17c.06,.07,.13,.13,.16,.22v.09l-.49,.46Z"/><path class="aj" d="M43.58,12.25c.97-.04,1.98,.18,2.88-.43,.24-.16,.48-.3,.67-.52,.16-.64,.61-1.12,.91-1.68,.06-.11,.19-.17,.33-.06,.13,.27,.05,.47-.2,.62-.12,.39-.61,.68-.46,1.12,.2,.6,.51,1.17,.82,1.72,.14,.24,.5,.09,.73,.21-.85,.24-1.72,.09-2.58,.1-1.78,.03-3.55,.03-5.33,.02-.33,0-.69,.11-.98-.15,.96-.03,1.93-.02,2.88-.11,.69-.06,.74-.26,.32-.85Z"/><path class="p" d="M53.09,45.39c.01-.15-.01-.42,.14-.39,.31,.05,.59,.08,.71-.25,.16-.43-.44-.35-.48-.65,.09-.09,.17-.19,.26-.28,.84-.44,1.58-.19,1.79,.66,.07,.3,.26,.04,.33,.17,.06,.1,.09,.21,.08,.32-.14,.6-.2,1.19,.43,1.59,.11,.84-.03,.98-.78,.74-.32-.1-.67-.15-.88-.46-.18-.35,.14-.47,.29-.68,.05-.08,.15-.19,.07-.26-.22-.19-.34,.06-.51,.14-.83,.59-1.04-.25-1.45-.64Z"/><path class="il" d="M59.76,11.13c.03,.43,.32,.48,.66,.48,.55,0,1.1,.01,1.66,0,.34-.01,.57,.05,.56,.45,.03,1.11,.5,2.11,.79,3.16,.2,.71,.19,1.5,.74,2.09-.19,.33-.51,.12-.76,.17-.47-1.67-.95-3.33-1.4-5.01-.09-.33-.26-.41-.56-.4-.53,.01-1.05,0-1.58,0-.26,0-.56,.04-.69-.26-.18-.42,.3-.32,.43-.51,.04-.06,.1-.12,.15-.18Z"/><path class="gv" d="M68.33,55.54c1.38,.1,2.77-.12,4.14,.2,0,.04,0,.09,.02,.13-.19,.15-.24,.26-.64,.16-.97-.24-2.07-.42-3.05,.15-.19,.22-.44,.1-.66,.1-1.16-.03-1.38,.17-1.56,1.31-.09,.56-.19,1.09,.32,1.51,0,.59-.08,.62-.87,.34-.13-.43-.63-.72-.47-1.26,.1-.56-.25-1.22,.39-1.65l.29-.35c.64-.88,1.1-1.02,2.09-.63Z"/><path class="af" d="M45.63,102c.43-.07,.85-.15,1.28-.22-.79,.59-1.73,.74-2.67,.75-2.23,.04-4.46,.01-6.69,.01l-.05,.02-.04-.03c.25-.44,.64-.56,1.12-.55,2.35,.02,4.69,0,7.04,.02Z"/><path class="ar" d="M73.41,51.16c-.02,.26-.18,.17-.32,.13-.12,.08-.25,.13-.39,.13-1.41-.19-2.83-.01-4.25-.11-.05,0-.09-.02-.14-.02-.72,.34-1.44-.03-2.16-.01-.5,.01-.99,.01-1.49,.02h-.01c-.28-.32-.66-.09-.98-.19,.06-.32,.34-.35,.57-.44,.17-.05,.35-.07,.52-.07,.37-.03,.73-.01,1.1-.01,.81-.03,1.63-.03,2.44,0,1.11-.02,2.22,0,3.33-.01,.16,0,.31-.03,.45-.11,.07-.02,.14-.02,.21,0,.11,.16,.04,.44,.32,.49l.8,.23Z"/><path class="m" d="M48.36,9.48c-.52,.54-.58,1.38-1.23,1.83l-.27-.05c-.03-.07-.03-.13,0-.2,.15-.26,.44-.43,.44-.78,.15-.42,.31-.84,.51-1.25-.27-.88-.49-1.8-1.51-2.15-.12-.01-.24-.03-.35-.07-.42-.27-.45-.59-.13-.95,1.16,.24,1.84,1.03,2.24,2.07,.21,.55,.49,.84,1.1,.64,.43-.15,.8,.19,1.21,.18,.23-.07,.47-.07,.48,.21,.02,.44-.4,.31-.64,.41-.54,.05-1.09,.03-1.62,.11-.08,.01-.16,.01-.23,0Z"/><path class="hh" d="M45.92,5.9c-.11,.3-.36,.63,.18,.78,.19,.22,.2,.47,.15,.73-.15,.37-.15,.82-.54,1.07-.28,.04-.36-.16-.41-.37-.13-.52-.35-1.03-.33-1.58,.09-.71-.27-.89-.9-.78-.66,.12-1.18,.53-1.79,.76,.36-.61,1.03-.69,1.6-.96,.19-.23,.58-.18,.7-.52,.16-.31,.16-.73,.58-.86,.39,.22,.3,.69,.39,1,.12,.41,.39,.49,.63,.68-.07,.09-.15,.11-.25,.04Z"/><path class="ax" d="M41.2,80.04c.21-.08,.41-.15,.62-.23,.11,0,.22,.01,.33,.02,.39-.3,.85-.19,1.29-.2,.79-.03,1.59-.02,2.38,0,.91-.04,1.83-.02,2.74-.01,.31,0,.63,.02,.89,.24,.15-.01,.29-.02,.44-.03,.17,.07,.34,.14,.52,.21-.7,.32-1.44,.06-2.16,.14-.82,.09-1.66-.17-2.47,.15-.31,.33-.72,.26-1.1,.26-.75,0-1.5,.06-2.25-.05-.38-.24-.97,.09-1.22-.47Z"/><path class="ck" d="M26.45,34.11c.05-.59,.47-1.04,.58-1.65l-.9-.11c1.09-.85,2.15-.47,3.16-.43-.27,.23-.47,.53-.92,.52-.45-.02-.5,.44-.58,.73-.2,.71-.58,1.08-1.34,.94Z"/><path class="gh" d="M63.16,20.64l-.08-.14c.17-.05,.35-.16,.51-.14,.65,.1,.95-.22,1.05-.81,.34,.49,.83,.54,1.38,.56,.75,.03,1.53-.21,2.24,.2,1.36,0,2.72,.03,4.08,.02,.42,0,.83,.04,1.23,.18l-.07,.16c-2.96,0-5.91,.01-8.87,.02-.1,.07-.19,.06-.28-.02l-1.21-.02Z"/><path class="dq" d="M63.55,28.55l.33-.1c.31,.19,.85-.24,1,.38-.02,.07-.07,.13-.13,.17-.33,.09-.69-.02-1,.15-.21,.14-.13,.46-.36,.59-.39-.02-.48-.34-.61-.61-.39-.93-1.01-1.71-1.56-2.53-.64-.96-1.22-1.96-1.87-2.91-.1-.15-.22-.31-.08-.5l.03-.56c1.18,1.83,2.36,3.66,3.55,5.48,.16,.25,.29,.6,.72,.45Z"/><path class="ck" d="M11.04,34.11c.03-.79,.49-1.42,.79-2.1,.16-.35,.6-.27,.84-.14,.29,.15-.03,.4-.09,.6-.04,.15-.12,.29-.19,.43-.22,.42-.13,.61,.38,.6,.32,0,.69-.16,.96,.17-.1,.41-.44,.51-.78,.52-.59,.02-1.18,.1-1.77-.05l-.07-.04h-.08Z"/><path class="ck" d="M31.46,33.49h-1.88c.62-.47,1.39,.02,1.65-.76-.41-.07-.8-.07-1.28,.12,.25-.71,.8-.42,1.19-.45,.45-.04,.91,.04,.94-.61-.94,.15-1.89-.11-2.82,.12-.09,.76-.62,1.37-.76,2.2,.92-.09,1.8,.1,2.67-.14,.08-.11,.17-.23,.31-.43,0-.02-.01-.03-.02-.05Z"/><path class="fl" d="M72.61,50.93c-.35,.03-.33-.24-.37-.45-.23-.3-.18-.65-.18-.99,0-5.23,0-10.46,0-15.69,0-.5-.05-1.03,.54-1.29,.17-.02,.32-.02,.32,.21-.43,.44-.51,.97-.51,1.57,.02,5.28,.01,10.56,.02,15.83,0,.28-.09,.59,.18,.81Z"/><path class="r" d="M64.83,28.89c-.17-.47-.71-.14-.96-.44,.12-.02,.24-.04,.36-.06,.14-.04,.28-.08,.42-.13,.47-.08,.95-.07,1.42-.2,.76-.05,1.51-.07,2.27,.03,.85,.15,1.71,.06,2.57,.09,.36,.01,.73-.05,1.05,.2,.17,0,.34,.01,.51,.02l.61,.2c.01,.26-.19,.25-.36,.28-.09,0-.18-.01-.27-.04-1.56,.01-3.13-.27-4.67,.23-.98,.02-1.99,.31-2.94-.19Z"/><path class="ih" d="M60.89,84.45l-.8-3.02c.17-.31-.02-.81,.48-.95,.56,.6,.49,1.43,.74,2.14,.06,.18,.15,.37,.17,.58-.25,.4-.02,1.01-.59,1.26Z"/><path class="bq" d="M55.76,44.66c-.1-.03-.14,.42-.33,0-.11-.24,.17-1.28-.74-.59-.2-.54-.58-.44-.97-.26l.79-.79c.43-.01,.57-.3,.62-.66,.31-.46,.58,0,.87,.04,.21,.28-.08,.67,.21,.93,.07,.29,.02,.56-.08,.84-.07,.08-.16,.16-.27,.14-.17-.02-.14-.2-.2-.3,.03,.12,.04,.25,.11,.37,.06,.1,.07,.19-.02,.28Z"/><path class="cn" d="M44.69,5.08c.05,.72-.52,.36-.82,.47-.21-.64-.28-1.31-.53-1.94-.23-.57,.16-1.07,.4-1.55,.11-.22,.21,.24,.41,.15,.27,.34,.01,.76,.19,1.11,.05,.22,.06,.44,.08,.66,.04,.27,.1,.54,.19,.8,.04,.09,.07,.19,.08,.29Z"/><path class="jq" d="M59.93,75.54c.42,.49,1.3,.47,1.39,1.31-.31,.89-.01,1.5,.84,1.73,.05-.02,.1-.01,.14,.03-.34,.62-.72,.46-1.13,.07-.35-.34-.44-.79-.46-1.23-.04-.64-.4-.87-.96-.92-.08,.05-.15,.04-.22-.03-.09-.15-.1-.31-.08-.48,.09-.23,.13-.51,.48-.47Z"/><path class="gs" d="M65.36,102.21c-.41-.32-.27-.82-.38-1.23-.07-.24-.14-.46-.26-.66,.29-.33,.14-.97,.73-1.1,.32,.65,.32,1.38,.47,2.07-.17,.31,.06,.88-.56,.92Z"/><path class="ec" d="M58.34,19.69h-.31c-.06-.04-.1-.08-.13-.13-.06-.13-.1-.29-.28-.33-1.02,.25-1.72,1.04-2.6,1.52-.26,.14-.47,.45-.83,.22,.09-.14,.11-.28,.02-.43,.76-.48,1.51-.96,2.27-1.44,1.27-.81,1.43-.77,1.86,.59Z"/><path class="l" d="M61.83,87.63c-.39-.52-.53-1.11-.47-1.75-.07-.35,.08-.66,.16-.98,.03-.07,.09-.12,.15-.16,.57,.29,.32,.94,.57,1.38,.07,.13,.19,.35,.17,.56-.27,.27-.04,.85-.59,.95Z"/><path class="at" d="M39.14,9.36c1.47-.54,2.12-.15,2.67,1.62-.34-.15-.4-.51-.56-.8-.16-.28-.19-.66-.58-.77-.04,.38-.53,.55-.47,1,.02,.13,.12,.4-.21,.39-.34,0-.18-.31-.27-.47-.22-.31-.43-.64-.59-.99Z"/><path class="dy" d="M39.14,9.36c.44,.18,.65,.51,.59,.99-.05,.09-.12,.17-.14,.26-.04,.24,.09,.63-.29,.62-.32,0-.14-.38-.2-.59-.14-.48-.37-.86-.91-.94-.17-.03-.33-.06-.31-.27,.02-.28,.25-.2,.42-.23,.24,.26,.55,.14,.83,.16Z"/><path class="cm" d="M45.92,5.9l.25-.04c.98,.29,1.51,1.03,1.97,1.88,.19,.35,.17,1.29,.98,.46,.11-.11,.63-.24,.78,.2,.08,.24,.35,.2,.48,.35-.56,0-1.11,.02-1.67,0-.36-.02-.56-.3-.66-.6-.37-1.08-1.1-1.81-2.13-2.25Z"/><path class="bs" d="M72.75,28.76l.32-.16c.68-.11,.54,.45,.45,.7-.29,.82-.14,1.65-.17,2.48-.01,.39-.06,.72-.42,.94l-.16-.16c-.1-.15-.07-.32-.07-.48,.04-.48-.05-.98,.1-1.46,.38-.47,.3-.97,.12-1.48-.08-.11-.2-.21-.17-.37Z"/><path class="bd" d="M54.53,15.11c.19,.64-.5,.33-.65,.6,.06,.15-.03,.21-.15,.25-.5-.05-.85-.45-1.32-.57-.51-.19-.95,0-1.38,.26-.24,.11-.5,.16-.77,.15-.16-.03-.29-.1-.37-.25l.16-.33v.02c1.05-.56,2.12-.64,3.2-.1,.14,.07,.27,.16,.44,.12,.34,.28,.57,.02,.82-.16Z"/><path class="el" d="M73.09,12.08c-.06-.4,.15-.49,.5-.48,.89,.02,1.79,.02,2.68,.02-.14,.4-.46,.45-.82,.45-.79,0-1.57,0-2.36,0Z"/><path class="co" d="M42.28,6.5c-.34,.6-.74,1.17-1.03,1.81-.25,.57-1.2,.67-1.97,.28,.35-.44,.73-.68,1.26-.24,.24,.2,.31,.15,.54-.32,.29-.6,.49-1.26,1.2-1.53Z"/><path class="f" d="M64.16,96.56c-.27-.35-.47-.72-.44-1.18-.05-.46,.13-.82,.47-1.1,.33,.43,.5,.92,.37,1.43-.06,.23,.06,.32,.11,.47l-.03,.09c-.12,.18-.28,.27-.49,.28Z"/><path class="ab" d="M66.1,76.17h.45c-.56,.58-1.33,.52-2.03,.64-.41,.07-.84,.1-1.25,.2-.07-.36-.07-.55,.43-.56,.8-.01,1.62,0,2.4-.28Z"/><path class="an" d="M62.48,90.79c0-.53-.33-1.02-.23-1.56,.09-.36,.03-.8,.5-.96,.15,.52,.49,.99,.35,1.58-.09,.39-.04,.87-.61,.95Z"/><path class="jn" d="M62.48,90.79c.39-.2,.24-.74,.61-.95,.49,.24,.16,.8,.44,1.12-.24,.28,0,.88-.6,.94-.5-.23-.06-.84-.45-1.12Z"/><path class="dv" d="M33.72,98.13l-.17,.12c-.39-.06-.3-.37-.3-.61,0-1.43-.04-2.87,.03-4.3l-.04-.02h-.04c.15-.76,.62-.51,1.06-.33-.19,.02-.37,.06-.24,.32-.27,.24-.22,.57-.23,.88-.04,1.31,.09,2.62-.07,3.93Z"/><path class="ee" d="M48.36,9.48s.05-.05,.07-.08c.31-.18,.55-.1,.74,.19,.13,.21,.24,.43-.06,.6-.33,.3,.08,.99-.3,1.03-.55,.06-.08-.68-.42-.91-.06-.04-.14-.08-.2-.11l.19-.71Z"/><path class="as" d="M59.62,76.47s.08,.04,.12,.05l.32,1.42c-.2,.3,.13,.88-.5,.96-.55-.14-.11-.72-.44-.96,.17-.49,.05-1.08,.5-1.47Z"/><path class="gl" d="M62.75,88.27c-.26,.27-.08,.77-.5,.96-.49-.18-.11-.72-.41-.98,.25-.34,.06-.91,.59-1.1,.35,.3,.27,.73,.32,1.12Z"/><path class="dx" d="M44.16,3.36c-.37-.38-.09-.76-.02-1.14l.36-.94,.38,1.91c-.05,.06-.1,.11-.17,.15-.18,.07-.36,.14-.55,.03Z"/><path class="et" d="M49.1,10.18c.03-.48-.16-.77-.67-.79,.59-.26,1.19-.29,1.79-.02-.27,.34-.77,.56-.62,1.13-.37,.22-.35-.18-.5-.32h0Z"/><path class="n" d="M64.52,98.72c-.4-.3,.05-.72-.15-1.05-.04-.51,.07-.98,.28-1.44l.03-.05c.21,.46,.49,.9,.32,1.44,.04,.46,.2,.96-.48,1.1Z"/><path class="bj" d="M63.57,94.44c-.45-.13-.33-.48-.31-.79,.02-.63,.07-1.25,.48-1.78,.03,.45,.39,.83,.27,1.31,0,.44-.14,.83-.36,1.2-.03,.02-.05,.05-.08,.07Z"/><path class="aq" d="M53.71,15.27c-.05,.04-.14,.14-.16,.12-1.14-.69-2.31-.51-3.49-.15,1.03-.81,2.24-.8,3.65,.03Z"/><path class="fm" d="M59.91,80.62c-.33-.24-.11-.59-.18-.88-.2-.64,.23-1.15,.37-1.72,.09,.5,.35,.97,.31,1.51-.1,.4-.13,.83-.51,1.1Z"/><path class="ib" d="M64.52,98.72c.46-.24,.28-.75,.48-1.1,.25,.14,.36,.34,.28,.63-.02,.44-.15,.85-.32,1.26-.05,.1-.12,.19-.26,.17-.23-.29-.13-.64-.19-.96Z"/><path class="bv" d="M64.2,94.28c-.05,.41-.33,.73-.47,1.1-.31-.27-.12-.62-.16-.94h0c.22-.3,.15-.79,.62-.93l.02,.77Z"/><path class="bg" d="M41.2,80.04c.32,.3,.8-.06,1.11,.28-.04,.06-.1,.1-.17,.14-.31,.13-.72-.05-.97,.29-.11,.14-.15,.33-.32,.41-.28-.14-.22-.44-.3-.67,0-.31,.14-.5,.48-.5l.18,.04Z"/><path class="fv" d="M60.89,84.45c.21-.41,.23-.92,.59-1.26,.11,.25,.04,.5,.03,.75,.07,.45,.08,.87-.5,.99-.22-.12-.11-.31-.12-.48Z"/><path class="dc" d="M60.57,80.47c-.27,.26-.06,.77-.48,.95-.13-.18-.17-.38-.14-.6,.21-.37,.04-.93,.59-1.13l.04,.78Z"/><path class="ea" d="M44.69,5.08l-.19-.14c-.07-.61-.28-1.26,.5-1.6,.06,.28-.15,.6,.15,.83l-.45,.91Z"/><path class="cc" d="M61.01,84.93c.29-.27,.42-.62,.5-.99,.34,.2,.14,.52,.17,.79-.03,.04-.04,.09-.02,.14-.1,.27-.16,.55-.3,.8-.08,.15-.21,.08-.2-.11l-.14-.62Z"/><path class="k" d="M64.71,99.68l.12-.12c.21-.27,.09-.79,.62-.82v.47c-.4,.27-.19,.93-.74,1.1v-.63Z"/><path class="au" d="M65.36,102.21c.38-.19,.33-.64,.56-.92,.17,.61-.11,1.13-.38,1.64-.1,.19-.19,.11-.25-.05l.07-.67Z"/><path class="bm" d="M63.74,91.87c-.13,.6-.19,1.22-.48,1.78-.1-.19-.18-.39-.15-.61,.15-.45-.13-1.11,.6-1.28,.03,.03,.04,.07,.02,.12Z"/><path class="ad" d="M60.1,78.02c.08,.62-.34,1.13-.37,1.72-.38-.21-.26-.53-.17-.84,.32-.24,.14-.74,.5-.96l.04,.02v.05Z"/><path class="au" d="M62.43,87.15c-.32,.3-.19,.84-.59,1.1l-.02-.62c.33-.23,.11-.81,.59-.95v.47Z"/><path class="hc" d="M62.93,91.91c.35-.22,.21-.75,.6-.94l.04,.62c-.21,.35-.23,.78-.49,1.1-.29-.22-.12-.52-.15-.78Z"/><path class="aq" d="M41.8,10.98c.55,.36,1.03,.84,1.65,1.11-.82,.04-1.28-.46-1.65-1.11Z"/><path class="df" d="M44.99,3.34c-.36,.47-.48,1.02-.5,1.6l-.28-.82c.2-.29,.11-.73,.48-.92h.19c.1,0,.15,.04,.11,.15Z"/><path class="cy" d="M63.08,92.69c.12-.39,.13-.82,.49-1.1,.1,0,.15,.06,.14,.16-.39,.34-.36,.88-.6,1.28l-.03-.34Z"/><path class="dw" d="M64.18,93.51c-.37,.21-.28,.72-.62,.95-.01-.48,.28-.86,.45-1.28l.17,.33Z"/><path class="j`" d="M60.54,79.69c-.37,.28-.29,.81-.59,1.13l-.04-.2c.14-.38,.15-.82,.51-1.1,.1,.01,.15,.06,.12,.17Z"/><path class="w" d="M65.45,98.74c-.4,.13-.3,.64-.62,.82-.03-.5,.26-.89,.46-1.31l.17,.49Z"/><path class="ee" d="M49.1,10.18c.18,.09,.17,.46,.5,.32,.06,.18,.09,.43-.15,.41-.43-.05-.36-.42-.34-.73Z"/><path class="cq" d="M6.89,39.22v-.48c0-.53,.26-.71,.79-.71,6.65,.01,13.3,.02,19.94,0,2.56,0,4.67,.89,6.26,2.93,.87,1.42,1.2,2.94,.97,4.6-.13,.95-.51,1.76-1.12,2.48-.36,.43-.35,.75,.16,1.02,.18,.13,.39,.23,.45,.47,.51,.41,.72,1.01,.88,1.59,.56,2.03,.48,5.01-1.82,6.67-1.65,.82-3.42,.97-5.23,.97-6.54-.01-13.09,0-19.63,0q-1.55,0-1.65-1.45c-.23-.27-.16-.6-.16-.91,0-4.57-.03-9.14,.02-13.71,.01-1.1-.03-2.21,.13-3.31v-.16Z"/><path class="ja" d="M32.76,77.27c-1.72,1.02-3.6,1.22-5.55,1.19-3.29-.05-6.59,0-9.89-.03-.7,0-.93,.22-.92,.89,.04,1.92,.04,3.85,.06,5.77h-.04c-.21,.34-.51,.48-.93,.48-2.54,0-5.08-.02-7.62,0-.63,0-.82-.25-.82-.85,.01-6.32,0-12.64,0-18.96,0-.51,.11-.76,.71-.76,7.22,.02,14.44,.01,21.66,.01,.13,0,.26,0,.38,.07,2.96,.25,5.48,3.01,5.68,6.12,.16,2.53-.82,4.5-2.73,6.08Z"/><path class="dm" d="M29.81,65.08c-7.19,0-14.39,.02-21.58,0-.77,0-1.04,.13-1.03,.98,.04,6.14,.03,12.27,0,18.41,0,.78,.24,.97,.99,.95,2.3-.05,4.6-.03,6.9,0,.49,0,.92-.07,1.33-.33,.11,.52-.29,.55-.62,.66-2.66-.16-5.33-.03-8-.07-.43,0-.9,.05-.83-.62,.02-6.23,.02-12.45,0-18.68l-.09-.81c-.07-.62,.33-.66,.79-.66,1.58,0,3.17,0,4.75,0,5.2,0,10.39,0,15.59,0,.6,0,1.21-.09,1.79,.17Z"/><path class="ck" d="M22.46,61.03c.28-.2,.54-.48,.94-.29,.29,.3,0,.58-.02,.87,0,.1-.01,.2-.04,.3-.02,.1-.05,.19-.06,.29,0,.1-.01,.21-.02,.31,0,.15-.08,.27-.18,.38-.21,.15-.42,.22-.65,.04-.21-.26-.1-.58-.09-.87,.02,.33-.09,.59-.36,.79l-.29-.06c-.11-.06-.07-.25-.07-.25q-.54,.04-.45-.57c-.43-.04-.57,.36-.82,.57-.67,.57-.72,.56-.98-.29-.03-.1-.08-.19-.12-.3-.75,1.17-1.1,1.29-1.54,.57-.02-.57-.04-1.14,.63-1.4,0,.03,0,.05,.01,.08,.02,.04,.04,.07,.07,.11,.21-.21,.18-.58,.65-.64,.81-.1,1.06,.3,1.1,1.02,.74-.21,.99-1.31,1.93-.93,.12,.09,0,.51,.37,.27Z"/><path class="ck" d="M17.36,60.95c-.13,.09-.26,.27-.38,.26-.82-.06-.93,.59-1.17,1.12-.08,.17-.11,.37-.23,.49-.23,.23-.56,.2-.81,.07-.27-.14-.02-.37,.05-.55,.11-.32,.26-.63,.4-.94-.21-.25-.51-.05-.76-.19,.18-.4,.47-.56,.91-.54,.55,.02,1.1,0,1.66,0,.21,0,.37,.03,.32,.3l.02-.02Z"/><path class="ck" d="M28.79,60.98c.89-.57,1.88-.17,2.82-.31,.05,.36-.21,.58-.36,.57-.77-.06-.88,.53-1.05,1.03-.21,.6-.55,.85-1.24,.58l.56-1.43c-.16-.32-.77,.18-.71-.45l-.02,.02Z"/><path class="ck" d="M27.98,61.13c.19-.19,.4-.37-.12-.33-.32,.2-.21,.71-.65,.89,.08-.95-.49-1.11-1.24-1.04-.6,.56-.61,1.44-1.11,2.05,.07,.43,.4,.23,.62,.23,.64,.02,.41-.77,.86-.96,.23,.36,.04,.96,.82,.99,.74,.02,.87-.39,1.05-.89,.14-.39,.28-.77,.42-1.15-.4-.5-.39,.31-.65,.21Z"/><path class="ck" d="M18.33,61.12c-.41,.38-.37,.96-.63,1.4-.21,.43-.57,.4-.97,.34,.09-.71,.62-1.23,.64-1.91l-.02,.02c.29-.21,.63-.21,.96-.16,.32,.05,.09,.2,.03,.31Z"/><path class="ck" d="M25.45,60.66c0,.59-.4,.59-.83,.62-.45,.03-1-.23-1.32,.34-.24-.32,.26-.56,.09-.88l2.05-.08Z"/><path class="ck" d="M23.11,62.36c.47,0,.95,.03,1.42,.02,.32,0,.27,.14,.16,.33-.49,.41-1.06,.22-1.61,.19l.02-.53Z"/><path class="ck" d="M21.16,61.98c.04,.21-.03,.46,.13,.63,.2-.03,.2-.14,.21-.24,.03-.2,0-.51,.31-.41,.27,.09,.03,.3,0,.46-.03,.13-.08,.25-.12,.37-.26,.26-.72,.25-.83,.08-.2-.3,.1-.63,.31-.9Z"/><path class="ck" d="M34.2,61.31h0c.28-.1,.51-.23,.62-.63-.81,0-1.58-.01-2.35,0-.37,0-.65,.2-.8,.53-.17,.37,0,.65,.31,.87,.42,0,.86-.06,1.27,.06v.23c-.58,0-1.16,0-1.74,0h0l-.27,.21c-.13,.33,.09,.34,.31,.33,.78-.01,1.56-.02,2.34-.04h0c.32-.4,.59-.82,.04-1.21-.37-.26-.88,.07-1.37-.27,.6-.2,1.13-.12,1.65-.09Z"/><path class="ck" d="M28.63,60.92c-.44-.05-.46,.38-.66,.58-.45-.17,.31-.52-.11-.7,.34-.11,.71-.38,.93,.17l.02-.02-.18-.03Z"/><path class="ck" d="M21.97,62.86c.05-.3,.17-.57,.46-.87v.95c-.15-.05-.33,.08-.46-.07Z"/><path class="ck" d="M22.46,61.03l-.26,.43c.2-.27-.5-.4-.11-.7,.47-.09,.48-.08,.37,.27Z"/><path class="en" d="M27.04,27.46l.6-.86c.16,1.02,.32,1.86,.42,2.7,.08,.63,.31,.89,1.01,.88,2.14-.04,4.27,0,6.41,.02,.05,.49-.19,.63-.66,.63-2.21-.02-4.43-.01-6.64,0-.42,0-.61-.14-.67-.58-.13-.94-.31-1.86-.47-2.8Z"/><path class="ck" d="M21.04,33.89c-.92,.47-1.18,.33-1.51-.81-.43,.4-.44,1.41-1.4,.96-.09-.81,.29-1.44,.8-2.01,.95-.52,1.31-.32,1.46,.82,.3,.16,.6-.52,.87-.01,.2,.39,.12,.77-.23,1.06Z"/><path class="ck" d="M21.04,33.89c.04-.12,.1-.25,.11-.37,.03-.42,.21-1.01-.59-.54-.02,.01-.11-.09-.16-.13,.3-.02,.24-.38,.44-.49,.37-.07,.81,.17,1.11-.22,.51-.42,.76-.42,1.06,0-.03,.09-.06,.18-.09,.27-.17,.35-.34,.69-.5,1.05-.32,.72-.61,.82-1.39,.45Z"/><path class="ck" d="M18.94,32.02c-.27,.67-.53,1.34-.8,2.01q-1.27,.11-.82-1.08c-.08-.15-.17-.3,.06-.41,.41-.5,.77-1.17,1.57-.53Z"/><path class="ck" d="M22.61,35.1c.63-.38,1.33-.19,2-.19,.31,0,.05,.21,.04,.32h0l-1.13,.12c-.05,.14,.02,.15,.1,.15,.39-.02,.81-.01,.77,.51-.04,.47-.44,.55-.83,.49-.47-.07-.98,.19-1.42-.13,.26-.71,.82-.31,1.29-.4-.27-.02-.55,.05-.77-.11-.26-.19-.42-.41-.15-.72,.04-.02,.07-.03,.11-.05Z"/><path class="ck" d="M20.94,35.98c.22-.22,.67,.07,.83-.34v-.02c-.18-.21-.47,.02-.75-.18,.52-.3,1.12-.02,1.58-.33-.76-.41-1.88-.29-2.35,.26-.11,.18-.23,.36-.34,.53,.39,.09-.29,.61,.22,.6,.61,0,1.24,.18,1.82-.14-.16-.65-.75-.01-1.01-.37Z"/><path class="ck" d="M21.95,32.12c-.19,.99-.69,.38-1.11,.22,.29-.65,.62-.71,1.11-.22Z"/><path class="ck" d="M33.12,31.78c-.07,.03-.14,.07-.22,.08-.49,.06-.81,.33-.75,.83,.06,.49,.48,.53,.9,.54,.25,0,.57-.14,.8,.29-.59,0-1.11,0-1.63,0-.27,0-.45,.17-.52,.4-.05,.16,.2,.11,.28,.21,.6,0,1.2,0,1.8-.03,.83-.02,1.1-.4,.88-1.21-.45-.37-1.05-.01-1.65-.36,.69-.22,1.26-.12,1.83-.11,.18-.16,.45-.25,.46-.64h-2.18Z"/><path class="ck" d="M25.32,32.43q.52-.11,.81-.62c-1.07,.11-2.12-.24-3.11,.3-.22,.03-.19,.14-.09,.27,0,1.26,1.17,.62,1.78,.99-.78,.33-1.71-.26-2.37,.71,.92,0,1.67,0,2.43,0,.38,0,.68-.16,.81-.51,.16-.41-.03-.71-.41-.9h-1.2c.42-.41,.89-.26,1.35-.24h0Z"/><path class="do" d="M8.29,29.23c.53-.72,.95-1.35,1.43-1.92,3.76-4.58,7.53-9.15,11.3-13.72,.84-1.01,1.59-2.1,2.62-2.94,.44-.36,.91-.48,1.46-.48,1.67,0,3.33,0,5,0,1.15,0,1.42,.22,1.88,1.31,.56,1.33,.68,2.75,.93,4.15,.5,2.82,.91,5.65,1.37,8.48,.24,1.48,.47,2.96,.71,4.44,.07,.44-.03,.69-.56,.68-1.61-.03-3.23-.02-4.84,0-.42,0-.56-.13-.63-.57-.42-2.81-.9-5.61-1.35-8.41-.23-1.4-.45-2.8-.67-4.2-.04-.26-.03-.54-.37-.62-.35-.08-.55,.13-.73,.37-2.18,2.81-4.36,5.62-6.55,8.42-.16,.2-.25,.37-.15,.64,.12,.31,.38,.24,.6,.24,2.3,0,4.6,0,6.9,.01,.22,0,.52-.14,.65,.12,.11,.22-.19,.34-.28,.52-.54,1.01-1.42,1.76-2.1,2.67-.44,.59-1.05,.85-1.85,.84-4.6-.04-9.2-.02-13.81-.02-.26,0-.52,0-.95,0Z"/><path class="ht" d="M26.58,24.14h-6.01l4.89-6.21c.33,0,.37,.27,.41,.48,.32,1.78,.53,3.57,.83,5.36,.02,.13-.03,.26-.11,.37Z"/><path class="eg" d="M26.58,24.14c-.33-1.96-.65-3.91-.97-5.87-.02-.13-.03-.26-.15-.34l.66-.91c.16,.95,.3,1.73,.43,2.51,.22,1.33,.42,2.65,.64,3.98,.09,.51-.02,.78-.61,.63Z"/><path class="fo" d="M21.37,24.34h5.36v.08h-5.36v-.08Z"/><path class="do" d="M45.81,84.8c.98,0,1.96,0,2.93-.03,.51-.01,.7,.19,.7,.71-.02,4.05,.04,8.09-.04,12.14-.04,1.94-1.37,3.52-3.44,3.97-.18,.04-.37,0-.51,.16-2.11,0-4.23,0-6.34,0q-1.08,0-1.11-1.11c-.04-.06-.03-.11,.04-.14,1.6,.28,3.2,.05,4.8-.02,1.7-.07,2.92-1.47,2.93-3.4,.02-3.78,0-7.55,.01-11.33,0-.32,.02-.63,.03-.95Z"/><path class="ca" d="M38.01,98.1c0-1,.02-2.01,0-3.01-.02-.53,.19-.7,.7-.66,.5,.04,.99-.02,1.49-.11,1.28-.21,1.93-.91,1.94-2.25,.02-2.19,0-4.38,.02-6.57,0-.23-.2-.67,.3-.63,.37,.02,.84-.06,.83,.64-.04,3.48,0,6.97-.03,10.45,0,1.19-1.01,2.1-2.3,2.13-.98,.03-1.95,0-2.93,0h0Z"/><path class="do" d="M34.36,98.1c0-1.32,0-2.64-.01-3.96,0-.46,.12-.64,.63-.66,1.94-.05,1.94-.07,1.94,1.87,0,.63-.04,1.27,.01,1.9,.05,.64-.13,.92-.82,.86-.58-.06-1.16-.01-1.74-.02h0Z"/><path class="bi" d="M42.44,83.65c-.42,.3-.84,.11-1.26,.01-.3-.79-.13-1.61-.11-2.42,.26-.42,.66-.37,1.05-.27,.42,.11,.55,.47,.55,.86,0,.61,.19,1.26-.23,1.82h0Z"/><path class="jg" d="M37.05,102.07c-.28,.61-1.37,.93-2.38,.61-.64-.21-.21-.8-.3-1.22,.6,0,1.2,.03,1.8-.03,.53-.05,.76,.19,.88,.64Z"/><path class="g`" d="M38.04,100.5s-.03,.09-.04,.14c-.36,.12-.52,.77-.94,.54-.37-.2-.12-.72-.15-1.09-.03-.28,0-.57,0-.86q0-1.12,1.11-1.13h0l.03,2.4Z"/><path class="cv" d="M42.75,84.13c.06-.37,.35-.32,.61-.32,.49,0,.99,.03,1.48-.01,.73-.07,1,.26,.93,.95-.6,0-1.21-.03-1.81,.03-.57,.05-.96-.14-1.21-.65Z"/><path class="ef" d="M33.72,98.13c-.31-.45-.14-.96-.15-1.45-.03-.91,0-1.83-.02-2.75,0-.34,0-.65,.47-.61,0,1.59,.01,3.18,.02,4.78l-.32,.03Z"/><path class="fw" d="M45.63,102c-2.26,.21-4.52,.07-6.79,.1-.52,0-1,.05-1.37,.44l-.09-.3c.4-.27,.83-.34,1.32-.34,2.31,.02,4.61,0,6.92,0,0,.04,0,.07,.01,.11Z"/><path class="bg" d="M41.17,81.28v2.86c-.3-.15-.34-.42-.34-.73,.02-.71,.02-1.42,.03-2.13,.1-.09,.2-.1,.31,0Z"/><path class="jl" d="M64.69,17.44c-.49-1.79-.98-3.58-1.47-5.37,.25-.26,.58-.23,.89-.23,1.85,0,3.7-.01,5.54,0,.97,0,1.17,.24,1.02,1.21-.19,1.23-.42,2.45-.67,3.66-.07,.31-.13,.63-.43,.81-1.31,.08-2.61,.25-3.93,.17-.34-.02-.69,.04-.96-.25Z"/><path class="eu" d="M68.26,20.31c-.94,0-1.89-.04-2.83,.04-.68,.06-.89-.18-.79-.8,.05-.09,.13-.18,.14-.27q.15-1.13,1.28-1.13s.05,0,.08,0c.68,.04,1.56-.29,1.98,.12,.45,.45,.11,1.34,.14,2.04Z"/><path class="jh" d="M69.58,17.46c.32-1.62,.63-3.24,.95-4.86,.1-.52-.22-.54-.6-.53-2.24,0-4.47,0-6.71,.01-.24-.3-.21-.47,.22-.47,2.48,0,4.97,0,7.45,0,.61,0,.29,.47,.25,.69-.29,1.72-.62,3.43-.94,5.14-.2,.17-.41,.14-.63,.02Z"/><path class="fb" d="M63.3,11.09c.84-.48,1.67-.96,2.71-.83,.6,.07,1.21,.02,1.82,0,.34-.01,.42,.15,.37,.44-.04,.22,.16,.58-.3,.58-1.5,0-3.01-.01-4.51-.03-.02,0-.05-.08-.1-.16Z"/><path class="ij" d="M65.59,10.02c.76-.34,1.18-1.29,2.18-1.14,.41,.06,.46,.2,.45,.53-.02,.31,.09,.64-.44,.62-.73-.03-1.46,0-2.19,0Z"/><path class="fu" d="M64.16,17.3c-.32,.04-.38-.18-.45-.42-.4-1.43-.82-2.86-1.22-4.29-.05-.19-.14-.42,.14-.53l1.53,5.25Z"/><path class="iu" d="M70.89,17.26c.36-1.81,.72-3.63,1.07-5.44l.23,.04c-.28,1.82-.63,3.64-1.07,5.43l-.23-.04Z"/><path class="dj" d="M69.58,17.46l.63-.02c-.34,.35-.78,.17-1.16,.18-.35,0-.65,.06-.88,.33-.07-.06-.15-.11-.23-.14-.81-.06-1.63,0-2.44-.03-.28,0-.58,.08-.82-.15v-.19l4.91,.02Z"/><path class="gi" d="M64.67,17.63c.92,0,1.84,0,2.75,0,.25,0,.53-.1,.73,.15-.85,.18-1.7,.03-2.56,.08-.31,.02-.62-.07-.92,.07-.24-.09-.11-.2-.01-.3Z"/><path class="f`" d="M64.68,17.94c.75-.32,1.53-.08,2.29-.14,.39-.03,.79,0,1.18,0v.16l-3.48-.02Z"/><path class="ck" d="M22.15,89.34l.15-.28c.16-.32,.38-.63,.47-.97,.18-.7,.59-.92,1.26-.75-.11,.82-.49,1.52-.95,2.19-.32-.04-.68,.2-.93-.18Z"/><path class="ck" d="M22.85,87.34h-2.73c-.23,.27-.64,.47-.44,.91,.33,.73,1.08,.31,1.68,.56-.48,.31-.96,.17-1.4,.19-.41,.02-.73,.09-.83,.53,1.01-.06,2.03,.21,3.02-.19,.13-.05,.23-.12,.15-.28,.08-1.31-1.03-.77-1.67-1.03,.72-.37,1.71,.31,2.23-.69Z"/><path class="ck" d="M33.33,87.34c-1.31-.18-2.55,.1-3.8-.04-.13-.01-.33-.06-.37,.17,.09,.35,.54,.31,.67,.61l.02,.02c.02-.07,.04-.13,.07-.2,.36,.83,1.11,.85,2.08,.78-.6,.45-1.05,.28-1.46,.3-.43,.01-.77,.09-.93,.53,.79,0,1.58,.02,2.37,.02,.46,0,.77-.26,.8-.71,.03-.49-.31-.67-.76-.72-.28-.03-.58,.1-.85-.11,.67-.35,1.65,.32,2.17-.65Z"/><g><path class="ck" d="M23.46,88.63c.05-.12,.1-.23,.15-.35-.06,.11-.11,.23-.15,.35Z"/><path class="ck" d="M25.85,87.87c.51-.01,.95-.03,1.19-.55l-2.81,.03h0c-.18,.76-.7,1.39-.83,2.17,.83,0,1.66,0,2.5-.01,.11-.13,.23-.26,.4-.45,0,0,0-.01,0-.02-.62-.12-1.19,.04-1.9-.2,.68-.22,1.37,.04,1.72-.66-.46-.07-.89-.12-1.33,.25,.11-.84,.7-.55,1.06-.56Z"/></g><path class="ck" d="M29.91,87.91c-.08-.45-.56-.19-.76-.44-.07,.16-.13,.31-.2,.47h0c.03,.14,.03,.29-.1,.35-.2,.09-.19-.09-.22-.21-.06-.26-.11-.51-.17-.77-.41,0-.82,.01-1.23,.02-.57,.62-1.01,1.29-.84,2.2,.9,.27,1.07-.46,1.41-1.1-.05,1.19,.66,1.19,1.45,1.09,.57-.4,.71-.96,.64-1.61Z"/><path class="cx" d="M59.93,75.54c-.26,.07-.2,.35-.33,.5-.51-.08-.38-.41-.28-.73,.06-2.61,.06-5.22,.05-7.84,0-.1,0-.19,0-.29,.06-.31-.06-.69,.34-.87,.34,.11,.39,.39,.42,.69,.01,.14,.01,.29,.02,.43,.02,1.22,.03,2.44,0,3.66,.02,.76,.02,1.52,0,2.28-.01,.52,0,1.04,.09,1.56-.14,.18-.39,.3-.3,.6Z"/><path class="gk" d="M64.06,72.54c-.42-.32-.88-.57-.95-1.23-.05-.46-.63-.27-.94-.3-.33-.03-.59,.31-.66,.67-.04,.23-.02,.47-.02,.71-.59,.13-.51-.34-.52-.63-.02-.97-.06-1.95,.02-2.92,.02-.09,.06-.18,.11-.25,.2-.16,.39-.16,.58,.02,.07,.14,.07,.3,.06,.46q-.02,1.22,1.14,1.46c.18,.05,.31,.19,.5,.22,.2,.19,.52,.26,.57,.6-.07,.41,.65,.75,.1,1.2Z"/><path class="fa" d="M64.06,72.54c.31-.48-.28-.82-.19-1.26,.05-.07,.1-.08,.15,0,.16,.32,.29,.68,.5,.96,.41,.54,1.04,.58,1.57,.13,.44-.37,.52-1.13,.16-1.6-.22-.23-.33-.45,.03-.65l.24,.37,.14-.02c-.06-.47-.1-.94-.17-1.41-.04-.27,.14-.13,.23-.15,.57,.25,.27,.74,.31,1.13,.06,.8,.04,1.6-.29,2.35-1,.88-1.59,.92-2.67,.15Z"/><path class="hj" d="M61.18,68.58c0,1.04,0,2.08,0,3.13,0,.26-.13,.61,.31,.69-.03,.46,.02,.92-.05,1.39-.08,.46-.28,.34-.54,.2-.19-.12-.23-.31-.25-.51-.04-.78-.06-1.56,.04-2.33,.13-.57,.07-1.15,.11-1.73,.02-.31-.09-.72,.39-.83Z"/><path class="ix" d="M60.86,73.5l.04,.48c-.12,.39-.23,.78-.67,.95-.64-.35-.2-.94-.3-1.41,.3-.29,.61-.26,.92-.03Z"/><path class="iv" d="M61.67,76.84c-.03-.12-.13-.29-.08-.35,.22-.28,1.18-.01,1.32,.35-.25,.39-.11,.83-.18,1.25-.1,.18-.2,.37-.44,.17-.29-.44-.15-1.06-.61-1.42Z"/><path class="hr" d="M62.16,78.57c-.39,.28-.69,.17-.91-.22-.23-.4-.24-.86-.32-1.29-.06-.29,.23-.21,.39-.22,.16,.64,.27,1.3,.84,1.73Z"/><path class="fh" d="M61.67,76.84c1.04,.11,.46,.92,.61,1.42-.55-.32-.6-.86-.61-1.42Z"/><path class="g" d="M62.73,78.09c-.17-.45-.31-.89,.18-1.25,.07,.44,.09,.86-.18,1.25Z"/><path class="hv" d="M66.1,59.39c.24-.18,.6,.28,.79-.15,.64-.44,1.31-.53,2.04-.24,.1,.34,.56,.48,.48,.91-.55,.1-1.06-.3-1.68-.09,.78,.14,1.54,.18,2.19,.59,.64,.26,1.07,.67,.96,1.42-.13,.87-.74,1.2-1.84,1-.16-.08-.25-.21-.32-.37-.12-.24,.04-.69-.46-.65-.37,.03-.49,.24-.4,.58,.1,.4-.17,.46-.46,.5-.16,0-.31-.01-.46-.06-.55-.19-.91-.56-1.04-1.14-.08-.11-.16-.23-.25-.33-.28-.3-.61-.39-1-.29-.19,.02-.37-.02-.55-.1-.15-.07-.27-.17-.29-.35,0-.21,.01-.41,.06-.61,.21-.54,0-1.11,.09-1.48,0,.21,.01,.61,0,1.01,0,.17,.01,.42-.3,.26-.28-.74-.22-1.49-.05-2.24,.22-.3,.42-.08,.63,.02,.18,.13,.37,.22,.6,.17,.23-.01,.26,.14,.27,.32-.03,.18-.15,.26-.33,.26-.53,.3-.1,.8-.25,1.11,.03-.27-.07-.63,.07-.96,.33-.27,.52-.08,.69,.2,.16,.51,.01,1.04,.13,1.55,.15,.18,.2,.04,.25-.08,.11-.26,.05-.57,.25-.8,.07-.04,.14-.03,.19,.03Z"/><path class="ag" d="M68.93,59c-.7-.11-1.35,.25-2.04,.24-.48-.18-.61-.5-.58-1.02,.11-1.94-.13-2.33,2.49-2.04,.22,.93,.24,1.87,.13,2.82Z"/><path class="gb" d="M68.96,62.7c.43,0,.88,.14,1.28-.15,.82-.57,.62-1.48-.48-2.11-.01-.13,0-.22,.16-.13,.68,.11,1.21,.41,1.22,1.18,.01,.86-.44,1.42-1.23,1.72-.89,.34-1.78,.24-2.67-.02-.23-.07-.43-.21-.37-.51l.48,.03c.53,.17,1.06-.22,1.6-.02Z"/><path class="aa" d="M66.88,62.68c.3,.53,.86,.42,1.32,.48,.56,.08,1.14,.04,1.72,.05,.68,.28,1.35,.1,1.97-.14,.39-.15,.28,.16,.41,.25-.05,.16-.19,.17-.32,.19-.44,.34-.95,.23-1.43,.23-.7,0-1.41,.03-2.11-.02-.78-.02-1.51-.21-2.16-.65-.58-.4-.65-.76-.32-1.48,.09,.05,.25,.11,.25,.13-.13,.59,.42,.67,.69,.96Z"/><path class="er" d="M69.93,60.32l-.16,.13c-.82-.25-1.64-.48-2.54-.32,.36-.73,1.2-.79,2.19-.22l.52,.41Z"/><path class="i`" d="M40.06,17.32l.17-.16c.08-.06,.18-.09,.28-.07,.1,.03,.18,.08,.26,.15,.36,.35,.32,.81,.32,1.26,0,3.13,0,6.26,0,9.39,0,.37-.02,.74,.04,1.1,.13,.62,.13,1.26,.24,1.88,.19,1.07,.69,1.91,1.63,2.51,2.63,1.68,5.27,3.33,7.88,5.04,.24,.16,.53,.26,.66,.55,0,.24-.2,.19-.34,.24-2.87-1.67-5.65-3.5-8.44-5.29-.22-.14-.43-.31-.63-.48-1-.87-1.44-1.98-1.44-3.3,0-3.62-.01-7.24,.02-10.86,0-.75-.09-1.4-.65-1.94Z"/><path class="fe" d="M55.93,42.41c-.28,.27-.52-.35-.8-.04-1.43-.02-2.31-1.25-3.6-1.61-.75-.2-.37-.75-.2-1.2,.16,.1,.2,.27,.23,.44-.25,.32,.13,.24,.22,.35,.18,.12,.39,.11,.58,.18,.68,.32,1.31,.75,1.98,1.09,.51,.17,1.04,.01,1.55,.13,1.08,.33,1.96,1.04,2.88,1.63,1.66,1.06,3.44,1.95,4.89,3.34,.88,.84,1.43,3.09,.99,4.09h-.42c-.38-.27-.25-.67-.25-1.01,.03-1.45-.61-2.5-1.79-3.3-1.83-1.24-3.77-2.31-5.59-3.56-.24-.16-.48-.31-.69-.52Z"/><path class="ak" d="M51.48,40c-.17-.1-.14-.28-.15-.44,.04-.15-.04-.27-.14-.37l.32-.15c.09-.39,.33-.71,.5-1.06,.36-.8,.93-1.47,1.38-2.22,.81-.93,1.27-2.1,2.06-3.03l.33-.3s.01-.08,.02-.12c.16-.25,.34-.44,.67-.24,.04,.07,.06,.14,.06,.22-.1,.51-.44,.91-.73,1.29-.58,.79-1,1.67-1.58,2.46-.3,1.32-1.37,2.16-2.03,3.25-.23,.24-.39,.55-.7,.7Z"/><path class="x" d="M59.44,75.55c-.17,.23,0,.36,.16,.49l.02,.43c-.09,.52-.22,1.02-.5,1.47-.23-.67-.09-1.49-.8-1.96,.03-.09,.06-.18,.09-.27-.22-.39-.43-.78-.27-1.25l-1.06-4.12c-.21-.04-.32-.19-.36-.38-.2-1.05-.72-2.04-.63-3.14,0-.26-.13-.41-.37-.47,.29-.38,.09-.8-.02-1.15-.09-.31-.08-.6-.12-.9-.01-.36,.12-.68,.23-1.01,.04-.07,.1-.12,.18-.15,.46,.11,.48,.53,.54,.87,.12,.68,.37,1.31,.59,1.95,.04,.11,.06,.23,.06,.35,.33,1.65,.76,3.28,1.3,4.88,.16,.96,.59,1.85,.76,2.81,.09,.52,.2,1.02,.19,1.55Z"/><path class="u" d="M64.65,96.23c.12,.52-.08,.98-.28,1.44-.34-.32-.12-.74-.2-1.11,.1-.2,.29-.26,.48-.33Z"/><path class="df" d="M61.15,85.55c.4-.06,.22-.54,.5-.68,.01,.37-.09,.7-.29,1.01-.2-.02-.37-.06-.21-.32Z"/><path class="jl" d="M56.06,44.14c-.16-.27,.1-.53,.04-.8,.32-.23,.56,.02,.78,.16,1.73,1.06,3.47,2.09,5.13,3.25,1.26,.88,1.84,2.13,1.74,3.67-.01,.24-.02,.48-.23,.64-.35-.01-.43,.22-.47,.5-.08,.1-.25,.2-.24,.3,.11,1.28-.38,2.64,.51,3.8,.39,.51,.58,1.06,.33,1.69-.06,.14-.17,.15-.29,.1-.89-.65-1.89-1.13-2.78-1.78-1.41-.52-2.53-1.53-3.8-2.29-.27-.16-.4-.41-.4-.72,.21-.87,.29-1.73-.28-2.51,0-1.19,.13-2.38,.23-3.56-.17-.37-.1-.79-.23-1.18-.05-.43-.27-.85-.04-1.29Z"/><path class="fy" d="M68.32,54.76c0-.66,0-1.32-.02-1.98-.01-.4,.13-.57,.55-.56,1.19,.02,2.38,.01,3.57,0,.38,0,.53,.16,.5,.52,0,.05,0,.11,0,.16q.05,1.88-1.82,1.88c-.93,0-1.85,0-2.78,0h0Z"/><path class="a`" d="M63.53,51.07c.24-2.01-.44-3.53-2.25-4.57-1.64-.95-3.22-2.01-4.82-3.02-.11-.07-.24-.09-.36-.13-.59-.22,.08-.66-.17-.94,1.08,.32,1.87,1.11,2.82,1.65,1.05,.6,2.02,1.34,3.07,1.93,1.68,.95,2.53,2.32,2.39,4.26-.01,.18,.02,.37,.03,.55l-.58,.31s-.09-.01-.14-.03Z"/><path class="jj" d="M63.55,57.45c.12-.71,.04-1.35-.56-1.85-.31-.26-.35-.61-.36-.99-.02-.81,.11-1.62-.15-2.42-.15-.46,.09-.69,.59-.61,.42,.83,.27,1.73,.29,2.6,0,.28-.08,.62,.17,.82,.9,.7,.71,1.66,.7,2.59-.17-.03-.34-.06-.51-.09-.07,.03-.13,.02-.17-.05Z"/><path class="hm" d="M68.33,55.54c-.78-.07-1.5,.07-2.09,.63-.16-.5-.8-.48-1.01-.93-.1-.22-.27-.53,.14-.47,.99,.15,1.97-.41,2.95,0h0c0,.26,0,.52,0,.78Z"/><path class="gt" d="M72.75,51.29c.11,0,.23,0,.34,0,.03,.4-.07,.64-.55,.63-1.23-.03-2.46-.03-3.68,0-.48,0-.59-.22-.54-.62h.02c1.47-.18,2.94-.09,4.42,0Z"/><path class="br" d="M64.84,53.48c0,.24-.02,.47,0,.71,.04,.45-.15,.6-.59,.59-.42,0-.56-.16-.54-.56,.02-.47,.02-.94,0-1.41-.02-.44,.14-.61,.59-.59,.4,.01,.58,.15,.55,.56-.02,.23,0,.47,0,.71Z"/><path class="fd" d="M65.05,58.12c-.08-.12-.15-.24-.23-.36-.29-.49-.11-1.02-.14-1.53-.01-.22,.11-.36,.33-.34,.26,.02,.59-.16,.76,.2,.07,.14,.12,.29,.18,.43-.27,.6-.08,1.25-.19,1.87-.37,.25-.53-.04-.72-.27Z"/><path class="ao" d="M64.66,51.3c-.06,.53-.49,.81-.92,.59-.14-.07-.18-.18-.18-.32,.01-.19,.14-.27,.31-.28,.26,0,.51,0,.77,0h.01Z"/><path class="bf" d="M68.31,63.53c1.22,0,2.44-.01,3.67-.02,0,2.16,0,4.33,0,6.49,0,1-.29,1.92-.76,2.78-.38,.7-1.05,1.09-1.7,1.48-.13,.08-.36,.18-.41-.13,.25-1.62,.29-3.25,0-4.87-.09-.51-.3-.95-.77-1.22-.17-.22-.24-.46-.24-.73-.01-1.05-.02-2.09,0-3.14,0-.24,.04-.47,.23-.65Z"/><path class="bt" d="M68.31,63.53c0,1.51,0,3.01,.01,4.52-.78-.49-1.68-.37-2.53-.45-.23-.22-.23-.52-.24-.8-.02-1.52,.01-3.03,0-4.55,0-.33-.05-.69,.27-.94l.13,.29c-.02,1.11,.26,1.46,1.44,1.75,.3,.07,.62,.12,.92,.18Z"/><path class="ik" d="M65.81,61.3c-.01,2.1-.02,4.2-.03,6.3-.56,.1-1.06,0-1.45-.44-.03-.04-.05-.08-.08-.11-.07-.18-.05-.37,0-.55,.25-1.48,.18-2.98,.19-4.47,0-.36-.05-.74,.19-1.06,.52-.32,.88-.08,1.19,.34Z"/><path class="hx" d="M66.89,68.74c-.22-.36-.31-.61,.31-.54,1.01,.13,1.53,.64,1.61,1.67,.02,.28-.09,.58,.09,.85-1.44,.31-1.54,.26-1.71-.86-.22-.34-.16-.76-.29-1.12Z"/><path class="i" d="M62.91,70.61c-1.43,.05-1.69-.34-1.26-1.92,.1-.36,.36-.53,.71-.59,.53-.09,.65,.24,.7,.66l-.02,.76c0,.37,.16,.76-.14,1.1Z"/><path class="b`" d="M66.28,70.12c-.17,.21-.07,.43-.03,.65-.28,.05-.69,.2-.79-.03-.14-.3-.08-.72-.03-1.08,.04-.29,.36-.19,.52-.19,.43,0,.35,.36,.33,.64Z"/><path class="dd" d="M64.02,71.28h-.15c-.3-.01-.41-.23-.48-.48-.04-.03-.06-.07-.05-.1,0-.04,.02-.06,.03-.06,.12-.52-.37-1.22,.55-1.62-.12,.81-.02,1.53,.11,2.26Z"/><path class="c" d="M63.06,68.76c-.06-.48-.37-.57-.78-.52-.05-.23,.37-.34,.15-.61-.04-.05-.07-.11-.11-.16-.09-.18-.26-.3-.39-.45-.03-.06-.04-.13-.04-.2,.03-.17,.08-.34,.19-.48,.06-.04,.13-.05,.2-.03,.2,.14,.26,.39,.41,.57,.06,.08,.12,.16,.18,.24,.11,.14,.25,.21,.42,.26,.41,.07,.85-.04,1.21,.24-.05,.15-.19,.19-.31,.16-.79-.15-1.18,.15-1.14,.97Z"/><path class="jd" d="M62.78,67.18l-.17-.18s.06-.06,.09-.09c.46-.19,.93-.15,1.4-.03,.12,.06,.18,.18,.25,.29h-.02l.18,.46c-.47-.07-.98,.19-1.42-.15,.21-.22,.45-.18,.65-.13-.26-.15-.66,.09-.95-.17Z"/><path class="hs" d="M63.36,70.64l.02,.16c-.18,0-.37,.01-.47-.19,.04-.37-.15-.76,.14-1.1,.4,.29,0,.81,.32,1.12Z"/><path class="j" d="M66.89,68.74c.23,.34,.38,.7,.29,1.12l-.16,.18c-.22-.34-.05-.79-.31-1.13l.17-.17Z"/><path class="ja" d="M6.97,66.38c.03,.15,.08,.31,.08,.46,0,5.89,0,11.79,0,17.68,0,.18-.06,.36-.09,.54-.01-3.67-.04-7.34-.04-11,0-2.56,.03-5.12,.04-7.68Z"/><path class="ev" d="M50.38,81.13c0,.71,0,1.42,.02,2.13,0,.34-.08,.55-.48,.55-1.29-.01-2.58,0-3.87-.02-.09,0-.18-.09-.27-.14-.39-.69-.26-1.44-.19-2.17,.03-.32,.24-.54,.57-.56,1.29-.06,2.58-.08,3.88,.01,.14,0,.24,.1,.34,.19Z"/><path class="eq" d="M50.38,81.13c-1.32,0-2.64,.01-3.96,0-.48,0-.67,.14-.64,.63,.03,.63,0,1.27,0,1.9-1.11-.28-2.22-.21-3.34,0,0-.52,0-1.04,0-1.56,0-1.02-.25-1.18-1.27-.82h-.31s-.03-.08-.02-.12c.04-.17,0-.37,.14-.51,.39-.08,.91,.31,1.16-.31,.05,0,.11,0,.16-.01,1.15,0,2.31,0,3.46,0l.03,.03c.27,.35,.67,.37,1.06,.37,.86,.01,1.72,0,2.58,0,.33,0,.68-.04,.96,.23v.18Z"/><path class="t" d="M50.39,80.95c-1.35,0-2.69-.02-4.04,0-.47,0-.63-.17-.56-.61,1.42,0,2.83-.01,4.25-.02,.23,0,.49-.04,.6,.25,.08,.22-.02,.35-.25,.38Z"/><path class="jm" d="M56.4,46.52c.12,1.27-.04,2.53-.12,3.79l-.09,.06c-.32,.02-.43-.33-.77-.42,.24,.1,.27,.24,.22,.4-.54,.4-1.12,.32-1.71,.18-.24-.2-.23-.5-.32-.8,.12,.69,.48,1.25,.64,1.88,0,.19,.11,.17,.23,.13,.34,.44,.48,.94,.38,1.5-.06,.45,.04,.89,.11,1.33,.05,.3-.02,.58-.16,.84-.26,.25-.28,.75-.76,.79-.02-2.26-.81-4.38-1.2-6.58-.17-.96-.25-1.95,.06-2.91,.61,.46,1.27,.78,2.06,.69-1.03,0-1.13-.06-1.06-.75,.26-.11,.51-.09,.75,.04,.4,.48,1.1,.19,1.59,.87v-1.03c.05-.05,.11-.06,.16,0Z"/><path class="if" d="M54.82,60.8c-.42-.65-.25-1.42-.47-2.12-.09-.29-.09-.6-.13-.91,.27-.32,.22-.9,.79-.97,.49,.96,.51,2.01,.53,3.05-.2,.35-.17,.87-.72,.94Z"/><path class="g" d="M54.04,46.68c-.1,.49-.04,.58,.48,.62,.36,.03,.75-.1,1.14,.33-.76-.19-1.44-.08-2.11-.26-.39-.11-.61-.27-.64-.66,.1-.24-.13-.64,.35-.68,.51-.08,.68,.25,.78,.66Z"/><path class="fi" d="M54.82,60.8c.33-.24,.33-.69,.62-.95,.38,.5,.39,1.09,.41,1.68-.25,.33-.09,.94-.71,1.01-.3-.54-.41-1.12-.33-1.74Z"/><path class="ds" d="M54.04,46.68c-.29-.18-.36-.63-.78-.66-.48-.29-.49-.32-.17-.63,.21,.19,.55,.12,.69,.53,.18,.53,.47,0,.72-.06,.32-.05,.62-.08,.68,.36-.07,.27-.5,.14-.53,.46-.2,.17-.41,.15-.61,0Z"/><path class="gf" d="M54.05,56.19c.27-.21,.24-.66,.62-.78,.6-.17,.37,.28,.4,.53,0,.15,.02,.3-.02,.44-.31,.33-.35,.87-.81,1.1-.31-.39-.09-.86-.19-1.29Z"/><path class="id" d="M55.15,62.54c.46-.15,.13-.8,.59-.94,.25,.15,.2,.39,.19,.62-.01,.07-.03,.15-.06,.22-.18,.31-.25,.69-.57,.91-.29-.22-.1-.54-.16-.81Z"/><path class="ie" d="M55.95,63.18s0,.06,0,.1c-.09,.24-.16,.49-.26,.72-.13,.27-.25,.19-.33-.05,0-.04,0-.07,0-.11-.01-.53,.25-.98,.44-1.46l.03-.02c.42,.21,.35,.5,.13,.81Z"/><path class="cu" d="M54.24,57.48c.32-.32,.34-.84,.73-1.11,.15,.16,.15,.32-.01,.47-.34,.25-.24,.82-.73,.95v-.3Z"/><path class="ft" d="M55.78,62.38c0,.53-.35,.95-.44,1.46l-.04-.49c.08-.36,.21-.7,.48-.96Z"/><path class="ft" d="M55.35,63.95c.09,.07,.18,.2,.27-.01,.1-.23,.22-.44,.33-.67,.03,.39-.09,.74-.35,1.03-.23-.01-.3-.14-.24-.35Z"/><path class="do" d="M55.45,32.72c-.45,1.17-1.22,2.15-1.91,3.18-.31,.13-.56-.01-.81-.17-2.08-1.3-4.16-2.61-6.22-3.94-1.41-.91-2.04-2.25-2.05-3.88-.03-3.01-.01-6.02,0-9.02,0-.29,0-.58,.22-.82,.08-.06,.16-.11,.26-.13,.97-.14,1.94-.07,2.91-.05,.27,0,.61-.01,.67,.39,0,2.67-.06,5.34,0,8.01,.03,1.22,.58,2.22,1.62,3,1.69,1.29,3.59,2.23,5.33,3.44Z"/><path class="e`" d="M51.51,22.25l-.67,.53c-.18,.42-.58,.62-.9,.91-.34,.29-.42,.59-.07,.94,.36,.36,.62,.78,.87,1.22,.27,.47,.65,.82,1.19,.97,.31,.09,.63,.24,.68,.59,.18,1.07,.43,2.14,.32,3.25-.9-.44-1.73-1-2.53-1.59-1.1-.81-1.56-1.95-1.57-3.29,0-1.19,.07-2.38-.04-3.56-.04-.45,.46-.65,.29-1.06,.23-.23,1.44-.15,2.08,.15,.35,.16,.51,.42,.42,.81-.01,.05-.05,.09-.07,.14Z"/><path class="ca" d="M49.43,14.46c-.09,.89,.13,1.79-.14,2.66-1.5,.17-3,.21-4.51-.01-.6-.86-.48-1.75-.1-2.65h0c.16-.15,.35-.22,.57-.22,1.2-.02,2.4-.02,3.61,0,.22,0,.41,.07,.57,.22Z"/><path class="ip" d="M44.68,14.47c.08,.85-.19,1.72,.16,2.55,.21,.11,.58-.01,.57,.4,0,.39-.3,.52-.58,.67-.05,.01-.09,.03-.14,.04-.03-.02-.06-.04-.09-.07-.12-.7-.54-.95-1.22-.87-.48,.05-.97-.05-1.43,.07-.04,.42,.47,.52,.33,.9-.07,.06-.15,.1-.23,.13-.71,.06-.79,.54-.78,1.12,.01,2.87,0,5.73,0,8.6,0,.41,.08,.85-.24,1.21-.27-.23-.16-.54-.16-.82,0-3.28-.01-6.56,0-9.83,0-.5,0-.99-.33-1.41,.54-.51,.65-1.15,.58-1.86-.02-.25,0-.52,.13-.75,.03-.03,.06-.06,.1-.09l3.33,.02Z"/><path class="fk" d="M52.93,30.65c-.25-.85-.31-1.73-.38-2.61-.04-.51-.14-.97-.8-1.05-.43-.05-.73-.32-.98-.71-.37-.59-.71-1.2-1.25-1.7-.55-.51,.04-.79,.36-1.09,.33,.4,.73,.75,1.03,1.19,.54,.79,.97,1.71,2.02,1.99,.35,1.03,.35,2.12,.51,3.18,.38,.26,.31,.68,.38,1.06-.02,.12-.06,.23-.2,.24-.24-.14-.52-.24-.69-.49Z"/><path class="ay" d="M44.83,18.09c.18-.36,.92-.71,0-1.07,1.48,.04,2.97-.16,4.45,.11-.5,.22-.33,.9-.79,1.15-.53-.35-1.12-.12-1.69-.16-.66-.04-1.32-.02-1.98-.03Z"/><path class="db" d="M49.43,17.56c-.05-.28,.25-.34,.34-.53,.24-.14,.27,.11,.39,.2,.07,.08,.13,.16,.18,.25,.1,.18,.19,.35,.34,.49,.05,.05,.09,.1,.12,.16,.11,.25,.2,.5,.32,.74,.06,.15,.1,.32,.19,.46,.09,.15,.23,.27,.31,.42,.08,.25,.19,.5,.06,.77-.31,.18-.69,.07-1,.23-.46-.05-.88-.17-1.07-.67l.41-.06c.33-.34,.02-.61-.09-.91-.19-.51-.7-.92-.5-1.56Z"/><path class="cl" d="M44.67,14.14c-.36-.5,.07-.57,.36-.54,1.34,.12,2.67-.16,4.01-.06,.61,.04,.67,.29,.39,.75-1.31,.02-2.62,0-3.93,0-.28,0-.58,.05-.83-.16Z"/><path class="cf" d="M51.51,22.25c0-.53-.17-.84-.78-.84-.42,0-.83-.12-1.21-.31-.16-.08-.33-.23-.44,.05-.33-.22-.29-.51-.14-.82,.62-.12,1.07,.46,1.67,.43,.07-.02,.14-.02,.21-.02,.11,.03,.15,.13,.23,.2,.1,.01,.21,.04,.31,.03,.47-.07,.73,.17,.81,.6,.1,.5-.33,.56-.66,.69Z"/><path class="dp" d="M49.43,17.56c.16,.78,.68,1.39,.99,2.1,.24,.57-.05,.48-.4,.37-.77-.3-1.03-.9-1.05-1.68,0-.37,.05-.67,.46-.79Z"/><path class="ip" d="M44.67,14.14c1.31,0,2.63,0,3.94,.01,.27,0,.58-.11,.82,.14v.17c-1.59,0-3.17,0-4.75,0v-.33Z"/><path class="ip" d="M40.4,17.15h-.18c-.48-.44-.28-1.02-.31-1.55-.02-.5,0-.99,.02-1.49,.35-.3,.9-.05,1.23-.43,.67,.11,.09,.52,.19,.77h-.01c-1.14,.53-1.2,.65-.97,2.01,.04,.23,.11,.46,.03,.7Z"/><path class="cb" d="M53.62,31.14l.12-.18c.1-.42,.1-.9,.66-1.01,.42,.38,.17,.9,.29,1.35-.01,.13-.05,.24-.15,.33-.4,.02-.49-.55-.92-.48Z"/><path class="is" d="M54.54,31.62v-.33c.12-.14-.04-.41,.19-.48,.21-.06,.33,.14,.41,.29,.23,.42,.76,.69,.63,1.28v.05c-.5-.12-.86-.47-1.23-.8Z"/><path class="fp" d="M50.07,17.31l-.3-.28c.03-.49-.03-1,.13-1.48,.11,.06,.21,.11,.32,.17,.14,.13,.19,.3,.2,.48-.03,.4-.07,.79-.35,1.11Z"/><path class="s" d="M41.16,13.68c-.18,.79-.79,.37-1.23,.43,.14-.91,.81-.31,1.23-.43Z"/><path class="cj" d="M50.69,20.85c-.7,.23-1.16-.33-1.74-.51-.16-.11,0-.21,.02-.32,.69,.03,1.12,.6,1.72,.83Z"/><path class="cm" d="M50.69,20.85c-.66-.09-1.09-.67-1.72-.83,.26-.34,.45-.08,.64,.07,.41,.19,.77,.5,1.25,.51,.06,.08,.06,.15,0,.23h-.18Z"/><path class="gd" d="M53.91,26.05s-.02-.1-.02-.15c.71-.42,1.33-1.01,2.19-1.13l.05,.03c.3,.09,.48,.32,.64,.56,1.98,2.99,3.91,6.01,5.85,9.02,.03,.04,.03,.1,.03,.15-.88,.86-1.92,.81-2.53-.31-.45-.83-.99-1.43-1.85-1.8-.28-.12-.49-.39-.64-.68-.39-1.04-1.11-1.89-1.68-2.82-.61-1-1.22-2.02-2.05-2.87Z"/><path class="bf" d="M54.2,20.97c.97-.43,1.78-1.14,2.68-1.68,.3-.17,.56-.52,.97-.23,.17,.29-.04,.44-.23,.57-.57,.37-1.11,.77-1.6,1.06,.65-.24,1.15-.99,1.98-1.12,0,.04,.02,.08,.03,.12,.27,.48,.51,.98,.83,1.43,.3,.41,.18,.64-.2,.87-.89,.56-1.78,1.13-2.66,1.71-.31,.21-.46,.1-.63-.18-.22-.36-.45-.71-.73-1.03-.31-.36-.47-.67,.19-.99-.45,.11-.79,.24-.96-.21l.32-.31Z"/><path class="f`" d="M50.26,16.15l-.04-.43c.24-.17,.52-.13,.79-.18,1.15-.31,2.54,.5,2.81,1.61,.25,1.01,.15,1.92-.56,2.73q-.61,.51-1-.48c-.14-.09-.29-.16-.38-.31-.09-.14-.16-.29-.23-.44-.07-.15-.14-.29-.22-.44-.03-.05-.06-.11-.09-.17-.07-.14-.17-.26-.28-.38-.1-.12-.17-.27-.23-.42-.06-.15-.16-.27-.24-.41-.1-.17-.18-.34-.26-.52-.04-.05-.06-.11-.08-.17Z"/><path class="al" d="M53.91,26.05c.23-.02,.37,.06,.52,.26,1.23,1.62,2.18,3.42,3.37,5.07,.06,.09-.03,.2-.13,.25-.14,.17-.32,.29-.52,.39-.31,.09-.51-.08-.68-.31-.59-.9-1.2-1.79-1.78-2.7-.21-.33-.34-.7-.5-1.05-.21-.62-.36-1.25-.28-1.91Z"/><path class="de" d="M53.26,19.87c.1-.48,.43-.87,.48-1.39,.17-1.94-.73-2.69-2.73-2.94,.42-.42,.89-.58,1.45-.31,.39,.28,.76,.57,1.24,.67l.18-.18,.69,.08c-.31,.39-.03,.79,.01,1.17,.06,.5,.07,.98-.01,1.48-.13,.79-.8,1.02-1.31,1.43Z"/><path class="fs" d="M52.93,26.66c-.74-.01-1.25-.36-1.61-1.01-.3-.54-.6-1.09-1.13-1.47-.21-.16-.32-.41-.3-.69,.32-.24,.64-.47,.95-.71,.33,.22,.59,.05,.85-.15,.45-.33,.68-.18,.82,.34,.16,.6,.08,1.2,.11,1.8-.28,.12-.39-.13-.47-.29-.22-.38-.56-.53-.95-.62-.05-.09,.02,.02-.04-.06-.08-.11-.05-.34-.29-.28-.03,0-.05,.03-.05,.05,.04,.2,.27,.12,.35,.24-.11,.75,.38,1.23,.75,1.79,.3,.45,.67-.01,.99,.13l.02,.94Z"/><path class="bl" d="M51.18,23.82c.48-.24,.78-.05,1.01,.39,.1,.2,.29,.36,.44,.54,.1,.32,.19,.64,.29,.96-.34,.09-.6,.65-1.02,.22-.77-.77-1.04-1.63-.7-2.12h0Z"/><path class="fc" d="M55.77,32.38l-1.01-1.54-.22,.45-.14-1.31c-.39-.35-.29-.8-.22-1.23,.03-.03,.04-.07,.04-.11,.26-.15,.31,.1,.39,.23,.62,.96,1.27,1.89,1.87,2.85,.03,.12,.02,.23-.09,.31-.27,.01-.4,.25-.62,.35Z"/><path class="gx" d="M56.08,24.76c-.72,.4-1.33,1.02-2.19,1.13,0-.27-.01-.53-.02-.8,.35-.27,.69-.57,1.06-.81,.59-.37,.9-.22,1.15,.47Z"/><path class="ba" d="M56.39,31.81c-.72-1.06-1.45-2.11-2.17-3.17l-.03-.68c.8,1.21,1.6,2.43,2.4,3.64-.02,.11-.09,.18-.2,.21Z"/><path class="hu" d="M54.18,28.75c.28,.37,.12,.83,.22,1.23-.35,.24-.35,.71-.67,.98-.34-.31-.11-.77-.3-1.12,.4-.26,.4-.79,.74-1.09Z"/><path class="hf" d="M53.86,20.66c.03,.26-.19,.32-.34,.37-.24,.08-.31-.15-.36-.31-.07-.25,.18-.31,.32-.36,.25-.09,.26,.19,.38,.31Z"/><path class="dn" d="M50.86,20.84v-.23c.2-.4,.53,.02,.77-.12,.02-.06,.06-.08,.12-.06l.06,.06c.02,.61-.61,.13-.76,.45l-.19-.1Z"/><path class="gm" d="M51.99,19.04l.27,.36-.45,1.09h0c-.27-.52-.18-1,.17-1.45Z"/><path class="dg" d="M68.28,28.26l-2.35-.02c-.26-.09-.35-.32-.36-.56-.03-.76-.13-1.52,.08-2.27,.2-.36,.55-.37,.9-.34,.24,.02,.47,.09,.7,.1,.29,.02,.63,.06,.65-.37,.03-.42-.28-.45-.6-.41-.58,.07-1.15-.15-1.74,0-.16,.35,.38,.52,.2,.86-.34,.26-.8,.21-1.13,.47-.4-.39-.36-.97-.61-1.42,.52-.46,.63-1.05,.58-1.71-.03-.34-.04-.69,.2-.98h3.51c.33,.41,.22,.9,.23,1.36,.03,.97,.02,.98,.97,.94,.55-.02,1.1-.02,1.66,0,.28,0,.59-.01,.79,.26v1.08c-.38,.32-.85,.23-1.29,.24-.42,.01-.84,.03-1.26,0-.66-.05-.86,.24-.87,.88,0,.63,.23,1.32-.27,1.89Z"/><path class="do" d="M71.97,24.17c-1.02,0-2.05-.12-3.07,.07-.42,.08-.59-.11-.59-.5,0-.71,0-1.42,.01-2.13,1.27,0,2.53,.02,3.8-.02,.6-.02,.9,.12,.81,.78-.04,.31,0,.63,0,.95q0,.97-.95,.85Z"/><path class="be" d="M68.28,28.26c.01-.81,.04-1.62,.02-2.43,0-.45,.16-.59,.6-.58,1.02,.02,2.04,0,3.06,0,0,1.04-.01,2.09-.02,3.13-1.22-.04-2.45,.17-3.67-.12Z"/><path class="by" d="M65.78,25.26c.09,.99-.16,2.01,.16,2.99-.43,.19-.86,.26-1.29,.02,0-.85,0-1.69,0-2.54,.09-.83,.75-.33,1.13-.48h0Z"/><path class="ew" d="M64.81,21.61c0,.5-.02,1,.04,1.5,.08,.66-.07,1.12-.81,1.2-.26-.32-.5-2.29-.27-2.55,.29-.32,.69-.1,1.05-.15Z"/><path class="ct" d="M70.69,21.29c-.63,0-1.26,0-1.9,0-.17,0-.41,.05-.44-.21-.03-.27,.2-.27,.38-.27,1.32,0,2.63,0,3.95,0,.16,0,.34,0,.36,.21,.02,.27-.19,.28-.38,.28-.66,0-1.32,0-1.98,0h0Z"/><path class="ce" d="M64.36,20.67c.09,0,.19,.01,.28,.02-.03,.53-.46,.8-.9,.58-.1-.05-.16-.12-.16-.24,0-.12,.08-.18,.19-.21,.2-.05,.43,.03,.59-.15Z"/><path class="do" d="M43.39,79.8c-.42,0-.84,.02-1.25,.02,0-2.46-.04-4.92,.01-7.37,.02-1.04,.27-2.07,.74-3.04,.57-1.18,1.61-1.75,2.75-1.9,2.94-.4,5.91-.13,8.86-.19,.41,0,.48,.2,.48,.54-.01,1.08,0,2.17,0,3.25-.03,.03-.06,.07-.1,.1-.34,.19-.72,.14-1.09,.14-2.11,0-4.22,.03-6.33,0-1.88-.03-3.68,.89-3.9,3.37-.13,1.43,.04,2.84,0,4.26,0,.29,.08,.58-.17,.82Z"/><path class="em" d="M56.1,66.81c.33,1.17,.66,2.35,.99,3.52,.1,.95-.54,.8-1.12,.75,.02-1.43-.16-2.86,.13-4.27Z"/><path class="dr" d="M55.93,71.13c.13,1.01,.34,2.02-.03,3.06-.4-.12-.62-.46-.93-.67-.03-.03-.06-.07-.09-.1-.08-.78-.47-1.56,.09-2.31h0c.32,0,.63,.02,.95,.02Z"/><path class="bf" d="M49.44,79.84l-3.67-.03c-.21-.21-.22-.48-.22-.74-.01-.92-.04-1.85,0-2.77,.08-1.61,.87-2.51,2.44-2.88,.99-.23,2-.16,3-.17,1-.01,2.01,0,3.01,0,.34,0,.69-.02,.96,.26h0c0,.21-.01,.43,.01,.64,.06,.5-.18,.63-.65,.62-.74-.03-1.48,.03-2.21-.02-2.02-.14-2.61,.97-2.68,2.66-.03,.81,0,1.62-.01,2.43Z"/><path class="jb" d="M58.15,74.46c.24,.38,.19,.83,.27,1.25-.6,0-1.19,0-1.79,.01-.47,.01-.67-.2-.66-.66,0-.42,.09-.67,.61-.62,.52,.06,1.05,.01,1.57,.01Z"/><path class="do" d="M62.61,34.48c-.96-.98-1.54-2.23-2.29-3.35-1.41-2.1-2.79-4.23-4.19-6.35,.73-.5,1.47-1.01,2.2-1.5,.29-.19,.58-.39,.92-.1,1.07,1.65,2.14,3.31,3.21,4.96,.19,.28,.43,.54,.45,.9-.19,1.29-.37,2.58,.6,3.69,.18,1.07-.04,1.48-.91,1.75Z"/><path class="ex" d="M33.28,93.35c.28,1.33,.04,2.67,.12,4.01,.02,.3-.11,.64,.15,.9,0,1.12,0,2.23,.01,3.35h0c-.4,.34,.03,.88-.3,1.24l-.14-.32c.06-2.95,.07-5.9,0-8.85l.15-.33Z"/><path class="bx" d="M33.13,93.68c.04,.15,.11,.3,.11,.44,0,2.65,0,5.31,0,7.96,0,.15-.07,.3-.11,.45-.09-2.95-.09-5.9,0-8.85Z"/><path class="es" d="M46.08,11.58c-1.6,.73-3.28,.25-4.08-1.2-.26-.48-.75-1.13-.6-1.48,.38-.92,.67-2.04,1.84-2.39,.95-.26,1-.24,1.33,.63,.47,1.25,.89,2.52,1.41,3.76,.09,.21,.2,.43,.1,.68Z"/><path class="fn" d="M46.08,11.58c-.57-.95-.83-2.03-1.25-3.05-.16-.4-.29-.83-.4-1.25-.16-.64-.51-.96-1.2-.78,.33-.36,.82-.26,1.22-.41,.38-.15,.34,.28,.51,.43,.34,.59,.39,1.28,.66,1.9,.41,.22,.39,.69,.6,1.03,.03,.1,.05,.21,.07,.31,.02,.21,.18,.36,.25,.55,.06,.19,.07,.4,.16,.58,.04,.13,.13,.25,.01,.38-.26,0-.42,.22-.64,.3Z"/><path class="dl" d="M46.72,11.28l-.14-.31c.05-.47-.13-1,.42-1.31,.08,.03,.14,.09,.18,.17,.03,.08,.05,.16,.06,.25,.02,.4-.13,.74-.34,1.06,0,.04,0,.09-.02,.12-.05,0-.1,.01-.15,.02Z"/><path class="ep" d="M33.57,101.61c.09,.05,.2,.08,.28,.14,.36,.26,.18,.61,.16,.94,0,.11-.13,.18-.24,.14-.38-.15-.18-.49-.22-.75-.02-.15,0-.31,.02-.47h0Z"/><path class="ic" d="M46.25,12.22c.22-.28,.58-.32,.9-.49,.13,.33-.11,.77,.33,1.01,.14,.08,.13,.4-.14,.39-.63-.01-1.27,.23-1.88-.1,.24-.29,1.02-.07,.79-.81Z"/><path class="cr" d="M46.25,12.22c.27,.14,.37,.39,.28,.65-.1,.29-.4,.13-.61,.16-.15,.02-.31,0-.46,0-.18-.7,.43-.63,.79-.81Z"/><path class="am" d="M44.64,12.5c.19,0,.37,0,.37,.26,0,.21,.01,.41-.3,.42-.26,0-.38-.08-.37-.35,0-.21,.06-.35,.31-.33Z"/><path class="gn" d="M56.4,46.52h-.16c-.47,.07-.62-.2-.59-.6,.02-.33-.08-.69,.14-.99,.53,.11,.15,.63,.38,.83-.03-.12-.05-.27,.1-.38,.17,.37,.17,.75,.13,1.14Z"/><path class="jm" d="M56.27,45.38c-.03,.12-.03,.33-.1,.35-.15,.05-.18-.11-.21-.23-.03-.19,.05-.43-.18-.56l-.03-.27s0-.05-.01-.07c-.07-.27-.33-.68,.31-.45l.21,1.23Z"/><path class="eb" d="M55.18,46.22l-.68-.36c.15-.31,.4-.45,.69-.26,.24,.15,.31,.42,0,.62Z"/><path class="ck" d="M10.55,32.57c-.09-.73-.9-1.06-1.43-.56-.64,.6-1.2,1.29-1.93,2.08,.96-.1,1.73,.21,2.47-.25,.31-.19,.18,.18,.25,.29,.21,.06,.43-.19,.63,.01,.45-.52,.07-1.06,0-1.58Zm-1.64,.89c.11-.37,.42-.56,.71-.89,.37,.89,.02,1.05-.71,.89Z"/><path class="je" d="M65.05,58.12c.28-.02,.41,.35,.72,.27-.1,.24-.05,.42,.21,.53,.23,.09,.28,.26,.13,.46h-.14c-.09-.05-.17-.15-.3-.12-.18,.08,0,.58-.42,.38-.06-.29,.06-.6-.08-.89-.12-.24-.29-.38-.57-.28-.06,.04-.14,.06-.14-.04,0-.14,.05-.24,.22-.19,.14,0,.28,0,.38-.13Z"/><path class="dk" d="M56.39,31.81l.2-.21c.17,.16,.31,.38,.6,.31,.65,.62,1.4,1.09,2.17,1.54,.16,.09,.34,.2,.37,.39,.2,1.24,1.14,1.76,2.13,2.23,.47,.32,.93,.58,1.47,.09,.19-.17,.53-.18,.72,.05,.27,.32,.06,.64-.05,.95,.15-.2,.21-.45,.2-.68-.06-.86-.05-1.73-.03-2.59,0-.25-.09-.46-.24-.65-.21-.31-.5-.55-.67-.89-.06-.89-.28-1.79,.15-2.65,.05-.27-.1-.57,.15-.8,.37,.36,.75,.37,1.13,.01l.16-.02c1,0,2,0,3.01,0,.17-.11,.35-.08,.52-.03,.17,.17,.35,.28,.62,.28,1.18,0,2.36,.01,3.55-.01,.22,0,.41-.06,.57-.23,.29,.5,.09,1.04,.1,1.56,0,.09-.17,.05-.26,.02-.3-.49-.75-.59-1.28-.57-.76,.03-1.53,.02-2.29,0-.56-.01-.85,.19-.81,.78,.01,.18,.01,.37,0,.55-.04,.54,.21,.75,.74,.75,1.21,0,2.42-.11,3.61,.21l-.14,.34c-.56,.25-.5,.75-.5,1.22,0,5.25,0,10.51,0,15.76,0,.32-.02,.63-.03,.95h-.11c-.33-.32-.23-.74-.23-1.12,0-4.62,0-9.23,0-13.85,0-.4,.02-.79-.12-1.17-.06-.55-.39-.74-.92-.74-2.69,.02-2.28-.26-2.29,2.16-.02,4.59,0,9.17-.01,13.76,0,.44,.08,.91-.27,1.28h-2.5c-.24-.19-.21-.47-.22-.73-.01-.37-.01-.74,0-1.11,.03-1.44-.53-2.56-1.77-3.32-2.49-1.55-4.9-3.22-7.45-4.67-.06-.05-.11-.11-.15-.18,.14-.44,.45-.77,.71-1.12,.4-.55,.55-1.06-.09-1.53,.12-.94,.82-1.57,1.23-2.35,.09-.16,.21-.3,.32-.45,.78-1.08,.76-1.14-.38-1.85-.53-.34-.96-.42-1.28,.26-.1,.22-.26,.4-.52,.46-.08,0-.14-.03-.18-.1-.1-.38,.17-.64,.33-.93,.16-.3,.37-.6,.06-.93l-.04-.2v-.22Z"/><path class="do" d="M68.3,50.79c0-5.51,.02-11.03,0-16.54,0-.73,.2-.99,.93-.91,.57,.06,1.16,.06,1.74,0,.76-.08,1.17,.13,1.02,.97,.11,.2,.07,.41,.07,.62,0,5.09,0,10.17,0,15.26,0,.21,.05,.42-.08,.62h-3.66Z"/><path class="bp" d="M56.28,40.82c.46-.11,.74,.25,1.05,.45,2.42,1.54,4.9,2.98,7.21,4.67,.9,.66,1.16,1.6,1.23,2.62,.05,.74,.02,1.48,.02,2.22-.38,0-.76,0-1.14,.01,.03-.77-.1-1.51-.24-2.26-.32-1.59-1.56-2.35-2.78-3.13-1.52-.97-3.05-1.94-4.58-2.9-.35-.22-.73-.4-1.1-.6-.49-.54,.09-.76,.32-1.08Z"/><path class="fl" d="M71.97,50.8c0-5.5,0-11,.01-16.5,.26,.27,.14,.6,.14,.9,.01,5.09,.01,10.18,.01,15.27,0,.13-.03,.26-.17,.32Z"/><path class="cd" d="M72.75,51.29c-.45,.34-.9-.04-1.36-.02-1.02,.04-2.04,0-3.06,0,1-.34,2.02-.09,3.03-.14,.46-.02,.95-.14,1.38,.15Z"/><path class="hb" d="M47.05,10.01l.03-.18c.28-.87-.36-1.43-.71-2.09-.12-.06-.24-.12-.29-.26v-.8h.32c.86,.58,1.15,1.55,1.61,2.4-.31,.38-.3,.93-.67,1.27-.27,.03-.16-.26-.29-.35Z"/><path class="ek" d="M48.01,9.08c-.63-.74-.94-1.69-1.61-2.41,.5,.06,.75,.45,.96,.83,.27,.5,.58,.99,.65,1.57Z"/><path class="dt" d="M47.05,10.01c.23,0,.13,.29,.29,.35,.17,.44-.19,.59-.45,.78l.16-1.13Z"/><path class="l" d="M46.09,7.48l.31,.17c.2,.22,.27,.48,.27,.77-.13,.4,0,.91-.54,1.11-.45-.24-.22-.79-.51-1.11l.46-.95Z"/><path class="dk" d="M54.96,73.52c-1.96,0-3.91-.02-5.87,0-.47,0-.94,.1-1.4,.22-1.21,.32-1.89,1.24-1.91,2.59-.02,1.16-.01,2.33-.01,3.49-.79,0-1.58,0-2.37-.01-.06-1.8-.23-3.59-.02-5.41,.22-1.85,1.61-3.25,3.52-3.27,2.69-.03,5.38-.02,8.08-.02-.18,.8,.11,1.61,0,2.41Z"/><path class="ho" d="M63.39,29.7v2.86c.05,.04,.07,.08,.05,.11-.02,.04-.04,.05-.05,.05-.59-.4-.83-.95-.78-1.68,.04-.46,.07-.93-.1-1.4-.12-.33,.03-.56,.39-.61,.14,.23,.19,.53,.48,.65Z"/><path class="q" d="M64.67,28.91c.05,.45-.22,.48-.56,.48-.36,0-.6-.07-.57-.49,.38,0,.76-.12,1.13,.01Z"/><path class="h" d="M73.09,28.91c.04,.4-.18,.48-.53,.48-1.24-.01-2.48-.01-3.72,0-.35,0-.57-.08-.52-.48,.27-.24,.6-.16,.9-.16,1.13,0,2.26-.03,3.38,.01,.05,0,.1,0,.15,0,.11,.05,.23,.1,.34,.15Z"/><path class="bs" d="M72.61,28.76c-.92,.29-1.86,.06-2.79,.13-.5,.03-1,.02-1.49,.02-.16,0-.32,0-.48-.01,.33-.25,.71-.33,1.11-.3,1.22,.09,2.45-.22,3.65,.17Z"/><path class="d`" d="M44.69,3.2c-.14,.32-.08,.74-.48,.92l-.05-.76,.53-.16Z"/><path class="gd" d="M58,19.56c-.86,.48-1.61,1.15-2.62,1.41,.65-.43,1.3-.86,1.94-1.29,.23-.15,.55-.24,.53-.61,.21,.12,.15,.32,.15,.5Z"/><path class="hy" d="M72.91,32.21c-.41,.34-.83,.02-1.25,.02-.92,.02-1.85,0-2.78,.01-.39,0-.55-.12-.58-.54-.14-2.02-.15-2.02,1.87-2.02,.66,0,1.33,.05,1.98-.01,.65-.06,.86,.22,.78,.81,0,.57-.02,1.15-.03,1.72Z"/><path class="hr" d="M53.7,15.9c-.62,.19-.92-.45-1.43-.56,.01-.02,.02-.05,.04-.06,.05-.02,.1-.03,.15-.04,.46,.13,.86,.38,1.24,.67Z"/><path class="fj" d="M42.14,80.33c-.09,.65-.42,.73-1.16,.31,.26-.58,.77-.24,1.16-.31Z"/><path class="do" d="M17.9,38.91c3.02,0,6.03-.02,9.05,0,1.21,.01,2.42,.16,3.56,.63,2.74,1.15,4.34,4.19,2.95,7.15-.26,.56-.68,1.01-1.13,1.41-.49,.42-.42,.72,.04,1.07,2.3,1.75,2.84,4.03,1.56,6.6-.26,.51-.67,.89-1.16,1.15-1.02,.55-2.12,.81-3.26,.86-6.87,.29-13.75,.08-20.62,.17-.78,0-1.06-.18-1.05-1.01,.04-5.71,.03-11.43,0-17.14,0-.76,.25-.91,.95-.91,3.04,.03,6.08,.01,9.13,.02Z"/><path class="do" d="M18.68,65.88c3.3,0,6.61,0,9.91,0,2.81,0,5.32,1.91,5.82,4.65,.6,3.28-1.07,5.93-4.42,6.77-1.28,.32-2.6,.27-3.9,.29-2.93,.06-5.87,.02-8.8,.02q-1.68,0-1.68,1.67c0,1.61-.01,3.23,0,4.84,0,.48-.13,.65-.63,.64-2.17-.02-4.34-.02-6.5,0-.47,0-.65-.12-.65-.62,.01-5.87,.02-11.74,0-17.61,0-.6,.26-.68,.77-.67,3.36,.02,6.72,0,10.07,0h0Z"/><path class="ck" d="M23.3,61.87c.35-.42,.82-.24,1.32-.29-.37,.73-1.01,.44-1.51,.54l.19-.25Z"/><g><path class="ck" d="M10.85,62.72h-.01v0Z"/><path class="ck" d="M10.66,60.69q-2.1-.15-2.94,1.76c-.06,.14-.1,.29-.17,.5,1.13-.08,2.22,.17,3.28-.23,.23-.35,.15-.79,.36-1.16,.29-.51,.07-.83-.54-.87Zm-1.6,1.07c.22-.76,.73-.43,1.16-.37-.33,.35-.83,.03-1.16,.37Z"/></g><path class="cs" d="M8.74,62.2c.45-.2,.82-.1,1.27-.14-.47,.4-.5,.4-1.27,.14Z"/><g><path class="ck" d="M10.83,62.74s.01-.01,.02-.02h0l-.02,.02Z"/><path class="ck" d="M14.33,62.38c-.04-.26-.09-.52-.15-.77-.09-.33,.01-.81-.47-.9-.45-.09-.85-.01-1.21,.37-.53,.56-.98,1.22-1.65,1.64,.66,.47,1.4,.17,2.1,.17,.25,0,.4-.22,.72,.04,.37,.29,.73-.04,.66-.54Zm-1.01-.08c-.18,.2-.52,.11-.87,.02,.24-.35,.43-.62,.74-.79,.15,.25,.33,.56,.13,.78Z"/></g><path class="ck" d="M17.37,32.55c.06-.51-.2-.69-.69-.72-1.98-.13-1.98-.14-2.82,1.65-.03,.07-.1,.12-.15,.18-.08,.74,.54,.29,.79,.46,.26-.75,.79-.99,1.54-.87,.46,.08,.85-.15,1.26-.3,.14-.12-.08-.29,.06-.41Zm-2.18,.24c.27-.64,.74-.36,1.33-.31-.5,.39-.96,.1-1.33,.31Z"/><path class="ck" d="M19.79,34.9c-.54,.08-1.19-.29-1.6,.26-.27,.36-.37,.84-.57,1.34,.88-.03,1.72,.2,2.29-.61,.24-.1,.35-.28,.34-.53,.04-.35-.15-.5-.46-.45Zm-1.24,1.14c.11-.45,.2-.84,.75-.76,.11,.02,.24,.08,.2,.18-.13,.42-.44,.6-.95,.58Z"/><path class="ck" d="M18.48,87.95c-.08,.22-.14,.45-.23,.66q-.41,.97-1.23,.08c.67-.14,1.4-.26,1.1-1.21-.83-.38-1.71-.12-2.57-.17-.14,0-.21,.14-.26,.26-.27,.62-.54,1.24-.82,1.89,.54,.09,1.02,.22,1.18-.46,.04-.17,.18-.3,.33-.12,.78,.93,1.83,.58,2.8,.62,.68-.53,.84-1.26,.85-2.07-.65-.44-.93-.04-1.16,.5Zm-2.49,.36c.24-.73,.74-.5,1.33-.38-.46,.4-.97,.08-1.33,.38Z"/><path class="ck" d="M14.26,89.04c-.11-.32-.12-.67-.19-1.01-.15-.79-.9-1.08-1.47-.51-.61,.6-1.24,1.19-1.72,1.91,1.05,.38,2.02-.24,3,.08,.36,.12,.52-.07,.38-.48Zm-1.85-.15l.72-.86c.32,.87,.05,1.06-.72,.86Z"/><path class="ck" d="M11.3,87.76c-.09-.35-.35-.46-.72-.47-2.13-.08-2.13-.09-2.91,1.91-.03,.07-.05,.15-.09,.28,.54,.11,1,.14,1.18-.49,.1-.37,.42-.24,.66-.25,.5-.02,1.01,.07,1.47-.21,.28-.17,.5-.42,.41-.78Zm-2.19,.63c.21-.62,.28-.64,1.25-.36-.46,.22-.93-.03-1.25,.36Z"/><path class="jo" d="M54.96,56.83v-.47l-.1-.3c.31-.25,.48,.02,.66,.19,.25,.23,.44,.53,.59,.84,1.37,2.79,2.96,5.45,4.49,8.16,.17,.3,.32,.6,.42,.94,.15,.49,.04,.83-.51,.94-.22,.04-.42,.04-.57-.16,0-.23-.09-.43-.22-.62-.3-.27-.65-.25-1.02-.18-.56,.1-1.13,.22-1.67-.09-.56-.68-.51-1.56-.75-2.34-.07-.24-.1-.44-.34-.56-.07-.27,.14-.58-.13-.81-.02-.25,.09-.52-.07-.76l-.3-1.75c-.16-1.01-.17-2.04-.48-3.02Z"/><path class="gg" d="M57.03,66.07c.66-.11,1.33,.03,1.99-.21,.29-.11,.78-.12,.7,.48-.22,.24-.08,.55-.15,.81-.28,.03-.24-.29-.48-.42-.1,1.26,.2,2.47,.07,3.69,.06-.79,.02-1.58,.06-2.36,.01-.29-.08-.66,.35-.77,0,2.61,.01,5.22,.02,7.83,0,.16,0,.32-.15,.42-.36-1.48-.86-2.93-1.12-4.44,.17-1.3,.05-2.61,.07-3.91,0-.37-.16-.58-.56-.61-.28-.02-.59,0-.79-.26v-.26Z"/><path class="gj" d="M61.18,68.58c-.32,.53-.1,1.11-.17,1.66-.04,.3,.1,.62-.14,.89-.32,.21-.62,.24-.92-.04l-.02-3.78c.84-.24,1.68-.53,2.47,.14l.06,.02c-.24,.58-.96,.61-1.28,1.09h0Z"/><path class="ff" d="M59.58,67.3c-.31,.87-.05,1.77-.13,2.65-.01,.16,.02,.32,0,.47-.04,.23,.15,.63-.25,.63-.39,0-.23-.4-.24-.64-.03-1.18-.03-2.36-.05-3.54,0-.24-.18-.6,.22-.63,.51-.04,.23,.41,.32,.64,.04,.09,.09,.18,.14,.27,0,.05,0,.09,0,.14Z"/><path class="ha" d="M59.95,71.1c.31,.01,.61,.02,.92,.04,0,.79,0,1.57-.01,2.36-.31,0-.62,.02-.92,.03,0-.81,0-1.62,.01-2.43Z"/><path class="v" d="M62.39,67.47c-.81-.32-1.65-.08-2.47-.14,0-.12,0-.24,.01-.36,.21,0,.43,0,.64,0,.46-.03,.93-.36,1.39,0,.25,.08,.51,.15,.42,.51Z"/><path class="hj" d="M61.18,68.58c.05-.81,.89-.68,1.28-1.09,.75,.44,.27,.59-.18,.75l-.63,.45c-.13-.14-.31-.11-.47-.11Z"/><path class="gk" d="M54.37,51.72c-.03,.09-.07,.16-.17,.06-.11-.42-.4-.82-.17-1.29,.19-.5,.35,0,.52,0,.38,0,.75-.12,1.12-.19,.12,0,.21,.04,.28,.13,.08,.26-.14,.39-.24,.57-.06,.08-.14,.16-.2,.24-.28,.33-.05,.67-.02,1,.09,.51,.34,.99,.26,1.6,.09-.42-.19-.9,.36-1.09,.14-.06,.29-.11,.44-.03,.1,.15-.09,.37,.22,.5,1.34,.57,2.27,1.85,3.75,2.21,.07,.02,.12,.1,.17,.15,.45,.65,1.24,.9,1.72,1.54,.17,.23,.7-.22,.95,.22l.19,.12,.17,.05,.03,2.4c.13,.03,.2,.14,.27,.23,.01,.2,.04,.41-.17,.53-.23,.15-.48,.03-.55-.13-.31-.76-1.18-.95-1.57-1.62-.07-.11-.16-.21-.26-.3-1.15-.98-2.62-1.51-3.6-2.72,.12,.46,.33,.82,.75,1.02,.32,.15,.33,.52,.49,.79,.41,.88,.83,1.75,1.39,2.55,.21,.3,.43,.6,.69,.86,.36,.36,.56,.72,.7,1.28,.23,.94,.67,1.95,1.73,2.39,.23,.1,.43,.22,.59,.41,.29,.46,.25,.95,.15,1.45l-.02,.52-.17-.15c-.52-.18-1.04-.15-1.57-.01h0c-.19-.16-.31-.36-.31-.62,.23-.3,.57-.1,.74-.17-.23,.05-.61-.14-.91,.15,0,.18,.05,.38-.17,.48-.43,.06-.45-.29-.52-.55-.27-.98-.73-1.85-1.34-2.67-.52-.7-.82-1.51-1.08-2.36-.28-.89-.75-1.74-1.44-2.41-.19-.19-.44-.34-.46-.61-.09-1.07-.75-1.78-1.45-2.52-.61-.64-.6-1.55-.7-2.39-.14-.7-.39-1.37-.41-2.1-.03-.1-.06,0-.04,.02,.14,.21,.09,.38-.15,.49Z"/><path class="io" d="M58.95,57.79c-.21-.35-.22-.78-.83-.9-.29-.06-.45-.77-.63-1.24,.6,.31,1.39,.33,1.63,1.16,.06,.2,.19,.3,.37,.37,1.2,.43,2.17,1.15,2.89,2.22,.19,.28,.22,.25,.5-.08,.23,.52,.25,1.18,.96,1.34l.39,.16c.38,.91,.13,1.86,.19,2.78,.02,.34,.02,.68,0,1.02-.02,.25,0,.54-.36,.6l-.52-.32c-.38-.75-.15-1.56-.18-2.34-.02-.61-.05-1.14-.64-1.5-.32-.19-.39-.81-.62-.86-.56-.12-.74-.56-1.04-.89-.6-.66-1.38-1.05-2.11-1.52Z"/><path class="ig" d="M64.06,65.23c.28-.19,.15-.48,.16-.72,.01-1.23,.01-2.46,.01-3.68,.13,.04,.26,.09,.39,.13,.03,1.9,.22,3.81-.26,5.69-.06-.48,.1-1.01-.3-1.42Z"/><path class="ah" d="M67.67,62.42c-.14-.89-.13-.89,1.26-.77,.05,.25-.25,.47-.1,.73-.36,.69-.77,.18-1.16,.04Z"/><path class="ge" d="M64.67,58.25c-.08,.06-.17,.12-.08,.23,.09,.58,.14,1.17-.1,1.74-.22-.66-.19-1.33-.08-1.99,.02-.11,.17-.06,.25,.02Z"/><path class="bh" d="M67.67,62.42c.38-.07,.79,.41,1.16-.04,.15,.07,.14,.19,.13,.32-.53,.34-1.06,.2-1.6,.02,.13-.07,.47,.08,.31-.3Z"/><path class="fx" d="M65.64,59.23c.21-.15,.29-.04,.32,.16,.02,.36-.05,.71-.17,1.06-.04,.13,.14,.35-.11,.37-.19,.02-.32-.12-.39-.31,.01-.04,.02-.07,.03-.11,.13-.38,.14-.8,.31-1.17Z"/><path class="av" d="M64.02,60.12l-.27-.23c.26-.62-.04-1.3,.27-1.92v2.15Z"/><path class="ga" d="M65.17,58.77c.3,.27,.04,.63,.17,.93,.17,.26,.16,.52-.02,.78l-.02,.03c-.36-.56-.09-1.16-.13-1.74Z"/><path class="fr" d="M67.43,60.42c-.41,.28-.64,.04-.83-.3,.29,.07,.53,.29,.83,.3Z"/><path class="do" d="M41.03,29.21c0-3.3,0-6.61,0-9.91q0-1.22,1.24-1.18c.33,.32,.23,.74,.23,1.12,0,3.35,.01,6.71,0,10.06,0,1.37,.53,2.48,1.62,3.27,2.18,1.58,4.53,2.9,6.78,4.38,.46,.3,1.12,.41,1.24,1.11-.18,.34-.28,.74-.63,.97-2.7-1.72-5.36-3.5-8.12-5.13-1.86-1.1-2.43-2.71-2.36-4.7Z"/><path class="jk" d="M40.4,17.15c-.47-.72-.28-1.53-.32-2.31-.01-.26,.12-.39,.38-.39,.29,0,.58,0,.87,0,0,.5-.04,1.01,.01,1.5,.07,.66-.06,1.12-.81,1.18-.05,0-.09,0-.14,0Z"/><path class="dk" d="M56.28,40.82c.02,.4-.56,.62-.32,1.08-.59-.06-1.19,.16-1.76-.13q.58-.77-.21-1.31-.98-.66-1.69,.18c-.22-.02-.47,.07-.64-.16,.27-.38,.68-.72,.35-1.27,.66-1.11,1.73-1.97,2.04-3.3,.25,.25,.43,.18,.61-.09,.26-.39,.46-.81,.74-1.18,.17-.24,.3-.56,.69-.52l.04,.03c.21,.59-.29,.91-.52,1.31-.79,1.37-.74,.92,.36,1.77,.32,.25,.79,.35,.86,.85,.03,.67-.55,1.04-.77,1.6-.1,.26-.34,.47-.44,.77,.13,.26,.5,.1,.65,.34l.03,.04Z"/><path class="cp" d="M52.3,40.65c.36-1.19,.44-1.22,1.44-.56,.2,.13,.41,.25,.59,.39,.22,.17,.62,.24,.58,.56-.05,.36-.28,.69-.72,.74-.63-.38-1.26-.75-1.89-1.13Z"/><path class="he" d="M52,39.22c.59,.46,.48,.86-.35,1.27-.11-.14-.32-.25-.17-.49,.06-.34,.36-.51,.52-.78Z"/><path class="d" d="M52.14,38.07c-.78-.77-1.82-1.14-2.69-1.76-1.84-1.3-3.89-2.31-5.66-3.72-.94-.75-1.5-1.74-1.5-2.98,0-3.82-.01-7.65-.02-11.47l.02-.03c.78-.36,1.57-.35,2.36,0l.04,.04c0,3.3-.03,6.61,0,9.91,.01,1.61,.74,2.84,2.16,3.71,2.07,1.26,4.08,2.6,6.13,3.9,.17,.11,.38,.17,.57,.25-.47,.72-.93,1.44-1.4,2.16Z"/><path class="hk" d="M56.08,34.12c-.65,.52-.88,1.33-1.38,1.95-.12,.15-.16,.44-.43,.37-.24-.07-.25-.3-.23-.52,.65-.81,1.07-1.76,1.68-2.61,.24-.34,.59-.65,.71-1.09,.46-.01,.55,.17,.35,.58-.21,.45-.59,.81-.69,1.31Z"/><path class="du" d="M57.05,66.33q1.6,.12,1.59,1.74c0,.82,0,1.63,0,2.45,0,.24,.1,.56-.31,.6-.53-.54-.43-1.3-.65-1.94-.3-.86-.42-1.78-.73-2.65-.02-.05,.07-.13,.1-.19Z"/><path class="iq" d="M56.55,52.71l-.32,.14c-.39-.58-.25-1.33-.61-1.92,0-.22,.19-.28,.32-.41,.16,.01,.24-.12,.33-.21h.01c.68,.5,.58,1.21,.4,1.88-.04,.17-.08,.34-.13,.51Z"/><path class="ci" d="M63.36,57.33c-.21,.03-.54-.39-.62,.17-.02,.13-.22,.18-.3,.04-.43-.7-1.1-1.16-1.71-1.66-.05-.04-.02-.2-.02-.3,.86,.63,1.92,.96,2.66,1.76Z"/><path class="gu" d="M55.18,53.3c.01,.8,.02,1.7,.61,2.24,.47,.43,.71,.98,1.11,1.42,.09,.09,.23,.19,.24,.29,.13,1.56,1.59,2.38,2.05,3.75,.13,.39,.18,.8,.38,1.18,.8,1.55,1.83,2.98,2.39,4.66,0,.04,0,.08,0,.12-.46,0-.93,0-1.39,0,.26-.11,.35-.25,.29-.57-.15-.76-.67-1.3-1.01-1.95-1.26-2.43-2.72-4.76-3.93-7.22-.23-.47-.41-1.05-1.07-1.14-.12-.2,.37-.59-.2-.66,.28-.6,0-1.2-.04-1.8,0-.16-.05-.29,.05-.43,.2-.1,.33,.13,.51,.12Z"/><path class="ed" d="M62.13,66.36c-.04-.14-.05-.29,.13-.3,.56-.04,1.13-.05,1.89,.14-.74,.26-1.31,.14-1.85,.18l-.17-.02Z"/><path class="hn" d="M62.78,67.18c.46,.05,.98-.21,1.52,.3h-1.21c-.17-.03-.31-.08-.31-.3Z"/><path class="c" d="M62.61,67c.52-.27,1.05-.31,1.57,.01h-1.57Z"/><path class="er" d="M55.18,53.3c-.28,.43-.34-.07-.51-.12,.09-.53-.1-.99-.3-1.46l.23-.53,.58,2.11Z"/><path class="cg" d="M54.03,50.49l.17,1.29c-.47-.63-.51-1.38-.76-2.24,.44,.31,.39,.69,.59,.94Z"/><path class="er" d="M56.27,50.32c-.02,.22-.08,.36-.33,.21l-.25-.22c-.13-.29-.56-.25-.69-.63,.6-.05,.86,.47,1.28,.65Z"/><path class="aw" d="M44.65,18.09c-.79,0-1.57,0-2.36,0-.1-.08-.21-.15-.31-.24-.23-.19-.49-.42-.4-.71,.1-.3,.46-.13,.71-.14,.44-.02,.89-.01,1.34,0,1,0,1.06,.07,1.02,1.09Z"/><path class="gr" d="M51.99,19.04l-.17,1.45h-.18l-.14-.81c-.06-.06-.08-.13-.08-.22,.12-.29-.14-.75,.38-.87,.15,.11,.17,.28,.19,.45Z"/><path class="di" d="M51.49,19.61v.08c-.21,.03-.34-.04-.34-.29-.06-.28-.11-.56-.12-.84,0-.29,.06-.58,.45-.6,.02,.04,.03,.08,.04,.13,.1,.51,.11,1.02-.03,1.52Z"/><path class="bc" d="M50.39,16.22c.24,.13,.31,.36,.31,.62,.17,.45,.11,.87-.17,1.25-.27-.12-.26-.38-.31-.61-.01-.43,.02-.85,.17-1.26Z"/><path class="hg" d="M51.01,17.16l.15,.47c.05,.43-.06,.84-.15,1.25-.35-.15-.31-.47-.34-.76-.04-.38-.16-.78,.34-.97Z"/><path class="ac" d="M51.02,18.89c.02-.42-.13-.86,.15-1.25,.12,.09,.34,.09,.32,.32-.46,.4-.23,.96-.33,1.44l-.13-.51Z"/><path class="ae" d="M51.01,17.16c-.25,.27-.24,.64-.34,.97-.05,0-.1-.01-.15-.04-.02-.43,.04-.85,.17-1.25,.1,.11,.34,.09,.31,.32Z"/><path class="h`" d="M50.39,16.22c0,.43,.03,.86-.17,1.26l-.15-.17,.2-1.16c.06-.01,.1,.01,.13,.07Z"/><path class="bn" d="M63.39,32.72v-.17c.29,.14,.62,.22,.65,.62,.37,.79,.32,1.55-.29,2.19-.52,.54-1.03,1.18-1.95,.84-1.08-.41-2.08-.88-2.22-2.22-.03-.28-.29-.27-.44-.4-.66-.56-1.66-.72-1.98-1.68,.05-.29,.25-.32,.49-.28,.39,.38,.79,.76,1.31,.95,.56,.2,.85,.57,1.06,1.14,.45,1.21,1.27,1.42,2.57,.77,.7-.39,.88-1.01,.79-1.76Z"/><path class="ji" d="M51.49,19.61l.03-1.52,.28,.51c-.28,.28,0,.74-.31,1.01Z"/><path class="jp" d="M54.05,16.84c.39,.45,.27,.94,.19,1.43l-.19-1.43Z"/><path class="gq" d="M51.18,23.82c-.25-.03-.57,.35-.74-.06-.11-.27,.17-.4,.37-.51,.14-.08,.3-.11,.43,.02,.21,.21-.01,.38-.06,.56h0Z"/><path class="hd" d="M65.77,25.25c-.11-.39-.83-.58-.59-.96,.22-.36,.83-.09,1.27-.14,.31-.04,.59,.13,.92,.04,.36-.1,.79-.18,.81,.48,.02,.6-.19,.82-.77,.74-.54-.07-1.08-.22-1.64-.15h0Z"/><path class="go" d="M47.02,9.69c-.3,.38-.17,.9-.45,1.28-.18-.18-.14-.41-.13-.63,.04-.42-.12-.91,.41-1.16,.21,.12,.29,.27,.18,.5Z"/><path class="o" d="M46.13,9.54l.43-1.11c.24,.08,.29,.26,.26,.49-.15,.3-.22,.64-.35,.95-.12,.29-.25,.18-.36-.02v-.31Z"/><path class="eo" d="M46.12,9.84c.26,.22,.26,0,.31-.17,.08-.26,.18-.52,.27-.78,.16,.06,.26,.15,.17,.33-.31,.31-.19,.78-.44,1.11-.14-.15-.4-.21-.32-.5Z"/><path class="c`" d="M46.88,9.23l-.17-.33c.04-.18-.02-.33-.14-.47l-.17-.78c.73,.38,.67,1.23,1.08,1.81,.04,.06-.1,.41-.39,.37l-.06-.15-.14-.46Z"/><path class="fq" d="M65.32,60.48l.02-.78c.18-.16,.1-.38,.14-.58,.02-.1,.07-.11,.13-.03,.03,.04,.03,.1,.04,.15-.2,.39,.37,.98-.32,1.25Z"/><path class="do" d="M65.78,33.34c0,3.04,0,6.08,0,9.12,0,.28,.11,.62-.2,.8-.35,.2-.67-.05-.94-.22-2.03-1.31-4.03-2.69-6.13-3.89-.64-.37-.71-.69-.25-1.27,.43-.55,.74-1.21,1.12-1.81,.26-.4,.51-.56,1.01-.21,.99,.69,2.05,1.28,3.07,1.92,.56,.34,.89,.15,1.07-.42,.29-.93,.12-1.89,.14-2.83,.03-1.43-.03-1.12,1.12-1.17h0Z"/><path class="do" d="M56.74,38.08c-.46-.53-1.09-.82-1.66-1.18-.34-.22-.42-.34-.17-.73,.43-.65,.96-1.26,1.21-2.03,.33-.17,.47-.5,.61-.8,.24-.53,.6-.49,1.03-.27,1.76,.91,1.75,.92,.61,2.59-.53,.78-.99,1.6-1.49,2.41-.04,.08-.09,.08-.14,0Z"/><path class="hw" d="M56.74,38.08s.09,0,.14,0c.78,.31,.88,.76,.36,1.43-.33,.42-.53,.96-.99,1.28-.33-.02-.66-.03-1.04-.05l1.53-2.66Z"/><path class="bu" d="M61.81,36.2c1.56-.13,2.46-1.34,2.24-3.02,.28,.14,.33,.4,.3,.67-.1,.99,.08,1.99-.07,2.99-.09,.62-.07,.62-.8,.54,.02-.07,.03-.17,.07-.19,.4-.18,.65-.53,.38-.86-.27-.33-.61-.04-.86,.22-.64,.68-.83-.29-1.26-.35Z"/><path class="ew" d="M64.84,30.94c0,.26-.02,.53,0,.79,.03,.44-.21,.52-.58,.52-.4,0-.58-.13-.55-.55,.03-.44,.03-.89,0-1.34-.02-.42,.05-.69,.58-.69,.57,0,.57,.32,.55,.72,0,.18,0,.37,0,.55h0Z"/><path class="ej" d="M65.78,33.34c-.11-.14-.24-.28-.34-.43-.21-.3-.15-.5,.24-.52,.73-.04,1.46,.03,2.19-.13,.26-.06,.47,.15,.41,.44-.06,.28-.06,.66-.52,.65-.66-.01-1.31,0-1.97,0h0Z"/><path class="ei" d="M20.66,53.66c-1.56,0-3.11-.01-4.67,0-.5,0-.72-.14-.69-.68,.04-.68,.02-1.37,.01-2.06,0-.43,.19-.63,.62-.62,3.09,0,6.18-.01,9.26,.02,.91,0,1.42,.76,1.38,1.84-.03,.9-.6,1.48-1.48,1.48-1.48,0-2.96,0-4.43,0h0Z"/><path class="cw" d="M20.39,46.52c-1.4,0-2.8-.02-4.2,.01-.64,.02-.95-.17-.88-.85,.08-.8-.34-1.84,.19-2.36,.49-.48,1.51-.14,2.3-.14,2.3-.02,4.6-.01,6.9,0,1.16,0,1.74,.6,1.73,1.77,0,1-.63,1.57-1.75,1.58-1.43,0-2.85,0-4.28,0Z"/><path class="ir" d="M20.78,70.01c1.5,0,3.01,0,4.51,0,.95,0,1.6,.73,1.61,1.76,0,1.07-.44,1.55-1.52,1.57-1.79,.03-3.58,.3-5.37,.12-1.29-.13-2.56,.03-3.84-.06-.42-.03-.52-.17-.58-.55-.1-.66-.11-1.31-.13-1.97-.01-.62,.19-.91,.88-.89,1.48,.04,2.96,.01,4.44,.01h0Z"/><path class="iw" d="M58.95,57.79c1.06,.18,1.76,.87,2.47,1.6,.19,.19,.16,.98,.79,.45,.04,.08,.08,.16,.11,.25,.18,.48,.38,.94,.93,1.1,.29,.09,.33,.29,.33,.55-.02,1.05-.02,2.11-.03,3.16-.46,.03-.69-.28-.9-.62-.3-.49-.62-.98-.88-1.49-.1-.2-.59-.46-.02-.73,.15-.07,.02-.23-.08-.31-1.26-.95-1.97-2.28-2.54-3.7-.04-.09-.11-.17-.17-.26Z"/><path class="ia" d="M55.62,50.94c.31-.03,.7-.08,.45,.42-.28,.56,.38,.97,.16,1.5-.19,.12-.36,.21-.29,.52,.06,.26,0,.56-.32,.85,.1-.75-.19-1.35-.31-1.99,.16-.36-.05-.77,.14-1.13l.16-.16Z"/><path class="in" d="M56.55,55.42c-.16,0-.33,.02-.47-.03-.18-.06-.34-.2-.31-.4,.03-.18,.23-.22,.38-.21,.64,.08,1.01-.09,.88-.83-.02-.11,0-.29,.2-.23,.12,.04,.22,.1,.17,.28-.12,.42-.33,.81-.33,1.28,0,.28-.34,.09-.52,.14Z"/><path class="hq" d="M61.84,65.61h2.13v.23c-.7,.09-1.41,.04-2.12,0v-.23Z"/><path class="eh" d="M55.46,51.09c.28,.42,.09,.78-.14,1.13,.01-.38-.59-.84,.14-1.13Z"/><path class="hi" d="M16.26,51.92c-.11-.5,0-.77,.61-.76,2.58,.03,5.16,0,7.73,.02,.48,0,.9,.16,1.01,.7,.09,.45-.09,.77-.59,.84-.44-.46-1-.55-1.6-.55-2.01,0-4.02,0-6.03,0-.39,0-.8,.07-1.13-.24Z"/><path class="ai" d="M16.26,51.92c2.57,0,5.14-.01,7.71-.02,.54,0,1,.14,1.04,.8-2.81,.14-5.62,.03-8.43,.05-.78,0-.51-.45-.33-.84Z"/><path class="dh" d="M16.26,45.58c-.29-.38-.09-.81-.1-1.21,0-.34,.25-.35,.5-.35,2.56,0,5.12,0,7.68,.02,.53,0,1.03,.17,1.11,.79,.06,.44-.2,.68-.64,.73-.42-.42-.92-.56-1.51-.55-1.95,.01-3.89,.02-5.84,0-.52,0-.91,.15-1.21,.57Z"/><path class="jf" d="M16.26,45.58c-.06-.61,.13-.86,.82-.84,2.23,.05,4.47,.03,6.7,.02,.57,0,.98,.17,1.04,.8-2.85,.13-5.7,.11-8.55,.01Z"/><path class="gp" d="M16.42,72.4l.03-.79c.24-.26,.56-.26,.88-.27,2.21,0,4.42-.03,6.63,0,1.07,.02,1.4,.28,1.54,1.06-.16,.22-.4,.21-.64,.21-2.65,0-5.3,0-7.95,0-.17,0-.45,.13-.49-.21Z"/><path class="hp" d="M25.46,72.35c-.24-.56-.7-.76-1.26-.76-2.58,0-5.16,.01-7.74,.02-.12-.52,.08-.7,.61-.7,2.58,.02,5.17,0,7.75,.02,1.04,0,1.35,.48,.96,1.38-.08,.21-.2,.16-.32,.04Z"/><path class="im" d="M25.46,72.35c.11-.01,.21-.02,.32-.04-.1,.42-.44,.39-.75,.39-2.73,0-5.47,0-8.2-.02-.1,0-.63,.3-.4-.28,.18,.17,.4,.11,.6,.11,2.56,0,5.12,0,7.68,0,.27,0,.53,0,.76-.16Z"/></g></svg>