<?xml version="1.0" encoding="UTF-8"?>
<svg id="Calque_2" data-name="Calque 2" xmlns="http://www.w3.org/2000/svg" viewBox="0 0 369 266.08">
  <defs>
    <style>
      .cls-1, .cls-2 {
        fill: #803134;
      }

      .cls-1, .cls-2, .cls-3, .cls-4 {
        stroke-width: 0px;
      }

      .cls-2 {
        fill-rule: evenodd;
      }

      .cls-3 {
        fill: #8a8a8a;
      }

      .cls-4 {
        fill: #fff;
      }
    </style>
  </defs>
  <g id="Calque_1-2" data-name="Calque 1">
    <g>
      <rect class="cls-1" width="369" height="35.64"/>
      <rect class="cls-3" x="237.22" y="0" width="34.68" height="266.08"/>
      <g>
        <path class="cls-3" d="M17.37,82.22v26.28h-6.57v-26.28H.68v-5.08h26.85v5.08h-10.16Z"/>
        <path class="cls-3" d="M52.6,108.5l-7.28-11.91h-7.69v11.91h-6.57v-31.36h15.67c3.73,0,6.63.8,8.65,2.41s3.04,3.92,3.04,6.94c0,2.2-.63,4.1-1.88,5.69s-2.94,2.65-5.06,3.14l8.49,13.18h-7.39.02ZM51.82,86.75c0-3.02-1.94-4.51-5.79-4.51h-8.41v9.26h8.59c1.84,0,3.24-.41,4.18-1.24s1.43-2,1.43-3.49v-.02Z"/>
        <path class="cls-3" d="M86.14,108.5l-2.77-8.02h-11.95l-2.77,8.02h-6.57l11.44-31.36h7.75l11.4,31.36h-6.53ZM77.37,81.98l-.14.49c-.14.53-.33,1.14-.53,1.82s-1.49,4.43-3.84,11.26h9.02l-3.1-9.02-.96-3.02-.47-1.53h.02Z"/>
        <path class="cls-3" d="M109.01,108.5h-6.65l-11.59-31.36h6.85l6.45,20.14c.41,1.31.96,3.28,1.65,5.92l.47-1.92,1.14-4,6.43-20.14h6.79l-11.53,31.36h-.02Z"/>
        <path class="cls-3" d="M142.69,108.5l-2.77-8.02h-11.95l-2.77,8.02h-6.57l11.44-31.36h7.75l11.4,31.36h-6.53ZM133.92,81.98l-.14.49c-.14.53-.33,1.14-.53,1.82s-1.49,4.43-3.84,11.26h9.02l-3.1-9.02-.96-3.02-.47-1.53h.02Z"/>
        <path class="cls-3" d="M166.48,108.95c-4.32,0-7.63-1.06-9.91-3.16s-3.45-5.12-3.45-9.04v-19.61h6.57v19.1c0,2.47.59,4.37,1.77,5.65s2.92,1.92,5.2,1.92,4.14-.67,5.41-2.02,1.9-3.26,1.9-5.77v-18.87h6.57v19.28c0,3.98-1.22,7.06-3.69,9.24-2.47,2.18-5.92,3.28-10.36,3.28Z"/>
        <path class="cls-3" d="M206.4,108.5l-7.87-12.49-7.87,12.49h-6.94l10.85-16.48-9.96-14.87h6.94l6.96,11.08,6.96-11.08h6.9l-9.53,14.87,10.45,16.48h-6.9.02Z"/>
      </g>
      <path class="cls-4" d="M5.16,3.61h7.24l7.03,20.63L26.13,3.61h6.15l-10.05,28.4h-7.03L5.16,3.61Z"/>
      <path class="cls-4" d="M58.22,3.61h21.29v5.25h-14.53v5.99h9.23v5.3h-9.23v6.5h14.93v5.36h-21.69V3.61Z"/>
      <path class="cls-4" d="M106.7,3.61h11.43c8.67,0,11.59,3.26,11.59,7.8,0,4.06-2.6,6.76-6.84,7.66,4.48,1.06,6.47,4.4,7.24,10.74.08.5.21,1.88.27,2.23h-7.11s-.05-.98-.08-1.33c-.61-5.52-2.36-8.94-7.13-8.99h-2.57v10.31h-6.76V3.61h-.03ZM117.04,17.39c4.19,0,5.94-2.44,5.94-4.96,0-2.65-1.59-4.06-5.59-4.06h-3.92v9.2l3.58-.16v-.03Z"/>
      <path class="cls-4" d="M163.22,9h-8.14V3.62h23.1v5.38h-8.09v23.02h-6.89V9h.03Z"/>
      <path class="cls-4" d="M206.93,3.61h6.89v28.4h-6.89V3.61Z"/>
      <path class="cls-4" d="M239.77,17.84c0-8.94,5.57-14.85,13.87-14.85,7.05,0,11.72,3.82,12.89,10.87h-6.42c-.77-3.5-3-5.17-6.36-5.17-4.4,0-6.84,3.21-6.84,8.8v.61c0,5.65,2.39,8.8,6.71,8.8,3.61,0,5.91-1.62,6.55-5.78h6.5c-.85,7.9-6.02,11.45-13.26,11.45-8.14,0-13.6-5.91-13.6-14.77l-.03.03Z"/>
      <path class="cls-4" d="M300.28,3.61h7.66l10.05,28.4h-7.24l-2.44-7.11h-9.84l-2.49,7.11h-6.13l10.39-28.4h.03ZM306.88,20.13l-3.29-9.78-3.5,9.78h6.81-.03Z"/>
      <path class="cls-4" d="M344.21,3.61h6.89v23.15h12.12v5.25h-18.99V3.61h-.03Z"/>
      <path class="cls-4" d="M240.69,57.47c0-8.36,5.64-14.13,13.97-14.13s13.68,5.74,13.68,14.13-5.64,14.13-13.97,14.13-13.68-5.74-13.68-14.13ZM261.52,57.66v-.48c0-5.48-2.5-8.59-6.95-8.59s-7.02,3.08-7.02,8.62v.48c0,5.48,2.53,8.62,6.99,8.62s6.99-3.11,6.99-8.65h0Z"/>
      <path class="cls-4" d="M242.55,81.7h7.31l11.02,16.95v-16.95h5.61v27.14h-6.25l-12.11-18.68v18.68h-5.61v-27.14h.03Z"/>
      <path class="cls-4" d="M241.72,133.08c0-8.56,5.32-14.2,13.23-14.2,6.73,0,11.18,3.65,12.31,10.38h-6.12c-.74-3.36-2.85-4.94-6.09-4.94-4.2,0-6.54,3.08-6.54,8.43v.58c0,5.38,2.28,8.43,6.41,8.43,3.43,0,5.64-1.54,6.25-5.51h6.22c-.8,7.56-5.77,10.96-12.66,10.96-7.76,0-13.01-5.64-13.01-14.1v-.03Z"/>
      <path class="cls-4" d="M244.19,158.29h20.35v5.03h-13.91v5.74h8.81v5.06h-8.81v6.22h14.26v5.1h-20.73v-27.14h.03Z"/>
      <path class="cls-4" d="M243.87,195.51h10.03c7.76,0,11.31,2.85,11.31,8.81s-3.85,9.17-11.73,9.17h-3.01v9.17h-6.57v-27.14h-.03ZM253.35,209.06c4.04-.1,5.48-1.67,5.48-4.74s-1.57-4.29-5.45-4.29h-2.95v9.04h2.92,0Z"/>
      <path class="cls-4" d="M251.27,237.88h-7.76v-5.16h22.08v5.16h-7.72v21.98h-6.57v-21.98h-.03Z"/>
      <path class="cls-1" d="M280.13,234.47c0-.4,0-.82-.08-1.22-.11-.58-.24-1.19-.37-1.78,0-.05-.03-.11-.05-.16-.08.03-.19.05-.27.08-.24.08-.5.11-.74.05-.5-.08-.98-.29-1.41-.58-.08-.05-.16-.11-.21-.19-.21-.27-.21-.53.08-.72.21-.16.45-.27.66-.42.08-.05.19-.11.27-.19.19-.19.4-.34.61-.5.08-.05.13-.11.21-.16.03-.03.08-.08.11-.11-.03-.08,0-.16-.08-.21-.11,0-.21,0-.29-.03-.05,0-.13-.05-.19-.08-.05-.05-.08-.11,0-.19.05-.08.13-.13.21-.16.05,0,.11-.05.16-.08,0-.05,0-.11-.03-.13-.32-1.17-.69-2.33-1.09-3.47-.24-.69-.5-1.38-.82-2.07-.27-.56-.5-1.09-.77-1.64-.03-.08-.08-.13-.11-.24-.16-.03-.34-.08-.5-.11-.19-.03-.34-.08-.53-.13-.08,0-.19-.08-.27-.13-.13-.08-.19-.21-.13-.37.08-.24.21-.42.45-.5.11-.03.19-.05.29-.05.05,0,.08,0,.13-.05,0-.05-.05-.13-.08-.19-.21-.61-.45-1.25-.66-1.86-.69-1.96-1.3-3.98-1.88-5.97-.21-.72-.37-1.46-.4-2.23-.03-.58,0-1.17.08-1.75.11-.72.29-1.43.53-2.12.27-.77.58-1.51.95-2.25.48-.95.95-1.88,1.43-2.84.61-1.19,1.22-2.39,1.75-3.61.21-.53.45-1.03.61-1.59,0-.05.03-.11.05-.19-.08-.03-.13-.08-.19-.11-.24-.13-.45-.29-.61-.53-.05-.11-.11-.21-.19-.29-.13-.19-.13-.34,0-.5.11-.13.13-.27.11-.42v-.16c.11-.05.27,0,.37-.11-.03-.03-.05-.08-.08-.11-.05-.05-.11-.08-.16-.13-.08-.08-.08-.13-.03-.24.08-.16.19-.19.34-.13.05,0,.13.05.19.08v-.13c0-.13,0-.29.05-.42.11-.77.11-1.54.05-2.31-.05-.58,0-1.17.24-1.72.08-.16.11-.34.16-.53.08-.29.05-.58,0-.9-.03-.37-.03-.74,0-1.11.03-.27.05-.56.19-.8.05-.11.08-.21.11-.32v-.13c-.11-.08-.21-.08-.32-.11-.08,0-.16-.03-.24-.05-.16-.05-.21-.16-.24-.32v-.21c.03-.11.08-.19.13-.27.08-.13.13-.27.16-.4,0-.08.03-.13.05-.21.03-.19.13-.32.24-.45.03-.05.11-.08.16-.05.05,0,.11.03.16.05.08.03.13.08.21.11.03,0,.05,0,.11.03,0-.19.05-.34.05-.5,0-.34.03-.72.05-1.06h.53v.29c0,.48-.05.98-.11,1.46,0,.08,0,.16-.03.24.16.19.32.34.42.53.21.29.4.61.61.9.03.05.05.11.08.19,0,.08.05.13.08.19.4.53.82,1.09,1.14,1.67.05.08.08.16.13.21.08.11.16.24.27.34.11.16.24.32.34.48.16.21.32.45.48.64.24.27.48.53.72.8.19.21.37.45.5.72.05.08.08.16.16.24h.08c.53-.13,1.06-.13,1.59-.05.21.03.45.08.66.19.66.27,1.06.77,1.33,1.41.03.08.05.16.05.24,0,.11.05.24.05.34,0,.13.05.24.19.32v.05s-.03.08-.05.11c-.05.05-.11.11-.19.16-.11.08-.21.19-.21.34,0,.03,0,.05-.03.08-.11.13-.08.29,0,.42.03.08.05.19.11.27.11.29.29.56.48.8.08.11.19.13.32.11.16-.03.29-.05.45-.05.27,0,.53,0,.8.03.27,0,.53.08.8.16.03,0,.05,0,.08.03.05.03.08.11.05.16,0,.05-.05.11-.08.19-.05.11-.05.13.05.21.08.05.13.11.21.16.21.16.45.34.64.5.16.13.27.29.4.42.08.11.16.24.19.37,0,.27.03.5,0,.77-.05.29-.16.34-.42.34-.13,0-.27-.05-.4-.05h-.13v.13c0,.24,0,.5.03.74.03.37.11.74.29,1.09.08.19.16.34.24.53.11.29.16.58.13.88,0,.27-.03.5-.05.77,0,.24,0,.45.13.66.08.16.08.34,0,.5,0,.08-.05.16-.08.24-.03.11-.05.19-.08.29-.08.37-.05.74,0,1.14v.5c0,.08,0,.16-.03.24v.48c.03.11.05.24.08.34.05.19.05.34,0,.5,0,.05-.05.13-.05.19v.13q.27.08.4.27c.13.13.21.32.29.48.11.21.08.42,0,.66,0,.05-.05.11-.13.08h-.13c-.11-.03-.21-.05-.32-.11-.03-.08-.08-.19-.11-.27,0-.05-.03-.08-.11-.08-.08.05-.11.16-.11.27-.05.32-.13.64-.19.95-.05.29-.11.61-.16.9-.08.34-.21.66-.42.93-.05.08-.11.16-.16.24-.16.24-.27.48-.32.77,0,.08-.03.16-.05.27-.03.16-.13.29-.29.34-.11.05-.24.08-.34.11-.13.03-.27.03-.4.05-.16,0-.29.03-.45.05-.11,0-.19.08-.19.21v.16c-.08.37-.27.66-.66.77-.05,0-.08,0-.13.03-.08.03-.16.08-.19.19,0,.08-.05.16-.08.24-.03.13-.11.21-.21.24-.11.03-.19.11-.27.21-.37.48-.72.95-1.03,1.46-.11.21-.24.42-.37.61-.11.19-.24.37-.45.48,0,0-.05.03-.08.05-.16.13-.16.21-.08.4.03.08.08.19.11.27.05.13,0,.24-.08.34-.05.05-.08.08-.13.13-.13.13-.19.27-.13.45.03.08,0,.13,0,.21-.03.08-.08.16-.16.21-.08.05-.11.13-.08.21,0,.08.03.16.05.24.03.11.05.21.08.32.03.19.05.37-.03.53-.13.32-.19.66-.13,1.01.03.37,0,.74-.05,1.11-.08.32-.13.64-.19.95-.05.4-.13.8-.24,1.19-.19.61-.29,1.22-.27,1.86,0,.13,0,.27-.03.4-.05.19-.11.37-.13.56-.08.03-.13,0-.16-.03-.08-.05-.19-.11-.29-.11-.27-.05-.53-.08-.82-.13,0,0-.03.03-.03.05-.11.24-.19.48-.29.72v.19s0,.03.03.05c.13.21.19.45.19.69,0,.27,0,.53.08.77.05.13,0,.27-.13.34-.16.11-.29.24-.45.34-.11.08-.19.16-.29.21-.13.08-.27.16-.42.19-.16,0-.27.11-.37.21-.19.16-.4.34-.61.5-.03.03-.08.05-.11.11,0,.08,0,.13.03.19.11.48.21.95.32,1.43.08.42.16.85.16,1.3,0,.19,0,.34.03.53h-.56l.19-.16ZM279.38,188.75h0v.05c0,.11.05.24.08.34,0,.05.03.08.08.13v-.11c0-.11-.05-.21-.08-.34,0-.03-.05-.03-.08-.03v-.05ZM283.65,202.73c-.16.11-.32.21-.48.29-.21.13-.45.24-.69.29-.13.03-.27.05-.4.03-.16,0-.32-.08-.4-.24-.13-.21-.19-.45-.08-.69.03-.08.08-.16.16-.21.13-.11.29-.21.42-.32.13-.08.27-.19.4-.27,0-.05-.05-.13-.08-.19-.16-.34-.32-.72-.42-1.09-.08-.24-.13-.5-.13-.74v-.11h-.82c-.29,0-.56-.11-.8-.32-.19-.16-.34-.32-.48-.53-.03-.08-.11-.13-.16-.19-.08-.11-.19-.19-.27-.29-.13-.13-.24-.29-.29-.45-.16-.34-.32-.69-.48-1.03-.05-.08-.08-.19-.11-.29-.05-.13-.11-.27-.19-.37-.13-.21-.19-.42-.19-.64v-.19s0-.05-.05-.08c0,.05-.05.08-.05.11-.42,1.14-.93,2.25-1.48,3.34-.56,1.11-1.14,2.23-1.7,3.34-.45.88-.88,1.75-1.22,2.65-.27.66-.45,1.33-.61,2.02-.27,1.33-.21,2.63.16,3.92.66,2.28,1.35,4.56,2.15,6.81.16.48.34.93.53,1.41,0,.05.05.11.08.19.11,0,.19,0,.27-.03.24-.05.48-.16.69-.32.08-.08.19-.13.27-.19.21-.13.34-.29.4-.53.03-.13.08-.27.19-.37.03-.03.05-.11.08-.16-.05,0-.11-.03-.16-.05-.16-.05-.21-.13-.21-.29,0-.19,0-.4-.05-.58-.08-.53-.16-1.09-.37-1.59-.08-.21-.11-.45-.08-.66.08-.45.11-.93.13-1.38,0-.21.05-.42.11-.64.05-.27.05-.53-.03-.8-.03-.11-.05-.19-.08-.29-.05-.16-.08-.29-.08-.45v-.29c0-.27-.03-.53,0-.77.05-.29.21-.5.42-.69.29-.21.58-.37.93-.48.77-.24,1.54-.48,2.31-.61.27-.05.5-.08.77-.13.11,0,.21-.05.32-.08.13-.05.29-.08.42-.08.11,0,.19-.05.29-.11.13-.11.29-.16.45-.19.19-.05.34-.11.53-.13.05,0,.08,0,.13-.05.19-.08.16-.13.08-.27-.05-.11-.13-.21-.16-.32-.03-.08-.05-.16-.05-.27,0-.08,0-.13.05-.21.16-.21.34-.4.61-.48.11-.03.19-.11.19-.21,0-.13.03-.27.03-.4,0-.21-.03-.4-.05-.61,0-.11-.05-.21-.11-.34,0-.05-.05-.11-.08-.19-.05-.11-.05-.21-.03-.34.03-.11.05-.21.05-.32,0-.08,0-.16-.08-.24s-.16-.16-.27-.24l-.16.08v.11ZM282.67,212.14h-.5c-.13,0-.27-.05-.4-.13-.16-.08-.32-.13-.5-.13-.32,0-.61-.05-.88-.21-.03,0-.08-.03-.11-.03h0q0,.05.03.08c.05.11.13.21.16.32.11.21.11.45.08.69-.08.4-.08.82-.11,1.22,0,.37-.05.74-.05,1.11v1.01c-.05.34,0,.69,0,1.03v1.03c0,.13.03.27.05.4,0,.11.05.19.16.27.13.11.19.24.21.4,0,.13.03.29.03.42,0,.24,0,.48.03.72v.32c0,.13-.05.27-.16.34-.13.13-.29.21-.45.24-.24,0-.48.03-.72.05-.19,0-.37-.03-.53-.13-.16-.08-.34-.16-.5-.27-.27-.13-.5-.24-.77-.34-.21-.08-.42-.11-.64-.11h-.5c-.05.05,0,.11,0,.13.16.34.29.69.48,1.03.42.85.77,1.75,1.09,2.65.32.9.61,1.83.88,2.76,0,.08.05.19.08.27.08,0,.11-.05.16-.08.11-.08.24-.13.37-.11.21.05.42,0,.58-.19.16-.16.27-.34.32-.53,0-.05,0-.11-.03-.16-.05-.03-.05-.08-.05-.13v-.29c0-.16,0-.29.08-.45.05-.16.13-.29.19-.45.08-.21.13-.42.16-.64,0-.21.05-.42.11-.64.08-.29.13-.61.13-.93,0-.45.05-.88.08-1.33v-1.48c0-.16,0-.34.08-.5.11-.32.11-.66.03-.98,0-.11-.03-.24-.05-.34-.11-.5-.08-1.01,0-1.48v-.4c-.05-.21,0-.45.05-.66.05-.16.11-.32.19-.45.21-.4.37-.8.48-1.22,0-.05.03-.13.05-.19.13-.27.24-.53.42-.77.13-.21.24-.42.32-.66,0-.05,0-.11.05-.19h-.21l.05.11ZM283.81,194.77h-.19c-.13,0-.19-.08-.19-.19v-.11c0-.27,0-.5.03-.77v-.11s-.03-.05-.05-.08h-.05c-.21-.08-.29-.21-.27-.42,0-.21,0-.42-.05-.66-.03,0-.08,0-.11-.03-.08,0-.11-.05-.11-.16.05,0,.08,0,.13-.05-.03-.08-.08-.13-.16-.13-.05,0-.13,0-.19-.03-.11-.03-.13-.11-.11-.19v-.05c.11-.21.11-.42.13-.66,0-.08,0-.13-.05-.19-.19-.21-.32-.45-.48-.69-.05-.08-.13-.16-.19-.24-.19-.21-.37-.42-.53-.64-.11-.16-.21-.34-.27-.53-.16-.4-.34-.77-.5-1.17-.11-.24-.19-.5-.29-.74-.05-.13-.11-.24-.19-.34-.19-.27-.32-.58-.45-.88,0-.05-.05-.11,0-.16.08-.13.03-.24,0-.34-.08-.21-.19-.4-.27-.61-.11-.05-.24-.11-.34-.19-.08-.08-.13-.21-.21-.34-.05.05-.08.13-.11.21-.08.34-.11.72-.08,1.09,0,.19.08.4.11.58.05.32.13.64.19.93.05.27.13.48.32.69.11.11.16.27.21.4.03.13.05.27.08.37.05.21.11.4.16.61,0,.05.03.11.05.16.03.16.05.32,0,.48v.11c0,.11,0,.24.13.27.21.08.32.24.37.42.05.13.11.27.13.42.05.13.05.27,0,.4-.05.11-.03.21,0,.34.11.29.19.56.29.85.24.69.45,1.38.64,2.09.11.42.24.85.37,1.27.05.19.13.34.24.48.08.11.13.21.21.32.08,0,.16-.05.24-.05h.27c.16,0,.32-.03.45-.16.05-.05.13-.08.21-.08.29-.03.58-.08.88-.13.05-.13.16-.19.29-.21.13-.05.24-.11.37-.16-.08-.11-.13-.19-.19-.27-.05-.05-.11-.08-.16-.08-.11,0-.19-.05-.19-.16,0-.05-.05-.08-.11-.11-.08,0-.11-.08-.11-.16,0-.05,0-.13-.05-.19h-.21l-.08-.05ZM279.3,189.34c-.13-.34-.19-.72-.21-1.09-.03-.21-.05-.42-.08-.64,0-.05,0-.11-.05-.13-.03-.08-.05-.16-.11-.21-.05-.13-.11-.29-.08-.45,0-.13,0-.27-.08-.4,0,.03-.05.05-.05.08-.03.34-.13.66-.24.95-.13.32-.19.66-.16,1.03,0,.24.03.48.05.69,0,.48.03.95,0,1.41-.03.27-.05.56-.08.82v.58c.16.08.29.13.48.19v-.19h.11c.16.03.29.05.45.11.13.05.24.16.27.29.05.19.05.37.05.56v.34c0,.08,0,.16.08.24s.08.19.05.32c-.05.21.03.34.19.48.05.03.11.08.16.11.16.08.24.19.27.34.05.24.21.37.4.5h.08c0-.13,0-.24-.03-.37-.08-.64-.16-1.25-.37-1.86-.11-.32-.21-.66-.32-.98-.03-.11-.05-.19-.11-.29-.05-.13-.08-.27-.21-.34-.11-.05-.16-.19-.19-.32-.08-.27-.13-.56-.21-.82-.03-.13,0-.27.08-.37,0,0,.03-.05.05-.08-.05-.16-.08-.32-.13-.5h-.05ZM284.05,199.78s-.21.03-.29,0c-.08,0-.16-.03-.27-.05-.08,0-.16-.03-.24,0-.05.05-.03.13,0,.16.03.08.08.16.13.24.11.19.19.37.24.58.03.19.11.34.16.53.05.16.11.32.19.48.05.16.11.32.05.48v.16c0,.05,0,.08.05.11.05,0,.13,0,.16-.05,0-.05.03-.11.03-.13v-1.14c0-.16,0-.32.05-.48.05-.27,0-.53,0-.8,0,0,0-.03-.05-.08-.05,0-.11,0-.16.03l-.05-.03ZM283.33,202.44l.13-.13c0-.11-.11-.16-.05-.27h.16c0-.11-.08-.11-.13-.13-.03,0-.05.05-.11.08-.16.13-.34.16-.56.11-.05,0-.11-.03-.16,0-.21.08-.4.16-.58.29-.11.08-.19.16-.24.27-.08.13-.08.29,0,.42.11.16.29.21.45.13.05,0,.11-.05.16-.11.11-.08.21-.13.34-.19s.27-.11.4-.19c0-.13.05-.21.13-.27l.05-.03ZM279.86,191.19s.24-.03.34-.11v-.11c-.11-.27-.19-.56-.29-.82-.05-.16-.11-.19-.27-.11-.03,0-.05.03-.11.05,0,.16.29.95.34,1.06l-.03.03ZM282.64,199.68c-.12-.05-.22-.07-.29-.05.05.37.42,1.48.58,1.72,0-.27-.13-1.22-.27-1.64l-.03-.03ZM281.42,195.52c-.11-.21-.21-.45-.29-.69,0,0-.03-.05-.05-.08-.05,0-.03.05-.03.08v.61c0,.08.03.16.11.24l.37.37c0-.19-.05-.37-.13-.53h.03ZM279.57,227.33c-.16,0-.24.11-.34.24,0,.11.05.19.08.29.08.05.16.03.27,0,.03,0,.05-.05.08-.08,0-.03.03-.05.05-.11.03-.08.11-.16.19-.21.05-.03.08-.08.16-.13-.19-.05-.32-.05-.45,0h-.03ZM284.31,206.33s.08.03.11,0c.05,0,.08-.08.05-.13-.03-.16-.11-.29-.24-.4-.03-.03-.11-.05-.16-.05s-.11,0-.16.11c.08.19.21.34.37.45l.03.03ZM283.41,201.61s.21.11.34.16c0-.16-.08-.27-.13-.4-.05-.11-.08-.24-.19-.32h-.05c-.05.19-.03.37.05.56h-.03ZM278.8,228.1s-.03-.03-.05-.03c-.08,0-.16.05-.19.16.08.05.16,0,.27,0,0-.05,0-.08-.03-.11v-.03Z"/>
      <rect class="cls-1" x="225.08" y="32.85" width="1.01" height="174.44"/>
      <rect class="cls-1" x="229.24" y="32.85" width="1.01" height="189.44"/>
      <rect class="cls-1" x="277.74" y="32.85" width="1.01" height="160.44"/>
      <rect class="cls-1" x="280.79" y="32.85" width="1.01" height="211.44"/>
      <g>
        <path class="cls-3" d="M14.73,163.36l-1.63-4.68h-6.98l-1.63,4.68H.68l6.67-18.29h4.52l6.65,18.29h-3.78ZM9.61,147.9l-.08.28c-.08.31-.18.67-.31,1.06s-.87,2.58-2.24,6.57h5.25l-1.81-5.25-.55-1.77s-.26-.9-.26-.9Z"/>
        <path class="cls-3" d="M29.54,160.62c2.32,0,3.93-1.16,4.82-3.48l3.34,1.26c-.71,1.77-1.77,3.07-3.15,3.95s-3.05,1.3-4.98,1.3c-2.95,0-5.21-.83-6.81-2.5s-2.4-3.99-2.4-7,.77-5.31,2.32-6.92,3.8-2.42,6.73-2.42c2.16,0,3.89.43,5.25,1.3,1.36.87,2.3,2.14,2.85,3.8l-3.38.92c-.28-.92-.85-1.65-1.69-2.2s-1.81-.81-2.95-.81c-1.73,0-3.05.53-3.95,1.61s-1.34,2.64-1.34,4.72.47,3.7,1.38,4.82,2.26,1.67,3.99,1.67l-.02-.02Z"/>
        <path class="cls-3" d="M52.77,163.36l-4.25-6.94h-4.5v6.94h-3.82v-18.29h9.13c2.18,0,3.86.47,5.04,1.4s1.77,2.28,1.77,4.05c0,1.28-.37,2.38-1.1,3.32s-1.71,1.55-2.95,1.83l4.94,7.69h-4.31.04ZM52.31,150.69c0-1.75-1.12-2.64-3.38-2.64h-4.9v5.41h5c1.08,0,1.89-.24,2.44-.73s.83-1.16.83-2.03Z"/>
        <path class="cls-3" d="M77.18,154.15c0,1.91-.39,3.58-1.14,5.02s-1.83,2.54-3.23,3.32-3.03,1.14-4.9,1.14c-2.87,0-5.13-.85-6.75-2.54s-2.44-4.01-2.44-6.96.81-5.23,2.44-6.88,3.89-2.46,6.79-2.46,5.17.83,6.79,2.5,2.44,3.95,2.44,6.83v.02ZM73.28,154.15c0-1.97-.47-3.52-1.4-4.64s-2.24-1.69-3.93-1.69-3.03.55-3.97,1.67-1.4,2.66-1.4,4.66.49,3.58,1.44,4.74c.96,1.16,2.26,1.73,3.91,1.73s3.03-.57,3.97-1.69c.94-1.12,1.4-2.73,1.4-4.8l-.02.02Z"/>
        <path class="cls-3" d="M96.3,158.16c0,1.67-.63,2.95-1.87,3.86s-2.97,1.36-5.19,1.36h-9.15v-18.29h8.38c2.24,0,3.93.39,5.06,1.16s1.73,1.91,1.73,3.44c0,1.04-.28,1.91-.85,2.62s-1.44,1.2-2.62,1.44c1.48.18,2.6.63,3.38,1.4s1.16,1.75,1.16,3.01l-.02-.02ZM91.38,150.2c0-.81-.26-1.4-.79-1.75s-1.3-.53-2.34-.53h-4.35v4.54h4.39c1.08,0,1.87-.18,2.36-.57s.73-.94.73-1.69ZM92.46,157.85c0-1.71-1.22-2.56-3.68-2.56h-4.86v5.25h5c1.22,0,2.14-.22,2.69-.67s.85-1.12.85-2.01Z"/>
        <path class="cls-3" d="M112.21,163.36l-1.63-4.68h-6.98l-1.63,4.68h-3.82l6.67-18.29h4.52l6.65,18.29h-3.78ZM107.1,147.9l-.08.28c-.08.31-.18.67-.31,1.06s-.87,2.58-2.24,6.57h5.25l-1.81-5.25-.55-1.77s-.26-.9-.26-.9Z"/>
        <path class="cls-3" d="M124.76,148.05v15.34h-3.82v-15.34h-5.9v-2.97h15.66v2.97h-5.94Z"/>
        <path class="cls-3" d="M132.75,163.36v-18.29h3.82v18.29h-3.82Z"/>
        <path class="cls-3" d="M157.92,154.15c0,2.44-.59,4.48-1.79,6.1-1.2,1.63-2.87,2.64-5,3.09.28.85.71,1.48,1.24,1.85s1.28.57,2.24.57c.51,0,1.02-.04,1.55-.12v2.62c-1.12.24-2.16.37-3.17.37-1.4,0-2.58-.39-3.5-1.18s-1.67-2.1-2.24-3.93c-2.46-.22-4.37-1.18-5.74-2.83-1.36-1.65-2.05-3.82-2.05-6.53,0-2.93.81-5.23,2.44-6.88s3.89-2.46,6.79-2.46,5.17.83,6.79,2.5c1.63,1.67,2.44,3.95,2.44,6.83v-.02ZM154.01,154.15c0-1.97-.47-3.52-1.4-4.64s-2.24-1.69-3.93-1.69-3.03.55-3.97,1.67-1.4,2.66-1.4,4.66.47,3.6,1.42,4.76,2.26,1.75,3.93,1.75,3.03-.57,3.97-1.69,1.4-2.73,1.4-4.8l-.02-.02Z"/>
        <path class="cls-3" d="M168.43,163.63c-2.52,0-4.45-.61-5.78-1.85s-2.01-2.99-2.01-5.27v-11.43h3.82v11.15c0,1.44.35,2.54,1.04,3.3s1.71,1.12,3.03,1.12,2.42-.39,3.15-1.18,1.1-1.91,1.1-3.38v-11h3.82v11.25c0,2.32-.71,4.11-2.16,5.39-1.44,1.28-3.44,1.91-6.04,1.91h.02Z"/>
        <path class="cls-3" d="M180.03,163.36v-18.29h14.38v2.97h-10.56v4.6h9.76v2.97h-9.76v4.82h11.09v2.97h-14.91v-.04Z"/>
        <path class="cls-3" d="M212.68,158.09c0,1.79-.67,3.15-1.99,4.11s-3.27,1.42-5.86,1.42c-2.34,0-4.19-.41-5.51-1.24-1.32-.83-2.2-2.1-2.56-3.78l3.7-.61c.24.98.73,1.67,1.46,2.12s1.73.65,3.03.65c2.66,0,4.01-.81,4.01-2.44,0-.53-.16-.96-.47-1.28s-.73-.61-1.3-.83-1.63-.49-3.21-.81c-1.36-.33-2.32-.57-2.85-.77s-1.02-.43-1.44-.69-.79-.59-1.1-.96-.53-.81-.71-1.3-.24-1.08-.24-1.73c0-1.65.63-2.91,1.87-3.8s3.05-1.32,5.41-1.32,3.97.35,5.11,1.06,1.87,1.89,2.2,3.52l-3.72.51c-.18-.79-.57-1.38-1.16-1.77s-1.42-.59-2.52-.59c-2.32,0-3.48.73-3.48,2.18,0,.47.12.87.37,1.16s.61.57,1.1.77,1.46.49,2.95.79c1.75.37,3.01.71,3.76,1.04.75.33,1.36.69,1.79,1.1s.77.92,1.02,1.51.35,1.26.35,2.01h.02Z"/>
      </g>
      <g>
        <path class="cls-3" d="M19.64,209.24c0,2.2-.44,4.12-1.29,5.74s-2.08,2.89-3.66,3.76-3.38,1.31-5.42,1.31H.68v-21.28h7.7c3.58,0,6.35.91,8.31,2.71,1.96,1.8,2.95,4.39,2.95,7.78v-.02ZM15.17,209.24c0-2.28-.59-4.04-1.78-5.23s-2.89-1.8-5.09-1.8h-3.15v14.39h3.78c1.92,0,3.42-.65,4.55-1.98,1.13-1.33,1.68-3.11,1.68-5.38Z"/>
        <path class="cls-3" d="M31.87,220.35c-2.93,0-5.17-.71-6.73-2.14s-2.34-3.46-2.34-6.14v-13.3h4.45v12.97c0,1.68.4,2.95,1.21,3.82s1.98,1.31,3.52,1.31,2.81-.46,3.66-1.37,1.29-2.22,1.29-3.92v-12.81h4.45v13.08c0,2.69-.83,4.79-2.49,6.27s-4.02,2.24-7.03,2.24v-.02Z"/>
        <path class="cls-3" d="M72.81,213.97c0,1.94-.73,3.42-2.18,4.49s-3.46,1.58-6.04,1.58h-10.65v-21.28h9.74c2.59,0,4.57.46,5.9,1.35s2,2.24,2,4c0,1.21-.34,2.24-1.01,3.07-.67.83-1.68,1.39-3.07,1.68,1.72.2,3.03.75,3.94,1.62s1.35,2.04,1.35,3.5l.02-.02ZM67.11,204.71c0-.95-.3-1.64-.91-2.04s-1.5-.61-2.71-.61h-5.07v5.27h5.11c1.27,0,2.18-.22,2.73-.65s.85-1.09.85-1.98v.02ZM68.33,213.64c0-2-1.43-2.99-4.3-2.99h-5.64v6.1h5.82c1.43,0,2.47-.26,3.13-.77s.99-1.29.99-2.34Z"/>
        <path class="cls-3" d="M91.34,220.05l-1.88-5.44h-8.12l-1.88,5.44h-4.45l7.76-21.28h5.27l7.74,21.28h-4.43ZM90.94,196.49v.44h-2.4l-3.07-2.28h-.06l-3.19,2.28h-2.41v-.44l3.9-4.18h3.46l3.78,4.18h-.02ZM85.38,202.04l-.1.34c-.1.36-.22.77-.36,1.25s-1.01,3.01-2.59,7.64h6.12l-2.1-6.12-.65-2.06s-.32-1.05-.32-1.05Z"/>
        <path class="cls-3" d="M108.22,202.21v17.83h-4.45v-17.83h-6.87v-3.44h18.21v3.44h-6.89Z"/>
        <path class="cls-3" d="M117.52,220.05v-21.28h4.45v21.28h-4.45Z"/>
        <path class="cls-3" d="M143.77,220.05v-13.78c0-.28.06-1.54.14-3.76-.71,2.71-1.25,4.59-1.58,5.66l-3.84,11.88h-3.17l-3.84-11.88-1.62-5.66c.12,2.34.18,3.88.18,4.63v12.91h-3.96v-21.28h5.96l3.8,11.9.34,1.15.73,2.85.95-3.4,3.92-12.49h5.94v21.28h-3.96.02Z"/>
        <path class="cls-3" d="M151.87,220.05v-21.28h16.73v3.44h-12.27v5.34h11.36v3.44h-11.36v5.6h12.91v3.44s-17.36,0-17.36,0Z"/>
        <path class="cls-3" d="M185.46,220.05l-9.26-16.39c.18,1.58.28,2.87.28,3.84v12.55h-3.96v-21.28h5.09l9.4,16.53c-.18-1.52-.28-2.91-.28-4.16v-12.37h3.96v21.28h-5.23Z"/>
        <path class="cls-3" d="M204.44,202.21v17.83h-4.45v-17.83h-6.87v-3.44h18.21v3.44s-6.89,0-6.89,0Z"/>
      </g>
      <path class="cls-2" d="M225.82,128.95s.19.19.21.32l.16.64c.03.16,0,.32-.08.45h0c-.05.08-.13.16-.21.21l.69,2.92.95,1.51.77,1.22c2.49-.19,4.35-.37,5.57-.58.93-.5,1.46-.48,1.62.08,1.3-.42,2.31-.19,3.05.77,3.5,3.05,5.62,4.98,6.34,5.81.82,0,1.51.42,2.07,1.25,1.46.05,2.17.08,2.17.08,1.51-.29,2.15-.05,1.94.77-.29.72-.9,1.22-1.83,1.56-.88-.03-1.62-.03-2.44.9-1.03-.11-1.64-.27-2.15-.88-.48-.95-.48-.88-.48-.88.05-.32.27-1.01.32-1.06-3.77-1.94-6.63-3.69-6.71-4.67-.08.98-.13,1.48-.13,1.48-.69.34-1.64.4-2.86.16-1.22.56-1.86.82-1.86.82,1.88,1.25,2.84,1.88,2.84,1.88.48.37.53.72.13,1.01,1.06,1.01,1.59,2.15,1.59,3.37,2.41,3.77,4.22,6.52,5.38,8.27.98,0,1.8.64,2.55,1.94,2.94,1.86,4.43,2.78,4.43,2.78.11.27-.16.58-.82.98-1.7.72-3.16.5-4.35-.66-2.04-.19-3.08-1.17-3.08-2.94q-.09-.51,0,0c-.21-.93-1.94-2.76-5.14-5.44-1.54-1.09-2.39-2.47-2.57-4.11-.64.13-1.11,0-1.41-.34-1.64,0-3.08-.32-4.14-.98-.77-.5-1.35-1.19-1.67-2.12l-.58-.27c-.4.03-.8,0-1.22-.11-.21.4-.5.8-.88,1.11-.32.29-.66.53-1.09.77-.27,1.06-.74,2.15-1.43,3.26,0,0-.72-.16-2.17-.45,0,0-.08-.24-.21-.72.11-1.56-.05-3.63.19-5.04,0,0,.34-.29,1.01-.85h.82c-.85-.21-1.72-.64-2.6-1.19-.16.03-.29.03-.37.03l-.11.05s-.05-.05-.08-.13c-.11-.05-.13-.13-.16-.27-.69-1.22-2.33-4.96-2.6-7.24l-.69-4.16,1.86-3.16s-.13-.21-.21-.32c-.34-.5-.5-.74-.5-.74-.48-.48-.45-.4-.45-.4-.34,0-.77-.19-.77-.19-.48-2.47.82-3.87,2.31-4.38,1.94-.66,4.16.03,4.48,1.99-.64.32-.66.4-.66.4-.05.58-.08.88-.08.88-.16.42-.21.61-.21.61l.13.21c.8-.58,1.64-1.09,2.63-1.54.56-2.04,1.22-3.77,1.99-5.17.08-.21.13-.4.19-.56v-1.41c-.11-.21-.27-.37-.48-.5-.48-1.56-.32-2.55.48-3v-10.1h.72v9.94l1.14.29c.5.45.61,1.3.34,2.55,0,3.47-.29,5.75-.93,6.81-.08.53-.27,1.06-.56,1.56v4.93l-.08-.05Z"/>
    </g>
  </g>
</svg>