<?xml version="1.0" encoding="UTF-8"?>
<svg xmlns="http://www.w3.org/2000/svg" width="269" height="57" viewBox="0 0 269 57" fill="none">
  <g clip-path="url(#clip0_104_190)">
    <path d="M93.283 39.1809V14.6917H88.7352V31.3472L77.8716 14.6917H73.2821V39.1809H77.8299V22.5253L88.6935 39.1809H93.283Z" fill="#E2E7C0"></path>
    <path d="M111.391 21.7039C110.052 20.805 108.403 20.3467 106.492 20.3467C104.688 20.3467 103.075 20.7634 101.688 21.5789C100.301 22.3944 99.1999 23.5552 98.4142 25.0314C97.6225 26.5077 97.2236 28.2697 97.2236 30.2638C97.2236 32.0913 97.6344 33.7342 98.438 35.145C99.2416 36.5558 100.373 37.6808 101.795 38.4844C103.218 39.288 104.891 39.6988 106.76 39.6988C108.516 39.6988 110.159 39.2285 111.635 38.3058C113.087 37.401 114.171 36.1212 114.861 34.5021L110.373 33.2163C110.028 33.9485 109.522 34.52 108.879 34.9128C108.218 35.3176 107.415 35.526 106.486 35.526C104.992 35.526 103.891 35.0497 103.117 34.0795C102.611 33.4425 102.271 32.6211 102.105 31.627L102.039 31.24H115.052C115.23 29.0614 114.998 27.1387 114.367 25.5195C113.724 23.8885 112.724 22.6027 111.385 21.7098L111.391 21.7039ZM102.158 27.9542L102.266 27.5375C102.456 26.7994 102.748 26.1803 103.123 25.6922C103.885 24.71 105.087 24.21 106.694 24.21C108.093 24.21 109.081 24.6266 109.706 25.4898C110.069 25.9898 110.325 26.6863 110.468 27.5673L110.534 27.9542H102.158Z" fill="#E2E7C0"></path>
    <path d="M120.213 34.3949C120.237 35.2521 120.475 36.1034 120.921 36.9367C121.409 37.8118 122.136 38.4606 123.076 38.8535C124.028 39.2523 125.124 39.4726 126.332 39.4964C127.529 39.5261 128.761 39.4249 129.999 39.1928V35.4962C128.927 35.6331 127.951 35.6748 127.082 35.6212C126.154 35.5617 125.469 35.1926 125.04 34.52C124.814 34.1687 124.695 33.6866 124.677 33.0973C124.659 32.5199 124.653 31.871 124.653 31.1508V24.2814H129.999V20.8646H124.653V15.7274H120.171V20.8646H117.016V24.2814H120.171V31.4305C120.171 32.5377 120.183 33.5378 120.207 34.4009L120.213 34.3949Z" fill="#E2E7C0"></path>
    <path d="M147.351 21.9837C145.893 20.9003 144.065 20.3467 141.916 20.3467C140.059 20.3467 138.428 20.7693 137.065 21.6027C135.702 22.4361 134.63 23.5909 133.886 25.0433C133.136 26.4958 132.755 28.1685 132.755 30.0197C132.755 31.871 133.118 33.514 133.844 34.9664C134.565 36.4189 135.612 37.5796 136.964 38.4249C138.315 39.2702 139.958 39.6928 141.851 39.6928C143.97 39.6928 145.773 39.163 147.214 38.1154C148.631 37.0855 149.613 35.6093 150.137 33.7163L145.547 32.758C145.267 33.6211 144.857 34.3057 144.309 34.7759C143.75 35.27 142.922 35.52 141.851 35.52C140.404 35.52 139.339 35.02 138.601 33.9842C137.88 32.9723 137.511 31.6389 137.511 30.0197C137.511 28.984 137.66 28.0435 137.964 27.222C138.267 26.3946 138.743 25.7279 139.38 25.2457C140.023 24.7636 140.851 24.5195 141.851 24.5195C142.726 24.5195 143.517 24.7993 144.208 25.3469C144.881 25.8767 145.363 26.6208 145.643 27.5494L150.137 26.3589C149.72 24.5195 148.786 23.0492 147.357 21.9837H147.351Z" fill="#E2E7C0"></path>
    <path d="M166.334 21.5848C164.941 20.7634 163.304 20.3467 161.471 20.3467C159.637 20.3467 158.054 20.7574 156.667 21.567C155.286 22.3765 154.185 23.5194 153.393 24.9659C152.607 26.4124 152.202 28.1149 152.202 30.0197C152.202 31.9246 152.595 33.5913 153.363 35.0378C154.131 36.4843 155.226 37.6332 156.613 38.4547C158 39.2761 159.631 39.6928 161.465 39.6928C163.298 39.6928 164.917 39.2821 166.31 38.4666C167.697 37.6511 168.798 36.5022 169.584 35.0557C170.37 33.6092 170.763 31.9127 170.763 30.0197C170.763 28.1268 170.37 26.4482 169.59 25.0017C168.816 23.5552 167.715 22.4063 166.328 21.5848H166.334ZM164.893 33.9723C164.132 35.02 163.012 35.526 161.471 35.526C159.929 35.526 158.875 35.0378 158.101 34.0259C157.345 33.0377 156.959 31.6924 156.959 30.0257C156.959 28.9483 157.119 27.9839 157.435 27.1684C157.756 26.347 158.25 25.6922 158.911 25.2279C159.578 24.7636 160.435 24.5254 161.465 24.5254C162.983 24.5254 164.096 25.0195 164.87 26.0315C165.626 27.0256 166.013 28.3709 166.013 30.0257C166.013 31.6805 165.638 32.9544 164.893 33.9783V33.9723Z" fill="#E2E7C0"></path>
    <path d="M180.632 25.46C181.037 25.0969 181.483 24.8409 181.954 24.71C182.412 24.5849 182.853 24.5195 183.263 24.5195C184.275 24.5195 185.067 24.7516 185.621 25.21C186.174 25.6624 186.579 26.2338 186.823 26.9124C187.067 27.5791 187.21 28.2518 187.258 28.9185C187.305 29.5733 187.329 30.1209 187.329 30.5436V39.1868H191.877V28.8947C191.877 28.5911 191.853 28.1089 191.811 27.4303C191.764 26.7636 191.633 26.0195 191.418 25.21C191.204 24.4064 190.841 23.6266 190.341 22.8825C189.841 22.1444 189.133 21.5253 188.24 21.0431C187.341 20.561 186.162 20.3169 184.734 20.3169C182.942 20.3169 181.442 20.7098 180.269 21.4836C179.888 21.7336 179.531 22.0194 179.21 22.3289L178.65 22.8646V20.8705H174.686V39.1928H179.233V29.8947C179.233 28.734 179.364 27.7934 179.626 27.091C179.888 26.3827 180.227 25.835 180.632 25.4719V25.46Z" fill="#E2E7C0"></path>
    <path d="M210.074 21.9837C208.616 20.9003 206.788 20.3467 204.639 20.3467C202.782 20.3467 201.151 20.7693 199.788 21.6027C198.425 22.4361 197.359 23.5909 196.609 25.0433C195.859 26.4958 195.478 28.1685 195.478 30.0197C195.478 31.871 195.841 33.514 196.567 34.9664C197.288 36.4189 198.335 37.5796 199.687 38.4249C201.038 39.2702 202.681 39.6928 204.574 39.6928C206.693 39.6928 208.497 39.163 209.931 38.1154C211.348 37.0855 212.33 35.6093 212.854 33.7163L208.264 32.758C207.985 33.6211 207.574 34.3057 207.026 34.7759C206.467 35.27 205.639 35.52 204.568 35.52C203.121 35.52 202.056 35.02 201.318 33.9842C200.597 32.9723 200.228 31.6389 200.228 30.0197C200.228 28.984 200.377 28.0435 200.681 27.222C200.984 26.3946 201.461 25.7279 202.098 25.2457C202.74 24.7636 203.568 24.5195 204.568 24.5195C205.443 24.5195 206.235 24.7993 206.925 25.3469C207.598 25.8767 208.08 26.6208 208.36 27.5494L212.854 26.3589C212.437 24.5195 211.503 23.0492 210.068 21.9837H210.074Z" fill="#E2E7C0"></path>
    <path d="M229.099 21.7039C227.759 20.805 226.11 20.3467 224.2 20.3467C222.396 20.3467 220.783 20.7634 219.396 21.5789C218.015 22.3944 216.914 23.5552 216.122 25.0314C215.336 26.5077 214.931 28.2697 214.931 30.2638C214.931 32.0913 215.342 33.7342 216.146 35.145C216.949 36.5558 218.08 37.6808 219.503 38.4844C220.926 39.288 222.598 39.6988 224.468 39.6988C226.224 39.6988 227.867 39.2285 229.343 38.3058C230.795 37.401 231.879 36.1212 232.569 34.5021L228.081 33.2163C227.736 33.9485 227.23 34.52 226.587 34.9128C225.926 35.3176 225.122 35.526 224.194 35.526C222.7 35.526 221.598 35.0497 220.825 34.0795C220.319 33.4425 219.979 32.6151 219.813 31.627L219.747 31.24H232.76C232.938 29.0614 232.706 27.1387 232.075 25.5195C231.432 23.8885 230.432 22.6087 229.093 21.7098L229.099 21.7039ZM219.866 27.9542L219.973 27.5375C220.164 26.7994 220.455 26.1803 220.83 25.6922C221.592 24.71 222.795 24.21 224.402 24.21C225.807 24.21 226.789 24.6266 227.414 25.4898C227.777 25.9898 228.033 26.6863 228.176 27.5673L228.242 27.9542H219.866Z" fill="#E2E7C0"></path>
    <path d="M245.266 39.6928C246.945 39.6928 248.427 39.2642 249.689 38.4249C250.951 37.5796 251.945 36.4188 252.647 34.9664C253.35 33.5139 253.707 31.8472 253.707 30.0197C253.707 28.1923 253.344 26.4838 252.63 25.0314C251.915 23.5849 250.897 22.4301 249.606 21.5967C248.314 20.7633 246.772 20.3407 245.028 20.3407C243.284 20.3407 241.867 20.7574 240.701 21.5729L240.183 21.936V20.8586H236.248V47.4015H240.766V38.4784L241.26 38.7523C242.379 39.3773 243.73 39.6928 245.278 39.6928H245.266ZM240.593 32.996C240.32 32.1448 240.177 31.1448 240.177 30.0197C240.177 28.8947 240.314 27.9006 240.593 27.0493C240.873 26.1922 241.32 25.5136 241.933 25.0373C242.546 24.5611 243.355 24.3171 244.344 24.3171C245.397 24.3171 246.278 24.579 246.957 25.0969C247.635 25.6148 248.141 26.3112 248.469 27.1743C248.79 28.0315 248.957 28.9899 248.957 30.0257C248.957 31.0614 248.802 32.0317 248.487 32.8889C248.171 33.752 247.683 34.4485 247.034 34.9604C246.379 35.4723 245.534 35.7343 244.51 35.7343C243.486 35.7343 242.599 35.4902 241.962 35.014C241.326 34.5378 240.867 33.8592 240.587 33.002L240.593 32.996Z" fill="#E2E7C0"></path>
    <path d="M258.785 34.3949C258.808 35.2521 259.047 36.1034 259.493 36.9367C259.981 37.8118 260.707 38.4606 261.648 38.8535C262.6 39.2523 263.696 39.4726 264.904 39.4964C266.1 39.5261 267.333 39.4249 268.571 39.1928V35.4962C267.499 35.6331 266.523 35.6748 265.654 35.6212C264.725 35.5617 264.041 35.1926 263.618 34.52C263.392 34.1687 263.273 33.6866 263.255 33.0973C263.237 32.5199 263.231 31.871 263.231 31.1508V24.2814H268.577V20.8646H263.231V15.7274H258.749V20.8646H255.594V24.2814H258.749V31.4305C258.749 32.5377 258.761 33.5378 258.785 34.4009V34.3949Z" fill="#E2E7C0"></path>
    <path d="M15.7259 11.1914H19.2796V7.64361C19.2796 6.25664 18.1486 5.13159 16.7676 5.13159H13.2139V8.67938C13.2139 10.0663 14.3449 11.1914 15.7259 11.1914Z" fill="#E2E7C0"></path>
    <path d="M31.8337 0.905273H25.7679V7.07818H31.8337V0.905273Z" fill="#E2E7C0"></path>
    <path d="M38.322 7.63775V11.1855H41.8758C43.2627 11.1855 44.3878 10.0605 44.3878 8.67352V5.12573H40.834C39.4471 5.12573 38.322 6.25078 38.322 7.63775Z" fill="#E2E7C0"></path>
    <path d="M31.8337 13.7153H25.7679V24.4658H31.8337V13.7153Z" fill="#E2E7C0"></path>
    <path d="M32.0719 52.0445C32.0719 54.7589 34.2803 56.9674 36.9947 56.9674H38.3222H44.3879V43.1096H43.2748C40.4413 43.1096 38.1376 40.8059 38.1376 37.9724V29.0435H36.965C34.2624 29.0613 32.0659 31.2638 32.0659 33.9663V52.0505L32.0719 52.0445Z" fill="#E2E7C0"></path>
    <path d="M56.8944 56.9674V0.905273H50.8287V26.3172C50.8287 27.0434 50.5429 27.7279 50.031 28.2458C49.5131 28.7577 48.8286 29.0435 48.1023 29.0435H44.5784V42.9013H45.6915C48.525 42.9013 50.8287 45.2049 50.8287 48.0384V56.9733H56.8944V56.9674Z" fill="#E2E7C0"></path>
    <path d="M44.3878 18.0728H38.322V28.8233H44.3878V18.0728Z" fill="#E2E7C0"></path>
    <path d="M19.2795 18.0728H13.2673V28.8233H19.2795V18.0728Z" fill="#E2E7C0"></path>
    <path d="M11.9102 42.8953H13.0531V29.0375H9.5053C8.77908 29.0375 8.08857 28.7518 7.57664 28.2399C7.05876 27.7279 6.77898 27.0434 6.77898 26.3112V0.905273H0.707275V56.9674H6.77303V48.0325C6.77303 45.199 9.07671 42.8953 11.9102 42.8953Z" fill="#E2E7C0"></path>
    <path d="M25.5537 52.0445V33.9603C25.5537 31.2459 23.3453 29.0375 20.6308 29.0375H19.4879V37.9724C19.4879 40.8059 17.1843 43.1096 14.3508 43.1096H13.2079V56.9673H20.6308C23.3453 56.9673 25.5537 54.7589 25.5537 52.0445Z" fill="#E2E7C0"></path>
  </g>
  <defs>
    <clipPath id="clip0_104_190">
      <rect width="267.87" height="56.0621" fill="white" transform="translate(0.707275 0.905273)"></rect>
    </clipPath>
  </defs>
</svg>
