<svg width="188" height="48" viewBox="0 0 188 48" fill="none" xmlns="http://www.w3.org/2000/svg">
<path d="M42.3855 10.1478C42.3855 10.1478 42.3639 28.9303 42.2933 29.4494C41.9557 31.9265 40.7153 34.2023 38.8369 35.7142L26.8016 45.3976C23.5867 47.9872 19.1962 47.8905 16.101 45.3976L4.06571 35.7142C1.84391 33.926 0.515106 31.0699 0.515106 28.0757V10.1478C0.515106 6.37 3.19231 0.6006 9.41801 0.6006H33.4866C38.4817 0.6006 42.3894 4.9548 42.3894 10.1478H42.3855Z" fill="#EC5014"/>
<path d="M28.2147 37.1529L23.3531 41.063C22.78 41.5248 22.1146 41.7557 21.4493 41.7557C20.7839 41.7557 20.1205 41.5248 19.5455 41.063L7.5121 31.3796C6.5857 30.6335 6.0303 29.3959 6.0303 28.0735V19.9336L28.2167 37.1529H28.2147Z" fill="white"/>
<path d="M36.8684 10.1463V18.229L21.3042 6.1475H33.4847C35.3532 6.1475 36.8704 7.9377 36.8704 10.1463H36.8684Z" fill="white"/>
<path d="M36.8683 25.2379V28.0742C36.8683 29.3967 36.3148 30.6362 35.3904 31.3803L32.6504 33.585L6.0322 12.9254V10.1463C6.0322 7.9377 7.5474 6.1475 9.4179 6.1475H12.2756L36.8702 25.2379H36.8683Z" fill="white"/>
<path d="M73.7025 13.0594C72.1167 12.1969 70.3286 11.7666 68.3424 11.7666C66.3561 11.7666 64.5642 12.1969 62.9685 13.0594C61.3728 13.922 60.1245 15.1082 59.2217 16.6221C58.3189 18.136 57.8674 19.8354 57.8674 21.7243C57.8674 23.6133 58.3189 25.3147 59.2217 26.8266C60.1245 28.3405 61.3728 29.5267 62.9685 30.3893C64.5642 31.2518 66.3561 31.6821 68.3424 31.6821C70.3286 31.6821 72.1167 31.2518 73.7025 30.3893C75.2884 29.5267 76.5367 28.3405 77.4493 26.8266C78.36 25.3147 78.8173 23.6133 78.8173 21.7243C78.8173 19.8354 78.362 18.136 77.4493 16.6221C76.5367 15.1102 75.2884 13.922 73.7025 13.0594ZM73.5514 24.914C73.0313 25.8496 72.3169 26.5779 71.4042 27.1009C70.4916 27.624 69.4709 27.8845 68.3404 27.8845C67.2099 27.8845 66.1893 27.624 65.2766 27.1009C64.364 26.5779 63.6496 25.8496 63.1294 24.914C62.6093 23.9784 62.3502 22.9145 62.3502 21.7224C62.3502 20.5302 62.6093 19.4663 63.1294 18.5327C63.6496 17.5972 64.364 16.8688 65.2766 16.3458C66.1873 15.8227 67.2099 15.5622 68.3404 15.5622C69.4709 15.5622 70.4916 15.8227 71.4042 16.3458C72.3149 16.8688 73.0313 17.5972 73.5514 18.5327C74.0715 19.4683 74.3306 20.5322 74.3306 21.7224C74.3306 22.9126 74.0715 23.9784 73.5514 24.914Z" fill="#091E51"/>
<path d="M92.915 17.2814C91.795 16.6478 90.55 16.332 89.182 16.332C87.159 16.332 85.618 16.9735 84.5602 18.2565V16.5511H80.4856V36.2376C80.4856 36.5199 80.6132 36.7883 80.833 36.964L82.0185 37.9173C82.199 38.0634 82.409 38.1364 82.6191 38.1364C82.8291 38.1364 83.0391 38.0634 83.2196 37.9173L84.4051 36.964C84.6249 36.7883 84.7525 36.5199 84.7525 36.2376V29.7814C85.828 30.9736 87.306 31.5696 89.184 31.5696C90.552 31.5696 91.797 31.2538 92.917 30.6203C94.038 29.9867 94.919 29.0985 95.557 27.9517C96.195 26.8069 96.515 25.4726 96.515 23.9489C96.515 22.4251 96.195 21.0928 95.557 19.946C94.919 18.7993 94.04 17.9111 92.917 17.2775L92.915 17.2814ZM91.137 26.9352C90.435 27.6773 89.538 28.0484 88.442 28.0484C87.347 28.0484 86.45 27.6773 85.748 26.9352C85.045 26.1931 84.6956 25.1983 84.6956 23.9508C84.6956 22.7034 85.047 21.7086 85.748 20.9665C86.45 20.2243 87.347 19.8533 88.442 19.8533C89.538 19.8533 90.435 20.2243 91.137 20.9665C91.838 21.7086 92.189 22.7034 92.189 23.9508C92.189 25.1983 91.838 26.1931 91.137 26.9352Z" fill="#091E51"/>
<path d="M111.349 19.8118C110.666 18.6848 109.75 17.8222 108.601 17.2262C107.453 16.6301 106.175 16.332 104.772 16.332C103.277 16.332 101.932 16.6577 100.739 17.3091C99.543 17.9604 98.605 18.8683 97.922 20.0329C97.239 21.1974 96.896 22.5041 96.896 23.9528C96.896 25.4016 97.241 26.7299 97.934 27.8866C98.627 29.0412 99.612 29.9452 100.888 30.5966C102.164 31.2479 103.632 31.5736 105.292 31.5736C107.954 31.5736 109.979 30.7762 111.365 29.1814L109.094 26.7062C108.584 27.2017 108.032 27.5629 107.439 27.7918C106.847 28.0208 106.168 28.1353 105.402 28.1353C104.436 28.1353 103.62 27.9517 102.955 27.5846C102.289 27.2175 101.801 26.6687 101.49 25.9345L112.376 23.8166C112.376 22.2771 112.034 20.9428 111.349 19.8138V19.8118ZM101.078 23.5107C101.116 22.283 101.471 21.3198 102.144 20.623C102.819 19.9263 103.695 19.5769 104.77 19.5769C105.645 19.5769 106.393 19.8059 107.013 20.2638C107.634 20.7217 108.044 21.3356 108.244 22.1073L101.078 23.5107Z" fill="#091E51"/>
<path d="M122.823 16.332C121.82 16.332 120.9 16.5018 120.06 16.8413C119.222 17.1808 118.519 17.6624 117.954 18.2861V16.5531H113.879V31.3506H118.146V24.0337C118.146 22.7133 118.464 21.7185 119.104 21.0494C119.742 20.3803 120.599 20.0447 121.675 20.0447C122.641 20.0447 123.381 20.3329 123.891 20.9112C124.401 21.4895 124.656 22.3639 124.656 23.5383V31.3506H128.923V22.8791C128.923 20.7158 128.362 19.0835 127.241 17.9841C126.121 16.8847 124.647 16.334 122.825 16.334L122.823 16.332Z" fill="#091E51"/>
<path d="M142.733 21.0079C141.802 20.6605 140.609 20.3111 139.151 19.9637C137.747 19.6519 136.703 19.3361 136.018 19.0144C135.335 18.6946 134.992 18.2031 134.992 17.5419C134.992 16.8807 135.288 16.3497 135.881 15.9471C136.474 15.5444 137.39 15.3411 138.629 15.3411C140.397 15.3411 142.166 15.8464 143.936 16.8531L145.304 13.47C144.429 12.9193 143.408 12.4989 142.24 12.2048C141.072 11.9107 139.879 11.7646 138.658 11.7646C136.907 11.7646 135.426 12.0311 134.215 12.5621C133.002 13.095 132.095 13.8134 131.492 14.7214C130.89 15.6293 130.59 16.6419 130.59 17.761C130.59 19.044 130.921 20.0723 131.589 20.8421C132.254 21.6119 133.053 22.1724 133.981 22.5198C134.911 22.8692 136.105 23.2165 137.565 23.5639C138.513 23.785 139.265 23.9863 139.822 24.1699C140.378 24.3534 140.835 24.5962 141.19 24.8982C141.545 25.2002 141.724 25.5811 141.724 26.0391C141.724 26.6628 141.424 27.1621 140.821 27.5372C140.219 27.9141 139.29 28.1017 138.032 28.1017C136.902 28.1017 135.771 27.9181 134.641 27.551C133.51 27.1838 132.535 26.6983 131.714 26.0923L130.211 29.4478C131.068 30.107 132.203 30.6439 133.616 31.0564C135.029 31.4689 136.491 31.6762 138.007 31.6762C139.757 31.6762 141.243 31.4097 142.464 30.8788C143.685 30.3478 144.601 29.6274 145.212 28.7195C145.822 27.8115 146.128 26.8088 146.128 25.7075C146.128 24.4245 145.795 23.406 145.129 22.654C144.464 21.902 143.665 21.3533 142.737 21.0039L142.733 21.0079Z" fill="#091E51"/>
<path d="M158.158 18.1203C157.1 16.9281 155.632 16.332 153.755 16.332C152.37 16.332 151.116 16.6439 149.995 17.2676C148.874 17.8913 147.993 18.7795 147.355 19.9362C146.717 21.0928 146.397 22.431 146.397 23.9528C146.397 25.4746 146.715 26.8128 147.355 27.9675C147.995 29.1222 148.872 30.0123 149.995 30.636C151.116 31.2598 152.37 31.5716 153.755 31.5716C155.761 31.5716 157.292 30.9301 158.35 29.6472V31.3525H162.425V16.5551H158.158V18.1223V18.1203ZM157.172 26.9352C156.462 27.6773 155.567 28.0484 154.491 28.0484C153.416 28.0484 152.495 27.6773 151.783 26.9352C151.072 26.1931 150.717 25.1983 150.717 23.9508C150.717 22.7034 151.072 21.7086 151.783 20.9665C152.493 20.2243 153.396 19.8533 154.491 19.8533C155.587 19.8533 156.46 20.2243 157.172 20.9665C157.883 21.7086 158.24 22.7034 158.24 23.9508C158.24 25.1983 157.885 26.1931 157.172 26.9352Z" fill="#091E51"/>
<path d="M172.927 16.8829H169.153V16.2493C169.153 14.8183 169.801 14.1038 171.094 14.1038C171.75 14.1038 172.325 14.2775 172.817 14.6268L173.938 11.5181C173.555 11.2615 173.076 11.0641 172.501 10.926C171.926 10.7878 171.32 10.7207 170.682 10.7207C168.876 10.7207 167.477 11.2161 166.484 12.207C165.49 13.1978 164.994 14.536 164.994 16.2216V31.3487H169.261V20.1811H172.925V16.8809L172.927 16.8829Z" fill="#091E51"/>
<path d="M182.953 27.7879C182.36 28.0169 181.681 28.1313 180.915 28.1313C179.95 28.1313 179.133 27.9478 178.468 27.5806C177.802 27.2135 177.314 26.6648 177.004 25.9306L187.889 23.8127C187.889 22.2731 187.547 20.9389 186.862 19.8099C186.179 18.6828 185.263 17.8203 184.115 17.2242C182.966 16.6281 181.689 16.3301 180.285 16.3301C178.79 16.3301 177.445 16.6558 176.252 17.3071C175.057 17.9584 174.118 18.8664 173.435 20.0309C172.752 21.1955 172.409 22.5021 172.409 23.9509C172.409 25.3996 172.754 26.728 173.447 27.8846C174.14 29.0393 175.125 29.9433 176.401 30.5946C177.677 31.246 179.145 31.5716 180.805 31.5716C183.467 31.5716 185.492 30.7742 186.878 29.1794L184.607 26.7043C184.097 27.1997 183.545 27.5609 182.953 27.7899V27.7879ZM177.661 20.6231C178.336 19.9263 179.21 19.577 180.287 19.577C181.163 19.577 181.91 19.8059 182.531 20.2638C183.151 20.7217 183.561 21.3356 183.761 22.1073L176.595 23.5107C176.633 22.283 176.988 21.3198 177.663 20.6231H177.661Z" fill="#091E51"/>
</svg>
