<?xml version="1.0" encoding="UTF-8"?> <svg xmlns="http://www.w3.org/2000/svg" xmlns:xlink="http://www.w3.org/1999/xlink" id="Groupe_14" data-name="Groupe 14" width="147.806" height="115.953" viewBox="0 0 147.806 115.953"><defs><clipPath id="clip-path"><rect id="Rectangle_8" data-name="Rectangle 8" width="147.806" height="115.952" fill="none"></rect></clipPath><clipPath id="clip-path-2"><rect id="Rectangle_9" data-name="Rectangle 9" width="147.806" height="115.953" fill="none"></rect></clipPath></defs><path id="Tracé_76" data-name="Tracé 76" d="M12.275,242.958l7.285,6.355,135.617-21.4-7.252-6.268Z" transform="translate(-7.386 -133.36)" fill="#d2b200"></path><path id="Tracé_77" data-name="Tracé 77" d="M12.275,109.6,147.487,88.355,71.687,0Z" transform="translate(-7.386 -0.002)" fill="#ffe800"></path><path id="Tracé_78" data-name="Tracé 78" d="M160.792.43,236.85,88.336l7.7,6.216L161.047,0Z" transform="translate(-96.745 -0.002)" fill="#978200"></path><g id="Groupe_11" data-name="Groupe 11" transform="translate(0 0)"><g id="Groupe_10" data-name="Groupe 10" clip-path="url(#clip-path)"><path id="Tracé_79" data-name="Tracé 79" d="M80.989,149.516c-1.436,0-1.993-1.926-1.993-3.792-.04-4.877,3.944-13.9,5.578-13.785.4,0,.8.482.8,1.084,0,1.085-1.753,3.071-3.308,7.4a21.032,21.032,0,0,0-1.073,4.814c0,.419.2.9.556.9,1.435,0,3.867-6.862,4.306-8.789.317-1.324,1.155-4.754,2.35-4.754.439,0,.8.723.8,1.323,0,2.53-2.353,5.958-2.353,9.569,0,1.746.359,3.251,1.394,4.095a1.837,1.837,0,0,1,.839,1.624,1.219,1.219,0,0,1-1.157,1.385c-.956,0-1.954-1.145-2.352-2.409a13.54,13.54,0,0,1-.517-3.67c-.918,1.8-2.232,5-3.865,5" transform="translate(-47.53 -79.384)" fill="#161615"></path><path id="Tracé_80" data-name="Tracé 80" d="M112.765,134.841a8.2,8.2,0,0,0,1.355-3.367c0-.423-.16-.663-.44-.663-.678,0-1.713,1.324-2.589,2.95a15.973,15.973,0,0,0-1.792,4.513,8.249,8.249,0,0,0,3.467-3.433m3.308-5.114c0,3.614-3.23,9.392-7.214,10.955-.2,1.866.678,2.887,1.873,2.887,3.426,0,6.138-6.981,6.936-6.981.277,0,.595.422.554.842-.117,2.108-5.179,9.452-8.446,9.271-1.795-.121-3.068-1.745-3.068-4.633,0-7.586,5.578-14.508,7.851-14.508.8,0,1.514.9,1.514,2.166" transform="translate(-64.204 -76.75)" fill="#161615"></path><path id="Tracé_81" data-name="Tracé 81" d="M146.7,126.491c-.079,5.177-4.222,6.622-5.063,6.683-.476,0-.836-.36-.836-1.085a1.361,1.361,0,0,1,1.195-1.5c.918-.3,2.631-1.024,2.631-2.829,0-.9-.478-1.324-1-1.324-1.434-.059-4.264,2.167-4.264,5.356a9.556,9.556,0,0,0,1.156,4.153,10.41,10.41,0,0,1,1.114,4.276c0,3.188-1.831,5.295-3.823,5.295-2.152,0-3.708-2.287-3.708-5.6,0-1.5.56-5.236,1.875-5.236a.569.569,0,0,1,.558.6,19,19,0,0,0-.637,3.85c0,1.869.955,3.49,2.191,3.49.957,0,1.593-1.083,1.593-2.467a9.334,9.334,0,0,0-1.155-3.853,10.275,10.275,0,0,1-1.195-4.576c0-4.875,4.024-7.943,6.813-7.943,1.275,0,2.591.542,2.551,2.707" transform="translate(-80.686 -74.478)" fill="#161615"></path><path id="Tracé_82" data-name="Tracé 82" d="M170.749,106.945c.638-1.506,3.428-8.546,4.464-8.546.4,0,.8.722.8,1.325,0,1.264-1.834,4.271-2.272,5.656a9.434,9.434,0,0,1,3.227-.963c.638,0,1.157.361,1.157,1.446,0,1.263-.837,1.263-1.475,1.383-1.515.24-3.071,1.265-4.583,1.866-1.434,3.432-4.1,11.256-4.1,15.167,0,.843.2,1.686.876,1.686,1.515,0,3.347-4.575,4.105-6.5.2-.483.437-1.023.837-1.023a.776.776,0,0,1,.638.841,19.5,19.5,0,0,1-1.674,4.516c-1.038,2.168-2.71,5.358-4.664,5.358-1,0-2.351-1.264-2.191-4.154,0-3.37.6-6.922,3.387-14.687a2.222,2.222,0,0,1-.837.242,1.359,1.359,0,0,1-1.236-1.385c0-1.142.836-1.386,1.433-1.505Z" transform="translate(-99.803 -59.205)" fill="#161615"></path><path id="Tracé_83" data-name="Tracé 83" d="M25.255,62.21C7.888,80.375,4.778,92.8,4.778,98.7c0,2.391.878,4.7,3.668,4.7,7.886,0,29.076-26.132,29.076-40.234,0-4.141-2.547-7.01-6.691-7.01l-2.548.161c1.275,1.274.8,1.99-.956,3.743Zm5.258,27.167C25.892,95.592,15.136,108.5,6.93,108.5c-4.7,0-6.93-4.62-6.93-8.763,0-14.5,15.136-34.178,26.132-43.019a20.312,20.312,0,0,0-7.25,2.867,4.371,4.371,0,0,1-1.433.478c-.4,0-4.78-1.912,1.273-5.018,5.257-2.709,9.958-3.746,13.7-3.268,6.137.8,9.8,4.942,9.881,10.917,0,8.761-6.692,19.757-11.791,26.686" transform="translate(0 -31.084)" fill="#161615"></path><path id="Tracé_84" data-name="Tracé 84" d="M227.954,126.263c-2.4,0-5.217,8.761-5.217,12.095,0,.741.194,1.669.773,1.669,2.241-.251,4.174-11.11,5.565-12.4-.232-.68-.541-1.359-1.12-1.359M226.6,138.234l-.076-.124c-.733,2.16-1.972,5.555-3.749,5.555-1.43,0-2.049-2.221-2.049-4.2,0-5.736,3.942-16.595,7.925-16.595a2.256,2.256,0,0,1,1.891,2.466,6.748,6.748,0,0,1-.347,1.975,2.291,2.291,0,0,1,.31,1.174,6.188,6.188,0,0,1-.579,2.157,32.927,32.927,0,0,0-1.779,8.392,3.358,3.358,0,0,0,1.005,2.84,1.687,1.687,0,0,1,.811,1.541c0,.864-.463,1.42-.966,1.42-1.392,0-2.473-1.914-2.473-4.81Z" transform="translate(-132.806 -73.93)" fill="#161615"></path><path id="Tracé_85" data-name="Tracé 85" d="M256.618,127.594c0,2.406-1.585,6.357-2.63,6.357-.192,0-1.313-.805,0-2.595.93-1.479,1.314-3.329.66-3.329-1.432,0-5.3,7.774-5.371,12.216,0,1.111.5,2.1,1.233,2.1,1.9,0,4.408-4.5,5.451-6.789,1.079-2.407,1.467-.372,1.467-.062,0,1.05-1.354,3.454-1.739,4.134-1.353,2.47-3.362,5.678-5.566,5.678-1.7,0-2.859-1.852-2.818-4.568.076-7.158,5.214-15.86,7.842-15.86.964,0,1.469,1.175,1.469,2.718" transform="translate(-148.799 -75.135)" fill="#161615"></path><path id="Tracé_86" data-name="Tracé 86" d="M281.139,135.836c-.928,0-1.7-.5-1.7-2.162a3.673,3.673,0,0,1,.424-1.663l-.079-.125a38.959,38.959,0,0,0-5.717,11.6c-.27.927-.658,2.593-1.43,2.593-.464,0-.813-.372-.813-1.174,0-1.663,2.008-8.946,2.512-10.611.5-1.79,2.706-8.332,4.134-8.332a.908.908,0,0,1,.771.99c0,1.479-2.24,4.194-2.7,7.034l.078.121c.695-1.667,5.91-9.069,6.957-9.069.305,0,.731.923.731,1.479,0,1.048-2.784,3.58-2.784,5.31,0,.491.235.8.545.8,1.158,0,3.014-2.651,3.476-2.651.31,0,.54.492.54.863,0,.989-1.081,2.221-1.466,2.715-.966,1.173-2.242,2.284-3.478,2.284" transform="translate(-163.552 -75.233)" fill="#161615"></path><path id="Tracé_87" data-name="Tracé 87" d="M312.409,133.7c0-.432,2.435-4.009,2.435-6.416,0-.619-.191-1.115-.578-1.115-1.005,0-2.9,3.767-3.441,4.938a22.132,22.132,0,0,0-1.855,7.281c0,.8.234,1.668.851,1.668,1.314,0,2.707-3.457,3.129-5.308a1.856,1.856,0,0,1-.541-1.048m4.212-7.837a32.078,32.078,0,0,1-2.28,10.3c-1.041,2.9-2.974,7.468-5.33,7.468-1.315,0-1.971-1.914-1.971-3.827a28.931,28.931,0,0,1,2.627-10.859c1.081-2.284,3.323-6.233,5.257-6.233,1.236,0,1.7,1.3,1.7,3.148" transform="translate(-184.74 -73.834)" fill="#161615"></path></g></g><path id="Tracé_88" data-name="Tracé 88" d="M63.844,195.2l-.3,1.381H61.682l-1.512,6.975H58.452l1.512-6.975H58.1l.3-1.381Z" transform="translate(-34.959 -117.449)" fill="#161615"></path><g id="Groupe_13" data-name="Groupe 13"><g id="Groupe_12" data-name="Groupe 12" clip-path="url(#clip-path-2)"><path id="Tracé_89" data-name="Tracé 89" d="M71.646,195.2h3.175c1.408,0,2.11.726,1.8,2.153a2.4,2.4,0,0,1-1.866,2.059l-.006.024c1.137.153,1.18.785.82,2.551-.179.878-.229,1.334.057,1.5l-.016.07H73.751a1.468,1.468,0,0,1-.025-.878l.3-1.6c.119-.655-.093-1.053-.785-1.053h-.919l-.766,3.534H69.836Zm.927,3.651h.717a1.422,1.422,0,0,0,1.56-1.252c.167-.773-.166-1.159-.942-1.159H73.1Z" transform="translate(-42.019 -117.45)" fill="#161615"></path><path id="Tracé_90" data-name="Tracé 90" d="M89.073,195.2H91.2l.445,8.356h-1.79l-.012-1.767H87.573l-.776,1.767h-1.79Zm-.9,5.207h1.671l-.01-3.757h-.025Z" transform="translate(-51.147 -117.45)" fill="#161615"></path><path id="Tracé_91" data-name="Tracé 91" d="M107.855,195.2l-.132,6.179h.035l2.6-6.179h1.778l-3.769,8.356h-2.208l-.146-8.356Z" transform="translate(-63.789 -117.449)" fill="#161615"></path><path id="Tracé_92" data-name="Tracé 92" d="M119.9,195.2h2.125l.445,8.356h-1.79l-.012-1.767H118.4l-.775,1.767h-1.79Zm-.9,5.207h1.672l-.01-3.757h-.025Z" transform="translate(-69.696 -117.45)" fill="#161615"></path><path id="Tracé_93" data-name="Tracé 93" d="M137.923,195.2l-1.261,5.828c-.181.831-.113,1.451.688,1.451s1.137-.62,1.316-1.451l1.263-5.828h1.718l-1.263,5.828a3.1,3.1,0,0,1-3.3,2.692c-1.4,0-2.622-.456-2.138-2.692L136.2,195.2Z" transform="translate(-81.127 -117.45)" fill="#161615"></path><path id="Tracé_94" data-name="Tracé 94" d="M150.789,195.2h1.9l.513,2.7,1.672-2.7h1.874l-2.877,4.13,1.209,4.225h-1.934l-.616-2.832-1.831,2.832h-1.885l3.04-4.225Z" transform="translate(-89.536 -117.449)" fill="#161615"></path><path id="Tracé_95" data-name="Tracé 95" d="M175.476,200.7l-.055.246c-.169.784-.052,1.287.855,1.287a1.263,1.263,0,0,0,1.25-1.03c.165-.761-.169-1.042-1.219-1.428-1.417-.515-1.986-1.134-1.683-2.528a2.985,2.985,0,0,1,3.17-2.457c1.528,0,2.5.645,2.149,2.247l-.05.235h-1.646c.169-.784-.006-1.241-.663-1.241a1.122,1.122,0,0,0-1.189.971c-.111.515-.025.831.637,1.136l1.2.561a1.694,1.694,0,0,1,1.145,2.212c-.383,1.768-1.654,2.564-3.516,2.564-1.945,0-2.517-.889-2.183-2.435l.074-.339Z" transform="translate(-104.447 -117.201)" fill="#161615"></path><path id="Tracé_96" data-name="Tracé 96" d="M192.9,195.2l-1.261,5.828c-.181.831-.113,1.451.688,1.451s1.137-.62,1.316-1.451l1.263-5.828h1.718l-1.263,5.828a3.1,3.1,0,0,1-3.3,2.692c-1.4,0-2.622-.456-2.138-2.692l1.263-5.828Z" transform="translate(-114.208 -117.45)" fill="#161615"></path><path id="Tracé_97" data-name="Tracé 97" d="M206.92,195.2h3.174c1.409,0,2.111.726,1.8,2.153a2.394,2.394,0,0,1-1.866,2.059l-.006.024c1.137.153,1.177.785.82,2.551-.178.878-.229,1.334.057,1.5l-.016.07h-1.862a1.479,1.479,0,0,1-.023-.878l.3-1.6c.119-.655-.093-1.053-.787-1.053h-.917l-.766,3.534h-1.72Zm.927,3.651h.715a1.422,1.422,0,0,0,1.561-1.252c.167-.773-.167-1.159-.943-1.159h-.811Z" transform="translate(-123.409 -117.45)" fill="#161615"></path><path id="Tracé_98" data-name="Tracé 98" d="M234.441,197.775c.262-1.217.126-1.744-.649-1.744-.871,0-1.259.855-1.771,3.218-.548,2.528-.29,2.984.451,2.984.62,0,1.143-.315,1.534-2.118h1.718c-.391,1.8-1.181,3.359-3.436,3.359-2.579,0-2.511-1.8-1.961-4.341s1.263-4.342,3.843-4.342c2.459,0,2.254,1.767,1.99,2.984Z" transform="translate(-138.397 -117.202)" fill="#161615"></path><path id="Tracé_99" data-name="Tracé 99" d="M250.269,194.791c2.579,0,2.509,1.8,1.959,4.342s-1.263,4.341-3.84,4.341-2.509-1.8-1.959-4.341,1.264-4.342,3.841-4.342m-1.613,7.443c1.014,0,1.368-.853,1.854-3.1s.505-3.1-.509-3.1-1.37.866-1.854,3.1-.505,3.1.509,3.1" transform="translate(-148.085 -117.202)" fill="#161615"></path><path id="Tracé_100" data-name="Tracé 100" d="M263.551,195.2h3.174c1.409,0,2.111.726,1.8,2.153a2.394,2.394,0,0,1-1.866,2.059l-.006.024c1.137.153,1.177.785.82,2.551-.179.878-.229,1.334.056,1.5l-.016.07h-1.862a1.478,1.478,0,0,1-.023-.878l.3-1.6c.119-.655-.093-1.053-.787-1.053h-.917l-.766,3.534h-1.72Zm.927,3.651h.715a1.422,1.422,0,0,0,1.561-1.252c.167-.773-.167-1.159-.943-1.159H265Z" transform="translate(-157.483 -117.45)" fill="#161615"></path><path id="Tracé_101" data-name="Tracé 101" d="M280.429,195.2h2.817c2.386,0,2.468,1.6,1.935,4.061-.641,2.96-1.574,4.294-3.854,4.294h-2.71Zm.177,7.115h.764c1.194,0,1.592-.738,2.084-3.007.41-1.9.467-2.867-.847-2.867h-.727Z" transform="translate(-167.638 -117.45)" fill="#161615"></path><path id="Tracé_102" data-name="Tracé 102" d="M302.188,195.2l-.3,1.381h-3.042l-.428,1.967h2.865l-.3,1.381H298.12l-.486,2.247H300.8l-.3,1.381h-4.88l1.81-8.356Z" transform="translate(-177.866 -117.449)" fill="#161615"></path><path id="Tracé_103" data-name="Tracé 103" d="M312.089,200.7l-.054.246c-.169.784-.053,1.287.855,1.287a1.263,1.263,0,0,0,1.25-1.03c.165-.761-.169-1.042-1.219-1.428-1.417-.515-1.986-1.134-1.683-2.528a2.985,2.985,0,0,1,3.17-2.457c1.528,0,2.5.645,2.15,2.247l-.051.235H314.86c.169-.784-.006-1.241-.662-1.241a1.122,1.122,0,0,0-1.19.971c-.111.515-.025.831.637,1.136l1.2.561a1.694,1.694,0,0,1,1.145,2.212c-.383,1.768-1.654,2.564-3.516,2.564-1.945,0-2.517-.889-2.183-2.435l.074-.339Z" transform="translate(-186.644 -117.201)" fill="#161615"></path></g></g></svg> 