<?xml version="1.0" encoding="utf-8"?>
<!-- Generator: Adobe Illustrator 26.0.1, SVG Export Plug-In . SVG Version: 6.00 Build 0)  -->
<svg version="1.1" id="Calque_1" xmlns="http://www.w3.org/2000/svg" xmlns:xlink="http://www.w3.org/1999/xlink" x="0px" y="0px"
	 width="832.7px" height="786.5px" viewBox="0 0 832.7 786.5" enable-background="new 0 0 832.7 786.5" xml:space="preserve">
<path fill="#76B82A" d="M416.2,144.6c-138,0-249.8,111.8-249.8,249.8c0,138,111.8,249.8,249.8,249.8S666,532.4,666,394.5
	C666,256.5,554.2,144.6,416.2,144.6z M424.9,67h-18.1v54h18.1V67z M688.7,385.4v18.1h54v-18.1H688.7z M91,403.5h54v-18.1H91V403.5z
	 M406.8,719.7h18.1v-54h-18.1V719.7z"/>
<path fill="#FFFFFF" d="M248.9,277.1h8.2c22.5,0,34.9-11.8,34.9-33.1c0-20.6-11.5-32.9-30.8-32.9h-41.4v105.2h29.1V277.1z
	 M248.9,232.7h3.9c6.2,0,9.2,3.7,9.2,11.4c0,7.8-2.9,11.4-9.2,11.4h-3.9V232.7z M395.5,318.3c25.3,0,36-11.6,36-38.6v-68.6h-29.1
	v75.4c0,5.8-0.5,11.4-6.9,11.4c-3.5,0-6.9-0.9-6.9-11.4v-75.4h-29.1v68.6C359.5,306.8,370.2,318.3,395.5,318.3z M465.6,275.1h5.9
	c5.4,0,7.6,1.9,7.6,13.5v6.9c0,4.3,0,14.4,2.7,20.1l0.3,0.7h30.4V313l-0.6-0.3c-1.3-0.6-1.7-1.4-2.3-2.4l-0.2-0.4
	c-1.1-1.7-1.1-8.9-1.1-13.6v-8.8c0-13.6-4-20.9-13.1-23.4c9.1-3.2,13.8-11.4,13.8-24.5c0-13-5.1-28.5-29.4-28.5h-43.1v105.2h29.1
	V275.1z M465.6,232.7h4c7.4,0,10.2,3,10.2,10.8c0,9.2-5.5,11.1-10.1,11.1h-4.2V232.7z M544.7,211.1h-29.1v105.2h29.1V211.1z
	 M357.4,292.1h-33v-81h-29.1v105.2h62.1V292.1z M510.4,320.7v43.8h-15.6v-43.8h-34.6v123h34.6v-49.2h15.6v49.2H545v-123H510.4z
	 M330.9,394.4h37.2v-27.9h-37.2v-16.9h39.7v-28.9h-69.8h-4.5h-77v29.9h23.4v93h34.6v-93h19v93h75.8v-28.9h-41.2V394.4z M423.7,393.9
	c0,23.4-2,27.5-7.6,27.5c-7.4,0-8.8-6.2-8.8-39.3s1.4-39.3,8.8-39.3c3.7,0,6.8,1.2,6.8,15.8v8.4h33.6v-9.3
	c0-26.3-13.6-39.6-40.4-39.6c-32.8,0-44.4,16.7-44.4,63.8c0,25,2.5,39.1,8.5,48.7c6.6,10.5,17.7,15.2,35.9,15.2
	c12,0,21.5-2.9,28.3-8.6c8.6-7.2,12.9-18.8,12.9-34.6v-10.6h-33.6V393.9z"/>
<rect x="558.7" y="97.4" fill="#D15098" width="72.9" height="72.9"/>
<rect x="558.7" y="170.3" fill="#99AEDB" width="72.9" height="72.9"/>
<rect x="558.7" y="243.2" fill="#FFCC00" width="72.9" height="72.9"/>
<path d="M326.5,527h6.9v-43.1h-6.9V527z M378.3,513.9c0,1.2-0.1,2.3-0.4,3.4c-0.3,1-0.7,1.9-1.3,2.7c-0.6,0.7-1.4,1.3-2.4,1.8
	c-1,0.4-2.2,0.7-3.6,0.7c-1.9,0-3.4-0.6-4.4-1.7c-1-1.1-1.6-3.1-1.6-5.8v-19.2h-6.9v19.8c0,4.1,0.9,7.2,2.8,9.2
	c1.8,2,4.8,3.1,8.9,3.1c1.7,0,3.4-0.5,5.1-1.4c1.7-0.9,2.9-2.2,3.8-3.8h0.1v4.4h6.8v-31.2h-6.9V513.9z M248.2,511.2
	c-1-0.7-2-1.2-3.2-1.6c-1.2-0.4-2.4-0.7-3.7-1c-1.3-0.3-2.5-0.5-3.8-0.8c-1.2-0.2-2.3-0.5-3.2-0.9c-1-0.3-1.7-0.8-2.3-1.3
	c-0.6-0.5-0.9-1.2-0.9-2.1c0-0.7,0.2-1.2,0.6-1.7c0.4-0.4,0.9-0.7,1.5-1c0.6-0.2,1.2-0.4,1.9-0.5c0.7-0.1,1.2-0.1,1.7-0.1
	c1.5,0,2.9,0.3,4.1,0.8c1.2,0.6,1.9,1.7,2.3,3.3h7.2c-0.2-1.7-0.7-3.2-1.5-4.4c-0.8-1.2-1.8-2.2-3-3c-1.2-0.8-2.5-1.3-4-1.7
	c-1.5-0.3-3-0.5-4.6-0.5c-1.4,0-2.9,0.1-4.4,0.4c-1.6,0.3-3,0.8-4.2,1.5c-1.3,0.7-2.3,1.6-3.1,2.8c-0.8,1.1-1.2,2.6-1.2,4.3
	c0,1.6,0.3,2.9,0.8,4c0.6,1.1,1.3,1.9,2.3,2.6c0.9,0.7,2,1.2,3.2,1.6c1.2,0.4,2.4,0.7,3.7,1c1.2,0.3,2.5,0.5,3.7,0.8
	c1.2,0.2,2.3,0.5,3.2,0.9c0.9,0.3,1.7,0.8,2.3,1.4c0.6,0.6,0.9,1.3,1,2.2c0,0.9-0.2,1.6-0.6,2.1c-0.5,0.5-1.1,1-1.8,1.2
	c-0.7,0.3-1.5,0.5-2.3,0.6c-0.8,0.1-1.6,0.2-2.2,0.2c-1.9,0-3.4-0.4-4.8-1.2c-1.3-0.8-2.1-2.2-2.3-4.2h-6.9c0,1.9,0.4,3.5,1.1,4.8
	c0.7,1.3,1.7,2.5,2.9,3.4c1.2,0.9,2.7,1.6,4.4,2c1.7,0.4,3.5,0.7,5.5,0.7c1.6,0,3.2-0.2,4.9-0.5c1.7-0.4,3.2-0.9,4.5-1.8
	c1.4-0.8,2.5-1.9,3.3-3.1c0.8-1.3,1.3-2.9,1.3-4.7c0-1.5-0.3-2.8-0.9-3.9C250,512.8,249.2,511.9,248.2,511.2z M299.5,499.6
	c-1.4-1.4-3-2.6-5-3.4c-2-0.8-4.2-1.2-6.7-1.2c-2.5,0-4.7,0.4-6.7,1.2c-2,0.8-3.6,2-5,3.4c-1.4,1.5-2.4,3.2-3.1,5.2
	c-0.7,2-1.1,4.2-1.1,6.6c0,2.4,0.4,4.6,1.1,6.6c0.7,2,1.7,3.7,3.1,5.2c1.3,1.5,3,2.6,5,3.4c2,0.8,4.2,1.2,6.7,1.2
	c2.5,0,4.7-0.4,6.7-1.2c2-0.8,3.6-2,5-3.4c1.3-1.5,2.4-3.2,3.1-5.2c0.7-2,1.1-4.2,1.1-6.6c0-2.4-0.4-4.6-1.1-6.6
	C301.9,502.8,300.8,501,299.5,499.6z M296.2,515.4c-0.3,1.3-0.9,2.5-1.6,3.5c-0.7,1-1.7,1.9-2.8,2.5c-1.1,0.6-2.5,1-4,1
	c-1.5,0-2.9-0.3-4-1c-1.1-0.6-2.1-1.5-2.8-2.5c-0.7-1-1.3-2.2-1.6-3.5c-0.3-1.3-0.5-2.7-0.5-4c0-1.3,0.2-2.7,0.5-4
	c0.3-1.3,0.9-2.5,1.6-3.5c0.7-1,1.6-1.9,2.8-2.5c1.1-0.6,2.5-1,4-1c1.5,0,2.9,0.3,4,1c1.1,0.6,2.1,1.5,2.8,2.5
	c0.7,1,1.3,2.2,1.6,3.5c0.3,1.3,0.5,2.7,0.5,4C296.7,512.7,296.6,514.1,296.2,515.4z M418.3,486.4h-6.9v9.4h-5.2v5.1h5.2v18.4
	c0,1.3,0.2,2.4,0.4,3.4c0.2,1,0.6,1.8,1.3,2.5c0.6,0.7,1.5,1.2,2.6,1.5c1.1,0.3,2.6,0.5,4.4,0.5c0.8,0,1.5,0,2.2-0.1
	c0.7-0.1,1.5-0.2,2.2-0.2v-5.3c-0.5,0.1-1,0.2-1.5,0.2c-0.5,0-1,0-1.4,0c-0.8,0-1.4-0.1-1.8-0.3c-0.4-0.2-0.8-0.5-1-0.8
	c-0.2-0.4-0.4-0.8-0.4-1.3c-0.1-0.5-0.1-1.1-0.1-1.9v-16.7h6.2v-5.1h-6.2V486.4z M503.8,499.6c-1.3-1.4-3-2.6-5-3.4
	c-2-0.8-4.2-1.2-6.7-1.2c-2.5,0-4.7,0.4-6.7,1.2c-2,0.8-3.6,2-5,3.4c-1.4,1.5-2.4,3.2-3.1,5.2c-0.7,2-1.1,4.2-1.1,6.6
	c0,2.4,0.4,4.6,1.1,6.6c0.7,2,1.7,3.7,3.1,5.2c1.4,1.5,3,2.6,5,3.4c2,0.8,4.2,1.2,6.7,1.2c2.5,0,4.7-0.4,6.7-1.2c2-0.8,3.6-2,5-3.4
	c1.3-1.5,2.4-3.2,3.1-5.2c0.7-2,1.1-4.2,1.1-6.6c0-2.4-0.4-4.6-1.1-6.6C506.2,502.8,505.2,501,503.8,499.6z M500.6,515.4
	c-0.3,1.3-0.9,2.5-1.6,3.5c-0.7,1-1.7,1.9-2.8,2.5c-1.1,0.6-2.5,1-4,1c-1.5,0-2.9-0.3-4-1c-1.1-0.6-2.1-1.5-2.8-2.5
	c-0.7-1-1.3-2.2-1.6-3.5c-0.3-1.3-0.5-2.7-0.5-4c0-1.3,0.2-2.7,0.5-4c0.3-1.3,0.9-2.5,1.6-3.5c0.7-1,1.7-1.9,2.8-2.5
	c1.1-0.6,2.5-1,4-1c1.5,0,2.9,0.3,4,1c1.1,0.6,2.1,1.5,2.8,2.5c0.7,1,1.3,2.2,1.6,3.5c0.3,1.3,0.5,2.7,0.5,4
	C501.1,512.7,500.9,514.1,500.6,515.4z M446.6,527h6.9v-31.2h-6.9V527z M605.2,511.2c-0.9-0.7-2-1.2-3.2-1.6c-1.2-0.4-2.4-0.7-3.7-1
	c-1.3-0.3-2.5-0.5-3.8-0.8c-1.2-0.2-2.3-0.5-3.2-0.9c-1-0.3-1.7-0.8-2.3-1.3c-0.6-0.5-0.9-1.2-0.9-2.1c0-0.7,0.2-1.2,0.6-1.7
	c0.4-0.4,0.9-0.7,1.5-1c0.6-0.2,1.2-0.4,1.9-0.5c0.7-0.1,1.2-0.1,1.7-0.1c1.5,0,2.9,0.3,4.1,0.8c1.2,0.6,1.9,1.7,2.3,3.3h7.2
	c-0.2-1.7-0.7-3.2-1.5-4.4c-0.8-1.2-1.8-2.2-3-3c-1.2-0.8-2.5-1.3-4-1.7c-1.5-0.3-3-0.5-4.6-0.5c-1.4,0-2.9,0.1-4.4,0.4
	c-1.6,0.3-3,0.8-4.2,1.5c-1.3,0.7-2.3,1.6-3.1,2.8c-0.8,1.1-1.2,2.6-1.2,4.3c0,1.6,0.3,2.9,0.8,4c0.6,1.1,1.3,1.9,2.3,2.6
	c0.9,0.7,2,1.2,3.2,1.6c1.2,0.4,2.4,0.7,3.7,1c1.2,0.3,2.5,0.5,3.7,0.8c1.2,0.2,2.3,0.5,3.2,0.9c0.9,0.3,1.7,0.8,2.3,1.4
	c0.6,0.6,0.9,1.3,1,2.2c0,0.9-0.2,1.6-0.6,2.1c-0.5,0.5-1.1,1-1.8,1.2c-0.7,0.3-1.5,0.5-2.3,0.6c-0.8,0.1-1.6,0.2-2.2,0.2
	c-1.9,0-3.4-0.4-4.8-1.2c-1.3-0.8-2.1-2.2-2.3-4.2h-6.9c0,1.9,0.4,3.5,1.1,4.8c0.7,1.3,1.7,2.5,2.9,3.4c1.2,0.9,2.7,1.6,4.4,2
	c1.7,0.4,3.5,0.7,5.5,0.7c1.6,0,3.2-0.2,4.9-0.5c1.7-0.4,3.2-0.9,4.5-1.8c1.4-0.8,2.5-1.9,3.3-3.1c0.8-1.3,1.3-2.9,1.3-4.7
	c0-1.5-0.3-2.8-0.9-3.9C607,512.8,606.2,511.9,605.2,511.2z M547,494.9c-2.1,0-3.9,0.5-5.6,1.5c-1.7,1-3.1,2.3-4.1,4.1l-0.1-0.1
	v-4.6h-6.5V527h6.9v-18.4c0-1.1,0.2-2.2,0.5-3.2c0.4-1,0.9-1.9,1.5-2.6c0.6-0.7,1.4-1.3,2.4-1.8c0.9-0.4,2-0.6,3.1-0.6
	c2.1,0,3.6,0.6,4.5,1.7c1,1.1,1.5,2.9,1.6,5.3V527h6.9v-21.5c0-3.5-1-6.2-3-8C553.1,495.8,550.4,494.9,547,494.9z M446.6,490.4h6.9
	v-6.5h-6.9V490.4z M797.1,561.6c-0.1-0.2-0.3-1-0.6-1.8c-0.2-0.7-0.4-1.3-0.5-1.5c-0.2-0.4-0.6-1.7-0.8-2.2c0-0.1-0.1-0.3-0.1-0.5
	c-0.2-0.9-0.5-2.5-0.8-3.7c-0.3-1.2-0.4-2.7-0.5-4.3c0-0.5-0.1-0.9-0.1-1.4c-0.1-0.9-0.3-2.7-1.2-6.5l0-0.1
	c-0.2-0.6-1.2-3.6-1.5-4.4c-0.1-0.3-0.2-0.7-0.3-1c-0.2-0.6-0.3-1.1-0.5-1.3c-0.1-0.2-0.5-0.6-0.9-1.1c-0.4-0.4-0.8-0.9-0.9-1.1
	c-0.2-0.3-0.6-1.3-0.7-1.4c0.1-0.2,0.1-0.3,0.1-0.6c0-0.1-0.1-0.3-0.2-0.5c-0.2-0.5-0.5-1.3-0.5-1.4c0-0.2-0.1-1.2-0.2-1.7
	c0-0.4-0.3-1.2-0.5-1.7c-0.1-0.2-0.2-0.5-0.2-0.5c0-0.1,0-0.2-0.1-0.2c0-0.2-0.1-0.3-0.1-0.4c0-0.2-0.3-0.7-0.4-0.8
	c0.1-0.7-0.2-2.1-0.4-2.9l0-0.1c-0.1-0.5-0.2-1.5-0.3-2.3c0-0.3-0.1-0.6-0.1-0.7c-0.1-0.6-0.6-2-0.8-2.3c-0.2-0.3-0.5-1.1-0.6-1.3
	c-0.1-0.2-0.5-1.3-1.2-2.4c-0.6-1-2.2-2.4-2.4-2.6c-0.3-1.1-1.3-2.4-1.5-2.7c-0.4-0.5-1.2-0.9-1.3-1c0-0.1-0.2-0.5-0.4-0.7
	c-0.2-0.3-0.8-0.6-1-0.7l0.1-0.6c0,0,0.2-0.1,0.3-0.2c0.2-0.2,0-0.9-0.3-1.3c-0.2-0.5-0.8-0.8-1.2-1c-0.2-0.1-0.2-0.4-0.2-0.5
	c0.1-0.5-0.2-1.1-0.9-1.5c-0.6-0.3-1.9-0.6-2.2-0.6l-0.1-2.4c0.1-0.1,0.3-0.4,0.4-0.5c0,0,0,0,0-0.1c0.1-0.2,0.1-0.4,0.3-0.7
	c0.1-0.3,0.4-1.1,0.4-2.1c0-0.7-0.5-1-0.7-1.1c0.4-0.4,1-1,1.5-1.8c0.3-0.4,0.2-0.8,0.1-1.2c-0.1-0.2-0.3-0.4-0.6-0.6
	c-0.2-0.1-0.3-0.3-0.4-0.4c0-0.1-0.1-0.3-0.2-0.6c-0.2-0.8-0.6-2.3-1.2-3.7c-0.9-2-2.6-3.6-2.6-3.6c-1.1-1-3.5-2-5.8-2
	c-0.4,0-0.8,0-1.2,0.1c-2.7,0.5-6.1,2.4-7.3,5c-1.2,2.7-1.2,3.7-1.1,6l0,0.2c0,1.5,0.1,2.4,0.2,2.9c0,0.4,0.1,0.6,0,0.7
	c0,0.1,0,0.2-0.1,0.3c-0.2,0.6-0.5,1.6,0.1,2.1c0.6,0.5,1.7,0.8,1.9,0.8c0.2,0.3,1.3,1.8,1.4,1.8c0.1,0.1,0.4,0.2,0.5,0.2
	c0,0.2,0.1,0.8,0.4,1.3c0.4,0.5,1.8,2.3,2.2,2.8c-0.2,0.1-0.6,0.4-0.6,0.5c0,0,0,0.1,0,0.1l0.1,0.1c-0.3,0.3-1.7,1.5-2.1,1.9
	c-0.2,0.2-0.5,0.4-0.8,0.7c-0.3,0.3-0.6,0.6-0.7,0.6l-0.1,0c-0.2,0-0.4,0.1-0.5,0.2c-0.1,0-0.3,0.3-0.7,0.7c-0.4,0.4-0.9,0.9-1,1
	c-0.1,0.1-0.4,0.2-0.4,0.5c0,0,0,0.1,0,0.1c0,0.2-0.1,0.5-0.2,0.6c-0.4,0.4-0.7,0.7-0.8,0.9c0,0.1-0.1,0.2-0.2,0.4
	c-0.2,0.4-0.5,1.2-0.7,1.3c-0.2,0.2-0.6,0.7-0.7,0.8c-0.1,0.1-0.2,0.2-0.2,0.3c0,0.1,0,0.3-0.1,0.4c-0.1,0.1-0.5,0.2-0.6,0.3
	c-0.1-0.1-0.3-0.5-0.8-0.9c-0.5-0.4-1.6-0.8-1.9-0.9c0-0.5,0-1.5,0-2.4c0-0.8,0-1.4,0-1.7c0-0.5,0-2.1,0-2.4c0.1,0,0.3-0.1,0.5-0.2
	c0.3-0.1,0.7-0.2,1-0.1l0.1,0c0.1,0,0.3,0.1,0.5,0.1c0.4,0,0.8-0.2,1.2-0.5c0.9-0.7,0.7-1.9,0.5-2.3c-0.2-0.3-0.8-0.8-1.3-1.2
	c-0.1-0.1-0.2-0.2-0.3-0.2c-0.4-0.3-0.4-0.7-0.4-0.7c0-0.7-0.2-1.2-0.3-1.4l0,0c0-0.1-0.1-0.4-0.1-0.7c0-0.3-0.2-1.6-0.2-1.8
	c-0.1-0.2-0.3-0.5-0.4-0.5l0-0.2l0.3-0.6l0,0l-0.2-0.8l0-0.1l-0.2,0l0-1.2h0.6l0.1-2.5l0.5,0.8v-2.7l-0.5,0.5l-0.1-5.6l0-0.1h-0.6
	l0-2v-0.1h-0.4l-0.1,1.9l-0.6,0c-0.1-4.5-0.3-13.9-0.3-14.9c0-0.4-0.1-2.7-0.2-6.9c0.3-3.7,0.8-13.6,0.6-16.8
	c-0.1-3.2-0.8-11.9-1.4-18.5c-0.1-6.1-0.2-12-0.2-13.4c0-2.7-0.1-16.9-0.1-22.3c0.5-0.4,0.7-1,0.4-1.8c-0.3-1-0.9-1.6-1.7-2
	c-0.7-0.3-1.5-0.2-2.4,0c-3.6-3.4-10.4-10.4-21.2-23.7c-3.5-4.6-7.3-9.7-11-14.9c-8.2-12.9-19-33.4-30-55.3
	c-12.8-35.1-47-109.7-47.4-110.6l-1.1,0.5c0.3,0.7,28.5,61.9,43.2,99.5c-21.3-43.1-41.6-87.8-41.9-88.6l-0.2-0.4l-0.4,0.1
	c-22.8,3.5-41.4,0.8-53-2c-11.1-2.7-18.1-6.1-19.6-6.9V179h-1.2v3.4l0.3,0.2c0.3,0.2,29.4,15.7,73.2,9.2
	c1.8,3.9,16.4,36.1,33.2,70.9c4.3,8.9,9,18.4,13.8,27.9c1,2.7,1.8,5.1,2.5,7.2c4.3,13.3,15.8,31.6,27.6,48.1c2.3,3.6,4.4,6.7,6.2,9
	c1.7,2.2,3.4,4.2,4.9,6.1c9.1,12,16.8,21.3,19.2,24.1l-0.1,0.9c0,0.2,0.1,0.3,0.2,0.4c0.1,0.1,0.3,0,0.4-0.1c0,0,0.1-0.1,0.1-0.1
	c0,0,0-0.1,0.1-0.1l0,0c0.3,0.2,0.6,0.4,0.9,0.6c0.2,0.2,0.5,0.3,0.7,0.5c0.2,0.1,0.4,0.3,0.6,0.4c0.5,6.9,2,27.2,2.6,32.5
	c0.1,1,0.2,2.1,0.4,3.3c0,0.4,0,0.8,0,1.1l0,0.6c0.1,5.8,0.2,12,0.2,13.3c0,1.5,0.2,9.4,0.5,16.4l0,1.6c0,0.7,0,1.5,0.1,2.2
	c0,0.4-0.1,0.7-0.1,0.9c-0.3,1.9-1.2,18.5-1.2,20.4v10.3c0,0-0.1,0-0.1,0c-0.3,0-0.9-0.1-1-0.1c-0.2,0-0.5,0.1-0.6,0.3
	c-0.2,0.2-0.3,0.6-0.1,1c0.2,0.5,0.5,1.5,0.5,1.6c0,0.1,0.1,0.4,0.1,0.5l-0.4,0.3c-0.1,0.1-0.3,0.3-0.4,0.3c-0.1,0-0.8,0.4-0.9,0.8
	c-0.1,0.3-0.1,0.5-0.1,0.5l-0.8,0.4c0,0-0.3,0.1-0.3,0.4c0,0.1,0,0.1,0,0.2c0,0.3,0,0.7,0,0.8c-0.2,0.4-0.3,0.7-0.2,0.9
	c0,0.1,0.1,0.3,0.2,0.5c0.1,0.2,0.2,0.5,0.2,0.6c0,0,0,0.1,0,0.3c0,0.4-0.1,1.1,0,1.4c0.1,0.4,0.5,1.4,0.8,1.6
	c0.1,0.1,0.2,0.1,0.3,0.2l-12.7,35.3c-0.4,0.1-0.9,0.2-1.2,0.3l-0.1,0c-0.4,0.2-0.7,0.3-1,0.3c-0.4,0-2.1,0-2.8,0.1
	c-0.7,0-3,0.3-3.1,0.4c0,0-0.1,0.1-0.2,0.1c-0.1,0.1-0.3,0.2-0.4,0.2c-0.1,0-1.3,0-1.6,0.1c-0.1,0-0.5,0.1-0.9,0.1
	c-0.9,0.1-2.4,0.3-2.8,0.3c-0.1,0-0.2,0-0.3,0c-0.7,0.1-1.9,0.2-2.8,0.5c-1,0.3-4.3,1.9-4.9,2.4c-0.3,0.2-0.6,0.5-0.8,0.7
	c-0.3,0.2-0.5,0.4-0.6,0.5c-0.1,0.1-0.6,0.6-1,1c-0.1,0.2-0.3,0.3-0.4,0.4c-0.3,0.3-0.9,1.3-1.5,2c-0.3,0.4-0.6,0.8-0.6,0.9
	c0,0-0.1,0.1-0.3,0.2c-0.3,0.3-0.8,0.7-1.1,1c-0.4,0.4-1,1.1-1.1,1.3l0,0.1c-0.1,0.2-0.2,0.5-0.3,0.6c-0.1,0-0.2,0.1-0.3,0.2
	c-0.2,0.1-0.5,0.4-0.6,0.4c-0.2,0-0.5,0.1-0.7,0.2l-0.1,0c-0.2,0.1-1.7,1.2-2.4,1.8c-0.7,0.6-1.3,1.2-1.7,1.4
	c-0.1,0.1-0.3,0.2-0.5,0.3c-0.6,0.3-1.2,0.8-1.4,0.9c-0.2,0.2-2.1,2.4-2.4,2.8c-0.1,0.1-0.1,0.2-0.2,0.3c-0.2,0.3-0.4,0.7-0.7,0.8
	c-0.3,0.1-1.4,0.5-1.9,0.6c-0.1,0-0.2,0.1-0.2,0.1c-0.1,0-0.1,0.1-0.1,0.1c-0.1,0.1-0.1,0.2-0.3,0.2c-0.1,0-0.2,0-0.3,0
	c-0.5,0-1.3,0-1.5,0.4c-0.2,0.4-0.3,0.8-0.3,1c-0.2,0-0.7,0.1-1,0.2c-0.4,0.1-2.8,0.7-2.8,0.8c0,0-0.3,0.1-0.3,0.3
	c0,0.1,0,0.4,0,0.5c-0.2-0.1-0.5-0.2-0.6-0.4c-0.1-0.2-0.4-0.3-0.5-0.3c-0.1,0-0.2,0.1-0.2,0.2l0,0.1c-0.1,0.2-0.2,0.5-0.2,0.6
	c-0.1,0.1-2.2,1.5-2.2,1.5c0,0-0.3,0.1-0.4,0.3c-0.1,0.1-0.2,0.2-0.2,0.2c-0.1,0-0.2,0-0.3,0.1c-0.1,0-0.2,0.1-0.2,0.1
	c-0.1-0.1-0.2-0.2-0.3-0.2c0,0-0.2,0-0.4,0c-0.3,0-0.7-0.1-0.9-0.1c-0.1,0-0.1,0-0.1,0c0,0-0.1,0-0.1,0.1c-0.1,0-0.1,0-0.1,0
	c-0.1-0.1-0.2-0.2-0.4-0.2c-0.1,0-0.1-0.1-0.2-0.1c-0.1-0.1-0.3-0.1-0.4-0.1c-0.1,0-0.2,0-0.3,0.1c0,0-0.1,0-0.1,0.1
	c-0.1,0.1-0.1,0.1-0.3,0.1c-0.1,0-0.1,0-0.3,0c-0.2,0-0.4,0-0.5,0c-0.1,0-0.2,0-0.2,0c-0.1-0.1-0.2-0.2-0.4-0.3l-0.1,0
	c-0.2-0.1-0.5-0.2-0.6-0.3c-0.1,0-0.2-0.1-0.2-0.1c-0.2-0.1-0.4-0.2-0.5-0.3c-0.1-0.1-0.3-0.1-0.5-0.2c-0.1,0-0.3,0-0.3-0.1
	c-0.1-0.1-0.7-0.6-0.8-0.6c-0.1,0-0.3-0.1-0.7-0.2c-0.2-0.1-0.7-0.2-1.2-0.2c-0.3,0-0.5,0-0.6,0.1c-0.4,0.2-0.8,0.4-0.9,0.4
	c-0.1,0-0.5,0-0.7,0.2c-0.2,0.2-1.1,1.5-1.1,1.5c0,0-0.4,0.6-0.2,1.1c0.2,0.5,1.1,1.6,2.8,3.2c1.6,1.4,4.7,3.8,6.6,4.6l1.2,0.6l0,0
	c0,0,0.4,0,0.6-0.3l2.6,1c0,0,0.3,0.2,0.2,0.4c-0.1,0.2-0.3,0.7,0,1c0.9,0.9,2.2,1.8,4,2.6c2.3,1.1,2.7,1.1,2.9,1.1c0,0,0.1,0,0.1,0
	c0,0,0,0,0.1,0c0.1,0,0.2,0,0.3,0c0.4,0,0.7-0.2,1-0.6c0.4-0.5,0.7-1.1,0.9-1.5c0.1-0.2,0.2-0.4,0.3-0.6c0.2-0.3,0.7-1.1,0.7-1.1
	l0.1-0.6l0.4,0.3l0,0l0,0c0,0,0,0,0.1,0c0.1,0,0.3,0,0.6-0.2l1.8-1.6c0,0,0.3-0.2,0.4-0.4c0-0.1,0.1-0.1,0.1-0.1c0,0,0,0,0,0l0,0
	l0,0c0,0,0.6-0.2,1.1-0.4c0.5-0.2,1.9-1.5,2.4-2c0.7-0.6,1.6-1.9,1.7-2.1c0,0,0.2-0.1,0.4-0.1c0.2,0,0.6-0.1,1-0.3
	c0.7-0.3,1.6-1,1.9-1.3c0.1-0.1,0.1-0.1,0.1-0.1c0.1,0,0.2-0.1,0.3-0.1c0.1,0,0.3-0.1,0.4-0.2c0.3-0.1,1.5-1,1.8-1.3
	c-0.1,0.6-0.3,2.9-0.4,3.8c0,0.2-0.1,0.5-0.1,0.8c-0.2,1.2-0.4,2.9-0.6,4.1c-0.1,0.6-0.2,1.2-0.4,1.8c-0.2,1-0.4,1.9-0.4,2.3
	c0,0.4,0,1,0,1.4c0,0.3,0,0.5,0,0.6c0,0.2-0.1,1-0.1,1.2c-0.1,0-0.2,0.1-0.2,0.2c0,0.1,0,0.3-0.1,0.5c0,0.4-0.1,0.9-0.1,1
	c-0.1,0.4-0.3,1.2,0,1.5c0.2,0.2,0.8,0.4,1.2,0.5l-0.2,0.2l-0.3,0.4c0,0-0.1,0-0.2,0c-0.1,0-0.2,0.1-0.2,0.1l0,0
	c0,0.1-0.1,0.3-0.2,0.3c-0.2,0-0.3,0.1-0.5,0.2c-0.1,0.1-0.1,0.2-0.2,0.2c0,0-0.1,0.1-0.1,0.1c-0.2,0-0.5,0-0.6,0.2c0,0,0,0,0,0.1
	c-0.1,0.1-0.1,0.2-0.2,0.2c-0.1,0-0.1,0-0.2,0c-0.1,0-0.3-0.1-0.5,0c-0.2,0.1-0.6,0.3-0.7,0.5c-0.1,0.2-0.4,0.4-0.6,0.4
	c-0.1,0-0.2,0-0.3,0c-0.5,0.1-1.3,0.1-1.6,0.2c-0.4,0.1-1.6,0.2-1.7,0.2c0,0-0.1,0-0.2,0c-0.1,0-0.3-0.1-0.5-0.1
	c-0.1,0-1.1,0.3-1.3,0.4c0,0-0.1,0-0.1,0.1c-0.3,0.2-1.2,0.7-1.5,1.7c-0.1,0-0.4,0.1-0.4,0.4c0,0.3-0.2,1.8-0.2,1.9
	c0,0,0,0.7,0.7,1.1c0.4,0.2,1.9,1,5.7,1.2c0.7,0,1.5,0.1,2.2,0.1c2,0,4-0.1,5.4-0.4l0,0l0,0c0,0,0.2-0.2,0.2-0.4l2.7-0.8
	c0.2,0,0.8,0.1,0.9,0.4c0.1,0.4,0.1,0.6,0.1,0.6l0,0l0,0c0,0,0.2,0.2,0.5,0.2c0,0,2.9-0.1,3-0.2c0.1-0.1,0.3-0.3,0.4-0.3l0.1,0.1
	l0,0c0.2,0,2.2-0.2,2.4-0.3l0.1,0c0.1-0.1,0.3-0.1,0.4-0.1c0.2,0,0.8-0.1,1.3-0.3c0.6-0.3,1.2-0.8,1-1.9c-0.2-1.2-0.3-2.7-0.3-2.9
	c0-0.2-0.2-0.6-0.4-0.6l-0.3-1.3c0,0,0,0,0.1-0.1c0.1-0.1,0.1-0.3,0.1-0.5c0-0.1-0.1-1.5-0.1-1.8c0-0.2,0-0.8,0-0.8l0,0l-0.2-0.1
	c0-0.2,0.1-1.1,0.2-1.3c0.1-0.3,0-1.1,0-1.4l0-0.1c0-0.3-0.1-0.8-0.1-1c0-0.3-0.1-0.7-0.2-0.8c0.3-0.2,0.6-0.7,0.7-0.9
	c0-0.1,0.1-0.6,0.2-1.1c0.1-0.6,0.2-1.1,0.2-1.4c0.1-0.4,0.3-0.8,0.5-1.1l0.1-0.1c0.2-0.3,0.4-0.8,0.5-1.2c0.1-0.5,0.2-0.8,0.5-1.4
	c0.1-0.2,0.1-0.3,0.2-0.5c0.1-0.2,0.2-0.4,0.3-0.7c0.1-0.4,0.2-1.3,0.1-1.9c-0.1-0.6-0.5-1.5-0.6-1.7c0.3-0.4,0.6-1.4,0.9-2.1
	c0.1-0.2,0.2-0.4,0.2-0.6c0.1-0.4,0.3-1.1,0.5-1.6c0.1-0.4,0.2-0.7,0.2-0.8c0.1-0.3,0.3-0.7,0.4-0.8c0.1-0.1,0.4-0.7,0.7-1.5
	c0.1-0.3,0.3-0.6,0.3-0.7c0.1-0.2,0.6-1,0.7-1.2c0.1-0.2,0-0.6,0-1c0,0,0-0.1,0-0.1c0-0.2-0.1-1.1-0.1-1.3c0.3-0.2,0.4-0.7,0.4-0.9
	c0.1-0.1,0.7-0.4,0.9-0.4c0.2-0.1,0.5-0.5,0.7-0.9c0,0,0.1-0.1,0.1-0.1c0.1-0.1,1-1.3,1.3-1.5c0.2-0.2,1.2-1.2,1.5-1.5
	c0,0.1,0.1,0.2,0,0.4c0,0-0.1,0.1-0.1,0.2c-0.2,0.4-0.6,1.1-0.5,1.6c0.2,0.5,0.5,0.8,0.6,0.9c-0.1,0.6-0.9,7.8-1,8.2
	c0,0.2-0.1,1.1-0.2,2.4c-0.2,2.3-0.6,5.8-0.7,7.2c-0.1,0.9-0.2,3.2-0.4,5.5c-0.3,3.5-0.6,7.5-0.6,8.3c-0.1,0.2-1.2,2.9-1.3,3.3
	c0,0.1-0.2,0.4,0,0.5c0.1,0.1,0.7,0.1,0.9,0.1c-0.1,1-1,12.7-1,14c-0.1,1.6-0.7,10.2-0.8,12c0,0.6-0.1,2.3-0.2,4.1
	c-0.2,3.3-0.4,7.4-0.4,8.7c-0.1,2.1-0.5,10.4-0.6,11.8c-0.1,1.4-1,10.7-1.2,12.9c-0.1,1.2-0.5,4.6-0.8,7.2c-0.2,1.7-0.3,3.2-0.4,3.6
	l-0.1,0.7c-0.1,0.8-0.2,2-0.3,2.9l-8.1,83.5l0,0.1l1,0.1l8-82.1l0.4,0l-5.3,81.9l0,0.1l0.9,0.1l5.4-81.9l0.1-0.9h0v0
	c0-0.1,0-0.5,0.1-1.3l0.1-1.6c0.3-3.7,0.8-12.4,0.9-14c0.1-2,0.6-10.6,0.6-12c0.1-1.5,0.4-5.9,0.5-7.8c0.1-0.9,0.3-3.3,0.5-5.4
	c0.2-2.1,0.4-4.1,0.4-4.3c0-0.3,0.3-3,0.5-5.8c0.2-2.6,0.5-5.3,0.6-6.2c0.1-1.8,0.7-9.5,0.8-10.2c0.1-0.8,0.9-13.1,0.9-13.2
	c0-0.3,1.7-4.3,2.6-6.5c0.1,0.2,0.2,0.5,0.3,0.6c0.1,0.1,0.2,0.2,0.2,0.3c0,0,0,0,0,0c-0.1,0.2-0.3,0.7,0.2,1c0.1,0,1.3,0.8,1.4,0.9
	c0,0,0.1,0,0.2,0c0.1,0,0.3,0,0.4-0.1c0,0,0,0.1,0,0.2c0,0,0,0.1,0,0.1c0,0.1-0.1,0.4-0.2,0.5c-0.1,0.2-0.2,1.9-0.3,2.3
	c0,0.5,0.2,1.2,0.4,1.4c0.1,0.2,0.1,0.3,0.2,0.6c0,0.1,0,0.2,0,0.3c0,0.2,0.2,0.3,0.4,0.3c0.2,0,0.3-0.1,0.3-0.1c0,0,0.6-0.2,1-0.3
	c0.4-0.1,0.4-0.4,0.4-0.4c0,0,0-0.3,0-0.5c0-0.1-0.1-0.3-0.2-0.6c-0.1-0.4-0.3-0.8-0.3-1.2c0-0.3,0-1.2,0-2c0-0.6,0-1.1,0-1.4
	c0-0.4-0.2-0.7-0.4-0.8c0.2-0.4,0-1,0-1c0-0.1-0.1-0.3-0.1-0.5c0,0-0.1-0.3-0.1-0.4c0-0.2-0.1-0.3-0.1-0.4c0-0.1,0-0.3,0-0.3
	c0.1-0.1,0.3-0.4,0.4-0.6c0.1-0.2,0.2-0.3,0.3-0.4c0.1-0.2,0.3-0.7,0.4-0.9c0,0,0,0,0-0.1c0-0.1,0.1-0.3,0.2-0.4
	c0.1-0.1,0.3-0.5,0.7-1.4l0-0.1c0-0.1,0.2-0.5,0.3-0.6l0.3,0c0,0.1,0.1,0.1,0.1,0.2c-0.1,0-0.3,0.2-0.3,0.4c0,0,0,0.1,0,0.2
	c0,0.2-0.1,0.4-0.1,0.5c0,0,0,0,0,0.1c-0.1,0.2-0.4,0.6-0.2,0.9c0,0.2,0.2,1.7,0.3,1.9c0,0.1,0.1,0.3,0.1,0.3
	c-0.1,0.1-0.3,0.4-0.3,0.6c0,0,0,0.1,0,0.1c0,0.3,0,0.7,0.5,1c0.4,0.2,0.6,0.3,0.6,0.4c0,1,0.1,2.8,0.1,3c-0.1,0.3-0.2,0.7-0.3,0.9
	c-0.2,0.2-0.5,0.8-0.7,1.3l-0.1,0.1c-0.3,0.6-0.9,1.9-0.4,2.6c0.5,0.8,1.2,1.5,1.5,1.7c0.2,0.1,0.5,0.3,0.6,0.3
	c-0.5,0.7-1,2.6-1.2,3.1c-0.3,0.9,0.1,1.1,0.1,1.1c0.1,0,1.3,0.8,1.6,0.9c0.1,0,0.2,0.1,0.3,0.1c0.2,0,0.4-0.1,0.4-0.2
	c0.9-1.2,2.8-4.2,3.4-5.4c0.6-1.1,1.9-4,2.2-4.9c0.3-0.8,1.4-3.2,1.5-3.4c0,0,0.2-0.1,0.2-0.3c0.1-0.2,0.5-1.4,0.8-2.2
	c0.2-0.4,0.4-1,0.7-1.6c0.2-0.5,0.4-0.9,0.4-1.1l0.1-0.3c0.2-0.3,0.4-0.8,0.5-1c0.1-0.2,0.3-0.6,0.5-0.9c0.1-0.3,0.3-0.5,0.3-0.6
	c0.1-0.3,0.9-1.7,1.1-2l0.1,0c0,0.2,0,1.1,0.3,1.5c0.3,0.4,1,1,1.1,1.1c0.1,0.2,1.1,3,1.1,3.5l-0.4,0.5c0,0-0.2,0.2-0.2,0.7
	c0,0.5-0.1,2.2-0.1,2.6c-0.1,0.4-0.1,1-0.1,1l0,0.1l1.1-0.1c0,0.5,0,4.3,0.2,6.6c0.1,0.8,0.1,1.6,0.2,2.2c0.1,1.4,0.2,2.4,0.2,3.1
	c0,0.8,0.5,5.8,0.8,8.2c0.1,0.6,0.1,1.1,0.1,1.3c0.1,0.8,0.3,3.3,0.3,4.1c0,0.9,0.2,4.9,0.7,7.5c0.3,1.6,0.9,3.8,1.3,5.6
	c0.3,1.1,0.5,2.1,0.6,2.6c0.3,1.4,1,4.8,1,6.1c0,0.2,0,1,0.2,1.2l0.2,1.8c0.1,0.6,0.6,0.6,0.6,0.6c0,0,0.7,0.1,1,0.1
	c0.3,0,0.3-0.2,0.3-0.4c0,0,0,0,0-0.1c0-0.1,0-0.3-0.1-0.5c0-0.3-0.1-0.6-0.1-0.8c0-0.3,0-1,0-1.5c0-0.2,0-0.4,0-0.5
	c0-0.2-0.1-0.4-0.4-0.4c0,0,0,0,0,0c0-1.6-0.8-5-1.5-7.6c-0.1-0.4-0.2-0.9-0.4-1.4c-0.6-2.3-1.7-6.3-2.1-8.3c-0.6-2.6-1-5.4-1-6.9
	c0-1.3,0.1-4.3,0.2-5.7c0-0.2,0-0.4,0-0.5c0.1-1,0.3-6.2,0.4-8.1c0.1-1.9-0.2-5-0.3-5.5c-0.1-0.4-0.2-2.5-0.2-2.9l0.5-0.1l0,0
	c0,0,0.2-0.9,0.3-1.4c0.1-0.3,0.3-1.3,0.4-2c0.1-0.3,0.1-0.5,0.1-0.6c0-0.1,0-0.2,0.1-0.3c0.1-0.5,0.2-0.9,0.2-1
	c0-0.2-0.2-1.1-0.2-1.3c-0.1-0.2-0.3-0.3-0.3-0.4l-0.2-0.7c0.7-0.5,0.8-1.9,0.8-1.9c0-0.1,0.3-5.5,0.4-6.5c0-1-0.8-1.4-1-1.5l0-0.6
	c0.4,0,2.4,0.1,2.6,0.1c0.3,0,1.5-0.1,1.7-0.3c0.2-0.1,1.3-0.8,1.7-1l0,3.5c0,0,0,0.9,0.5,1.1c-0.2,0.2-0.6,0.9-0.6,1.6
	c0,0,0,0.2,0.1,0.3c0,0,0.1,0.1,0.2,0.1c0.2,0,0.6,0,0.7,0.1l0,0.1l-0.7,0l0,0c-0.1,0-0.3,0.2-0.4,0.3c0,0,0,0.1,0,0.1l0.1,0.1
	c0.1,0.1,0.1,0.2,0.1,0.2v0.5l0.3,0.2c0,0.2,0,1,0.4,1.3c0.3,0.2,0.7,0.3,0.8,0.4c0,0.2,0.2,1,0.3,1.2c0.1,0.2,0.3,0.3,0.4,0.4
	c0,0.1-0.2,0.4-0.1,0.7c0,0.2,0.2,0.4,0.2,0.4l0,1.2c0.1,4.6,0.4,15.5,0.4,17.3c0,0.7,0,6.4,1,8.9c0.7,1.8,1.5,4.9,1.5,5.9
	c0,2.9,0.4,12.2,6.2,12.3h0.1c3.6,0,6.5-2.9,8.5-8.6c0-0.1,0.1-0.2,0.1-0.3c0.5-1.3,2.7-10.2,2.9-11.6c0.2-1.2,0.9-6.9,1.2-9.9
	l0.2,0l0.2-0.2c0.2-0.2,0.1-0.6,0.1-0.7c0-0.2,0.3-2.9,0.4-3.2c0-0.2,0.1-0.6,0.1-0.8l0.2-0.1c0.2-0.1,0.2-0.5,0.2-1.4
	c0-0.1,0-0.1,0-0.1c0-0.2,0.1-1,0.1-1.2c0-0.1,0-0.4,0.1-0.7c0-0.2,0-0.5,0-0.6c0-0.2,0.1-1.1,0.1-1.3c0-0.1-0.1-0.4-0.2-0.5
	c0.3-0.4,0.4-1.1,0.4-1.2c0-0.1-0.1-0.2-0.1-0.4c-0.1-0.1-0.1-0.2-0.1-0.3c0,0,0-0.1,0-0.2c0-0.3,0-0.7,0-0.9c0-0.4-0.3-1.1-0.4-1.2
	c-0.1-0.1-0.1-0.9,0-1c0-0.1,0-0.2,0.1-0.4c0-0.3,0.1-0.6,0.1-0.8c0.1-0.2,0-0.3-0.2-0.4c0.2-0.3,0.5-1,0.5-1.3
	c0-0.4-0.2-0.9-0.3-1.2l0,0c-0.1-0.2-0.1-0.4-0.1-0.6c0,0,0-0.1,0-0.1c0-0.1,0-0.4,0-0.8c0-0.5,0-1.2,0-1.5c0-0.3,0-1.3-0.1-2.2
	c0-0.6,0-1.1,0-1.2c0-0.1,0-0.9-0.1-1.7c0-0.7-0.1-1.4-0.1-1.5c0-0.1,0-0.3-0.1-0.6c-0.1-0.4-0.1-0.8-0.1-1c0-0.2,0-0.6-0.1-1.1
	c0-0.5-0.1-1.1-0.1-1.3c0-0.4-0.1-3.1-0.2-3.9l0-0.4c-0.1-1.1-0.3-3.1-0.4-3.6c0-0.2-0.1-0.9-0.2-1.7c-0.1-1.6-0.3-3.5-0.4-3.8
	c-0.1-0.4-0.1-1.1-0.1-1.5c0-0.4-0.1-1.3-0.1-1.8c0-0.3-0.2-0.5-0.3-0.6c0.1,0,0.2-0.1,0.2-0.2c0-0.2,0.1-0.9-0.1-1.5
	c-0.2-0.5-0.4-0.7-0.5-0.8V538c0-0.4-0.4-0.9-0.5-1l0.2-0.5l0.2-2l0.3-0.1l0.1-1.9l-0.3-0.4c0-0.1,0-0.6-0.2-1.1
	c-0.2-0.5-0.7-1.2-0.8-1.3c0.1-0.1,0.1-0.3,0.1-0.4l0.8-0.1c0.2,0.3,1.4,2.3,1.5,2.6c0,0.1,0.1,0.2,0.1,0.4c0.1,0.4,0.2,0.8,0.4,0.9
	c0.2,0.2,0.4,0.4,0.5,0.8c0.1,0.3,0.9,2.2,1,2.7c0.1,0.3,0.5,1.2,0.8,1.8c0.1,0.3,0.2,0.5,0.3,0.6c0.1,0.1,0.1,0.3,0.2,0.5
	c0.2,0.4,0.4,0.8,0.4,1.1c0,0,0.6,2.5,1.1,3.7c0.3,0.8,1.2,2.8,1.9,4.2c0.4,0.9,0.7,1.5,0.8,1.7c0,0.1,0.2,0.5,0.4,1.1
	c0.5,1.4,1.5,4.1,1.5,4.3l0,0.2c0.1,0.4,0.3,1.2,0.3,1.4c0,0.1,0,0.2-0.1,0.3c-0.1,0.2-0.2,0.5-0.2,0.7c0,0.2,0.1,0.5,0.1,0.9
	c0.1,0.3,0.1,0.5,0.1,0.7c0,0.2,0.1,0.5,0.2,0.8c0,0.2,0.1,0.4,0.1,0.4c0,0.1,0.1,0.4,0.4,1c0.1,0.1,0.1,0.3,0.1,0.3
	c0,0.1-0.2,0.5-0.2,0.9c0,0.1,0,0.2,0,0.4c0,0.6-0.1,1.4,0.2,1.7l0.3,0.3l-0.2,0.6c-0.2,0-0.4,0.1-0.7,0.2l-0.1,0c0,0,0,0,0,0
	c-0.1,0-0.2,0-0.3-0.1c-0.1,0-0.2-0.1-0.4-0.1c-0.1,0-0.1,0-0.2,0c-0.1,0-0.2-0.1-0.4-0.1c-0.1,0-0.3,0-0.4,0.1
	c-0.4,0.1-0.4,0.5-0.4,0.6c0,0,0,0.1,0,0.1c-0.2,0-0.5,0.6-0.5,0.8c0,0.2,0.4,0.4,0.6,0.5c0.1,0.2,0.2,0.3,0.6,0.3
	c0.1,0,0.3,0,0.3,0c0,0,0.1,0,0.1,0c0.1,0,0.9-0.1,1.2-0.1c0,0.2,0.2,0.4,0.5,0.4c0.1,0,0.2,0,0.2,0c0.2-0.1,0.6-0.2,0.9-0.3
	c0.3-0.1,0.5-0.1,0.6-0.2c0.1,0,0.2-0.1,0.4-0.2c0.3-0.1,0.5-0.2,0.6-0.3c0,0,0.2-0.1,0.5-0.2c0.3-0.1,0.7-0.3,0.8-0.4
	c0.3-0.1,0.5-0.7,0.7-1.1c0.1-0.1,0.1-0.3,0.2-0.4c0.2-0.3,0.3-0.9,0.4-1.1l0-0.1c0.1-0.2,0.3-0.4,0.3-0.4l0,0l0,0
	c0,0,0.2-0.8,0.2-1.1C797.3,562.6,797.3,561.9,797.1,561.6z M748.8,499.7c0.5,0,0.9,0.4,0.9,0.9c0,0.5-0.4,0.9-0.9,0.9
	c-0.5,0-0.9-0.4-0.9-0.9C747.9,500.1,748.3,499.7,748.8,499.7z M681.6,298.1c5.9,11.6,11.9,22.9,17.3,32.6
	C691.2,319,684.7,307.4,681.6,298.1z M739.3,384.4l-0.3,0.1c0,0,0,0,0,0c0,0,0-0.1,0-0.1c0-0.1-0.1-0.2-0.2-0.2
	c-0.8-0.9-2-2.4-3.5-4.2c1.7,1.8,3.2,3.2,4.3,4.4C739.5,384.3,739.4,384.3,739.3,384.4z M740.7,386.2c-0.3-0.2-0.7-0.5-1-0.7
	l0.2-0.1c0,0,0,0-0.1-0.1c0.2-0.1,0.5-0.1,0.7-0.2c0,0,0,0,0,0c0.2,0.1,0.3,0.3,0.4,0.4l0,0c0,0,0,0.4,0.1,1
	C740.9,386.4,740.8,386.3,740.7,386.2z M741.9,386.4C741.9,386.4,741.9,386.4,741.9,386.4c0.6,0.4,1,0.8,1.3,1
	c-0.4,0.1-0.9-0.1-1.3-0.3C741.9,386.9,741.9,386.7,741.9,386.4z M743.9,413.8c-0.4-4.3-1.1-12-1.9-25.6c0.3,0.1,0.6,0.2,0.9,0.2
	c0.3,0,0.7-0.1,1.1-0.3c0,1.9,0,4.6,0,7.3c0,6.1,0,13,0,14.5C743.9,410.7,743.9,412.1,743.9,413.8z M743.9,386.5
	c-0.4-0.3-1.1-0.9-2-1.7c0.1,0,0.3-0.1,0.4-0.1c0.6-0.1,1.1,0.2,1.5,0.8c0,0.1,0.1,0.1,0.1,0.2C743.9,385.9,743.9,386.2,743.9,386.5
	z M748.3,511.6l-0.2,0.1l0-0.4C748.2,511.3,748.3,511.5,748.3,511.6z M747,511l0,1.7c-0.1,0-0.2,0.1-0.3,0.3c0,0.1-0.2,0.1-0.3,0.1
	l-0.1,0c-0.2,0-0.3,0.3-0.4,0.5c0,0,0,0.1-0.2,0.1c0,0-0.1,0-0.1,0c-0.1,0-0.3,0.1-0.3,0.2l-0.3,0.1c0-0.1-0.1-0.3-0.1-0.4
	c0-0.1,0-0.4-0.1-0.7c-0.1-0.4-0.1-0.8-0.1-0.9c0-0.1,0.2-0.8,0.3-1.2l0.3,0.1v0.4c0,0.4,0.5,0.7,0.9,0.5c0.3-0.1,0.4-0.9,0.4-1.2
	C746.9,510.6,747,511,747,511z M746.4,483.9l0.1,0l0,0.9h-0.1V483.9z M745.9,489.2l0.7,0.1l0,1.7l-0.2,0.2c-0.1-0.2-0.2-0.6-0.5-0.6
	h-0.2L745.9,489.2z M745.5,442c0,1.1,0,3.3-0.1,6c-0.1-4.5-0.2-8.5-0.2-9.5c0-0.3,0-0.9,0-1.8C745.4,439,745.5,440.9,745.5,442z
	 M744.5,480c0-1.1,0.3-7.4,0.6-12.7c0.1,4.6,0.4,16.4,0.4,18.4l-0.2,2l-0.9,1.3V480z M744,528.3c0,0.3,0.1,1.5,0.2,1.8l-0.5,0.3
	c0.3-1.2,0.1-1.8,0-2L744,528.3z M741,532.1c0-0.2,0.3-0.3,0.6-0.3c0.2,0,0.5,0,0.6,0.1l0.1,0c0,0,0,0,0.1,0c0.2,0,0.4-0.1,0.5-0.2
	l0.1,0.4c-0.1,0-0.3,0.1-0.5,0.2c-0.2,0.1-0.4,0.3-0.5,0.4c-0.2,0-0.9,0.3-1.1,0.5C740.8,532.9,740.9,532.4,741,532.1z M741.5,533.3
	l0,0.3l-0.6,0.4v-0.3L741.5,533.3z M740.9,557.3c0.2,0,0.3,0,0.4,0c0,0.2,0,0.6,0,0.8l0.1,0.6l-0.8-0.4l-0.1-0.1
	c-0.1,0-0.3-0.5-0.6-0.9C740.1,557.3,740.5,557.3,740.9,557.3z M739.8,507.9l-0.5,2.3c0,0-0.7,2.3-0.8,3c0,0.2-0.1,0.4-0.2,0.7
	c-0.3,1.1-0.7,2.9-0.7,3.7c0,1.5,0,4.6,0,5.2l-0.9,3.7c-0.2,0-0.6-0.1-1.1-0.1c-0.2,0-0.4,0-0.5,0c-0.5,0.1-1.1,0.3-1.4,0.6
	c-0.4,0.6-0.8,1.3-0.9,1.4c0,0,0,0.1-0.1,0.2c-0.1,0.2-0.2,0.5-0.2,0.6c0,0.1-0.1,0.6-0.1,0.7l-0.4,0.4l-0.3-0.1L739.8,507.9z
	 M735.8,557.3l-0.4,1h-0.3C735.2,557.9,735.5,557.6,735.8,557.3z M734.3,555.2c0,0.2-0.1,0.9-0.2,1.1c0,0.1-0.1,0.2-0.1,0.4
	c-0.1,0.3-0.2,0.7-0.3,0.8c0,0.2-0.1,0.4-0.1,0.6l-1-0.2l0,0l-0.1,0.2l-0.1,0c0,0-0.1-0.2-0.1-0.4h0.2l0.1-0.8h0.3l0.2-1.6
	c0.1,0,0.2,0,0.4,0C733.7,555.3,734.1,555.2,734.3,555.2z M732.2,534c0,0.1-0.1,0.2-0.2,0.2c-0.1,0-0.2-0.1-0.2-0.2
	c0-0.1,0.1-0.2,0.2-0.2C732.1,533.8,732.2,533.9,732.2,534z M731.2,531.9L731.2,531.9c0.1,0.2,0.1,0.4,0.3,0.6
	c0.1,0.1,0.3,0.2,0.6,0.2l0,0.6h0c-0.4,0-0.8,0.3-0.8,0.8c0,0.4,0.3,0.8,0.8,0.8c0.3,0,0.6-0.2,0.7-0.4l0.6,0.1
	c0.1,0.1,0.3,0.3,0.2,0.6c-0.2,0.3-0.8,1.3-0.9,1.5c-0.1,0-0.3,0-0.5,0c-0.1,0-0.1,0-0.2-0.1c-0.2-0.1-0.3-0.1-0.4-0.1
	c0,0-0.1,0-0.1,0c-0.1,0.1-0.4,0.1-0.4,0.3c0,0.1,0,0.2,0.1,0.2c0.2,0.3,0.5,0.7,0.6,0.8c0,0-0.1,0-0.1,0c-0.1,0-0.1,0-0.2,0.1
	c-0.1,0.1-0.2,0.2-0.4,0.2c-0.1,0-0.2,0-0.3,0c-0.1,0-0.2,0-0.3,0c-0.1,0-0.2,0.1-0.3,0.1c-0.1,0-0.2,0.1-0.2,0.1
	c-0.1,0-0.5,0-0.8,0L731.2,531.9z M730.9,563.4c-0.2,0.7-0.6,3.2-0.7,3.5c-0.1,0-0.4,0.1-0.5,0.3c-0.1,0.2-0.8,1.3-0.8,1.3
	c0,0-0.2,0.3-0.1,0.5c0.1,0.1,0.2,0.3,0.2,0.4c0,0,0,0.1,0,0.1c0,0.1,0,0.1-0.1,0.2c0,0-0.1,0-0.1,0.1c-0.2,0.1-0.7,0.3-0.9,0.8
	c-0.2,0.6-0.3,1.3-0.3,1.4c-0.1,0.1-0.4,0.3-0.5,0.5c-0.2,0.2-2,3-2.2,3.2c-0.2,0.2-0.8,1.5-1,1.9c-0.1,0.3-1,2.3-1.4,3.1
	c0.1-1.3,0.3-6.1,0.3-6.9c0-0.6,0.2-3.2,0.3-5.3c0.1-1.4,0.1-2.6,0.2-3c0.1-1.1,0.6-8.4,0.6-8.9c0.1-0.1,0.3-0.3,0.4-0.6
	c0.1-0.3,0.3-1.7,0.3-2c0.2,0,0.6,0,0.9-0.2c0.2-0.2,0.4-0.3,0.4-0.4c0.2,0,0.7,0.1,1.1,0.1c0.1,0,0.2,0,0.3,0
	c0.3-0.1,0.7-0.2,0.7-0.3l0.3,0c-0.1,0.1-0.2,0.4-0.1,0.6c0,0.1,0.1,0.2,0.3,0.2c0.5,0.2,2.3,0.7,2.6,0.8l-0.2,1.8l0.1,0.1v0.4H731
	l0,0.1c0,0-0.2,1.7,0.9,2C731.8,559.6,731,562.7,730.9,563.4z M732.4,567.6c0,0-0.3,0.2-0.3,0.5c0,0.2,0,0.9,0,1.4
	c-0.2-0.2-0.4-0.5-0.5-0.6c0-0.1,0.1-0.3,0.2-0.5c0.1-0.2,0-0.4-0.1-0.5c0,0,0.1-0.1,0.1-0.1c0.1-0.1,0.4-0.7,0.5-1.1
	c0.1-0.4,0.4-1.2,0.6-1.7c0.1-0.3,0.6-0.8,0.8-1v3.3C733.6,567.3,732.7,567.4,732.4,567.6z M735.7,581.9c-0.1,0.3-1,3.5-1.2,4.2
	c-0.2,0.6-0.7,1.7-0.8,2l-0.1,0c0.1-0.4,0.1-1.2,0.1-1.6c0-0.1,0-0.5,0-1c0-0.8-0.1-1.8-0.1-2.1c0-0.4,0-1.8,0-2
	c0.1-0.1,0.1-0.3,0.1-0.3v-0.7l0.1,0c0.1,0.2,0.3,0.6,0.6,0.6c0.3,0,1.2,0.1,1.4,0.1C735.7,581.2,735.7,581.6,735.7,581.9z
	 M735.7,579.7c0-0.3-0.1-0.8,0-1.3c0-0.7,0.4-1.2,0.7-1.6c0-0.1,0.1-0.1,0.1-0.2c0.2-0.4,1-0.8,1.3-1L735.7,579.7z M740.8,577.4
	c-0.4,0.7-2,3.9-2.1,4.4c-0.1,0.3-1.1,2.4-1.6,3.7c0.2-0.7,0.5-1.6,0.6-2.1c0.2-0.9,0.4-2,0.4-2.3c0-0.2-0.1-0.4-0.2-0.5
	c0.2-0.1,0.3-0.4,0.3-0.4l3.2-6.5c0.1-0.1,1-0.6,1.6-0.6c0.1,0,0.1,0,0.1,0C742.9,573.5,741.2,576.8,740.8,577.4z M743.6,570.4
	c0,0.1,0,0.2-0.1,0.3c0,0.1,0,0.2,0,0.3c0,0.1,0,0.2,0,0.3c0,0.1,0,0.5-0.1,0.7l-0.5-0.2c0,0-0.3-0.1-0.5-0.1l1.2-2.4
	c0.1,0.1,0.2,0.3,0.1,0.5C743.7,569.9,743.6,570.2,743.6,570.4z M744.3,562.4c-0.3,0.6-0.9,1.8-1.5,3c-0.4,0.8-0.8,1.6-1,2
	c-0.5,0.9-2,4.2-2.2,4.6c-0.1,0-0.5,0.3-0.9,0.4c-0.5,0.2-2.3,1.1-3.1,2.1c-0.6,0.8-0.8,1.1-0.9,1.2h-0.2c0-0.2,0-0.9-0.3-1.1
	c0.1-0.1,0.3-0.4,0.4-0.6c0.1-0.3,0.2-0.8,0.2-0.9c0.1-0.1,0.3-0.2,0.3-0.4c0-0.1,0.2-0.5,0.5-0.9c0.2-0.4,0.2-1,0.2-1.3
	c0-0.2,0.1-0.3,0.1-0.3c0.2-0.2,0.2-0.6,0.2-0.8c0.2-0.1,0.3-0.2,0.3-0.3l0,0c0,0,0-0.3,0-0.7c0-0.2,0-0.6-0.1-0.9
	c0-0.2,0-0.4,0-0.4c0-0.2-0.2-0.2-0.3-0.2c0-0.2-0.1-0.2-0.2-0.2l0.3-2.6c0.1-0.1,0.3-0.2,0.3-0.4c0.1-0.2,0.1-1.1,0.1-1.5
	c0-0.4,0-2-0.1-2.3c0.2-0.2,0.6-0.6,0.9-1.4c0.2-0.6,0-1.3,0-1.5l0.4,0l0.1-0.4l1.3,0.4c0,0.2,0,1.3,0.5,2.1
	c0.5,0.9,1.2,1.8,2.1,1.8c0.9,0,2.2,0,2.2,0c0,0,0.3,0,0.5-0.2c0.1-0.1,0.1-0.2,0.1-0.3c0-0.3-0.1-0.8-0.2-1c0.1,0,0.2,0.1,0.3,0.1
	l0.1,0.1c0.2,0.2,0.3,0.3,0.4,0.3c0.1,0,0.3,0.1,0.5,0.1l0,0.4C745.4,560.5,744.8,561.5,744.3,562.4z M745.5,568.9
	c-0.1-0.1-0.2-0.3-0.2-0.4c0-0.2-0.1-0.4-0.1-0.5v-1.6l0.2-0.1l-0.2-0.4l0.5-0.8c0,0.6-0.1,2-0.1,2.3c0,0.2,0.1,0.2,0.2,0.2
	c0.1,0,0.3-0.1,0.5-0.3c0,0,0,0,0.1,0c0,0,0.1,0,0.1,0L745.5,568.9z M748.5,578c-0.1-0.3-0.4-0.9-0.6-1.2l0.5,0.2
	c0,0.1,0.1,0.3,0.1,0.5C748.5,577.6,748.5,577.8,748.5,578z M750.3,574.7c0,0.3-0.1,0.4-0.1,0.5c-0.2-0.3-0.7-0.6-1.1-0.6
	c-0.1,0-0.1,0-0.2,0c-0.4,0.2-0.6,0.7-0.7,0.9c-0.4-0.1-1.1-0.5-1.6-0.8c-0.4-0.3-0.3-0.7-0.3-0.9c0-0.1,0-0.1,0-0.2
	c0-0.2,0.2-0.6,0.3-0.9c0.3,0,0.4-0.3,0.4-0.3c0,0,0.3-1,0.4-1.2c0.1-0.2-0.2-0.4-0.3-0.5c0.1-0.3,0.6-1.4,0.6-1.6
	c0-0.2,0.1-0.4,0.1-0.5l0.9-0.6l0.3,0.1l0,0c0,0,0.9-0.1,1.2-0.2h0c0.3,0,0.3,0.3,0.3,0.4C750.8,568.4,750.4,574.2,750.3,574.7z
	 M777,531.1c0,0,0.1,0,0.1,0c0.3,0,0.6,0,0.7-0.1c0.3,0.3,0.7,0.8,0.7,1l-0.2,0.4l-0.1,1.8l0,0l0.3,0.2l-0.2,1.6
	c-0.3-0.7-1-2.6-1.2-3.3C777,532,777,531.3,777,531.1z M778.4,538.3l-0.5,0c0-0.1,0-0.2,0.1-0.2c0.1-0.1,0.1-0.1,0.2-0.1
	C778.4,538,778.4,538.2,778.4,538.3z M779.1,569.2c0,0.2,0.2,1.6,0.3,1.9c-0.2,0.1-0.8,0.7-1,1.3c-0.1,0.6-0.2,1.4,0.6,2.3
	c0,0.2,0,0.9,0.1,1.1c0.1,0.1,0.3,0.2,0.4,0.3l0,0.4l0.3,0.4c-0.1,0.2-0.4,1.1-0.3,1.3c0,0.1,0.1,0.2,0.1,0.2
	c0.1,0.1,0.1,0.2,0.1,0.3c0,0.3,0,0.6,0.1,0.8c0.1,0.2,0.3,0.9,0.2,1c-0.1,0.2-0.1,0.6,0,0.9l0,0.6c-0.1,0.1-0.3,0.3-0.3,0.6
	c0,0.1,0,0.1,0,0.2c0,0.3,0,1.1,0,1.2c0,0,0,0,0,0c-0.1,0.1-0.2,0.3-0.2,0.6c0,0.1,0,0.2,0,0.3c0,0.2,0.1,0.4,0,0.5
	c0,0,0,0.1-0.1,0.2c-0.1,0.3-0.3,0.7-0.1,1c0,0.1,0.1,0.2,0.1,0.3c0.1,0.2,0.3,0.4,0.2,0.7c0,0.3-0.5,4.3-0.5,4.3c0,0,0,0.3,0.2,0.6
	c-0.3,3-1,8.6-1.2,9.7c-0.2,1.2-2.3,10.1-2.8,11.3c0,0.1-0.1,0.2-0.1,0.4c-0.7,1.8-2.7,7.4-7,7.4h-0.1c-4.3-0.1-4.5-8.9-4.5-10.6
	c0-1.3-0.9-4.6-1.7-6.5c-0.6-1.5-0.9-5.3-0.9-8.2c0-1.9-0.3-14.5-0.4-18.3c0-0.2,0.1-0.9,0.1-1c0-0.1,0.1-0.3,0.2-0.4
	c0.1-0.1,0.2-0.2,0.2-0.3c0.1-0.2,0.2-0.8,0.2-1c0,0,0-0.1,0-0.2c0-0.4,0-1.3,0-1.6c0-0.3,0-0.7,0-1c0-0.1,0-0.2,0-0.3
	c0-0.2-0.1-0.5-0.2-0.6l0-0.1c0-0.1,0-0.3,0.1-0.5c0-0.1,0.1-0.2,0.1-0.3c0-0.3-0.1-0.6-0.2-0.7c0-0.1-0.1-1.5-0.1-1.6
	c0-0.1,0-0.5,0.1-0.7c0.1-0.2,0.1-1,0.2-1.2c0-0.1,0.3-0.5,0.3-0.7c0,0,0.2-1.2,0.2-1.6c0-0.3-0.2-1.2-0.3-1.4c0-0.1,0.1-0.7,0.1-1
	c0-0.3-0.4-1.3-0.5-1.5l0.7-4.4c0.2,0,0.3-0.2,0.3-0.2l0,0l0,0c0,0,0.2-1.3,0.2-1.8c0.1-0.5-0.2-0.8-0.4-0.9l0.5-0.9
	c0.2,0,0.4-0.1,0.5-0.3c0.1-0.2,0-0.5-0.1-0.6l0.3-0.5l0.1,1.2c0,0,0,0.4,0.1,0.5c0.1,0.1,0.2,0.1,0.3,0.1c0.4-0.1,0.4-0.4,0.4-0.6
	c0-0.1,0.1-2.5,0.1-2.7c0-0.2-0.1-0.5-0.1-0.6c0.2-0.1,0.8-0.5,1.1-0.7c0.4-0.2,1.2-1.5,1.3-1.6c0.1-0.2,0.7-0.8,0.7-0.8
	c0.1,0,1.5-1,1.8-1.4c0.4-0.4,0.8-1.2,0.9-1.4c0.1-0.2,0.5-0.6,0.7-0.7c0.2-0.2,0.2-0.6,0.2-0.6v-1.5c0-0.3,0.1-0.7,0.3-1.1
	c0.2-0.5,1.6-3.5,1.8-3.7c0.1-0.2,0-0.4,0-0.5c0.2,0,0.5,0,0.6-0.1c0.1,0,0.2-0.2,0.3-0.6l0,0c0-0.1,0.2-0.4,0.2-0.5
	c0,0,0.2-0.1,0.3-0.1c0.2,0,0.3-0.5,0.3-0.7l0,0c0.1,0.4,0.6,2.4,1.1,3.1c0,0.2-0.3,1.6-0.1,2.2c0.1,0.4,0.3,0.6,0.5,0.6
	c0.1,0,0.2-0.1,0.2-0.1c0.1-0.1,0.2-0.5,0.2-0.7l0.1,0.2c0,0.2-0.2,1,0,1.5c-0.1,0.1-0.5,0.6-0.4,1.1c0.1,0.6,0.6,1.2,0.9,1.4
	c0,0.3,0,1-0.1,1.3c-0.2,0.3-0.8,1.6-0.8,2c0,0.3,0.3,3.8,0.4,4.6c0.1,0.7,0.5,2.9,0.5,3c0,0.2,0.2,0.9,0.3,1.1
	c0.1,0.2,0.2,0.7,0.2,0.7c0,0,0.1,0.7,0.4,1c0.1,0.1,0.1,0.2,0,0.3c0,0.1-0.1,0.1-0.1,0.2c0,0.1,0,0.2,0,0.3c0,0.2,0,0.4,0,0.5
	c0,0.1,0,0.2,0,0.5c0,0.4,0,0.9,0,1.3c0,0.3,0.1,0.9,0.1,1.5c0.1,0.6,0.1,1.2,0.1,1.5c0,0.5,0.1,4.6,0.1,4.9c0,0.1,0.1,0.3,0.1,0.5
	c0.1,0.2,0.1,0.5,0.1,0.6c0,0.2,0.1,0.6,0.2,0.9c0.1,0.1,0.2,0.4,0.3,0.6C778.9,568.8,779.1,569.1,779.1,569.2z"/>
</svg>
