<?xml version="1.0" encoding="UTF-8"?>
<!-- Generator: Adobe Illustrator 21.0.0, SVG Export Plug-In . SVG Version: 6.00 Build 0)  -->
<svg version="1.1" id="Layer_1" xmlns="http://www.w3.org/2000/svg" xmlns:xlink="http://www.w3.org/1999/xlink" x="0px" y="0px" viewBox="0 0 220.7 250" style="enable-background:new 0 0 220.7 250;" xml:space="preserve">
<style type="text/css">
	.st0{fill:#A41E22;}
	.st1{fill:#A41E23;}
	.st2{fill:#010101;}
</style>
<g>
	<path class="st0" d="M0,130l4.6-29.8h18.1c1.1,0,1.9,0.4,2.3,1.1c0.6,0.8,0.8,1.7,0.6,2.7L24,115.1c-0.2,1.1-0.6,1.9-1.5,2.7   c-0.8,0.6-1.7,1.1-2.7,1.1H8.8L7.1,130L0,130z M17.2,111.3l0.6-3.8h-7.1l-0.6,3.8H17.2z"/>
	<path class="st0" d="M24,130l4.6-29.8h18.1c1.1,0,1.9,0.4,2.3,1.1c0.6,0.8,0.8,1.7,0.6,2.7l-1.7,11.1c-0.2,1.1-0.6,1.9-1.5,2.7   c-0.8,0.6-1.7,1.1-2.7,1.1h-1.9l3.8,11.1h-7.1l-3.8-11.1h-1.9L31.1,130L24,130z M41.4,111.3l0.6-3.8h-7.1l-0.6,3.8H41.4z"/>
	<path class="st0" d="M51.7,130c-1.1,0-1.9-0.4-2.3-1.1c-0.6-0.8-0.8-1.7-0.6-2.7l3.6-22.5c0.2-1.1,0.6-1.9,1.5-2.7   c0.8-0.8,1.7-1.1,2.7-1.1H71c1.1,0,1.9,0.4,2.3,1.1c0.6,0.8,0.8,1.7,0.6,2.7l-3.6,22.5c-0.2,1.1-0.6,1.9-1.5,2.7   c-0.8,0.6-1.7,1.1-2.7,1.1H51.7z M63.7,122.7l2.3-14.9h-7.1l-2.3,14.9H63.7z"/>
</g>
<g>
	<path d="M75.7,130c-1.1,0-1.9-0.4-2.3-1.1c-0.6-0.8-0.8-1.7-0.6-2.7l3.6-22.5c0.2-1.1,0.6-1.9,1.5-2.7c0.8-0.8,1.7-1.1,2.7-1.1H95   c1.1,0,1.9,0.4,2.3,1.1c0.6,0.8,0.8,1.7,0.6,2.7l-1.3,7.6h-7.1l0.6-3.8H83l-2.3,14.9h7.1l0.6-3.8h7.1l-1.3,7.6   c-0.2,1.1-0.6,1.9-1.5,2.7c-0.8,0.6-1.7,1.1-2.7,1.1L75.7,130z"/>
	<path d="M99.6,130.3c-1.1,0-1.9-0.4-2.3-1.1c-0.6-0.8-0.8-1.7-0.6-2.7l3.6-22.5c0.2-1.1,0.6-1.9,1.5-2.7c0.8-0.8,1.7-1.1,2.7-1.1   h14.5c1.1,0,1.9,0.4,2.3,1.1c0.6,0.8,0.8,1.7,0.6,2.7l-3.6,22.5c-0.2,1.1-0.6,1.9-1.5,2.7c-0.8,0.6-1.7,1.1-2.7,1.1H99.6z    M111.6,122.7l2.3-14.9h-7.1l-2.3,14.9H111.6z"/>
	<path d="M120,130.3l4.6-29.8h18.1c1.1,0,1.9,0.4,2.3,1.1c0.6,0.8,0.8,1.7,0.6,2.7l-1.7,11.1c-0.2,1.1-0.6,1.9-1.5,2.7   c-0.8,0.6-1.7,1.1-2.7,1.1h-1.9l3.8,11.1h-7.1l-3.8-11.1h-1.9l-1.7,11.1L120,130.3z M137.4,111.6l0.6-3.8h-7.1l-0.6,3.8H137.4z"/>
	<path d="M144.2,130.3l4.6-29.8h18.1c1.1,0,1.9,0.4,2.3,1.1c0.6,0.8,0.8,1.7,0.6,2.7l-3.6,22.5c-0.2,1.1-0.6,1.9-1.5,2.7   c-0.8,0.6-1.7,1.1-2.7,1.1L144.2,130.3z M159.7,122.9L162,108h-7.1l-2.3,14.9H159.7z"/>
	<path d="M168.1,130.3l4.6-29.8h21.6l-1.3,7.6h-14.5l-0.6,3.8h10.9l-1.3,7.6h-10.9l-0.6,3.8h14.5l-1.3,7.6L168.1,130.3z"/>
</g>
<g>
	<path class="st1" d="M181.4,207c-6.1-8.2-12.4-16.8-18.9-25.4c-2.3-2.9-4.6-6.1-6.7-9c0.2-1.3,0.4-3.4,0.6-6.1   c0.4-4.4,1.1-10.1,1.9-15.8c0-0.4,0.2-0.8,0.2-1.3h-1.7c0,0.2-0.2,0.6-0.2,0.8c-0.8,5.9-1.1,11.6-1.3,16c0,2.5,0,4.6,0,5.9   c-4.2-5.5-8.2-10.9-12-16.2c0-0.2-0.2-0.2-0.2-0.4c0.2-1.1,0.4-2.7,0.8-4.8c0-0.4,0.2-0.8,0.2-1.5h-1.1c0,0.4,0,0.8,0,1.3   c-0.2,2.1-0.2,3.8,0,4.6c-1.5-2.1-3.2-4-4.6-6.1H137c1.7,2.3,3.6,4.8,5.3,7.4c-1.1,0.2-2.7,0.4-5,0.6c-1.7,0.2-3.8,0.6-5.9,1.1   c-2.1,0.4-4.4,1.1-6.7,1.7c-1.1,0.4-2.3,0.6-3.4,1.1c-1.1,0.4-2.1,0.8-3.2,1.5c-2.1,1.1-3.8,2.1-5.3,3.2c-1.3,0.8-2.5,1.7-3.2,2.3   c0-2.1,0.2-4.2,0.2-6.3c0.2-4.2,0.2-8.2,0.4-12.4h-1.5c-0.2,4-0.4,8.2-0.6,12.2c-0.2,6.1-0.4,12-0.6,17.7   c-0.2,5.7-0.2,10.9-0.4,15.6c-0.2,9-0.2,15.1-0.2,15.1s0.4-6.1,1.1-15.1c0.2-4.6,0.6-9.9,0.8-15.6c0.2-3.6,0.4-7.1,0.4-10.9   c0.8-0.4,2.1-1.3,3.8-2.1c1.5-0.8,3.4-1.7,5.5-2.5s4.2-1.7,6.5-2.3c4.6-1.3,9-2.5,12.6-3.4c2.3-0.6,4-1.3,5-1.5l0,0   c6.1,8.2,12.4,16.8,18.9,25.4c6.5,8.6,13,17.2,18.9,25.4c6.1,8,11.8,15.6,16.6,22.1c9.9,12.8,16.4,21.4,16.4,21.4   s-6.3-8.8-15.8-21.9C192.9,222.7,187.2,215.2,181.4,207z"/>
	<path class="st1" d="M104,166c-1.1-1.1-2.5-2.1-4-3.4c-1.5-1.3-3.2-2.3-4.8-3.6c-0.8-0.4-1.7-1.1-2.7-1.5c-0.8-0.4-1.9-0.8-2.7-1.1   c-1.9-0.6-3.6-0.8-5-1.3c-1.5-0.2-2.7-0.4-3.6-0.4c-0.2,0-0.2,0-0.4,0c1.3-1.9,2.5-3.6,4-5.3H83c-1.1,1.3-1.9,2.5-2.9,4   c0-0.6,0-1.3,0-2.1c0-0.6-0.2-1.3-0.2-1.9h-1.3c0.2,0.6,0.4,1.5,0.6,2.1c0.2,0.8,0.4,1.7,0.6,2.3c-0.4,0.6-0.8,1.1-1.3,1.7   c-2.9,3.8-5.7,7.8-8.4,11.6c0.2-0.6,0.2-1.5,0.4-2.3c0.2-1.3,0.2-2.7,0-4.4c-0.2-1.7-0.4-3.4-1.3-5c-0.4-0.8-1.1-1.5-1.7-2.1   c-0.6-0.6-1.1-1.3-1.7-1.9c-0.6-0.6-1.3-1.3-1.7-1.9h-1.5c0.6,0.8,1.5,1.7,2.1,2.7c0.4,0.6,1.1,1.3,1.5,1.9   c0.4,0.6,1.1,1.3,1.5,1.9c0.6,1.3,1.1,2.9,1.3,4.4c0.2,1.5,0.4,2.9,0.4,4.2c0,1.3,0.2,2.3,0.2,2.9c-0.8,1.3-1.9,2.5-2.7,3.6   c-3.6,5-6.9,9.7-9.9,13.7c-5.7,8-9.5,13.4-9.5,13.4s4.2-5.3,10.3-13c2.9-4,6.5-8.6,10.3-13.4c3.8-5,7.8-10.3,11.8-15.6   c0.4-0.4,0.6-0.8,1.1-1.3c0.8,0.2,2.3,0.6,4,1.3c1.5,0.4,3.2,1.1,4.8,1.7c0.8,0.4,1.7,0.6,2.5,1.1c0.8,0.4,1.7,0.8,2.5,1.5   c1.7,1.1,3.4,2.1,4.8,3.4c1.5,1.1,2.9,2.1,4.2,2.9c2.5,1.7,4.2,2.7,4.2,2.7S106.3,167.9,104,166z"/>
	<path class="st1" d="M53.4,149.4c-1.1,0.8-1.7,1.3-1.7,1.3s0.8-0.4,2.3-1.3H53.4z"/>
	<path class="st1" d="M202.6,137.2v0.6c5.3,1.3,8.4,1.9,8.4,1.9S207.8,138.9,202.6,137.2z"/>
	<path class="st1" d="M55.1,62.8c3.8,3.4,7.8,7.1,11.8,10.7c-0.4,0.6-1.5,1.9-2.5,3.4c-0.8,1.3-1.9,2.7-2.7,4.2   c-0.4,0.8-1.1,1.7-1.5,2.5l-0.6,1.3l-0.4,0.6l-0.4,0.6c-0.4,0.8-1.1,1.5-1.7,2.1s-1.3,1.3-1.9,1.9c-1.3,1.3-2.5,2.3-3.8,3.2   c-1.1,0.8-1.9,1.5-2.5,1.9c0.2,0,0.6,0,0.8-0.2c0.6-0.4,1.3-0.6,2.1-1.3c1.3-0.8,2.7-1.7,4.2-2.9c0.6-0.6,1.5-1.3,2.1-1.9   c0.6-0.6,1.5-1.5,1.9-2.3l0.4-0.6l0.4-0.6l0.6-1.3c0.4-0.8,0.8-1.7,1.3-2.5c0.8-1.7,1.7-3.2,2.3-4.4c0.8-1.7,1.5-2.9,1.9-3.8   c0.6,0.6,1.5,1.3,2.1,1.9c2.1,1.9,4.4,3.8,6.5,5.7c-0.2,0.6-0.4,1.7-0.6,2.7c-0.2,1.1-0.4,2.3-0.8,3.6c-0.2,1.3-0.6,2.7-1.3,4   c-0.2,0.6-0.6,1.3-0.8,1.9c-0.4,0.6-0.6,1.3-1.1,1.7c-0.4,0.4-0.6,1.1-1.1,1.5c0.8-0.6,1.7-1.1,2.5-1.3c0.2-0.4,0.6-0.6,0.8-1.1   c0.4-0.6,0.8-1.3,1.1-2.1c1.1-2.9,1.3-5.9,1.5-8.2c0-1.1,0-1.9,0-2.7c2.5,2.3,5,4.6,7.6,6.7c1.7,1.5,3.4,2.9,5,4.4   c-0.4,0.8-0.6,1.7-0.8,2.5h1.1c0-0.8,0.2-1.5,0.2-2.3c1.1,0.8,1.9,1.7,2.9,2.5c1.1,0.2,2.1,0.8,2.9,1.5c0,0,0,0,0.2,0   c-1.7-1.5-3.4-3.2-5-4.8c0.2,0,0.6,0,1.1-0.2c1.1-0.2,2.5-0.8,4-1.7c0.2-0.2,0.6-0.4,0.8-0.8c0.2-0.2,0.6-0.6,0.8-0.8   c0.4-0.6,0.8-1.3,1.1-1.7c0-0.2,0.2-0.4,0.2-0.6c1.1,2.1,1.9,4.2,2.9,6.3c0.4,0.8,0.8,1.9,1.3,2.7h1.5c-0.4-1.1-0.8-2.1-1.5-3.2   c-0.8-2.1-1.9-4.2-2.9-6.3c0.4,0.2,0.6,0.4,1.3,0.6c1.5,0.6,3.4,1.3,5.5,1.5c0.4,0,1.1,0.2,1.5,0.2s1.1,0,1.5,0   c1.1,0,1.9-0.2,2.7-0.4c0.6-0.2,1.3-0.6,1.5-0.8c-0.2,2.9-0.6,5.9-0.8,8.4v0.2h0.8l0,0c0.2-2.1,0.6-4.6,0.8-6.9l0,0   c0.2,0.6,0.4,1.5,0.8,2.3c0.2,0.4,0.4,0.8,0.8,1.3c0.2,0.4,0.6,0.8,1.1,1.1l0.2,0.2l0.2,0.2h0.2c0.2,0.2,0.4,0.2,0.6,0.2   c0.4,0.2,1.1,0.2,1.5,0.2c0.8,0,1.7,0,2.5,0c0.6-0.2,1.1-0.2,1.5-0.4c-0.4,0.6-0.8,1.3-1.3,1.9h1.3c0.4-0.6,0.8-1.1,1.3-1.7   c0.2,0.2,0.2,0.6,0.4,1.1c0,0.2,0.2,0.4,0.2,0.6h1.5c-0.2-0.4-0.6-0.8-0.8-1.1c-0.4-0.4-0.8-0.6-1.1-0.8c1.9-2.7,4-5.7,6.1-8.6   c0.8-1.3,1.7-2.5,2.7-3.8c0,0.4,0.2,1.1,0.2,1.7c0.4,1.7,1.1,4,2.3,5.9c0.6,1.1,1.3,2.1,2.1,2.7c0.8,0.8,1.7,1.3,2.5,1.7   c0.6,0.4,1.3,0.4,1.9,0.4c-1.1,0.6-1.9,1.1-2.9,1.7c0.2,0,0.4,0,0.8,0.2v-0.2h2.1c0.4-0.2,0.6-0.4,1.1-0.6c0,0.2,0,0.4-0.2,0.6h0.6   c0-0.2-0.2-0.6-0.2-0.8c0.6-0.4,1.3-0.6,2.1-1.1c4.2-2.3,8.4-4.6,12.8-6.9c0,0.4,0,1.3,0.2,2.1c0.2,1.7,0.6,3.8,1.1,5.7   c0,0.4,0.2,0.6,0.2,1.1h1.7c0-0.4-0.2-1.1-0.4-1.5c-0.4-2.1-1.3-4-1.7-5.7c-0.4-0.8-0.6-1.5-0.8-1.9c2.3-1.3,4.8-2.5,7.1-3.8   c6.9-3.8,13.7-7.6,20.2-11.1c6.3-3.6,12.4-6.9,17.4-9.9c10.3-5.9,17-9.7,17-9.7s-6.9,3.6-17.4,9c-5.3,2.7-11.1,5.9-17.7,9.5   c-4.2,2.3-8.6,4.6-13.2,7.1c-0.2,0-0.2,0-0.4,0c-0.8-0.2-2.3-0.6-3.8-1.1c-1.5-0.4-3.2-1.3-4.8-2.3c-0.8-0.4-1.7-1.1-2.3-1.9   c-0.6-0.6-1.5-1.5-1.9-2.3c-1.3-1.9-2.1-3.6-3.2-5.5c-0.8-1.9-1.7-3.6-2.5-5c-0.8-1.9-1.7-3.4-1.9-4.2c0.6-1.1,1.5-2.1,2.1-3.2   c3.6-5.3,6.9-10.3,9.9-14.5c5.7-8.4,9.5-14.3,9.5-14.3s-4.2,5.5-10.1,13.7c-2.9,4.2-6.5,9-10.3,14.3c-0.6,0.8-1.3,1.9-1.9,2.7   c-0.8-0.6-2.5-1.7-4.8-3.2c-1.7-1.1-3.6-2.1-5.9-3.2c-1.1-0.6-2.1-1.1-3.4-1.7c-0.6-0.2-1.1-0.6-1.7-0.8l-1.5-1.1   c-2.1-1.5-3.8-3.2-5.5-5c-1.7-1.7-3.2-3.6-4.2-5c-1.3-1.5-2.1-2.9-2.7-3.8c-0.2-0.2-0.4-0.4-0.4-0.6c0.4-4.2,0.8-8,1.1-11.6   c1.1-10.5,1.5-17.7,1.5-17.7s-1.1,6.9-2.5,17.4c-0.6,5.3-1.5,11.3-2.3,17.9c-0.6,5.3-1.3,10.7-1.9,16.4c-0.8,0.4-2.1,1.1-3.8,1.9   c-1.5,0.6-3.2,1.5-4.8,2.1c-1.9,0.6-3.8,1.3-5.7,1.5c-1.1,0.2-1.9,0-2.9,0c-1.1,0-2.1,0-2.9,0c-1.9,0-3.8,0.2-5.3,0.2   c-1.5,0-2.9,0.2-3.8,0.2c-0.4,0-0.6,0-0.8,0c-0.2-0.4-0.4-1.1-0.8-1.5c-2.9-6.1-5.3-10.3-5.3-10.3s1.7,4.2,4.4,10.7   c1.5,3.2,2.9,6.9,4.6,10.7c0.2,0.6,0.6,1.5,0.8,2.1c-0.2,0.6-0.4,1.3-0.8,2.1c-0.4,0.8-0.8,1.9-1.3,2.9c-0.2,0.6-0.6,1.1-1.1,1.5   s-0.8,0.8-1.3,1.1c-0.6,0.4-1.1,0.6-1.7,0.8c-0.6,0.2-1.3,0.4-1.7,0.6c-1.3,0.2-2.3,0.6-3.4,0.6C78,78.8,77.1,79,76.5,79   c-2.1-1.9-4.2-4-6.5-5.9c-4.8-4.4-9.7-8.6-14.3-12.8c-4.6-4-8.8-7.8-12.6-10.9C35.7,43,30.7,38.8,30.7,38.8s4.6,4.6,11.8,11.1   C46.4,54.8,50.4,58.6,55.1,62.8z M112.8,86.1C112.6,86.1,112.6,86.1,112.8,86.1c-0.4,0.2-1.1,0.2-1.9,0.4c-0.6,0-1.5,0-2.5,0   c-0.4,0-0.8,0-1.5-0.2c-0.4,0-1.1-0.2-1.5-0.2c-1.9-0.2-4-0.6-5.5-0.8c-0.6,0-1.3-0.2-1.7-0.2c-0.8-1.9-1.7-3.6-2.5-5.5   c-1.7-3.4-3.2-6.7-4.6-10.1c0.6,0.4,1.7,0.8,2.7,1.3c2.3,1.1,5.5,2.3,9,2.7c0.8,0,1.7,0.2,2.7,0c0.8-0.2,1.7-0.4,2.5-0.6   c1.5-0.6,2.7-1.5,3.8-2.1c1.1-0.8,1.9-1.5,2.3-1.9c-0.2,2.7-0.6,5.5-0.8,8.2C113.3,80.2,113.1,83.2,112.8,86.1z M129.7,84   c-2.1,3.2-4.2,6.1-6.1,9c-0.4,0-1.1,0-1.7-0.2c-0.6,0-1.5-0.2-2.3-0.4c-0.4,0-0.8-0.2-1.1-0.4c-0.2,0-0.4-0.2-0.6-0.2h-0.2l0,0   l-0.2-0.2c-0.2-0.2-0.6-0.4-0.8-0.8c-0.2-0.4-0.6-0.6-0.8-1.1c-0.4-0.6-0.8-1.3-1.3-1.9c-0.2-0.4-0.4-0.8-0.6-1.1   c0.4-3.2,0.8-6.3,1.3-9.7c0.2-2.5,0.6-5.3,1.1-8c0.2,0.6,0.6,1.3,1.1,1.9c1.1,1.9,2.7,4.2,5.3,6.1c0.6,0.4,1.3,0.8,1.9,1.3   c0.6,0.4,1.3,0.6,1.9,0.8c1.3,0.4,2.5,0.6,3.6,0.8c1.1,0,1.9,0,2.5,0C131.3,81.3,130.5,82.8,129.7,84z M145.2,92.2   c-0.8,0.4-1.5,0.8-2.3,1.3c-0.4-0.2-1.1-0.6-1.7-1.1c-0.6-0.4-1.3-1.1-2.1-1.9c-0.6-0.8-1.3-1.7-1.9-2.5c-1.1-1.9-2.1-4-2.7-5.5   c-0.4-0.8-0.6-1.5-0.8-1.9c2.7-4,5.7-8.2,8.6-12.2c0.4-0.6,0.8-1.3,1.3-1.9c0,0.8,0,1.7,0,2.9s0.2,2.9,0.6,4.6   c0.2,0.8,0.4,1.7,0.6,2.5c0.4,0.8,0.6,1.7,1.3,2.5l0.4,0.6c0.2,0.2,0.4,0.4,0.4,0.6c0.2,0.4,0.6,0.6,1.1,1.1   c0.6,0.6,1.5,1.1,2.1,1.5c1.5,0.8,2.9,1.5,4.2,1.9c1.3,0.4,2.3,0.6,3.2,0.8C153.2,87.8,149,89.9,145.2,92.2z M151.3,55.2   c0.2,0.8,0.6,2.5,1.3,4.4c0.6,1.5,1.3,3.4,2.1,5.3c0.4,0.8,0.8,1.9,1.5,2.9c0.4,1.1,1.1,1.9,1.7,2.7c0.6,1.1,1.5,1.9,2.3,2.5   c0.8,0.6,1.7,1.3,2.7,1.9c1.9,1.1,3.8,1.5,5.3,1.9c0.8,0.2,1.5,0.2,2.3,0.4c0.6,0,1.3,0.2,1.7,0.2l0,0c-2.3,1.3-4.4,2.3-6.7,3.6   c-2.5,1.5-5,2.7-7.6,4.2h-0.2c-0.6-0.2-1.7-0.8-2.9-1.3c-1.3-0.6-2.5-1.3-3.8-2.3c-0.6-0.4-1.3-1.1-1.9-1.5   c-0.2-0.2-0.6-0.6-0.8-0.8l-0.4-0.4l-0.4-0.6c-0.4-0.6-0.8-1.5-1.1-2.1c-0.2-0.8-0.6-1.5-0.8-2.3c-0.4-1.5-0.8-2.9-1.1-4.4   c-0.2-1.5-0.4-2.5-0.6-3.4C146.5,62.4,149,58.8,151.3,55.2z M119.8,35.9c0.2-2.1,0.4-4.2,0.6-6.3c0.4,1.1,1.3,2.7,2.5,4.6   c1.1,1.7,2.3,3.6,4,5.5s3.4,3.8,5.5,5.5c0.6,0.4,1.1,0.8,1.7,1.1c0.6,0.4,1.1,0.6,1.7,1.1c1.1,0.6,2.3,1.1,3.4,1.7   c2.1,1.1,4.2,1.9,6.1,2.7c2.5,1.1,4.4,1.9,5.3,2.3c-2.5,3.6-5,7.1-7.6,10.9c-0.2,0-0.2,0-0.4,0c-0.8,0-2.1-0.2-3.4-0.6   c-1.5-0.2-2.9-0.6-4.6-1.1c-0.8-0.2-1.7-0.6-2.5-0.8c-0.4-0.2-0.8-0.4-1.3-0.6c-0.4-0.2-0.8-0.4-1.3-0.6c-1.5-0.8-3.2-2.1-4.4-3.2   c-1.5-1.1-2.7-2.1-3.8-3.2c-1.5-1.1-2.5-2.1-3.2-2.5C118.5,46.8,119.2,41.2,119.8,35.9z M117.5,56.5c0.2-1.3,0.2-2.7,0.4-4   c0.4,0.6,1.3,1.7,2.5,2.9c1.1,1.1,2.1,2.3,3.6,3.4c1.3,1.3,2.9,2.3,4.6,3.4c0.4,0.2,0.8,0.4,1.3,0.6c0.4,0.2,0.8,0.4,1.5,0.6   c0.8,0.4,1.9,0.6,2.7,0.8c1.9,0.4,3.6,0.6,4.8,0.6c1.7,0,2.9,0,3.8,0c-0.6,0.8-1.1,1.7-1.7,2.3c-2.9,4.2-5.7,8.2-8.4,12.2   c-0.6,0-1.5-0.2-2.5-0.6c-1.1-0.2-2.1-0.6-3.4-1.3c-0.6-0.2-1.3-0.6-1.7-0.8c-0.6-0.4-1.1-0.6-1.7-1.1c-1.1-0.8-2.1-1.7-2.9-2.7   c-0.8-0.8-1.7-1.9-2.5-2.7c-0.6-0.8-1.3-1.5-1.7-1.9C116.4,64.7,117,60.7,117.5,56.5z M86.2,58.6c0.2,0,0.4,0,0.8,0   c0.8,0,2.1,0.2,3.8,0.2c1.5,0,3.4,0.2,5.3,0.2c1.1,0,1.9,0,2.9,0c1.1,0,2.1,0,3.2-0.2c4.4-0.6,8-2.7,10.7-4.2   c1.5-1.1,2.7-1.9,3.4-2.3c-0.2,1.3-0.2,2.7-0.4,4c-0.4,4-0.8,8-1.3,12c0,0-0.2,0-0.2,0.2c-0.6,0.4-1.5,0.8-2.7,1.5   c-1.1,0.6-2.5,1.3-3.8,1.7c-0.6,0.2-1.5,0.4-2.3,0.4c-0.6,0-1.7,0-2.3,0c-1.7-0.2-3.2-0.6-4.6-0.8c-1.5-0.4-2.9-0.8-4.2-1.1   c-1.5-0.4-2.5-0.6-3.2-0.8c-0.2-0.6-0.6-1.3-0.8-1.9C88.9,64.3,87.4,61.1,86.2,58.6z M79.2,80.9c1.1,0,2.3,0,3.6-0.2   c0.6-0.2,1.3-0.2,1.9-0.4c0.6-0.2,1.5-0.4,1.9-0.8c0.6-0.4,1.3-1.1,1.7-1.5c0.4-0.6,0.8-1.3,1.1-1.9c0.4-1.3,0.8-2.3,1.1-3.4   c0-0.6,0.2-1.3,0.2-1.7c1.5,3.2,2.9,6.3,4.2,9.7c0.8,1.7,1.7,3.6,2.5,5.3c-0.2,0.2-0.4,0.4-0.6,0.8c-0.4,0.4-0.8,0.8-1.3,1.3   c-0.2,0.2-0.4,0.4-0.8,0.6c-0.2,0.2-0.4,0.4-0.8,0.6c-1.1,0.8-2.5,1.5-3.4,2.1c-0.4,0.2-0.8,0.6-1.1,0.6c-1.5-1.5-3.2-2.9-4.8-4.4   c-2.3-2.1-4.8-4.4-7.4-6.7C77.5,80.7,78.2,80.9,79.2,80.9z"/>
</g>
<g>
	<path class="st2" d="M59.9,134.7h-2.9l-1.9,10.7h-1.5l1.9-10.7h-2.9l0.2-1.3h7.6L59.9,134.7z"/>
	<path class="st2" d="M63.9,137.8c-0.2,0-0.4,0-0.6,0c-0.6,0-1.3,0.4-1.7,1.3l-1.1,6.3h-1.5l1.5-8.8H62l-0.2,0.8   c0.4-0.8,1.1-1.1,1.7-1.1c0.2,0,0.4,0,0.6,0.2L63.9,137.8z"/>
	<path class="st2" d="M68.3,145.4c0-0.2,0-0.4,0-0.4v-0.4c-0.6,0.8-1.3,1.1-2.1,1.1c-0.6,0-1.3-0.2-1.7-0.6   c-0.4-0.4-0.6-1.1-0.6-1.9s0.4-1.7,1.1-2.3c0.6-0.6,1.7-0.8,2.7-0.8h1.1l0.2-0.8c0-1.1-0.2-1.5-1.1-1.5c-0.4,0-0.8,0.2-1.1,0.4   c-0.2,0.2-0.4,0.6-0.6,1.1h-1.5c0-0.8,0.4-1.5,1.1-1.9c0.6-0.4,1.3-0.8,2.1-0.8s1.5,0.2,1.9,0.6c0.4,0.4,0.6,1.1,0.4,2.1l-0.6,4.4   c0,0.2,0,0.6,0,0.8v0.8v0.2H68.3z M66.4,144.1c0.6,0,1.3-0.4,1.9-1.1l0.4-2.1h-0.6c-0.6,0-1.1,0-1.5,0.2s-0.8,0.4-0.8,0.8   c0,0.4-0.2,0.8-0.2,1.3C65.6,143.9,65.8,144.1,66.4,144.1z"/>
	<path class="st2" d="M74.4,143.1l2.7-6.7h1.5l-4,8.8h-1.1l-1.3-8.8h1.5L74.4,143.1z"/>
	<path class="st2" d="M83,145.4c0-0.2,0-0.4,0-0.4v-0.4c-0.6,0.8-1.3,1.1-2.1,1.1c-0.6,0-1.3-0.2-1.7-0.6c-0.4-0.4-0.6-1.1-0.6-1.9   s0.4-1.7,1.1-2.3c0.6-0.6,1.7-0.8,2.7-0.8h1.1l0.2-0.8c0-1.1-0.2-1.5-1.1-1.5c-0.4,0-0.8,0.2-1.1,0.4c-0.2,0.2-0.4,0.6-0.6,1.1   h-1.5c0-0.8,0.4-1.5,1.1-1.9c0.6-0.4,1.3-0.8,2.1-0.8s1.5,0.2,1.9,0.6c0.4,0.4,0.6,1.1,0.4,2.1l-0.6,4.4c0,0.2,0,0.6,0,0.8v0.8v0.2   H83z M81.1,144.1c0.6,0,1.3-0.4,1.9-1.1l0.4-2.1h-0.6c-0.6,0-1.1,0-1.5,0.2s-0.8,0.4-0.8,0.8c0,0.4-0.2,0.8-0.2,1.3   C80.3,143.9,80.5,144.1,81.1,144.1z"/>
	<path class="st2" d="M90.8,144.5c-0.6,0.6-1.3,1.1-2.1,1.1c-0.6,0-1.1-0.2-1.5-0.6c-0.4-0.4-0.4-1.1-0.4-1.9v-0.8l1.1-5.7h1.5   l-1.1,5.7v0.6c0,0.4,0,0.6,0.2,1.1c0.2,0.2,0.4,0.4,0.6,0.4c0.8,0,1.5-0.4,1.9-1.3l1.1-6.5h1.5l-1.5,8.8h-1.3L90.8,144.5z"/>
	<path class="st2" d="M97.7,139.7l1.9-3.2h1.7l-3.2,4.4l1.7,4.4h-1.5l-1.1-3.4l-2.1,3.4h-1.7l3.2-4.6l-1.7-4.4h1.5L97.7,139.7z"/>
	<path class="st2" d="M111.4,142.2h-4l-1.5,3.2h-1.5l5.9-12h1.3l1.7,12h-1.5L111.4,142.2z M108.2,141h3.2l-0.6-5.5L108.2,141z"/>
	<path class="st2" d="M117.9,144.3c0.4,0,0.8-0.2,1.3-0.4s0.6-0.8,0.6-1.3h1.3c-0.2,0.8-0.4,1.7-1.1,2.1c-0.6,0.4-1.3,0.8-2.1,0.8   s-1.5-0.2-1.9-0.6c-0.4-0.4-0.8-1.1-0.8-1.9c0-0.4,0-1.1,0-1.5l0.2-0.8c0.2-1.5,0.6-2.5,1.3-3.2c0.6-0.6,1.5-1.1,2.5-1.1   c0.8,0,1.5,0.4,1.9,0.8c0.4,0.4,0.6,1.3,0.6,2.3h-1.3c0-1.3-0.4-1.9-1.3-1.9c-1.3,0-2.1,0.8-2.3,2.7c-0.2,1.3-0.2,1.9-0.2,2.3   C116.6,143.7,117,144.3,117.9,144.3z"/>
	<path class="st2" d="M127.3,137.8c-0.2,0-0.4,0-0.6,0c-0.6,0-1.3,0.4-1.7,1.3l-1.1,6.3h-1.5l1.5-8.8h1.5l-0.2,0.8   c0.4-0.8,1.1-1.1,1.7-1.1c0.2,0,0.4,0,0.6,0.2L127.3,137.8z"/>
	<path class="st2" d="M127.8,140.6c0.2-1.3,0.6-2.3,1.3-3.2c0.6-0.8,1.5-1.3,2.5-1.1c0.6,0,1.3,0.2,1.7,0.6c0.4,0.4,0.8,0.8,0.8,1.5   s0.2,1.3,0.2,2.1v0.8c-0.2,1.3-0.6,2.3-1.3,3.2s-1.5,1.1-2.5,1.1c-0.6,0-1.3-0.2-1.7-0.6c-0.4-0.4-0.8-0.8-0.8-1.5   s-0.2-1.3-0.2-2.1V140.6z M129,141.8c0,0.6,0,1.3,0.4,1.7c0.4,0.4,0.6,0.6,1.1,0.6c0.6,0,1.3-0.2,1.7-0.6c0.4-0.4,0.6-1.3,0.8-2.1   l0.2-1.1v-0.6c0-0.8,0-1.3-0.4-1.7c-0.4-0.4-0.6-0.6-1.1-0.6c-0.6,0-1.3,0.2-1.7,0.8c-0.4,0.6-0.6,1.3-0.8,2.3v0.8L129,141.8z"/>
	<path class="st2" d="M139.1,145.4c-0.8,0-1.5-0.4-1.9-1.3l-0.2,1.1h-1.5l2.1-12.6h1.5l-0.8,4.6c0.6-0.8,1.3-1.3,2.1-1.1   c0.8,0,1.3,0.2,1.7,0.8c0.4,0.6,0.6,1.3,0.6,2.5c0,0.6,0,1.3-0.2,1.9c-0.2,0.6-0.2,1.3-0.4,1.9   C141.4,144.8,140.4,145.6,139.1,145.4z M141.2,139.3c0-0.6-0.2-1.1-0.4-1.3c-0.2-0.2-0.6-0.4-1.1-0.4c-0.6,0-1.3,0.4-1.9,1.3   l-0.6,4.2c0.2,0.8,0.6,1.3,1.5,1.3c0.6,0,1.1-0.2,1.5-0.6c0.4-0.4,0.6-1.3,0.8-2.3C141.2,140.3,141.2,139.5,141.2,139.3z"/>
	<path class="st2" d="M148.2,145.4c0-0.2,0-0.4,0-0.4v-0.4c-0.6,0.8-1.3,1.1-2.1,1.1c-0.6,0-1.3-0.2-1.7-0.6   c-0.4-0.4-0.6-1.1-0.6-1.9s0.4-1.7,1.1-2.3c0.6-0.6,1.7-0.8,2.7-0.8h1.1l0.2-0.8c0-1.1-0.2-1.5-1.1-1.5c-0.4,0-0.8,0.2-1.1,0.4   c-0.2,0.2-0.4,0.6-0.6,1.1h-1.5c0-0.8,0.4-1.5,1.1-1.9c0.6-0.4,1.3-0.8,2.1-0.8s1.5,0.2,1.9,0.6c0.4,0.4,0.6,1.1,0.4,2.1l-0.6,4.4   c0,0.2,0,0.6,0,0.8v0.8v0.2H148.2z M146.5,144.1c0.6,0,1.3-0.4,1.9-1.1l0.4-2.1h-0.6c-0.6,0-1.1,0-1.5,0.2   c-0.4,0.2-0.8,0.4-0.8,0.8c0,0.4-0.2,0.8-0.2,1.3C145.4,143.9,145.8,144.1,146.5,144.1z"/>
	<path class="st2" d="M155.3,134.2l-0.4,2.1h1.3l-0.2,1.3h-1.3l-0.8,5.5v0.4c0,0.4,0.2,0.6,0.4,0.6c0.2,0,0.4,0,0.6,0l-0.2,1.3   c-0.2,0.2-0.6,0.2-0.8,0.2c-0.4,0-0.8-0.2-1.1-0.6c-0.2-0.4-0.4-1.1-0.2-1.7l0.8-5.5h-1.3l0.2-1.3h1.3l0.4-2.1h1.3V134.2z"/>
	<path class="st2" d="M158,145.4h-1.5l1.5-8.8h1.5L158,145.4z M158.4,134c0-0.2,0-0.4,0.2-0.6c0.2-0.2,0.4-0.2,0.6-0.2   s0.4,0,0.6,0.2s0.2,0.4,0.2,0.6s0,0.4-0.2,0.6c-0.2,0.2-0.4,0.2-0.6,0.2s-0.4,0-0.6-0.2C158.4,134.5,158.4,134.2,158.4,134z"/>
	<path class="st2" d="M164.3,136.3c0.8,0,1.5,0.4,1.9,1.1l0.2-0.8h1.3l-2.1,12.4h-1.5l0.8-4.2c-0.6,0.6-1.3,1.1-1.9,0.8   c-0.8,0-1.5-0.2-1.7-0.8c-0.2-0.6-0.6-1.5-0.6-2.3c0-0.4,0-1.1,0.2-1.9s0.2-1.5,0.6-2.1C162,137,163.1,136.1,164.3,136.3z    M162,142.7c0,1.1,0.4,1.7,1.5,1.7c0.6,0,1.3-0.2,1.7-1.1l0.8-4.8c-0.2-0.6-0.6-1.1-1.3-1.1c-0.6,0-1.3,0.2-1.7,0.6   c-0.4,0.4-0.6,1.3-0.8,2.3C162,141.4,162,142.2,162,142.7z"/>
	<path class="st2" d="M173.2,144.5c-0.6,0.6-1.3,1.1-2.1,1.1c-0.6,0-1.1-0.2-1.5-0.6c-0.4-0.4-0.4-1.1-0.4-1.9v-0.8l1.1-5.7h1.5   l-1.1,5.7v0.6c0,0.4,0,0.6,0.2,1.1c0.2,0.2,0.4,0.4,0.6,0.4c0.8,0,1.5-0.4,1.9-1.3l1.1-6.5h1.5l-1.5,8.8h-1.3V144.5z"/>
	<path class="st2" d="M179.9,145.4c-1.1,0-1.7-0.4-2.3-1.1c-0.6-0.6-0.6-1.7-0.6-2.9l0.2-0.8c0.2-1.5,0.6-2.5,1.3-3.2   c0.6-0.6,1.5-1.3,2.5-1.1c0.8,0,1.5,0.2,1.9,0.8c0.4,0.6,0.6,1.3,0.6,2.3v1.1l-0.2,0.8h-4.8c0,0.4,0,0.8,0,1.3   c0,0.6,0.2,1.1,0.4,1.3c0.2,0.2,0.6,0.4,1.1,0.4c0.4,0,0.6,0,1.1-0.2c0.4-0.2,0.6-0.4,1.1-0.8l0.6,0.8c-0.4,0.4-0.8,0.8-1.3,1.1   C180.9,145.4,180.3,145.4,179.9,145.4z M180.9,137.6c-1.1,0-1.7,0.6-2.1,1.7l-0.2,0.8h3.4v-0.2c0-0.2,0-0.4,0-0.8   C182,138,181.6,137.6,180.9,137.6z"/>
	<path class="st2" d="M188.9,143.1c0-0.4-0.2-1.1-0.8-1.3l-1.1-0.6c-0.6-0.4-1.1-0.6-1.3-1.1c-0.2-0.4-0.4-0.8-0.2-1.3   c0-0.8,0.4-1.5,0.8-1.9c0.4-0.4,1.3-0.6,2.1-0.6s1.5,0.2,1.9,0.8c0.4,0.6,0.6,1.1,0.6,1.9h-1.5c0-0.4,0-0.8-0.2-1.1   c-0.2-0.2-0.4-0.4-0.8-0.4c-0.4,0-0.8,0.2-1.1,0.4c-0.2,0.2-0.4,0.6-0.4,0.8c0,0.4,0.2,0.8,0.6,1.1l1.5,0.6   c1.1,0.6,1.5,1.3,1.5,2.3c0,0.8-0.4,1.5-1.1,1.9c-0.6,0.4-1.3,0.6-2.1,0.6s-1.5-0.2-1.9-0.8c-0.4-0.6-0.8-1.3-0.6-2.1h1.5   c0,0.4,0,0.8,0.4,1.3c0.4,0.4,0.6,0.4,1.1,0.4c0.4,0,0.8-0.2,1.1-0.4S188.7,143.3,188.9,143.1z"/>
</g>
</svg>