<?xml version="1.0" encoding="UTF-8"?>
<!-- Generator: Adobe Illustrator 27.1.1, SVG Export Plug-In . SVG Version: 6.00 Build 0)  -->
<svg xmlns="http://www.w3.org/2000/svg" xmlns:xlink="http://www.w3.org/1999/xlink" version="1.1" id="Calque_1" x="0px" y="0px" viewBox="0 0 98 44.6" style="enable-background:new 0 0 98 44.6;" xml:space="preserve">
<style type="text/css">
	.st0{fill:#513417;}
	.st1{fill:#F18400;}
</style>
<g>
	<path class="st0" d="M70.3,26.8c-0.9,1.6-2.2,3-3.8,4.1c-1.6,1.2-3.3,2-5.3,2.6c-2,0.6-4.1,0.9-6.2,0.9v-4c1.7,0,3.3-0.2,4.7-0.6   c1.4-0.4,2.7-1,3.7-1.8c1-0.8,1.8-1.7,2.4-2.9c0.6-1.1,0.9-2.4,0.9-3.9c0-3.1-1-5.5-3.1-7.1c-2.1-1.6-4.7-2.4-8-2.4   c-3.2,0-5.8,0.8-7.9,2.4c-2,1.6-3.1,4-3.2,7.3h-5c0-2.2,0.5-4.1,1.5-5.8c0.9-1.7,2.1-3.1,3.6-4.3c1.5-1.2,3.2-2,5.1-2.6   C51.6,8.3,53.6,8,55.6,8c2,0,4,0.3,5.9,0.9c1.9,0.6,3.6,1.5,5.1,2.6c1.5,1.2,2.7,2.6,3.6,4.2c0.9,1.7,1.4,3.6,1.4,5.7   C71.7,23.4,71.2,25.2,70.3,26.8"></path>
	<path class="st0" d="M76.2,15.8c0.9-1.7,2.2-3,3.7-4.2c1.5-1.1,3.3-2,5.3-2.6c2-0.6,4-0.9,6.1-1v4c-1.6,0.1-3.2,0.4-4.6,0.9   c-1.4,0.5-2.6,1.1-3.6,2c-1,0.9-1.8,1.9-2.4,3.1c-0.6,1.2-0.9,2.6-0.9,4.2c0,0.9,0.2,1.8,0.7,2.8c0.5,1,1.2,1.9,2.2,2.8   c1,0.8,2.2,1.5,3.7,2.1c1.5,0.5,3.2,0.8,5.1,0.8c1,0,2-0.1,2.9-0.2c1-0.1,2.1-0.4,3.3-0.8v4c-1.1,0.3-2.2,0.5-3.2,0.7   c-1.1,0.2-2.1,0.3-3.2,0.3c-2.2,0-4.2-0.3-6.2-0.9c-2-0.6-3.7-1.5-5.2-2.6c-1.5-1.2-2.7-2.5-3.7-4.1c-0.9-1.6-1.4-3.4-1.4-5.4   C74.8,19.3,75.3,17.4,76.2,15.8"></path>
	<path class="st1" d="M38.5,42.9c-0.5,0.4-1.3,0.8-2.1,0.8c-1.8,0-2.7-1.3-2.7-2.8c0-1.6,0.9-2.7,2.6-2.7c0.6,0,1.2,0.2,1.5,0.6h0   v-0.4h0.6v1.7h-0.6c-0.1-0.8-0.6-1.3-1.5-1.3c-1.2,0-1.8,0.9-1.8,2.1c0,1.3,0.6,2.2,1.8,2.2c0.7,0,1.3-0.3,1.7-0.7L38.5,42.9z"></path>
	<path class="st1" d="M41.8,43.7c-1.5,0-2.5-1.2-2.5-2.8c0-1.6,1-2.8,2.5-2.8c1.5,0,2.5,1.1,2.5,2.8C44.3,42.6,43.3,43.7,41.8,43.7    M41.8,38.8c-1.1,0-1.7,0.8-1.7,2.2c0,1.3,0.6,2.2,1.7,2.2c1.1,0,1.7-0.9,1.7-2.2C43.5,39.6,42.9,38.8,41.8,38.8"></path>
	<polygon class="st1" points="50.4,38.9 49.8,38.9 49.8,43.6 49.1,43.6 46.5,39.4 46.5,43 47.3,43 47.3,43.6 45.2,43.6 45.2,43    45.8,43 45.8,38.9 45.1,38.9 45.1,38.3 46.6,38.3 49.2,42.5 49.2,38.9 48.4,38.9 48.4,38.3 50.4,38.3  "></polygon>
	<polygon class="st1" points="55.6,40.1 54.9,40.1 54.9,38.9 52.5,38.9 52.5,40.6 53.6,40.6 53.6,40 54.2,40 54.2,41.7 53.6,41.7    53.6,41.1 52.5,41.1 52.5,43 53.6,43 53.6,43.6 51,43.6 51,43 51.8,43 51.8,38.9 51,38.9 51,38.3 55.6,38.3  "></polygon>
	<path class="st1" d="M58.8,43.7c-1.5,0-2.5-1.2-2.5-2.8c0-1.6,1-2.8,2.5-2.8c1.5,0,2.5,1.1,2.5,2.8C61.4,42.6,60.4,43.7,58.8,43.7    M58.8,38.8c-1.1,0-1.7,0.8-1.7,2.2c0,1.3,0.6,2.2,1.7,2.2c1.1,0,1.7-0.9,1.7-2.2C60.5,39.6,59.9,38.8,58.8,38.8"></path>
	<path class="st1" d="M67.3,43.6H66c-0.3-0.9-0.8-1.8-1.5-2.2h-1V43h0.8v0.6h-2.2V43h0.7v-4.1h-0.7v-0.6h2.7c1.1,0,1.9,0.5,1.9,1.5   c0,0.8-0.5,1.2-1.3,1.4c0.5,0.4,0.9,1.1,1.2,1.8h0.7V43.6z M64.7,38.9h-1.1v1.8h1.1c0.9,0,1.3-0.4,1.3-1S65.5,38.9,64.7,38.9"></path>
	<polygon class="st1" points="72.5,40.3 71.8,40.3 71.6,38.9 70.3,38.9 70.3,43 71.4,43 71.4,43.6 68.6,43.6 68.6,43 69.6,43    69.6,38.9 68.3,38.9 68.2,40.3 67.5,40.3 67.6,38.3 72.3,38.3  "></polygon>
	<path class="st1" d="M77.9,43.6h-2V43h0.7l-0.4-1.1h-2.1L73.7,43h0.7v0.5h-2V43H73l1.6-4.1h-1.1v-0.6h2.2l1.7,4.6h0.5V43.6z    M76,41.4L75.2,39l-0.9,2.4H76z"></path>
	<polygon class="st1" points="82.7,40.3 82,40.3 81.9,38.9 80.6,38.9 80.6,43 81.6,43 81.6,43.6 78.8,43.6 78.8,43 79.8,43    79.8,38.9 78.5,38.9 78.4,40.3 77.7,40.3 77.9,38.3 82.5,38.3  "></polygon>
	<polygon class="st1" points="86.1,43.6 83.2,43.6 83.2,43 84.3,43 84.3,38.9 83.2,38.9 83.2,38.3 86.1,38.3 86.1,38.9 85,38.9    85,43 86.1,43  "></polygon>
	<path class="st1" d="M89.4,43.7c-1.5,0-2.5-1.2-2.5-2.8c0-1.6,1-2.8,2.5-2.8c1.5,0,2.5,1.1,2.5,2.8C92,42.6,91,43.7,89.4,43.7    M89.4,38.8c-1.1,0-1.7,0.8-1.7,2.2c0,1.3,0.6,2.2,1.7,2.2c1.1,0,1.7-0.9,1.7-2.2C91.1,39.6,90.5,38.8,89.4,38.8"></path>
	<polygon class="st1" points="98,38.9 97.5,38.9 97.5,43.6 96.7,43.6 94.1,39.4 94.1,43 94.9,43 94.9,43.6 92.8,43.6 92.8,43    93.4,43 93.4,38.9 92.7,38.9 92.7,38.3 94.3,38.3 96.8,42.5 96.8,38.9 96.1,38.9 96.1,38.3 98,38.3  "></polygon>
	<path class="st0" d="M19.5,3.5c3.3,0,5.8,0.5,7.7,1.4c1.9,0.9,3.3,2,4.2,3.3c1,1.3,1.6,2.5,1.8,3.7c0.3,1.2,0.4,2.1,0.4,2.6   c0,1.6-0.3,3.1-0.9,4.4c-0.6,1.3-1.4,2.5-2.4,3.4c-1,1-2.2,1.8-3.6,2.5c-1.4,0.7-2.8,1.1-4.4,1.4c1.2,0.8,2.2,1.7,3.2,2.7   c1,1,1.8,2.1,2.6,3.2c0.8,1.1,1.4,2.2,2,3.3c0.6,1.1,1.1,2,1.5,2.9c4-4,6.5-9.9,6.5-16.5C38.1,9.8,29.6,0,19,0   c-3.8,0-7.4,1.3-10.4,3.6H19.5z"></path>
	<path class="st1" d="M22.8,34.2c-1.2-1.5-2.5-2.9-3.9-4c-1.4-1.1-3.2-2.1-5.2-2.9H9.8v-4.9H16c2.7,0,4.8-0.3,6.3-0.9   c1.5-0.6,2.6-1.3,3.4-2.1c0.8-0.8,1.2-1.6,1.4-2.4c0.2-0.8,0.3-1.4,0.3-1.8c0-0.4-0.1-1-0.2-1.7c-0.1-0.7-0.5-1.5-1.1-2.2   c-0.6-0.7-1.4-1.4-2.6-1.9c-1.2-0.6-2.7-0.8-4.8-0.8H4c-2.5,3.7-4,8.3-4,13.4l0,0.1v21.8h19c2.9,0,5.7-0.8,8.1-2.1   c-0.4-0.8-0.8-1.6-1.1-2.3C25,37.4,24,35.7,22.8,34.2"></path>
</g>
</svg>
